G75*
%MOIN*%
%OFA0B0*%
%FSLAX24Y24*%
%IPPOS*%
%LPD*%
%AMOC8*
5,1,8,0,0,1.08239X$1,22.5*
%
%ADD10C,0.1142*%
%ADD11R,0.0591X0.0434*%
%ADD12R,0.0473X0.0434*%
%ADD13R,0.0434X0.0473*%
%ADD14R,0.0512X0.0257*%
%ADD15R,0.0886X0.2205*%
%ADD16R,0.0316X0.0512*%
%ADD17R,0.0670X0.0749*%
%ADD18R,0.0157X0.0413*%
%ADD19R,0.0197X0.0197*%
%ADD20R,0.1181X0.1181*%
%ADD21R,0.0413X0.0157*%
%ADD22C,0.0900*%
%ADD23C,0.1540*%
%ADD24C,0.0516*%
%ADD25C,0.0740*%
%ADD26R,0.0290X0.0540*%
D10*
X001361Y001878D03*
X008448Y001878D03*
X008448Y016051D03*
X001361Y016051D03*
D11*
X004575Y011506D03*
X005441Y011132D03*
X005441Y011880D03*
X007579Y011876D03*
X007579Y011128D03*
X008446Y011502D03*
X008446Y012808D03*
X008446Y013556D03*
X007579Y013182D03*
D12*
X006572Y013517D03*
X006572Y012847D03*
X006572Y011837D03*
X006572Y011167D03*
X005492Y012847D03*
X005492Y013517D03*
X004412Y013517D03*
X004412Y012847D03*
X003155Y011137D03*
X002485Y011137D03*
D13*
X002485Y012097D03*
X003155Y012097D03*
X003155Y010177D03*
X002485Y010177D03*
X001082Y009071D03*
X001082Y008402D03*
X004492Y010177D03*
X005161Y010177D03*
X006052Y010177D03*
X006721Y010177D03*
X007765Y010177D03*
X008435Y010177D03*
X007676Y014683D03*
X007007Y014683D03*
X007507Y004258D03*
X007507Y003589D03*
X008448Y003589D03*
X008448Y004258D03*
D14*
X003144Y008309D03*
X003144Y008683D03*
X003144Y009057D03*
X002121Y009057D03*
X002121Y008309D03*
D15*
X001589Y006602D03*
X003101Y006602D03*
D16*
X001322Y010289D03*
X001322Y011745D03*
D17*
X001789Y013177D03*
X001789Y014377D03*
X002891Y014377D03*
X002891Y013177D03*
X002511Y004465D03*
X001409Y004465D03*
D18*
X006676Y005608D03*
X006873Y005608D03*
X007070Y005608D03*
X007267Y005608D03*
X007463Y005608D03*
X007660Y005608D03*
X007857Y005608D03*
X007857Y007596D03*
X007660Y007596D03*
X007463Y007596D03*
X007267Y007596D03*
X007070Y007596D03*
X006873Y007596D03*
X006676Y007596D03*
D19*
X006439Y005775D03*
D20*
X007267Y006602D03*
D21*
X008261Y006602D03*
X008261Y006406D03*
X008261Y006209D03*
X008261Y006012D03*
X008261Y006799D03*
X008261Y006996D03*
X008261Y007193D03*
X006273Y007193D03*
X006273Y006996D03*
X006273Y006799D03*
X006273Y006602D03*
X006273Y006406D03*
X006273Y006209D03*
X006273Y006012D03*
D22*
X005574Y016051D03*
X004196Y016051D03*
D23*
X003467Y002299D03*
X006341Y002299D03*
D24*
X005219Y003339D02*
X005219Y003815D01*
X004904Y004327D02*
X004904Y004802D01*
X004274Y004802D02*
X004274Y004327D01*
X004589Y003815D02*
X004589Y003339D01*
X005534Y004327D02*
X005534Y004802D01*
D25*
X005353Y008959D03*
X006353Y008959D03*
X007353Y008959D03*
X004353Y008959D03*
D26*
X004899Y007273D03*
X005223Y007273D03*
X004862Y005930D03*
X004538Y005930D03*
M02*
