G75*
%MOIN*%
%OFA0B0*%
%FSLAX24Y24*%
%IPPOS*%
%LPD*%
%AMOC8*
5,1,8,0,0,1.08239X$1,22.5*
%
%ADD10C,0.0860*%
%ADD11C,0.1500*%
%ADD12C,0.0476*%
%ADD13C,0.0700*%
%ADD14C,0.0160*%
%ADD15C,0.0357*%
%ADD16C,0.0120*%
%ADD17C,0.0396*%
D10*
X004196Y016051D03*
X005574Y016051D03*
D11*
X006341Y002299D03*
X003467Y002299D03*
D12*
X004589Y003339D02*
X004589Y003815D01*
X004274Y004327D02*
X004274Y004802D01*
X004904Y004802D02*
X004904Y004327D01*
X005219Y003815D02*
X005219Y003339D01*
X005534Y004327D02*
X005534Y004802D01*
D13*
X005353Y008959D03*
X006353Y008959D03*
X007353Y008959D03*
X004353Y008959D03*
D14*
X000660Y002635D02*
X000660Y015294D01*
X000728Y015226D01*
X000963Y015090D01*
X001225Y015020D01*
X001497Y015020D01*
X001759Y015090D01*
X001994Y015226D01*
X002186Y015418D01*
X002322Y015653D01*
X002392Y015915D01*
X002392Y016187D01*
X002322Y016449D01*
X002186Y016684D01*
X002118Y016752D01*
X007691Y016752D01*
X007623Y016684D01*
X007487Y016449D01*
X007417Y016187D01*
X007417Y015915D01*
X007487Y015653D01*
X007623Y015418D01*
X007815Y015226D01*
X008050Y015090D01*
X008312Y015020D01*
X008583Y015020D01*
X008846Y015090D01*
X009081Y015226D01*
X009149Y015294D01*
X009149Y002635D01*
X009081Y002703D01*
X008846Y002839D01*
X008583Y002909D01*
X008312Y002909D01*
X008050Y002839D01*
X007815Y002703D01*
X007623Y002511D01*
X007487Y002276D01*
X007417Y002014D01*
X007417Y001742D01*
X007487Y001480D01*
X007623Y001245D01*
X007691Y001177D01*
X002118Y001177D01*
X002186Y001245D01*
X002322Y001480D01*
X002392Y001742D01*
X002392Y002014D01*
X002322Y002276D01*
X002186Y002511D01*
X001994Y002703D01*
X001759Y002839D01*
X001497Y002909D01*
X001225Y002909D01*
X000963Y002839D01*
X000728Y002703D01*
X000660Y002635D01*
X000660Y002757D02*
X000822Y002757D01*
X000660Y002916D02*
X002769Y002916D01*
X002679Y002826D02*
X002941Y003088D01*
X003282Y003229D01*
X003652Y003229D01*
X003994Y003088D01*
X004256Y002826D01*
X004397Y002484D01*
X004397Y002114D01*
X004256Y001772D01*
X003994Y001511D01*
X003652Y001369D01*
X003282Y001369D01*
X002941Y001511D01*
X002679Y001772D01*
X002537Y002114D01*
X002537Y002484D01*
X002679Y002826D01*
X002651Y002757D02*
X001900Y002757D01*
X002099Y002599D02*
X002585Y002599D01*
X002537Y002440D02*
X002227Y002440D01*
X002319Y002282D02*
X002537Y002282D01*
X002537Y002123D02*
X002363Y002123D01*
X002392Y001965D02*
X002599Y001965D01*
X002665Y001806D02*
X002392Y001806D01*
X002367Y001648D02*
X002804Y001648D01*
X002992Y001489D02*
X002325Y001489D01*
X002236Y001331D02*
X007573Y001331D01*
X007484Y001489D02*
X006816Y001489D01*
X006868Y001511D02*
X007130Y001772D01*
X007271Y002114D01*
X007271Y002484D01*
X007130Y002826D01*
X006868Y003088D01*
X006526Y003229D01*
X006156Y003229D01*
X005815Y003088D01*
X005553Y002826D01*
X005411Y002484D01*
X005411Y002114D01*
X005553Y001772D01*
X005815Y001511D01*
X006156Y001369D01*
X006526Y001369D01*
X006868Y001511D01*
X007005Y001648D02*
X007442Y001648D01*
X007417Y001806D02*
X007144Y001806D01*
X007210Y001965D02*
X007417Y001965D01*
X007446Y002123D02*
X007271Y002123D01*
X007271Y002282D02*
X007490Y002282D01*
X007582Y002440D02*
X007271Y002440D01*
X007224Y002599D02*
X007710Y002599D01*
X007909Y002757D02*
X007158Y002757D01*
X007040Y002916D02*
X009149Y002916D01*
X009149Y003074D02*
X006881Y003074D01*
X005853Y004055D02*
X005892Y004108D01*
X005922Y004166D01*
X005942Y004229D01*
X005952Y004294D01*
X005952Y004327D01*
X005952Y004835D01*
X005942Y004900D01*
X005922Y004963D01*
X005892Y005021D01*
X005853Y005075D01*
X005807Y005121D01*
X005785Y005137D01*
X008372Y005137D01*
X008452Y005056D01*
X008591Y004999D01*
X008742Y004999D01*
X008880Y005056D01*
X008987Y005163D01*
X009044Y005302D01*
X009044Y005452D01*
X008987Y005591D01*
X008880Y005697D01*
X008742Y005755D01*
X008591Y005755D01*
X008452Y005697D01*
X008372Y005617D01*
X004318Y005617D01*
X004318Y008429D01*
X004458Y008429D01*
X004653Y008510D01*
X004802Y008659D01*
X004853Y008781D01*
X004904Y008659D01*
X005053Y008510D01*
X005247Y008429D01*
X005458Y008429D01*
X005653Y008510D01*
X005802Y008659D01*
X005853Y008781D01*
X005904Y008659D01*
X006053Y008510D01*
X006247Y008429D01*
X006458Y008429D01*
X006653Y008510D01*
X006802Y008659D01*
X006853Y008782D01*
X006862Y008756D01*
X006900Y008681D01*
X006949Y008614D01*
X007008Y008555D01*
X007075Y008506D01*
X007149Y008468D01*
X007229Y008442D01*
X007311Y008429D01*
X007333Y008429D01*
X007333Y008939D01*
X007373Y008939D01*
X007373Y008429D01*
X007395Y008429D01*
X007477Y008442D01*
X007556Y008468D01*
X007631Y008506D01*
X007698Y008555D01*
X007757Y008614D01*
X007806Y008681D01*
X007844Y008756D01*
X007870Y008835D01*
X007883Y008918D01*
X007883Y008939D01*
X009149Y008939D01*
X009149Y009097D02*
X007865Y009097D01*
X007870Y009083D02*
X007844Y009163D01*
X007806Y009237D01*
X007757Y009304D01*
X007698Y009363D01*
X007631Y009413D01*
X007556Y009450D01*
X007477Y009476D01*
X007395Y009489D01*
X007373Y009489D01*
X007373Y008979D01*
X007883Y008979D01*
X007883Y009001D01*
X007870Y009083D01*
X007883Y008939D02*
X007373Y008939D01*
X007333Y008939D01*
X007373Y008939D02*
X007373Y008979D01*
X007333Y008979D01*
X007333Y009489D01*
X007311Y009489D01*
X007229Y009476D01*
X007149Y009450D01*
X007075Y009413D01*
X007008Y009363D01*
X006949Y009304D01*
X006900Y009237D01*
X006862Y009163D01*
X006853Y009136D01*
X006802Y009259D01*
X006653Y009409D01*
X006458Y009489D01*
X006247Y009489D01*
X006053Y009409D01*
X005904Y009259D01*
X005853Y009137D01*
X005802Y009259D01*
X005653Y009409D01*
X005458Y009489D01*
X005247Y009489D01*
X005053Y009409D01*
X004904Y009259D01*
X004853Y009137D01*
X004802Y009259D01*
X004653Y009409D01*
X004458Y009489D01*
X004247Y009489D01*
X004053Y009409D01*
X003904Y009259D01*
X003823Y009065D01*
X003823Y008854D01*
X003856Y008775D01*
X003838Y008732D01*
X003838Y004476D01*
X003857Y004430D01*
X003857Y004244D01*
X003920Y004090D01*
X004038Y003973D01*
X004178Y003914D01*
X004172Y003898D01*
X004172Y003256D01*
X004235Y003103D01*
X004353Y002985D01*
X004506Y002922D01*
X004673Y002922D01*
X004826Y002985D01*
X004904Y003063D01*
X004983Y002985D01*
X005136Y002922D01*
X005302Y002922D01*
X005456Y002985D01*
X005574Y003103D01*
X005637Y003256D01*
X005637Y003898D01*
X005629Y003919D01*
X005632Y003919D01*
X005695Y003940D01*
X005753Y003969D01*
X005807Y004008D01*
X005853Y004055D01*
X005824Y004025D02*
X009149Y004025D01*
X009149Y003867D02*
X005637Y003867D01*
X005637Y003708D02*
X009149Y003708D01*
X009149Y003550D02*
X005637Y003550D01*
X005637Y003391D02*
X009149Y003391D01*
X009149Y003233D02*
X005627Y003233D01*
X005545Y003074D02*
X005801Y003074D01*
X005643Y002916D02*
X004166Y002916D01*
X004264Y003074D02*
X004007Y003074D01*
X004181Y003233D02*
X000660Y003233D01*
X000660Y003391D02*
X004172Y003391D01*
X004172Y003550D02*
X000660Y003550D01*
X000660Y003708D02*
X004172Y003708D01*
X004172Y003867D02*
X000660Y003867D01*
X000660Y004025D02*
X003985Y004025D01*
X003881Y004184D02*
X000660Y004184D01*
X000660Y004342D02*
X003857Y004342D01*
X003838Y004501D02*
X000660Y004501D01*
X000660Y004659D02*
X003838Y004659D01*
X003838Y004818D02*
X000660Y004818D01*
X000660Y004976D02*
X003838Y004976D01*
X003838Y005135D02*
X000660Y005135D01*
X000660Y005293D02*
X003838Y005293D01*
X003838Y005452D02*
X000660Y005452D01*
X000660Y005610D02*
X003838Y005610D01*
X003838Y005769D02*
X000660Y005769D01*
X000660Y005927D02*
X003838Y005927D01*
X003838Y006086D02*
X000660Y006086D01*
X000660Y006244D02*
X003838Y006244D01*
X003838Y006403D02*
X000660Y006403D01*
X000660Y006561D02*
X003838Y006561D01*
X003838Y006720D02*
X000660Y006720D01*
X000660Y006878D02*
X003838Y006878D01*
X003838Y007037D02*
X000660Y007037D01*
X000660Y007195D02*
X003838Y007195D01*
X003838Y007354D02*
X000660Y007354D01*
X000660Y007512D02*
X003838Y007512D01*
X003838Y007671D02*
X000660Y007671D01*
X000660Y007829D02*
X003838Y007829D01*
X003838Y007988D02*
X000660Y007988D01*
X000660Y008146D02*
X003838Y008146D01*
X003838Y008305D02*
X000660Y008305D01*
X000660Y008463D02*
X003838Y008463D01*
X003838Y008622D02*
X000660Y008622D01*
X000660Y008780D02*
X003853Y008780D01*
X003823Y008939D02*
X000660Y008939D01*
X000660Y009097D02*
X003836Y009097D01*
X003902Y009256D02*
X000660Y009256D01*
X000660Y009414D02*
X004067Y009414D01*
X004541Y008463D02*
X005165Y008463D01*
X004941Y008622D02*
X004765Y008622D01*
X004852Y008780D02*
X004853Y008780D01*
X004804Y009256D02*
X004902Y009256D01*
X005067Y009414D02*
X004639Y009414D01*
X004318Y008305D02*
X009149Y008305D01*
X009149Y008463D02*
X007542Y008463D01*
X007373Y008463D02*
X007333Y008463D01*
X007333Y008622D02*
X007373Y008622D01*
X007373Y008780D02*
X007333Y008780D01*
X007164Y008463D02*
X006541Y008463D01*
X006765Y008622D02*
X006943Y008622D01*
X006854Y008780D02*
X006852Y008780D01*
X006804Y009256D02*
X006913Y009256D01*
X007079Y009414D02*
X006639Y009414D01*
X006165Y008463D02*
X005541Y008463D01*
X005765Y008622D02*
X005941Y008622D01*
X005853Y008780D02*
X005852Y008780D01*
X005804Y009256D02*
X005902Y009256D01*
X006067Y009414D02*
X005639Y009414D01*
X004318Y008146D02*
X009149Y008146D01*
X009149Y007988D02*
X004318Y007988D01*
X004318Y007829D02*
X009149Y007829D01*
X009149Y007671D02*
X004318Y007671D01*
X004318Y007512D02*
X009149Y007512D01*
X009149Y007354D02*
X004318Y007354D01*
X004318Y007195D02*
X009149Y007195D01*
X009149Y007037D02*
X004318Y007037D01*
X004318Y006878D02*
X009149Y006878D01*
X009149Y006720D02*
X004318Y006720D01*
X004318Y006561D02*
X009149Y006561D01*
X009149Y006403D02*
X004318Y006403D01*
X004318Y006244D02*
X009149Y006244D01*
X009149Y006086D02*
X004318Y006086D01*
X004318Y005927D02*
X009149Y005927D01*
X009149Y005769D02*
X004318Y005769D01*
X005534Y004327D02*
X005952Y004327D01*
X005534Y004327D01*
X005534Y004327D01*
X005952Y004342D02*
X009149Y004342D01*
X009149Y004184D02*
X005927Y004184D01*
X005952Y004501D02*
X009149Y004501D01*
X009149Y004659D02*
X005952Y004659D01*
X005952Y004818D02*
X009149Y004818D01*
X009149Y004976D02*
X005915Y004976D01*
X005787Y005135D02*
X008374Y005135D01*
X008959Y005135D02*
X009149Y005135D01*
X009149Y005293D02*
X009041Y005293D01*
X009044Y005452D02*
X009149Y005452D01*
X009149Y005610D02*
X008968Y005610D01*
X008987Y002757D02*
X009149Y002757D01*
X005866Y001489D02*
X003942Y001489D01*
X004131Y001648D02*
X005678Y001648D01*
X005539Y001806D02*
X004270Y001806D01*
X004336Y001965D02*
X005473Y001965D01*
X005411Y002123D02*
X004397Y002123D01*
X004397Y002282D02*
X005411Y002282D01*
X005411Y002440D02*
X004397Y002440D01*
X004350Y002599D02*
X005459Y002599D01*
X005525Y002757D02*
X004284Y002757D01*
X002927Y003074D02*
X000660Y003074D01*
X000660Y009573D02*
X009149Y009573D01*
X009149Y009731D02*
X000660Y009731D01*
X000660Y009890D02*
X009149Y009890D01*
X009149Y010048D02*
X000660Y010048D01*
X000660Y010207D02*
X009149Y010207D01*
X009149Y010365D02*
X000660Y010365D01*
X000660Y010524D02*
X009149Y010524D01*
X009149Y010682D02*
X000660Y010682D01*
X000660Y010841D02*
X009149Y010841D01*
X009149Y010999D02*
X000660Y010999D01*
X000660Y011158D02*
X009149Y011158D01*
X009149Y011316D02*
X000660Y011316D01*
X000660Y011475D02*
X009149Y011475D01*
X009149Y011633D02*
X000660Y011633D01*
X000660Y011792D02*
X009149Y011792D01*
X009149Y011950D02*
X000660Y011950D01*
X000660Y012109D02*
X009149Y012109D01*
X009149Y012267D02*
X000660Y012267D01*
X000660Y012426D02*
X009149Y012426D01*
X009149Y012584D02*
X000660Y012584D01*
X000660Y012743D02*
X009149Y012743D01*
X009149Y012901D02*
X000660Y012901D01*
X000660Y013060D02*
X009149Y013060D01*
X009149Y013218D02*
X000660Y013218D01*
X000660Y013377D02*
X009149Y013377D01*
X009149Y013535D02*
X000660Y013535D01*
X000660Y013694D02*
X009149Y013694D01*
X009149Y013852D02*
X000660Y013852D01*
X000660Y014011D02*
X009149Y014011D01*
X009149Y014169D02*
X000660Y014169D01*
X000660Y014328D02*
X009149Y014328D01*
X009149Y014486D02*
X000660Y014486D01*
X000660Y014645D02*
X009149Y014645D01*
X009149Y014803D02*
X000660Y014803D01*
X000660Y014962D02*
X009149Y014962D01*
X009149Y015120D02*
X008898Y015120D01*
X009134Y015279D02*
X009149Y015279D01*
X007998Y015120D02*
X001811Y015120D01*
X002047Y015279D02*
X007762Y015279D01*
X007611Y015437D02*
X002197Y015437D01*
X002289Y015596D02*
X003788Y015596D01*
X003850Y015534D02*
X003679Y015706D01*
X003586Y015930D01*
X003586Y016173D01*
X003679Y016397D01*
X003850Y016568D01*
X004074Y016661D01*
X004317Y016661D01*
X004541Y016568D01*
X004713Y016397D01*
X004806Y016173D01*
X004806Y015930D01*
X004713Y015706D01*
X004541Y015534D01*
X004317Y015441D01*
X004074Y015441D01*
X003850Y015534D01*
X003658Y015754D02*
X002349Y015754D01*
X002392Y015913D02*
X003593Y015913D01*
X003586Y016071D02*
X002392Y016071D01*
X002381Y016230D02*
X003610Y016230D01*
X003675Y016388D02*
X002338Y016388D01*
X002266Y016547D02*
X003829Y016547D01*
X004563Y016547D02*
X005207Y016547D01*
X005228Y016568D02*
X005057Y016397D01*
X004964Y016173D01*
X004964Y015930D01*
X005057Y015706D01*
X005228Y015534D01*
X005452Y015441D01*
X005695Y015441D01*
X005919Y015534D01*
X006091Y015706D01*
X006184Y015930D01*
X006184Y016173D01*
X006091Y016397D01*
X005919Y016568D01*
X005695Y016661D01*
X005452Y016661D01*
X005228Y016568D01*
X005053Y016388D02*
X004716Y016388D01*
X004782Y016230D02*
X004987Y016230D01*
X004964Y016071D02*
X004806Y016071D01*
X004799Y015913D02*
X004971Y015913D01*
X005036Y015754D02*
X004733Y015754D01*
X004603Y015596D02*
X005166Y015596D01*
X005981Y015596D02*
X007520Y015596D01*
X007460Y015754D02*
X006111Y015754D01*
X006177Y015913D02*
X007417Y015913D01*
X007417Y016071D02*
X006184Y016071D01*
X006160Y016230D02*
X007428Y016230D01*
X007471Y016388D02*
X006094Y016388D01*
X005941Y016547D02*
X007543Y016547D01*
X007644Y016705D02*
X002165Y016705D01*
X000911Y015120D02*
X000660Y015120D01*
X000660Y015279D02*
X000675Y015279D01*
X007333Y009414D02*
X007373Y009414D01*
X007373Y009256D02*
X007333Y009256D01*
X007333Y009097D02*
X007373Y009097D01*
X007627Y009414D02*
X009149Y009414D01*
X009149Y009256D02*
X007793Y009256D01*
X007852Y008780D02*
X009149Y008780D01*
X009149Y008622D02*
X007763Y008622D01*
D15*
X008497Y008974D03*
X006023Y012386D03*
X004943Y012386D03*
X003743Y013226D03*
X003743Y010946D03*
X003743Y009746D03*
X001823Y010226D03*
X005663Y005906D03*
X006143Y004466D03*
X006743Y003626D03*
X005903Y007706D03*
D16*
X004353Y008959D02*
X004078Y008684D01*
X004078Y005257D01*
X004078Y004524D01*
X004274Y004327D01*
X004078Y005257D02*
X004198Y005377D01*
X008666Y005377D01*
D17*
X008666Y005377D03*
M02*
