G75*
%MOIN*%
%OFA0B0*%
%FSLAX24Y24*%
%IPPOS*%
%LPD*%
%AMOC8*
5,1,8,0,0,1.08239X$1,22.5*
%
%ADD10C,0.0000*%
%ADD11R,0.0551X0.0394*%
%ADD12R,0.0433X0.0394*%
%ADD13R,0.0394X0.0433*%
%ADD14R,0.0472X0.0217*%
%ADD15R,0.0846X0.2165*%
%ADD16R,0.0276X0.0472*%
%ADD17R,0.0630X0.0709*%
%ADD18R,0.0118X0.0394*%
%ADD19R,0.1063X0.1063*%
%ADD20R,0.0171X0.0171*%
%ADD21R,0.0394X0.0118*%
%ADD22C,0.0860*%
%ADD23C,0.1500*%
%ADD24C,0.0476*%
%ADD25C,0.0700*%
%ADD26R,0.0250X0.0500*%
%ADD27C,0.0100*%
%ADD28C,0.0357*%
%ADD29C,0.0396*%
D10*
X000180Y000697D02*
X009629Y000697D01*
X009629Y017232D01*
X000180Y017232D01*
X000180Y000697D01*
X000810Y001878D02*
X000812Y001925D01*
X000818Y001971D01*
X000828Y002017D01*
X000841Y002062D01*
X000859Y002105D01*
X000880Y002147D01*
X000904Y002187D01*
X000932Y002224D01*
X000963Y002259D01*
X000997Y002292D01*
X001033Y002321D01*
X001072Y002347D01*
X001113Y002370D01*
X001156Y002389D01*
X001200Y002405D01*
X001245Y002417D01*
X001291Y002425D01*
X001338Y002429D01*
X001384Y002429D01*
X001431Y002425D01*
X001477Y002417D01*
X001522Y002405D01*
X001566Y002389D01*
X001609Y002370D01*
X001650Y002347D01*
X001689Y002321D01*
X001725Y002292D01*
X001759Y002259D01*
X001790Y002224D01*
X001818Y002187D01*
X001842Y002147D01*
X001863Y002105D01*
X001881Y002062D01*
X001894Y002017D01*
X001904Y001971D01*
X001910Y001925D01*
X001912Y001878D01*
X001910Y001831D01*
X001904Y001785D01*
X001894Y001739D01*
X001881Y001694D01*
X001863Y001651D01*
X001842Y001609D01*
X001818Y001569D01*
X001790Y001532D01*
X001759Y001497D01*
X001725Y001464D01*
X001689Y001435D01*
X001650Y001409D01*
X001609Y001386D01*
X001566Y001367D01*
X001522Y001351D01*
X001477Y001339D01*
X001431Y001331D01*
X001384Y001327D01*
X001338Y001327D01*
X001291Y001331D01*
X001245Y001339D01*
X001200Y001351D01*
X001156Y001367D01*
X001113Y001386D01*
X001072Y001409D01*
X001033Y001435D01*
X000997Y001464D01*
X000963Y001497D01*
X000932Y001532D01*
X000904Y001569D01*
X000880Y001609D01*
X000859Y001651D01*
X000841Y001694D01*
X000828Y001739D01*
X000818Y001785D01*
X000812Y001831D01*
X000810Y001878D01*
X007897Y001878D02*
X007899Y001925D01*
X007905Y001971D01*
X007915Y002017D01*
X007928Y002062D01*
X007946Y002105D01*
X007967Y002147D01*
X007991Y002187D01*
X008019Y002224D01*
X008050Y002259D01*
X008084Y002292D01*
X008120Y002321D01*
X008159Y002347D01*
X008200Y002370D01*
X008243Y002389D01*
X008287Y002405D01*
X008332Y002417D01*
X008378Y002425D01*
X008425Y002429D01*
X008471Y002429D01*
X008518Y002425D01*
X008564Y002417D01*
X008609Y002405D01*
X008653Y002389D01*
X008696Y002370D01*
X008737Y002347D01*
X008776Y002321D01*
X008812Y002292D01*
X008846Y002259D01*
X008877Y002224D01*
X008905Y002187D01*
X008929Y002147D01*
X008950Y002105D01*
X008968Y002062D01*
X008981Y002017D01*
X008991Y001971D01*
X008997Y001925D01*
X008999Y001878D01*
X008997Y001831D01*
X008991Y001785D01*
X008981Y001739D01*
X008968Y001694D01*
X008950Y001651D01*
X008929Y001609D01*
X008905Y001569D01*
X008877Y001532D01*
X008846Y001497D01*
X008812Y001464D01*
X008776Y001435D01*
X008737Y001409D01*
X008696Y001386D01*
X008653Y001367D01*
X008609Y001351D01*
X008564Y001339D01*
X008518Y001331D01*
X008471Y001327D01*
X008425Y001327D01*
X008378Y001331D01*
X008332Y001339D01*
X008287Y001351D01*
X008243Y001367D01*
X008200Y001386D01*
X008159Y001409D01*
X008120Y001435D01*
X008084Y001464D01*
X008050Y001497D01*
X008019Y001532D01*
X007991Y001569D01*
X007967Y001609D01*
X007946Y001651D01*
X007928Y001694D01*
X007915Y001739D01*
X007905Y001785D01*
X007899Y001831D01*
X007897Y001878D01*
X007897Y016051D02*
X007899Y016098D01*
X007905Y016144D01*
X007915Y016190D01*
X007928Y016235D01*
X007946Y016278D01*
X007967Y016320D01*
X007991Y016360D01*
X008019Y016397D01*
X008050Y016432D01*
X008084Y016465D01*
X008120Y016494D01*
X008159Y016520D01*
X008200Y016543D01*
X008243Y016562D01*
X008287Y016578D01*
X008332Y016590D01*
X008378Y016598D01*
X008425Y016602D01*
X008471Y016602D01*
X008518Y016598D01*
X008564Y016590D01*
X008609Y016578D01*
X008653Y016562D01*
X008696Y016543D01*
X008737Y016520D01*
X008776Y016494D01*
X008812Y016465D01*
X008846Y016432D01*
X008877Y016397D01*
X008905Y016360D01*
X008929Y016320D01*
X008950Y016278D01*
X008968Y016235D01*
X008981Y016190D01*
X008991Y016144D01*
X008997Y016098D01*
X008999Y016051D01*
X008997Y016004D01*
X008991Y015958D01*
X008981Y015912D01*
X008968Y015867D01*
X008950Y015824D01*
X008929Y015782D01*
X008905Y015742D01*
X008877Y015705D01*
X008846Y015670D01*
X008812Y015637D01*
X008776Y015608D01*
X008737Y015582D01*
X008696Y015559D01*
X008653Y015540D01*
X008609Y015524D01*
X008564Y015512D01*
X008518Y015504D01*
X008471Y015500D01*
X008425Y015500D01*
X008378Y015504D01*
X008332Y015512D01*
X008287Y015524D01*
X008243Y015540D01*
X008200Y015559D01*
X008159Y015582D01*
X008120Y015608D01*
X008084Y015637D01*
X008050Y015670D01*
X008019Y015705D01*
X007991Y015742D01*
X007967Y015782D01*
X007946Y015824D01*
X007928Y015867D01*
X007915Y015912D01*
X007905Y015958D01*
X007899Y016004D01*
X007897Y016051D01*
X000810Y016051D02*
X000812Y016098D01*
X000818Y016144D01*
X000828Y016190D01*
X000841Y016235D01*
X000859Y016278D01*
X000880Y016320D01*
X000904Y016360D01*
X000932Y016397D01*
X000963Y016432D01*
X000997Y016465D01*
X001033Y016494D01*
X001072Y016520D01*
X001113Y016543D01*
X001156Y016562D01*
X001200Y016578D01*
X001245Y016590D01*
X001291Y016598D01*
X001338Y016602D01*
X001384Y016602D01*
X001431Y016598D01*
X001477Y016590D01*
X001522Y016578D01*
X001566Y016562D01*
X001609Y016543D01*
X001650Y016520D01*
X001689Y016494D01*
X001725Y016465D01*
X001759Y016432D01*
X001790Y016397D01*
X001818Y016360D01*
X001842Y016320D01*
X001863Y016278D01*
X001881Y016235D01*
X001894Y016190D01*
X001904Y016144D01*
X001910Y016098D01*
X001912Y016051D01*
X001910Y016004D01*
X001904Y015958D01*
X001894Y015912D01*
X001881Y015867D01*
X001863Y015824D01*
X001842Y015782D01*
X001818Y015742D01*
X001790Y015705D01*
X001759Y015670D01*
X001725Y015637D01*
X001689Y015608D01*
X001650Y015582D01*
X001609Y015559D01*
X001566Y015540D01*
X001522Y015524D01*
X001477Y015512D01*
X001431Y015504D01*
X001384Y015500D01*
X001338Y015500D01*
X001291Y015504D01*
X001245Y015512D01*
X001200Y015524D01*
X001156Y015540D01*
X001113Y015559D01*
X001072Y015582D01*
X001033Y015608D01*
X000997Y015637D01*
X000963Y015670D01*
X000932Y015705D01*
X000904Y015742D01*
X000880Y015782D01*
X000859Y015824D01*
X000841Y015867D01*
X000828Y015912D01*
X000818Y015958D01*
X000812Y016004D01*
X000810Y016051D01*
D11*
X004575Y011506D03*
X005441Y011132D03*
X005441Y011880D03*
X007579Y011876D03*
X007579Y011128D03*
X008446Y011502D03*
X008446Y012808D03*
X008446Y013556D03*
X007579Y013182D03*
D12*
X006572Y013517D03*
X006572Y012847D03*
X006572Y011837D03*
X006572Y011167D03*
X005492Y012847D03*
X005492Y013517D03*
X004412Y013517D03*
X004412Y012847D03*
X003155Y011137D03*
X002485Y011137D03*
D13*
X002485Y012097D03*
X003155Y012097D03*
X003155Y010177D03*
X002485Y010177D03*
X001082Y009071D03*
X001082Y008402D03*
X004492Y010177D03*
X005161Y010177D03*
X006052Y010177D03*
X006721Y010177D03*
X007765Y010177D03*
X008435Y010177D03*
X007676Y014683D03*
X007007Y014683D03*
X007507Y004258D03*
X007507Y003589D03*
X008448Y003589D03*
X008448Y004258D03*
D14*
X003144Y008309D03*
X003144Y008683D03*
X003144Y009057D03*
X002121Y009057D03*
X002121Y008309D03*
D15*
X001589Y006602D03*
X003101Y006602D03*
D16*
X001322Y010289D03*
X001322Y011745D03*
D17*
X001789Y013177D03*
X001789Y014377D03*
X002891Y014377D03*
X002891Y013177D03*
X002511Y004465D03*
X001409Y004465D03*
D18*
X006676Y005618D03*
X006873Y005618D03*
X007070Y005618D03*
X007267Y005618D03*
X007463Y005618D03*
X007660Y005618D03*
X007857Y005618D03*
X007857Y007587D03*
X007660Y007587D03*
X007463Y007587D03*
X007267Y007587D03*
X007070Y007587D03*
X006873Y007587D03*
X006676Y007587D03*
D19*
X007267Y006602D03*
D20*
X006439Y005775D03*
D21*
X006282Y006012D03*
X006282Y006209D03*
X006282Y006406D03*
X006282Y006602D03*
X006282Y006799D03*
X006282Y006996D03*
X006282Y007193D03*
X008251Y007193D03*
X008251Y006996D03*
X008251Y006799D03*
X008251Y006602D03*
X008251Y006406D03*
X008251Y006209D03*
X008251Y006012D03*
D22*
X005574Y016051D03*
X004196Y016051D03*
D23*
X003467Y002299D03*
X006341Y002299D03*
D24*
X005219Y003339D02*
X005219Y003815D01*
X004904Y004327D02*
X004904Y004802D01*
X004274Y004802D02*
X004274Y004327D01*
X004589Y003815D02*
X004589Y003339D01*
X005534Y004327D02*
X005534Y004802D01*
D25*
X005353Y008959D03*
X006353Y008959D03*
X007353Y008959D03*
X004353Y008959D03*
D26*
X004899Y007273D03*
X005223Y007273D03*
X004862Y005930D03*
X004538Y005930D03*
D27*
X004346Y006121D01*
X004346Y008017D01*
X005289Y008959D01*
X005353Y008959D01*
X005353Y009050D01*
X004466Y009937D01*
X004466Y010151D01*
X004492Y010177D01*
X004310Y009810D02*
X004383Y009737D01*
X004914Y009206D01*
X004853Y009059D01*
X004853Y008860D01*
X004869Y008822D01*
X004815Y008769D01*
X004853Y008860D01*
X004853Y009059D01*
X004777Y009242D01*
X004636Y009383D01*
X004452Y009459D01*
X004253Y009459D01*
X004070Y009383D01*
X003929Y009242D01*
X003853Y009059D01*
X003853Y008860D01*
X003929Y008676D01*
X004070Y008535D01*
X004253Y008459D01*
X004452Y008459D01*
X004544Y008497D01*
X004146Y008100D01*
X004146Y006038D01*
X004263Y005922D01*
X004263Y005617D01*
X004350Y005530D01*
X004725Y005530D01*
X005049Y005530D01*
X005137Y005617D01*
X005137Y005922D01*
X005421Y006206D01*
X005936Y006206D01*
X005936Y005891D01*
X006023Y005803D01*
X006203Y005803D01*
X006203Y005775D01*
X006439Y005775D01*
X006386Y005722D01*
X006386Y005257D01*
X006506Y005137D01*
X006986Y005137D01*
X007070Y005220D01*
X007070Y005618D01*
X007070Y006406D01*
X007267Y006602D01*
X007267Y005618D02*
X007267Y005057D01*
X007106Y004897D01*
X006026Y004897D01*
X005666Y005257D01*
X005066Y005257D01*
X004904Y005095D01*
X004904Y004327D01*
X004589Y003815D02*
X004589Y003007D01*
X004740Y002857D01*
X005186Y002857D01*
X006986Y004657D01*
X007226Y004657D01*
X007463Y004900D01*
X007463Y005618D01*
X007466Y005615D01*
X007660Y005618D02*
X007660Y004412D01*
X007507Y004258D01*
X007822Y003947D02*
X008133Y003947D01*
X008157Y003923D02*
X008131Y003897D01*
X008111Y003863D01*
X008101Y003825D01*
X008101Y003637D01*
X008399Y003637D01*
X008399Y003540D01*
X008101Y003540D01*
X008101Y003352D01*
X008111Y003314D01*
X008131Y003280D01*
X008159Y003252D01*
X008193Y003232D01*
X008231Y003222D01*
X008399Y003222D01*
X008399Y003540D01*
X008496Y003540D01*
X008496Y003222D01*
X008664Y003222D01*
X008702Y003232D01*
X008737Y003252D01*
X008765Y003280D01*
X008784Y003314D01*
X008795Y003352D01*
X008795Y003540D01*
X008496Y003540D01*
X008496Y003637D01*
X008795Y003637D01*
X008795Y003825D01*
X008784Y003863D01*
X008765Y003897D01*
X008739Y003923D01*
X008795Y003979D01*
X008795Y004537D01*
X008707Y004624D01*
X008364Y004624D01*
X008057Y004931D01*
X008057Y005350D01*
X008066Y005359D01*
X008066Y005544D01*
X008325Y005803D01*
X008438Y005803D01*
X008466Y005774D01*
X008466Y005669D01*
X008371Y005574D01*
X008318Y005446D01*
X008318Y005308D01*
X008371Y005180D01*
X008469Y005082D01*
X008597Y005029D01*
X008736Y005029D01*
X008863Y005082D01*
X008961Y005180D01*
X009014Y005308D01*
X009014Y005446D01*
X008961Y005574D01*
X008866Y005669D01*
X008866Y005940D01*
X008711Y006095D01*
X008598Y006208D01*
X008598Y007314D01*
X008510Y007402D01*
X008066Y007402D01*
X008066Y007846D01*
X007978Y007933D01*
X006555Y007933D01*
X006467Y007846D01*
X006467Y007402D01*
X006023Y007402D01*
X005936Y007314D01*
X005936Y006843D01*
X005498Y007280D01*
X005498Y007585D01*
X005410Y007673D01*
X005099Y007673D01*
X005099Y007937D01*
X005613Y007937D01*
X005731Y008054D01*
X006170Y008494D01*
X006253Y008459D01*
X006452Y008459D01*
X006636Y008535D01*
X006777Y008676D01*
X006853Y008860D01*
X006853Y009059D01*
X006777Y009242D01*
X006636Y009383D01*
X006452Y009459D01*
X006253Y009459D01*
X006252Y009458D01*
X006252Y009810D01*
X006311Y009810D01*
X006386Y009886D01*
X006462Y009810D01*
X006980Y009810D01*
X007068Y009898D01*
X007068Y010241D01*
X007189Y010362D01*
X007306Y010479D01*
X007306Y010781D01*
X007531Y010781D01*
X007531Y011079D01*
X007628Y011079D01*
X007628Y010781D01*
X007875Y010781D01*
X007913Y010791D01*
X007947Y010811D01*
X007975Y010839D01*
X007995Y010873D01*
X008005Y010911D01*
X008005Y011079D01*
X007628Y011079D01*
X007628Y011176D01*
X008005Y011176D01*
X008005Y011302D01*
X008020Y011302D01*
X008020Y011243D01*
X008108Y011155D01*
X008783Y011155D01*
X008826Y011198D01*
X008826Y010980D01*
X008390Y010543D01*
X008176Y010543D01*
X008095Y010463D01*
X008082Y010485D01*
X008054Y010513D01*
X008020Y010533D01*
X007982Y010543D01*
X007814Y010543D01*
X007814Y010225D01*
X007717Y010225D01*
X007717Y010128D01*
X007814Y010128D01*
X007814Y009810D01*
X007982Y009810D01*
X008020Y009821D01*
X008054Y009840D01*
X008082Y009868D01*
X008095Y009891D01*
X008176Y009810D01*
X008694Y009810D01*
X008781Y009898D01*
X008781Y010369D01*
X009109Y010697D01*
X009179Y010767D01*
X009179Y002563D01*
X009015Y002727D01*
X008647Y002879D01*
X008249Y002879D01*
X007881Y002727D01*
X007599Y002445D01*
X007447Y002077D01*
X007447Y001679D01*
X007599Y001311D01*
X007763Y001147D01*
X002046Y001147D01*
X002210Y001311D01*
X002362Y001679D01*
X002362Y002077D01*
X002210Y002445D01*
X001928Y002727D01*
X001560Y002879D01*
X001162Y002879D01*
X000794Y002727D01*
X000630Y002563D01*
X000630Y015366D01*
X000794Y015202D01*
X001162Y015050D01*
X001560Y015050D01*
X001928Y015202D01*
X002210Y015484D01*
X002362Y015852D01*
X002362Y016250D01*
X002210Y016618D01*
X002046Y016782D01*
X007763Y016782D01*
X007599Y016618D01*
X007447Y016250D01*
X007447Y015852D01*
X007597Y015489D01*
X007549Y015537D01*
X006193Y015537D01*
X006061Y015719D01*
X006065Y015723D01*
X006154Y015936D01*
X006154Y016167D01*
X006065Y016380D01*
X005902Y016543D01*
X005689Y016631D01*
X005458Y016631D01*
X005245Y016543D01*
X005082Y016380D01*
X004994Y016167D01*
X004994Y015936D01*
X005082Y015723D01*
X005245Y015559D01*
X005458Y015471D01*
X005689Y015471D01*
X005734Y015490D01*
X005891Y015272D01*
X005891Y015254D01*
X005939Y015207D01*
X005978Y015152D01*
X005996Y015150D01*
X006008Y015137D01*
X006075Y015137D01*
X006141Y015126D01*
X006156Y015137D01*
X007383Y015137D01*
X007471Y015050D01*
X007417Y015050D01*
X007341Y014974D01*
X007266Y015050D01*
X006748Y015050D01*
X006660Y014962D01*
X006660Y014883D01*
X006645Y014883D01*
X006528Y014766D01*
X005984Y014222D01*
X004810Y014222D01*
X004451Y013863D01*
X004374Y013863D01*
X004137Y014100D01*
X004137Y015471D01*
X004311Y015471D01*
X004524Y015559D01*
X004687Y015723D01*
X004776Y015936D01*
X004776Y016167D01*
X004687Y016380D01*
X004524Y016543D01*
X004311Y016631D01*
X004080Y016631D01*
X003867Y016543D01*
X003704Y016380D01*
X003616Y016167D01*
X003616Y015936D01*
X003704Y015723D01*
X003737Y015689D01*
X003737Y014577D01*
X003356Y014577D01*
X003356Y014793D01*
X003268Y014881D01*
X002514Y014881D01*
X002426Y014793D01*
X002426Y013960D01*
X002514Y013873D01*
X002691Y013873D01*
X002691Y013681D01*
X002514Y013681D01*
X002426Y013593D01*
X002426Y012760D01*
X002514Y012673D01*
X002633Y012673D01*
X002424Y012463D01*
X002226Y012463D01*
X002139Y012376D01*
X002139Y012297D01*
X001591Y012297D01*
X001474Y012180D01*
X001425Y012131D01*
X001122Y012131D01*
X001034Y012044D01*
X001034Y011447D01*
X001122Y011359D01*
X001522Y011359D01*
X001610Y011447D01*
X001610Y011750D01*
X001757Y011897D01*
X002139Y011897D01*
X002139Y011818D01*
X002226Y011730D01*
X002285Y011730D01*
X002285Y011484D01*
X002207Y011484D01*
X002119Y011396D01*
X002119Y010878D01*
X002207Y010790D01*
X002764Y010790D01*
X002820Y010846D01*
X002876Y010790D01*
X002955Y010790D01*
X002955Y010543D01*
X002896Y010543D01*
X002815Y010463D01*
X002802Y010485D01*
X002774Y010513D01*
X002740Y010533D01*
X002702Y010543D01*
X002534Y010543D01*
X002534Y010225D01*
X002437Y010225D01*
X002437Y010128D01*
X002534Y010128D01*
X002534Y009810D01*
X002702Y009810D01*
X002740Y009821D01*
X002774Y009840D01*
X002802Y009868D01*
X002815Y009891D01*
X002896Y009810D01*
X002955Y009810D01*
X002955Y009315D01*
X002866Y009315D01*
X002866Y009333D01*
X002543Y009657D01*
X001909Y009657D01*
X001593Y009973D01*
X001610Y009990D01*
X001610Y010587D01*
X001522Y010675D01*
X001122Y010675D01*
X001034Y010587D01*
X001034Y009990D01*
X001122Y009902D01*
X001146Y009902D01*
X001146Y009854D01*
X001626Y009374D01*
X001743Y009257D01*
X001764Y009257D01*
X001735Y009227D01*
X001735Y008887D01*
X001822Y008799D01*
X001921Y008799D01*
X001921Y008567D01*
X001822Y008567D01*
X001764Y008509D01*
X001429Y008509D01*
X001429Y008681D01*
X001373Y008737D01*
X001399Y008763D01*
X001419Y008797D01*
X001429Y008835D01*
X001429Y009023D01*
X001130Y009023D01*
X001130Y009120D01*
X001034Y009120D01*
X001034Y009438D01*
X000865Y009438D01*
X000827Y009428D01*
X000793Y009408D01*
X000765Y009380D01*
X000745Y009346D01*
X000735Y009308D01*
X000735Y009120D01*
X001034Y009120D01*
X001034Y009023D01*
X000735Y009023D01*
X000735Y008835D01*
X000745Y008797D01*
X000765Y008763D01*
X000791Y008737D01*
X000735Y008681D01*
X000735Y008124D01*
X000823Y008036D01*
X001341Y008036D01*
X001389Y008084D01*
X001389Y007835D01*
X001104Y007835D01*
X001016Y007747D01*
X001016Y005458D01*
X001104Y005370D01*
X001209Y005370D01*
X001209Y004970D01*
X001032Y004970D01*
X000944Y004882D01*
X000944Y004049D01*
X001032Y003961D01*
X001786Y003961D01*
X001874Y004049D01*
X001874Y004882D01*
X001786Y004970D01*
X001609Y004970D01*
X001609Y005370D01*
X002075Y005370D01*
X002163Y005458D01*
X002163Y007747D01*
X002075Y007835D01*
X001789Y007835D01*
X001789Y008084D01*
X001822Y008051D01*
X002419Y008051D01*
X002507Y008139D01*
X002507Y008253D01*
X002583Y008177D01*
X002758Y008177D01*
X002758Y008139D01*
X002846Y008051D01*
X002901Y008051D01*
X002901Y007835D01*
X002616Y007835D01*
X002528Y007747D01*
X002528Y005458D01*
X002616Y005370D01*
X003587Y005370D01*
X003674Y005458D01*
X003674Y007747D01*
X003587Y007835D01*
X003301Y007835D01*
X003301Y008051D01*
X003443Y008051D01*
X003531Y008139D01*
X003531Y008479D01*
X003510Y008500D01*
X003520Y008517D01*
X003531Y008555D01*
X003531Y008679D01*
X003149Y008679D01*
X003149Y008687D01*
X003531Y008687D01*
X003531Y008811D01*
X003520Y008849D01*
X003510Y008866D01*
X003531Y008887D01*
X003531Y009227D01*
X003443Y009315D01*
X003355Y009315D01*
X003355Y009810D01*
X003414Y009810D01*
X003501Y009898D01*
X003501Y010456D01*
X003414Y010543D01*
X003355Y010543D01*
X003355Y010790D01*
X003433Y010790D01*
X003521Y010878D01*
X003521Y011396D01*
X003433Y011484D01*
X003355Y011484D01*
X003355Y011730D01*
X003414Y011730D01*
X003501Y011818D01*
X003501Y012376D01*
X003414Y012463D01*
X002989Y012463D01*
X003091Y012565D01*
X003091Y012673D01*
X003268Y012673D01*
X003356Y012760D01*
X003356Y013593D01*
X003268Y013681D01*
X003091Y013681D01*
X003091Y013873D01*
X003268Y013873D01*
X003356Y013960D01*
X003356Y014177D01*
X003737Y014177D01*
X003737Y013934D01*
X003855Y013817D01*
X004046Y013626D01*
X004046Y013258D01*
X004122Y013182D01*
X004046Y013106D01*
X004046Y012588D01*
X004134Y012500D01*
X004146Y012500D01*
X004146Y011652D01*
X004150Y011649D01*
X004150Y011247D01*
X004238Y011159D01*
X004913Y011159D01*
X005001Y011247D01*
X005001Y011765D01*
X004913Y011853D01*
X004546Y011853D01*
X004546Y012480D01*
X004662Y012480D01*
X004682Y012500D01*
X004691Y012500D01*
X004779Y012588D01*
X004779Y012597D01*
X004779Y012597D01*
X004779Y012763D01*
X004779Y012764D01*
X004779Y012931D01*
X005126Y013278D01*
X005126Y013258D01*
X005206Y013177D01*
X005184Y013164D01*
X005156Y013136D01*
X005136Y013102D01*
X005126Y013064D01*
X005126Y012896D01*
X005444Y012896D01*
X005444Y012799D01*
X005126Y012799D01*
X005126Y012631D01*
X005136Y012592D01*
X005156Y012558D01*
X005184Y012530D01*
X005218Y012511D01*
X005256Y012500D01*
X005444Y012500D01*
X005444Y012799D01*
X005541Y012799D01*
X005541Y012896D01*
X005859Y012896D01*
X005859Y013064D01*
X005849Y013102D01*
X005829Y013136D01*
X005801Y013164D01*
X005779Y013177D01*
X005796Y013195D01*
X006010Y012982D01*
X006206Y012982D01*
X006206Y012588D01*
X006294Y012500D01*
X006372Y012500D01*
X006372Y012183D01*
X006294Y012183D01*
X006206Y012096D01*
X006206Y011578D01*
X006286Y011497D01*
X006264Y011484D01*
X006236Y011456D01*
X006216Y011422D01*
X006206Y011384D01*
X006206Y011216D01*
X006524Y011216D01*
X006524Y011119D01*
X006206Y011119D01*
X006206Y010951D01*
X006216Y010912D01*
X006236Y010878D01*
X006264Y010850D01*
X006298Y010831D01*
X006336Y010820D01*
X006524Y010820D01*
X006524Y011119D01*
X006621Y011119D01*
X006621Y010820D01*
X006809Y010820D01*
X006847Y010831D01*
X006881Y010850D01*
X006906Y010876D01*
X006906Y010645D01*
X006805Y010543D01*
X006462Y010543D01*
X006386Y010468D01*
X006311Y010543D01*
X005793Y010543D01*
X005705Y010456D01*
X005705Y009898D01*
X005793Y009810D01*
X005852Y009810D01*
X005852Y009178D01*
X005887Y009142D01*
X005853Y009059D01*
X005853Y008860D01*
X005887Y008777D01*
X005448Y008337D01*
X004949Y008337D01*
X005125Y008513D01*
X005253Y008459D01*
X005452Y008459D01*
X005636Y008535D01*
X005777Y008676D01*
X005853Y008860D01*
X005853Y009059D01*
X005777Y009242D01*
X005636Y009383D01*
X005452Y009459D01*
X005253Y009459D01*
X005235Y009451D01*
X004813Y009873D01*
X004826Y009886D01*
X004902Y009810D01*
X005420Y009810D01*
X005508Y009898D01*
X005508Y010456D01*
X005420Y010543D01*
X005361Y010543D01*
X005361Y010769D01*
X005377Y010785D01*
X005779Y010785D01*
X005867Y010873D01*
X005867Y011391D01*
X005779Y011479D01*
X005104Y011479D01*
X005016Y011391D01*
X005016Y010990D01*
X004961Y010935D01*
X004961Y010543D01*
X004902Y010543D01*
X004826Y010468D01*
X004751Y010543D01*
X004233Y010543D01*
X004145Y010456D01*
X004145Y009898D01*
X004233Y009810D01*
X004310Y009810D01*
X004361Y009759D02*
X003355Y009759D01*
X003355Y009660D02*
X004460Y009660D01*
X004558Y009562D02*
X003355Y009562D01*
X003355Y009463D02*
X004657Y009463D01*
X004654Y009365D02*
X004755Y009365D01*
X004753Y009266D02*
X004854Y009266D01*
X004898Y009168D02*
X004808Y009168D01*
X004848Y009069D02*
X004857Y009069D01*
X004853Y008971D02*
X004853Y008971D01*
X004853Y008872D02*
X004853Y008872D01*
X004820Y008774D02*
X004817Y008774D01*
X005091Y008478D02*
X005207Y008478D01*
X004992Y008380D02*
X005491Y008380D01*
X005499Y008478D02*
X005589Y008478D01*
X005678Y008577D02*
X005688Y008577D01*
X005776Y008675D02*
X005786Y008675D01*
X005817Y008774D02*
X005885Y008774D01*
X005853Y008872D02*
X005853Y008872D01*
X005853Y008971D02*
X005853Y008971D01*
X005848Y009069D02*
X005857Y009069D01*
X005861Y009168D02*
X005808Y009168D01*
X005852Y009266D02*
X005753Y009266D01*
X005654Y009365D02*
X005852Y009365D01*
X005852Y009463D02*
X005223Y009463D01*
X005124Y009562D02*
X005852Y009562D01*
X005852Y009660D02*
X005026Y009660D01*
X004927Y009759D02*
X005852Y009759D01*
X005746Y009857D02*
X005467Y009857D01*
X005508Y009956D02*
X005705Y009956D01*
X005705Y010054D02*
X005508Y010054D01*
X005508Y010153D02*
X005705Y010153D01*
X005705Y010251D02*
X005508Y010251D01*
X005508Y010350D02*
X005705Y010350D01*
X005705Y010448D02*
X005508Y010448D01*
X005361Y010547D02*
X006808Y010547D01*
X006906Y010645D02*
X005361Y010645D01*
X005361Y010744D02*
X006906Y010744D01*
X006906Y010842D02*
X006867Y010842D01*
X007106Y010562D02*
X007106Y011502D01*
X006907Y011502D01*
X006572Y011837D01*
X006572Y012847D01*
X006372Y012418D02*
X004546Y012418D01*
X004546Y012320D02*
X006372Y012320D01*
X006372Y012221D02*
X005758Y012221D01*
X005775Y012217D02*
X005737Y012227D01*
X005490Y012227D01*
X005490Y011929D01*
X005393Y011929D01*
X005393Y012227D01*
X005146Y012227D01*
X005108Y012217D01*
X005074Y012197D01*
X005046Y012169D01*
X005026Y012135D01*
X005016Y012097D01*
X005016Y011929D01*
X005393Y011929D01*
X005393Y011832D01*
X005016Y011832D01*
X005016Y011664D01*
X005026Y011626D01*
X005046Y011591D01*
X005074Y011563D01*
X005108Y011544D01*
X005146Y011533D01*
X005393Y011533D01*
X005393Y011832D01*
X005490Y011832D01*
X005490Y011929D01*
X005867Y011929D01*
X005867Y012097D01*
X005857Y012135D01*
X005837Y012169D01*
X005809Y012197D01*
X005775Y012217D01*
X005860Y012123D02*
X006233Y012123D01*
X006206Y012024D02*
X005867Y012024D01*
X005867Y011832D02*
X005490Y011832D01*
X005490Y011533D01*
X005737Y011533D01*
X005775Y011544D01*
X005809Y011563D01*
X005837Y011591D01*
X005857Y011626D01*
X005867Y011664D01*
X005867Y011832D01*
X005867Y011827D02*
X006206Y011827D01*
X006206Y011729D02*
X005867Y011729D01*
X005858Y011630D02*
X006206Y011630D01*
X006252Y011532D02*
X005001Y011532D01*
X005001Y011630D02*
X005025Y011630D01*
X005016Y011729D02*
X005001Y011729D01*
X005016Y011827D02*
X004939Y011827D01*
X005016Y012024D02*
X004546Y012024D01*
X004546Y011926D02*
X005393Y011926D01*
X005490Y011926D02*
X006206Y011926D01*
X006223Y011433D02*
X005825Y011433D01*
X005867Y011335D02*
X006206Y011335D01*
X006206Y011236D02*
X005867Y011236D01*
X005867Y011138D02*
X006524Y011138D01*
X006524Y011039D02*
X006621Y011039D01*
X006621Y010941D02*
X006524Y010941D01*
X006524Y010842D02*
X006621Y010842D01*
X006278Y010842D02*
X005836Y010842D01*
X005867Y010941D02*
X006209Y010941D01*
X006206Y011039D02*
X005867Y011039D01*
X005441Y011132D02*
X005161Y010852D01*
X005161Y010177D01*
X004961Y010547D02*
X003355Y010547D01*
X003355Y010645D02*
X004961Y010645D01*
X004961Y010744D02*
X003355Y010744D01*
X003486Y010842D02*
X004961Y010842D01*
X004967Y010941D02*
X003521Y010941D01*
X003521Y011039D02*
X005016Y011039D01*
X005016Y011138D02*
X003521Y011138D01*
X003521Y011236D02*
X004161Y011236D01*
X004150Y011335D02*
X003521Y011335D01*
X003484Y011433D02*
X004150Y011433D01*
X004150Y011532D02*
X003355Y011532D01*
X003355Y011630D02*
X004150Y011630D01*
X004146Y011729D02*
X003355Y011729D01*
X003501Y011827D02*
X004146Y011827D01*
X004146Y011926D02*
X003501Y011926D01*
X003501Y012024D02*
X004146Y012024D01*
X004146Y012123D02*
X003501Y012123D01*
X003501Y012221D02*
X004146Y012221D01*
X004146Y012320D02*
X003501Y012320D01*
X003459Y012418D02*
X004146Y012418D01*
X004117Y012517D02*
X003043Y012517D01*
X003091Y012615D02*
X004046Y012615D01*
X004046Y012714D02*
X003310Y012714D01*
X003356Y012812D02*
X004046Y012812D01*
X004046Y012911D02*
X003356Y012911D01*
X003356Y013009D02*
X004046Y013009D01*
X004048Y013108D02*
X003356Y013108D01*
X003356Y013206D02*
X004097Y013206D01*
X004046Y013305D02*
X003356Y013305D01*
X003356Y013403D02*
X004046Y013403D01*
X004046Y013502D02*
X003356Y013502D01*
X003349Y013600D02*
X004046Y013600D01*
X003973Y013699D02*
X003091Y013699D01*
X003091Y013797D02*
X003874Y013797D01*
X003855Y013817D02*
X003855Y013817D01*
X003776Y013896D02*
X003292Y013896D01*
X003356Y013994D02*
X003737Y013994D01*
X003737Y014093D02*
X003356Y014093D01*
X003356Y014585D02*
X003737Y014585D01*
X003737Y014684D02*
X003356Y014684D01*
X003356Y014782D02*
X003737Y014782D01*
X003737Y014881D02*
X003269Y014881D01*
X002891Y014377D02*
X003937Y014377D01*
X003937Y014017D01*
X004412Y013542D01*
X004412Y013517D01*
X004412Y013542D02*
X004892Y014022D01*
X006067Y014022D01*
X006728Y014683D01*
X007007Y014683D01*
X007336Y014979D02*
X007347Y014979D01*
X007442Y015078D02*
X004137Y015078D01*
X004137Y015176D02*
X005960Y015176D01*
X005889Y015275D02*
X004137Y015275D01*
X004137Y015373D02*
X005818Y015373D01*
X005746Y015472D02*
X005691Y015472D01*
X005457Y015472D02*
X004313Y015472D01*
X004137Y014979D02*
X006677Y014979D01*
X006643Y014881D02*
X004137Y014881D01*
X004137Y014782D02*
X006545Y014782D01*
X006446Y014684D02*
X004137Y014684D01*
X004137Y014585D02*
X006348Y014585D01*
X006249Y014487D02*
X004137Y014487D01*
X004137Y014388D02*
X006151Y014388D01*
X006052Y014290D02*
X004137Y014290D01*
X004137Y014191D02*
X004779Y014191D01*
X004681Y014093D02*
X004144Y014093D01*
X004243Y013994D02*
X004582Y013994D01*
X004484Y013896D02*
X004341Y013896D01*
X003937Y014377D02*
X003937Y015990D01*
X004196Y016051D01*
X004494Y016555D02*
X005275Y016555D01*
X005159Y016457D02*
X004610Y016457D01*
X004696Y016358D02*
X005073Y016358D01*
X005032Y016260D02*
X004737Y016260D01*
X004776Y016161D02*
X004994Y016161D01*
X004994Y016063D02*
X004776Y016063D01*
X004776Y015964D02*
X004994Y015964D01*
X005023Y015866D02*
X004747Y015866D01*
X004706Y015767D02*
X005063Y015767D01*
X005136Y015669D02*
X004634Y015669D01*
X004535Y015570D02*
X005234Y015570D01*
X005574Y016051D02*
X006091Y015337D01*
X007466Y015337D01*
X007676Y015127D01*
X007676Y014683D01*
X008446Y013913D01*
X008446Y013556D01*
X008906Y013177D02*
X009026Y013057D01*
X009026Y012217D01*
X009026Y010897D01*
X008406Y010277D01*
X008435Y010177D01*
X008393Y010547D02*
X007306Y010547D01*
X007306Y010645D02*
X008492Y010645D01*
X008590Y010744D02*
X007306Y010744D01*
X007531Y010842D02*
X007628Y010842D01*
X007628Y010941D02*
X007531Y010941D01*
X007531Y011039D02*
X007628Y011039D01*
X007628Y011138D02*
X008826Y011138D01*
X008826Y011039D02*
X008005Y011039D01*
X008005Y010941D02*
X008787Y010941D01*
X008689Y010842D02*
X007977Y010842D01*
X008005Y011236D02*
X008026Y011236D01*
X007717Y010543D02*
X007549Y010543D01*
X007511Y010533D01*
X007476Y010513D01*
X007448Y010485D01*
X007429Y010451D01*
X007419Y010413D01*
X007419Y010225D01*
X007717Y010225D01*
X007717Y010543D01*
X007717Y010448D02*
X007814Y010448D01*
X007814Y010350D02*
X007717Y010350D01*
X007717Y010251D02*
X007814Y010251D01*
X007717Y010153D02*
X007068Y010153D01*
X007068Y010054D02*
X007419Y010054D01*
X007419Y010128D02*
X007419Y009941D01*
X007429Y009902D01*
X007448Y009868D01*
X007476Y009840D01*
X007511Y009821D01*
X007549Y009810D01*
X007717Y009810D01*
X007717Y010128D01*
X007419Y010128D01*
X007419Y010251D02*
X007078Y010251D01*
X007177Y010350D02*
X007419Y010350D01*
X007428Y010448D02*
X007275Y010448D01*
X007106Y010562D02*
X006721Y010177D01*
X007027Y009857D02*
X007459Y009857D01*
X007419Y009956D02*
X007068Y009956D01*
X007236Y009447D02*
X007161Y009423D01*
X007091Y009387D01*
X007027Y009341D01*
X006972Y009285D01*
X006925Y009221D01*
X006890Y009151D01*
X006865Y009076D01*
X006855Y009009D01*
X007303Y009009D01*
X007303Y008909D01*
X007403Y008909D01*
X007403Y008461D01*
X007470Y008472D01*
X007545Y008496D01*
X007615Y008532D01*
X007679Y008578D01*
X007734Y008633D01*
X007781Y008697D01*
X007816Y008767D01*
X007841Y008842D01*
X007851Y008909D01*
X007403Y008909D01*
X007403Y009009D01*
X007851Y009009D01*
X007841Y009076D01*
X007816Y009151D01*
X007781Y009221D01*
X007734Y009285D01*
X007679Y009341D01*
X007615Y009387D01*
X007545Y009423D01*
X007470Y009447D01*
X007403Y009458D01*
X007403Y009009D01*
X007303Y009009D01*
X007303Y009458D01*
X007236Y009447D01*
X007303Y009365D02*
X007403Y009365D01*
X007403Y009266D02*
X007303Y009266D01*
X007303Y009168D02*
X007403Y009168D01*
X007403Y009069D02*
X007303Y009069D01*
X007303Y008971D02*
X006853Y008971D01*
X006855Y008909D02*
X006865Y008842D01*
X006890Y008767D01*
X006925Y008697D01*
X006972Y008633D01*
X007027Y008578D01*
X007091Y008532D01*
X007161Y008496D01*
X007236Y008472D01*
X007303Y008461D01*
X007303Y008909D01*
X006855Y008909D01*
X006853Y008872D02*
X006860Y008872D01*
X006887Y008774D02*
X006817Y008774D01*
X006776Y008675D02*
X006941Y008675D01*
X007029Y008577D02*
X006678Y008577D01*
X006499Y008478D02*
X007215Y008478D01*
X007303Y008478D02*
X007403Y008478D01*
X007491Y008478D02*
X009179Y008478D01*
X009179Y008380D02*
X006056Y008380D01*
X005958Y008281D02*
X009179Y008281D01*
X009179Y008183D02*
X005859Y008183D01*
X005761Y008084D02*
X009179Y008084D01*
X009179Y007986D02*
X005662Y007986D01*
X005731Y008054D02*
X005731Y008054D01*
X005531Y008137D02*
X004946Y008137D01*
X004899Y008089D01*
X004899Y007273D01*
X005099Y007690D02*
X006467Y007690D01*
X006467Y007592D02*
X005491Y007592D01*
X005498Y007493D02*
X006467Y007493D01*
X006467Y007789D02*
X005099Y007789D01*
X005099Y007887D02*
X006509Y007887D01*
X006207Y008478D02*
X006155Y008478D01*
X006353Y008959D02*
X005531Y008137D01*
X005498Y007395D02*
X006016Y007395D01*
X005936Y007296D02*
X005498Y007296D01*
X005581Y007198D02*
X005936Y007198D01*
X005936Y007099D02*
X005679Y007099D01*
X005778Y007001D02*
X005936Y007001D01*
X005936Y006902D02*
X005876Y006902D01*
X005893Y006602D02*
X006282Y006602D01*
X006282Y006406D02*
X005338Y006406D01*
X004862Y005930D01*
X004983Y005457D02*
X004822Y005295D01*
X004704Y005178D01*
X004704Y005139D01*
X004685Y005131D01*
X004589Y005036D01*
X004494Y005131D01*
X004352Y005190D01*
X004197Y005190D01*
X004055Y005131D01*
X003946Y005022D01*
X003887Y004879D01*
X003887Y004527D01*
X002976Y004527D01*
X002976Y004882D01*
X002888Y004970D01*
X002134Y004970D01*
X002046Y004882D01*
X002046Y004049D01*
X002134Y003961D01*
X002888Y003961D01*
X002976Y004049D01*
X002976Y004127D01*
X003938Y004127D01*
X003946Y004107D01*
X004055Y003998D01*
X004197Y003939D01*
X004221Y003939D01*
X004202Y003892D01*
X004202Y003262D01*
X004261Y003120D01*
X004370Y003011D01*
X004389Y003002D01*
X004389Y002925D01*
X004507Y002807D01*
X004657Y002657D01*
X005269Y002657D01*
X005386Y002774D01*
X007069Y004457D01*
X007145Y004457D01*
X007146Y004456D01*
X007160Y004456D01*
X007160Y003979D01*
X007216Y003923D01*
X007190Y003897D01*
X007170Y003863D01*
X007160Y003825D01*
X007160Y003637D01*
X007458Y003637D01*
X007458Y003540D01*
X007555Y003540D01*
X007555Y003222D01*
X007723Y003222D01*
X007761Y003232D01*
X007796Y003252D01*
X007823Y003280D01*
X007843Y003314D01*
X007853Y003352D01*
X007853Y003540D01*
X007555Y003540D01*
X007555Y003637D01*
X007853Y003637D01*
X007853Y003825D01*
X007843Y003863D01*
X007823Y003897D01*
X007797Y003923D01*
X007853Y003979D01*
X007853Y004322D01*
X007860Y004329D01*
X007860Y004563D01*
X008101Y004322D01*
X008101Y003979D01*
X008157Y003923D01*
X008107Y003849D02*
X007847Y003849D01*
X007853Y003750D02*
X008101Y003750D01*
X008101Y003652D02*
X007853Y003652D01*
X007853Y003455D02*
X008101Y003455D01*
X008101Y003356D02*
X007853Y003356D01*
X007801Y003258D02*
X008153Y003258D01*
X008399Y003258D02*
X008496Y003258D01*
X008496Y003356D02*
X008399Y003356D01*
X008399Y003455D02*
X008496Y003455D01*
X008496Y003553D02*
X009179Y003553D01*
X009179Y003455D02*
X008795Y003455D01*
X008795Y003356D02*
X009179Y003356D01*
X009179Y003258D02*
X008742Y003258D01*
X008795Y003652D02*
X009179Y003652D01*
X009179Y003750D02*
X008795Y003750D01*
X008788Y003849D02*
X009179Y003849D01*
X009179Y003947D02*
X008763Y003947D01*
X008795Y004046D02*
X009179Y004046D01*
X009179Y004144D02*
X008795Y004144D01*
X008795Y004243D02*
X009179Y004243D01*
X009179Y004341D02*
X008795Y004341D01*
X008795Y004440D02*
X009179Y004440D01*
X009179Y004538D02*
X008793Y004538D01*
X008448Y004258D02*
X007857Y004849D01*
X007857Y005618D01*
X008251Y006012D01*
X008511Y006012D01*
X008666Y005857D01*
X008666Y005377D01*
X008914Y005622D02*
X009179Y005622D01*
X009179Y005720D02*
X008866Y005720D01*
X008866Y005819D02*
X009179Y005819D01*
X009179Y005917D02*
X008866Y005917D01*
X008790Y006016D02*
X009179Y006016D01*
X009179Y006114D02*
X008692Y006114D01*
X008598Y006213D02*
X009179Y006213D01*
X009179Y006311D02*
X008598Y006311D01*
X008598Y006410D02*
X009179Y006410D01*
X009179Y006508D02*
X008598Y006508D01*
X008598Y006607D02*
X009179Y006607D01*
X009179Y006705D02*
X008598Y006705D01*
X008598Y006804D02*
X009179Y006804D01*
X009179Y006902D02*
X008598Y006902D01*
X008598Y007001D02*
X009179Y007001D01*
X009179Y007099D02*
X008598Y007099D01*
X008598Y007198D02*
X009179Y007198D01*
X009179Y007296D02*
X008598Y007296D01*
X008517Y007395D02*
X009179Y007395D01*
X009179Y007493D02*
X008066Y007493D01*
X008066Y007592D02*
X009179Y007592D01*
X009179Y007690D02*
X008066Y007690D01*
X008066Y007789D02*
X009179Y007789D01*
X009179Y007887D02*
X008024Y007887D01*
X007677Y008577D02*
X009179Y008577D01*
X009179Y008675D02*
X007765Y008675D01*
X007818Y008774D02*
X009179Y008774D01*
X009179Y008872D02*
X007845Y008872D01*
X007842Y009069D02*
X009179Y009069D01*
X009179Y008971D02*
X007403Y008971D01*
X007403Y008872D02*
X007303Y008872D01*
X007303Y008774D02*
X007403Y008774D01*
X007403Y008675D02*
X007303Y008675D01*
X007303Y008577D02*
X007403Y008577D01*
X007808Y009168D02*
X009179Y009168D01*
X009179Y009266D02*
X007748Y009266D01*
X007645Y009365D02*
X009179Y009365D01*
X009179Y009463D02*
X006252Y009463D01*
X006252Y009562D02*
X009179Y009562D01*
X009179Y009660D02*
X006252Y009660D01*
X006252Y009759D02*
X009179Y009759D01*
X009179Y009857D02*
X008741Y009857D01*
X008781Y009956D02*
X009179Y009956D01*
X009179Y010054D02*
X008781Y010054D01*
X008781Y010153D02*
X009179Y010153D01*
X009179Y010251D02*
X008781Y010251D01*
X008781Y010350D02*
X009179Y010350D01*
X009179Y010448D02*
X008861Y010448D01*
X008959Y010547D02*
X009179Y010547D01*
X009179Y010645D02*
X009058Y010645D01*
X009156Y010744D02*
X009179Y010744D01*
X008446Y011502D02*
X007106Y011502D01*
X007579Y011876D02*
X007920Y012217D01*
X009026Y012217D01*
X008906Y013177D02*
X007584Y013177D01*
X007579Y013182D01*
X007292Y012702D02*
X007052Y012942D01*
X007052Y013062D01*
X006932Y013182D01*
X006092Y013182D01*
X005758Y013517D01*
X005492Y013517D01*
X005082Y013517D01*
X004412Y012847D01*
X004579Y012680D01*
X004443Y012817D01*
X004346Y012817D01*
X004346Y011735D01*
X004575Y011506D01*
X004546Y012123D02*
X005023Y012123D01*
X005124Y012221D02*
X004546Y012221D01*
X004708Y012517D02*
X005207Y012517D01*
X005130Y012615D02*
X004779Y012615D01*
X004779Y012714D02*
X005126Y012714D01*
X005126Y012911D02*
X004779Y012911D01*
X004779Y012812D02*
X005444Y012812D01*
X005541Y012812D02*
X006206Y012812D01*
X006206Y012714D02*
X005859Y012714D01*
X005859Y012631D02*
X005859Y012799D01*
X005541Y012799D01*
X005541Y012500D01*
X005729Y012500D01*
X005767Y012511D01*
X005801Y012530D01*
X005829Y012558D01*
X005849Y012592D01*
X005859Y012631D01*
X005855Y012615D02*
X006206Y012615D01*
X006277Y012517D02*
X005778Y012517D01*
X005541Y012517D02*
X005444Y012517D01*
X005444Y012615D02*
X005541Y012615D01*
X005541Y012714D02*
X005444Y012714D01*
X005126Y013009D02*
X004857Y013009D01*
X004956Y013108D02*
X005140Y013108D01*
X005177Y013206D02*
X005054Y013206D01*
X005393Y012221D02*
X005490Y012221D01*
X005490Y012123D02*
X005393Y012123D01*
X005393Y012024D02*
X005490Y012024D01*
X005490Y011827D02*
X005393Y011827D01*
X005393Y011729D02*
X005490Y011729D01*
X005490Y011630D02*
X005393Y011630D01*
X005058Y011433D02*
X005001Y011433D01*
X005001Y011335D02*
X005016Y011335D01*
X005016Y011236D02*
X004990Y011236D01*
X004855Y009857D02*
X004829Y009857D01*
X004186Y009857D02*
X003461Y009857D01*
X003501Y009956D02*
X004145Y009956D01*
X004145Y010054D02*
X003501Y010054D01*
X003501Y010153D02*
X004145Y010153D01*
X004145Y010251D02*
X003501Y010251D01*
X003501Y010350D02*
X004145Y010350D01*
X004145Y010448D02*
X003501Y010448D01*
X003155Y010177D02*
X003155Y009114D01*
X003121Y009081D01*
X003144Y009057D01*
X002955Y009365D02*
X002835Y009365D01*
X002736Y009463D02*
X002955Y009463D01*
X002955Y009562D02*
X002638Y009562D01*
X002460Y009457D02*
X002666Y009251D01*
X002666Y008377D01*
X003144Y008377D01*
X003144Y008309D01*
X003101Y008266D01*
X003101Y006602D01*
X002528Y006607D02*
X002163Y006607D01*
X002163Y006705D02*
X002528Y006705D01*
X002528Y006804D02*
X002163Y006804D01*
X002163Y006902D02*
X002528Y006902D01*
X002528Y007001D02*
X002163Y007001D01*
X002163Y007099D02*
X002528Y007099D01*
X002528Y007198D02*
X002163Y007198D01*
X002163Y007296D02*
X002528Y007296D01*
X002528Y007395D02*
X002163Y007395D01*
X002163Y007493D02*
X002528Y007493D01*
X002528Y007592D02*
X002163Y007592D01*
X002163Y007690D02*
X002528Y007690D01*
X002570Y007789D02*
X002121Y007789D01*
X001789Y007887D02*
X002901Y007887D01*
X002901Y007986D02*
X001789Y007986D01*
X001589Y008309D02*
X001589Y006602D01*
X001409Y006422D01*
X001409Y004465D01*
X001609Y005031D02*
X003955Y005031D01*
X003909Y004932D02*
X002925Y004932D01*
X002976Y004834D02*
X003887Y004834D01*
X003887Y004735D02*
X002976Y004735D01*
X002976Y004637D02*
X003887Y004637D01*
X003887Y004538D02*
X002976Y004538D01*
X002650Y004327D02*
X004274Y004327D01*
X004177Y003947D02*
X000630Y003947D01*
X000630Y003849D02*
X004202Y003849D01*
X004202Y003750D02*
X000630Y003750D01*
X000630Y003652D02*
X004202Y003652D01*
X004202Y003553D02*
X000630Y003553D01*
X000630Y003455D02*
X004202Y003455D01*
X004202Y003356D02*
X000630Y003356D01*
X000630Y003258D02*
X004203Y003258D01*
X004244Y003159D02*
X003743Y003159D01*
X003646Y003199D02*
X003288Y003199D01*
X002958Y003062D01*
X002704Y002809D01*
X002567Y002478D01*
X002567Y002120D01*
X002704Y001789D01*
X002958Y001536D01*
X003288Y001399D01*
X003646Y001399D01*
X003977Y001536D01*
X004230Y001789D01*
X004367Y002120D01*
X004367Y002478D01*
X004230Y002809D01*
X003977Y003062D01*
X003646Y003199D01*
X003979Y003061D02*
X004320Y003061D01*
X004389Y002962D02*
X004077Y002962D01*
X004176Y002864D02*
X004450Y002864D01*
X004549Y002765D02*
X004248Y002765D01*
X004289Y002667D02*
X004647Y002667D01*
X004330Y002568D02*
X005479Y002568D01*
X005441Y002478D02*
X005441Y002120D01*
X005578Y001789D01*
X005832Y001536D01*
X006162Y001399D01*
X006520Y001399D01*
X006851Y001536D01*
X007104Y001789D01*
X007241Y002120D01*
X007241Y002478D01*
X007104Y002809D01*
X006851Y003062D01*
X006520Y003199D01*
X006162Y003199D01*
X005832Y003062D01*
X005578Y002809D01*
X005441Y002478D01*
X005441Y002470D02*
X004367Y002470D01*
X004367Y002371D02*
X005441Y002371D01*
X005441Y002273D02*
X004367Y002273D01*
X004367Y002174D02*
X005441Y002174D01*
X005460Y002076D02*
X004349Y002076D01*
X004308Y001977D02*
X005501Y001977D01*
X005541Y001879D02*
X004267Y001879D01*
X004221Y001780D02*
X005587Y001780D01*
X005686Y001682D02*
X004123Y001682D01*
X004024Y001583D02*
X005784Y001583D01*
X005956Y001485D02*
X003853Y001485D01*
X003082Y001485D02*
X002282Y001485D01*
X002323Y001583D02*
X002910Y001583D01*
X002812Y001682D02*
X002362Y001682D01*
X002362Y001780D02*
X002713Y001780D01*
X002667Y001879D02*
X002362Y001879D01*
X002362Y001977D02*
X002627Y001977D01*
X002586Y002076D02*
X002362Y002076D01*
X002322Y002174D02*
X002567Y002174D01*
X002567Y002273D02*
X002281Y002273D01*
X002240Y002371D02*
X002567Y002371D01*
X002567Y002470D02*
X002185Y002470D01*
X002087Y002568D02*
X002605Y002568D01*
X002646Y002667D02*
X001988Y002667D01*
X001835Y002765D02*
X002686Y002765D01*
X002759Y002864D02*
X001597Y002864D01*
X001125Y002864D02*
X000630Y002864D01*
X000630Y002962D02*
X002858Y002962D01*
X002956Y003061D02*
X000630Y003061D01*
X000630Y003159D02*
X003192Y003159D01*
X002973Y004046D02*
X004007Y004046D01*
X004053Y005129D02*
X001609Y005129D01*
X001609Y005228D02*
X004754Y005228D01*
X004683Y005129D02*
X004496Y005129D01*
X004263Y005622D02*
X003674Y005622D01*
X003674Y005720D02*
X004263Y005720D01*
X004263Y005819D02*
X003674Y005819D01*
X003674Y005917D02*
X004263Y005917D01*
X004168Y006016D02*
X003674Y006016D01*
X003674Y006114D02*
X004146Y006114D01*
X004146Y006213D02*
X003674Y006213D01*
X003674Y006311D02*
X004146Y006311D01*
X004146Y006410D02*
X003674Y006410D01*
X003674Y006508D02*
X004146Y006508D01*
X004146Y006607D02*
X003674Y006607D01*
X003674Y006705D02*
X004146Y006705D01*
X004146Y006804D02*
X003674Y006804D01*
X003674Y006902D02*
X004146Y006902D01*
X004146Y007001D02*
X003674Y007001D01*
X003674Y007099D02*
X004146Y007099D01*
X004146Y007198D02*
X003674Y007198D01*
X003674Y007296D02*
X004146Y007296D01*
X004146Y007395D02*
X003674Y007395D01*
X003674Y007493D02*
X004146Y007493D01*
X004146Y007592D02*
X003674Y007592D01*
X003674Y007690D02*
X004146Y007690D01*
X004146Y007789D02*
X003633Y007789D01*
X003476Y008084D02*
X004146Y008084D01*
X004146Y007986D02*
X003301Y007986D01*
X003301Y007887D02*
X004146Y007887D01*
X004229Y008183D02*
X003531Y008183D01*
X003531Y008281D02*
X004328Y008281D01*
X004426Y008380D02*
X003531Y008380D01*
X003531Y008478D02*
X004207Y008478D01*
X004028Y008577D02*
X003531Y008577D01*
X003531Y008675D02*
X003930Y008675D01*
X003888Y008774D02*
X003531Y008774D01*
X003516Y008872D02*
X003853Y008872D01*
X003853Y008971D02*
X003531Y008971D01*
X003531Y009069D02*
X003857Y009069D01*
X003898Y009168D02*
X003531Y009168D01*
X003492Y009266D02*
X003953Y009266D01*
X004051Y009365D02*
X003355Y009365D01*
X002955Y009660D02*
X001906Y009660D01*
X001807Y009759D02*
X002955Y009759D01*
X002849Y009857D02*
X002791Y009857D01*
X002534Y009857D02*
X002437Y009857D01*
X002437Y009810D02*
X002269Y009810D01*
X002231Y009821D01*
X002196Y009840D01*
X002168Y009868D01*
X002149Y009902D01*
X002139Y009941D01*
X002139Y010128D01*
X002437Y010128D01*
X002437Y009810D01*
X002437Y009956D02*
X002534Y009956D01*
X002534Y010054D02*
X002437Y010054D01*
X002437Y010153D02*
X001610Y010153D01*
X001610Y010251D02*
X002139Y010251D01*
X002139Y010225D02*
X002437Y010225D01*
X002437Y010543D01*
X002269Y010543D01*
X002231Y010533D01*
X002196Y010513D01*
X002168Y010485D01*
X002149Y010451D01*
X002139Y010413D01*
X002139Y010225D01*
X002139Y010350D02*
X001610Y010350D01*
X001610Y010448D02*
X002148Y010448D01*
X002139Y010054D02*
X001610Y010054D01*
X001610Y009956D02*
X002139Y009956D01*
X002179Y009857D02*
X001709Y009857D01*
X001346Y009937D02*
X001826Y009457D01*
X002460Y009457D01*
X002121Y009057D02*
X002121Y008309D01*
X001589Y008309D01*
X001175Y008309D01*
X001082Y008402D01*
X001429Y008577D02*
X001921Y008577D01*
X001921Y008675D02*
X001429Y008675D01*
X001405Y008774D02*
X001921Y008774D01*
X001749Y008872D02*
X001429Y008872D01*
X001429Y008971D02*
X001735Y008971D01*
X001735Y009069D02*
X001130Y009069D01*
X001130Y009120D02*
X001429Y009120D01*
X001429Y009308D01*
X001419Y009346D01*
X001399Y009380D01*
X001371Y009408D01*
X001337Y009428D01*
X001299Y009438D01*
X001130Y009438D01*
X001130Y009120D01*
X001130Y009168D02*
X001034Y009168D01*
X001034Y009266D02*
X001130Y009266D01*
X001130Y009365D02*
X001034Y009365D01*
X001034Y009069D02*
X000630Y009069D01*
X000630Y008971D02*
X000735Y008971D01*
X000735Y008872D02*
X000630Y008872D01*
X000630Y008774D02*
X000759Y008774D01*
X000735Y008675D02*
X000630Y008675D01*
X000630Y008577D02*
X000735Y008577D01*
X000735Y008478D02*
X000630Y008478D01*
X000630Y008380D02*
X000735Y008380D01*
X000735Y008281D02*
X000630Y008281D01*
X000630Y008183D02*
X000735Y008183D01*
X000774Y008084D02*
X000630Y008084D01*
X000630Y007986D02*
X001389Y007986D01*
X001389Y007887D02*
X000630Y007887D01*
X000630Y007789D02*
X001058Y007789D01*
X001016Y007690D02*
X000630Y007690D01*
X000630Y007592D02*
X001016Y007592D01*
X001016Y007493D02*
X000630Y007493D01*
X000630Y007395D02*
X001016Y007395D01*
X001016Y007296D02*
X000630Y007296D01*
X000630Y007198D02*
X001016Y007198D01*
X001016Y007099D02*
X000630Y007099D01*
X000630Y007001D02*
X001016Y007001D01*
X001016Y006902D02*
X000630Y006902D01*
X000630Y006804D02*
X001016Y006804D01*
X001016Y006705D02*
X000630Y006705D01*
X000630Y006607D02*
X001016Y006607D01*
X001016Y006508D02*
X000630Y006508D01*
X000630Y006410D02*
X001016Y006410D01*
X001016Y006311D02*
X000630Y006311D01*
X000630Y006213D02*
X001016Y006213D01*
X001016Y006114D02*
X000630Y006114D01*
X000630Y006016D02*
X001016Y006016D01*
X001016Y005917D02*
X000630Y005917D01*
X000630Y005819D02*
X001016Y005819D01*
X001016Y005720D02*
X000630Y005720D01*
X000630Y005622D02*
X001016Y005622D01*
X001016Y005523D02*
X000630Y005523D01*
X000630Y005425D02*
X001049Y005425D01*
X001209Y005326D02*
X000630Y005326D01*
X000630Y005228D02*
X001209Y005228D01*
X001209Y005129D02*
X000630Y005129D01*
X000630Y005031D02*
X001209Y005031D01*
X000994Y004932D02*
X000630Y004932D01*
X000630Y004834D02*
X000944Y004834D01*
X000944Y004735D02*
X000630Y004735D01*
X000630Y004637D02*
X000944Y004637D01*
X000944Y004538D02*
X000630Y004538D01*
X000630Y004440D02*
X000944Y004440D01*
X000944Y004341D02*
X000630Y004341D01*
X000630Y004243D02*
X000944Y004243D01*
X000944Y004144D02*
X000630Y004144D01*
X000630Y004046D02*
X000947Y004046D01*
X000887Y002765D02*
X000630Y002765D01*
X000630Y002667D02*
X000734Y002667D01*
X000636Y002568D02*
X000630Y002568D01*
X001871Y004046D02*
X002049Y004046D01*
X002046Y004144D02*
X001874Y004144D01*
X001874Y004243D02*
X002046Y004243D01*
X002046Y004341D02*
X001874Y004341D01*
X001874Y004440D02*
X002046Y004440D01*
X002046Y004538D02*
X001874Y004538D01*
X001874Y004637D02*
X002046Y004637D01*
X002046Y004735D02*
X001874Y004735D01*
X001874Y004834D02*
X002046Y004834D01*
X002097Y004932D02*
X001823Y004932D01*
X001609Y005326D02*
X004853Y005326D01*
X004951Y005425D02*
X003642Y005425D01*
X003674Y005523D02*
X006467Y005523D01*
X006467Y005539D02*
X006467Y005359D01*
X006555Y005271D01*
X007067Y005271D01*
X007067Y005140D01*
X007023Y005097D01*
X006109Y005097D01*
X005749Y005457D01*
X004983Y005457D01*
X005137Y005622D02*
X006219Y005622D01*
X006213Y005631D02*
X006233Y005597D01*
X006261Y005569D01*
X006295Y005549D01*
X006333Y005539D01*
X006439Y005539D01*
X006467Y005539D01*
X006439Y005539D02*
X006439Y005775D01*
X006439Y005775D01*
X006439Y005775D01*
X006203Y005775D01*
X006203Y005669D01*
X006213Y005631D01*
X006203Y005720D02*
X005137Y005720D01*
X005137Y005819D02*
X006007Y005819D01*
X005936Y005917D02*
X005137Y005917D01*
X005231Y006016D02*
X005936Y006016D01*
X005936Y006114D02*
X005329Y006114D01*
X005781Y005425D02*
X006467Y005425D01*
X006500Y005326D02*
X005880Y005326D01*
X005978Y005228D02*
X007067Y005228D01*
X007056Y005129D02*
X006077Y005129D01*
X005922Y004718D02*
X005943Y004697D01*
X006743Y004697D01*
X005607Y003561D01*
X005607Y003892D01*
X005587Y003942D01*
X005647Y003954D01*
X005718Y003983D01*
X005782Y004026D01*
X005836Y004080D01*
X005878Y004143D01*
X005907Y004214D01*
X005922Y004289D01*
X005922Y004308D01*
X005553Y004308D01*
X005553Y004346D01*
X005922Y004346D01*
X005922Y004718D01*
X005922Y004637D02*
X006683Y004637D01*
X006585Y004538D02*
X005922Y004538D01*
X005922Y004440D02*
X006486Y004440D01*
X006388Y004341D02*
X005553Y004341D01*
X005615Y003947D02*
X005994Y003947D01*
X005895Y003849D02*
X005607Y003849D01*
X005607Y003750D02*
X005797Y003750D01*
X005698Y003652D02*
X005607Y003652D01*
X005802Y004046D02*
X006092Y004046D01*
X006191Y004144D02*
X005879Y004144D01*
X005913Y004243D02*
X006289Y004243D01*
X006560Y003947D02*
X007192Y003947D01*
X007166Y003849D02*
X006461Y003849D01*
X006363Y003750D02*
X007160Y003750D01*
X007160Y003652D02*
X006264Y003652D01*
X006166Y003553D02*
X007458Y003553D01*
X007458Y003540D02*
X007160Y003540D01*
X007160Y003352D01*
X007170Y003314D01*
X007190Y003280D01*
X007218Y003252D01*
X007252Y003232D01*
X007290Y003222D01*
X007458Y003222D01*
X007458Y003540D01*
X007458Y003455D02*
X007555Y003455D01*
X007555Y003553D02*
X008399Y003553D01*
X008101Y004046D02*
X007853Y004046D01*
X007853Y004144D02*
X008101Y004144D01*
X008101Y004243D02*
X007853Y004243D01*
X007860Y004341D02*
X008081Y004341D01*
X007983Y004440D02*
X007860Y004440D01*
X007860Y004538D02*
X007884Y004538D01*
X008155Y004834D02*
X009179Y004834D01*
X009179Y004932D02*
X008057Y004932D01*
X008057Y005031D02*
X008592Y005031D01*
X008741Y005031D02*
X009179Y005031D01*
X009179Y005129D02*
X008911Y005129D01*
X008981Y005228D02*
X009179Y005228D01*
X009179Y005326D02*
X009014Y005326D01*
X009014Y005425D02*
X009179Y005425D01*
X009179Y005523D02*
X008982Y005523D01*
X008466Y005720D02*
X008242Y005720D01*
X008144Y005622D02*
X008419Y005622D01*
X008350Y005523D02*
X008066Y005523D01*
X008066Y005425D02*
X008318Y005425D01*
X008318Y005326D02*
X008057Y005326D01*
X008057Y005228D02*
X008351Y005228D01*
X008421Y005129D02*
X008057Y005129D01*
X008253Y004735D02*
X009179Y004735D01*
X009179Y004637D02*
X008352Y004637D01*
X007555Y003356D02*
X007458Y003356D01*
X007458Y003258D02*
X007555Y003258D01*
X007821Y002667D02*
X007163Y002667D01*
X007122Y002765D02*
X007974Y002765D01*
X008212Y002864D02*
X007050Y002864D01*
X006951Y002962D02*
X009179Y002962D01*
X009179Y002864D02*
X008684Y002864D01*
X008922Y002765D02*
X009179Y002765D01*
X009179Y002667D02*
X009075Y002667D01*
X009173Y002568D02*
X009179Y002568D01*
X009179Y003061D02*
X006853Y003061D01*
X006617Y003159D02*
X009179Y003159D01*
X007722Y002568D02*
X007204Y002568D01*
X007241Y002470D02*
X007624Y002470D01*
X007568Y002371D02*
X007241Y002371D01*
X007241Y002273D02*
X007528Y002273D01*
X007487Y002174D02*
X007241Y002174D01*
X007223Y002076D02*
X007447Y002076D01*
X007447Y001977D02*
X007182Y001977D01*
X007141Y001879D02*
X007447Y001879D01*
X007447Y001780D02*
X007095Y001780D01*
X006997Y001682D02*
X007447Y001682D01*
X007486Y001583D02*
X006898Y001583D01*
X006727Y001485D02*
X007527Y001485D01*
X007568Y001386D02*
X002241Y001386D01*
X002187Y001288D02*
X007622Y001288D01*
X007720Y001189D02*
X002088Y001189D01*
X002650Y004327D02*
X002511Y004465D01*
X002561Y005425D02*
X002130Y005425D01*
X002163Y005523D02*
X002528Y005523D01*
X002528Y005622D02*
X002163Y005622D01*
X002163Y005720D02*
X002528Y005720D01*
X002528Y005819D02*
X002163Y005819D01*
X002163Y005917D02*
X002528Y005917D01*
X002528Y006016D02*
X002163Y006016D01*
X002163Y006114D02*
X002528Y006114D01*
X002528Y006213D02*
X002163Y006213D01*
X002163Y006311D02*
X002528Y006311D01*
X002528Y006410D02*
X002163Y006410D01*
X002163Y006508D02*
X002528Y006508D01*
X002453Y008084D02*
X002812Y008084D01*
X002577Y008183D02*
X002507Y008183D01*
X001735Y009168D02*
X001429Y009168D01*
X001429Y009266D02*
X001734Y009266D01*
X001635Y009365D02*
X001408Y009365D01*
X001537Y009463D02*
X000630Y009463D01*
X000630Y009365D02*
X000756Y009365D01*
X000735Y009266D02*
X000630Y009266D01*
X000630Y009168D02*
X000735Y009168D01*
X000630Y009562D02*
X001438Y009562D01*
X001340Y009660D02*
X000630Y009660D01*
X000630Y009759D02*
X001241Y009759D01*
X001146Y009857D02*
X000630Y009857D01*
X000630Y009956D02*
X001069Y009956D01*
X001034Y010054D02*
X000630Y010054D01*
X000630Y010153D02*
X001034Y010153D01*
X001034Y010251D02*
X000630Y010251D01*
X000630Y010350D02*
X001034Y010350D01*
X001034Y010448D02*
X000630Y010448D01*
X000630Y010547D02*
X001034Y010547D01*
X001093Y010645D02*
X000630Y010645D01*
X000630Y010744D02*
X002955Y010744D01*
X002955Y010645D02*
X001551Y010645D01*
X001610Y010547D02*
X002955Y010547D01*
X002824Y010842D02*
X002816Y010842D01*
X002485Y011137D02*
X002485Y012097D01*
X001674Y012097D01*
X001322Y011745D01*
X001114Y012123D02*
X000630Y012123D01*
X000630Y012221D02*
X001515Y012221D01*
X001687Y011827D02*
X002139Y011827D01*
X002285Y011729D02*
X001610Y011729D01*
X001610Y011630D02*
X002285Y011630D01*
X002285Y011532D02*
X001610Y011532D01*
X001596Y011433D02*
X002156Y011433D01*
X002119Y011335D02*
X000630Y011335D01*
X000630Y011433D02*
X001048Y011433D01*
X001034Y011532D02*
X000630Y011532D01*
X000630Y011630D02*
X001034Y011630D01*
X001034Y011729D02*
X000630Y011729D01*
X000630Y011827D02*
X001034Y011827D01*
X001034Y011926D02*
X000630Y011926D01*
X000630Y012024D02*
X001034Y012024D01*
X000630Y012320D02*
X002139Y012320D01*
X002181Y012418D02*
X000630Y012418D01*
X000630Y012517D02*
X002477Y012517D01*
X002576Y012615D02*
X000630Y012615D01*
X000630Y012714D02*
X001370Y012714D01*
X001382Y012702D02*
X001354Y012730D01*
X001334Y012765D01*
X001324Y012803D01*
X001324Y013127D01*
X001739Y013127D01*
X001839Y013127D01*
X001839Y013227D01*
X002254Y013227D01*
X002254Y013551D01*
X002244Y013589D01*
X002224Y013623D01*
X002196Y013651D01*
X002162Y013671D01*
X002124Y013681D01*
X001839Y013681D01*
X001839Y013227D01*
X001739Y013227D01*
X001739Y013681D01*
X001454Y013681D01*
X001416Y013671D01*
X001382Y013651D01*
X001354Y013623D01*
X001334Y013589D01*
X001324Y013551D01*
X001324Y013227D01*
X001739Y013227D01*
X001739Y013127D01*
X001739Y012673D01*
X001454Y012673D01*
X001416Y012683D01*
X001382Y012702D01*
X001324Y012812D02*
X000630Y012812D01*
X000630Y012911D02*
X001324Y012911D01*
X001324Y013009D02*
X000630Y013009D01*
X000630Y013108D02*
X001324Y013108D01*
X001324Y013305D02*
X000630Y013305D01*
X000630Y013403D02*
X001324Y013403D01*
X001324Y013502D02*
X000630Y013502D01*
X000630Y013600D02*
X001341Y013600D01*
X001416Y013883D02*
X001454Y013873D01*
X001739Y013873D01*
X001739Y014327D01*
X001839Y014327D01*
X001839Y014427D01*
X002254Y014427D01*
X002254Y014751D01*
X002244Y014789D01*
X002224Y014823D01*
X002196Y014851D01*
X002162Y014871D01*
X002124Y014881D01*
X001839Y014881D01*
X001739Y014881D01*
X001454Y014881D01*
X001416Y014871D01*
X001382Y014851D01*
X001354Y014823D01*
X001334Y014789D01*
X001324Y014751D01*
X001324Y014427D01*
X001739Y014427D01*
X001739Y014881D01*
X001739Y014782D02*
X001839Y014782D01*
X001839Y014684D02*
X001739Y014684D01*
X001739Y014585D02*
X001839Y014585D01*
X001839Y014487D02*
X001739Y014487D01*
X001739Y014427D02*
X001839Y014427D01*
X001839Y014881D01*
X001628Y015078D02*
X003737Y015078D01*
X003737Y015176D02*
X001865Y015176D01*
X002001Y015275D02*
X003737Y015275D01*
X003737Y015373D02*
X002099Y015373D01*
X002198Y015472D02*
X003737Y015472D01*
X003737Y015570D02*
X002246Y015570D01*
X002286Y015669D02*
X003737Y015669D01*
X003686Y015767D02*
X002327Y015767D01*
X002362Y015866D02*
X003645Y015866D01*
X003616Y015964D02*
X002362Y015964D01*
X002362Y016063D02*
X003616Y016063D01*
X003616Y016161D02*
X002362Y016161D01*
X002358Y016260D02*
X003654Y016260D01*
X003695Y016358D02*
X002318Y016358D01*
X002277Y016457D02*
X003781Y016457D01*
X003897Y016555D02*
X002236Y016555D01*
X002174Y016654D02*
X007635Y016654D01*
X007573Y016555D02*
X005872Y016555D01*
X005988Y016457D02*
X007532Y016457D01*
X007491Y016358D02*
X006074Y016358D01*
X006115Y016260D02*
X007450Y016260D01*
X007447Y016161D02*
X006154Y016161D01*
X006154Y016063D02*
X007447Y016063D01*
X007447Y015964D02*
X006154Y015964D01*
X006125Y015866D02*
X007447Y015866D01*
X007482Y015767D02*
X006084Y015767D01*
X006098Y015669D02*
X007522Y015669D01*
X007563Y015570D02*
X006169Y015570D01*
X006067Y014022D02*
X006572Y013517D01*
X006206Y012911D02*
X005859Y012911D01*
X005859Y013009D02*
X005982Y013009D01*
X005884Y013108D02*
X005845Y013108D01*
X007292Y012702D02*
X008340Y012702D01*
X008446Y012808D01*
X007814Y010054D02*
X007717Y010054D01*
X007717Y009956D02*
X007814Y009956D01*
X007814Y009857D02*
X007717Y009857D01*
X008071Y009857D02*
X008129Y009857D01*
X007061Y009365D02*
X006654Y009365D01*
X006753Y009266D02*
X006958Y009266D01*
X006898Y009168D02*
X006808Y009168D01*
X006848Y009069D02*
X006864Y009069D01*
X006353Y008959D02*
X006052Y009260D01*
X006052Y010177D01*
X006358Y009857D02*
X006415Y009857D01*
X005223Y007273D02*
X005893Y006602D01*
X006439Y005775D02*
X006439Y005539D01*
X006439Y005622D02*
X006439Y005622D01*
X006439Y005720D02*
X006439Y005720D01*
X007052Y004440D02*
X007160Y004440D01*
X007160Y004341D02*
X006954Y004341D01*
X006855Y004243D02*
X007160Y004243D01*
X007160Y004144D02*
X006757Y004144D01*
X006658Y004046D02*
X007160Y004046D01*
X007160Y003455D02*
X006067Y003455D01*
X005969Y003356D02*
X007160Y003356D01*
X007212Y003258D02*
X005870Y003258D01*
X005772Y003159D02*
X006066Y003159D01*
X005830Y003061D02*
X005673Y003061D01*
X005732Y002962D02*
X005575Y002962D01*
X005633Y002864D02*
X005476Y002864D01*
X005560Y002765D02*
X005378Y002765D01*
X005279Y002667D02*
X005520Y002667D01*
X004525Y008478D02*
X004499Y008478D01*
X003155Y010177D02*
X003155Y011137D01*
X003155Y012097D01*
X002891Y012648D02*
X002485Y012242D01*
X002485Y012097D01*
X002473Y012714D02*
X002207Y012714D01*
X002196Y012702D02*
X002224Y012730D01*
X002244Y012765D01*
X002254Y012803D01*
X002254Y013127D01*
X001839Y013127D01*
X001839Y012673D01*
X002124Y012673D01*
X002162Y012683D01*
X002196Y012702D01*
X002254Y012812D02*
X002426Y012812D01*
X002426Y012911D02*
X002254Y012911D01*
X002254Y013009D02*
X002426Y013009D01*
X002426Y013108D02*
X002254Y013108D01*
X002254Y013305D02*
X002426Y013305D01*
X002426Y013403D02*
X002254Y013403D01*
X002254Y013502D02*
X002426Y013502D01*
X002433Y013600D02*
X002237Y013600D01*
X002162Y013883D02*
X002124Y013873D01*
X001839Y013873D01*
X001839Y014327D01*
X002254Y014327D01*
X002254Y014003D01*
X002244Y013965D01*
X002224Y013930D01*
X002196Y013902D01*
X002162Y013883D01*
X002184Y013896D02*
X002491Y013896D01*
X002426Y013994D02*
X002252Y013994D01*
X002254Y014093D02*
X002426Y014093D01*
X002426Y014191D02*
X002254Y014191D01*
X002254Y014290D02*
X002426Y014290D01*
X002426Y014388D02*
X001839Y014388D01*
X001839Y014290D02*
X001739Y014290D01*
X001739Y014327D02*
X001324Y014327D01*
X001324Y014003D01*
X001334Y013965D01*
X001354Y013930D01*
X001382Y013902D01*
X001416Y013883D01*
X001393Y013896D02*
X000630Y013896D01*
X000630Y013994D02*
X001326Y013994D01*
X001324Y014093D02*
X000630Y014093D01*
X000630Y014191D02*
X001324Y014191D01*
X001324Y014290D02*
X000630Y014290D01*
X000630Y014388D02*
X001739Y014388D01*
X001739Y014427D02*
X001739Y014327D01*
X001739Y014191D02*
X001839Y014191D01*
X001839Y014093D02*
X001739Y014093D01*
X001739Y013994D02*
X001839Y013994D01*
X001839Y013896D02*
X001739Y013896D01*
X001739Y013600D02*
X001839Y013600D01*
X001839Y013502D02*
X001739Y013502D01*
X001739Y013403D02*
X001839Y013403D01*
X001839Y013305D02*
X001739Y013305D01*
X001739Y013206D02*
X000630Y013206D01*
X000630Y013699D02*
X002691Y013699D01*
X002691Y013797D02*
X000630Y013797D01*
X000630Y014487D02*
X001324Y014487D01*
X001324Y014585D02*
X000630Y014585D01*
X000630Y014684D02*
X001324Y014684D01*
X001332Y014782D02*
X000630Y014782D01*
X000630Y014881D02*
X001453Y014881D01*
X001095Y015078D02*
X000630Y015078D01*
X000630Y015176D02*
X000857Y015176D01*
X000722Y015275D02*
X000630Y015275D01*
X000630Y014979D02*
X003737Y014979D01*
X002891Y014377D02*
X002891Y013177D01*
X002891Y012648D01*
X002426Y013206D02*
X001839Y013206D01*
X001839Y013108D02*
X001739Y013108D01*
X001739Y013009D02*
X001839Y013009D01*
X001839Y012911D02*
X001739Y012911D01*
X001739Y012812D02*
X001839Y012812D01*
X001839Y012714D02*
X001739Y012714D01*
X002119Y011236D02*
X000630Y011236D01*
X000630Y011138D02*
X002119Y011138D01*
X002119Y011039D02*
X000630Y011039D01*
X000630Y010941D02*
X002119Y010941D01*
X002154Y010842D02*
X000630Y010842D01*
X001322Y010289D02*
X001346Y010264D01*
X001346Y009937D01*
X002437Y010251D02*
X002534Y010251D01*
X002534Y010350D02*
X002437Y010350D01*
X002437Y010448D02*
X002534Y010448D01*
X002426Y014487D02*
X002254Y014487D01*
X002254Y014585D02*
X002426Y014585D01*
X002426Y014684D02*
X002254Y014684D01*
X002245Y014782D02*
X002426Y014782D01*
X002514Y014881D02*
X002125Y014881D01*
X002076Y016752D02*
X007733Y016752D01*
D28*
X006023Y012386D03*
X004943Y012386D03*
X003743Y013226D03*
X003743Y010946D03*
X003743Y009746D03*
X001823Y010226D03*
X005663Y005906D03*
X006143Y004466D03*
X006743Y003626D03*
X005903Y007706D03*
X008497Y008974D03*
D29*
X008666Y005377D03*
M02*
