%
M48
M72
T01C0.0197
T02C0.0236
T03C0.0276
T04C0.0394
T05C0.0400
T06C0.0787
T07C0.1102
%
T01
X3743Y9746
X3743Y10946
X4943Y12386
X6023Y12386
X3743Y13226
X1823Y10226
X5663Y5906
X6143Y4466
X6743Y3626
X5903Y7706
X8497Y8974
T02
X8666Y5377
T03
X5534Y4327
X5219Y3815
X4904Y4327
X4589Y3815
X4274Y4327
T04
X4196Y16051
X5574Y16051
T05
X5353Y8959
X6353Y8959
X7353Y8959
X4353Y8959
T06
X3467Y2299
X6341Y2299
T07
X1361Y1878
X8448Y1878
X8448Y16051
X1361Y16051
M30
