0
SECTION
2
HEADER
9
$ANGDIR
70
0
9
$CHAMFERA
40
10
9
$CHAMFERB
40
10
9
$CLAYER
8
Layer_1
9
$EXTMAX
10
224.97147302904568
20
493.30124481327806
9
$EXTMIN
10
3.3882780063453879
20
20.757676348547818
9
$LIMMAX
10
600
20
498
9
$LIMMIN
10
0
20
0
9
$LTSCALE
40
10
9
$PLINEGEN
70
0
9
$TEXTSIZE
40
20
9
$GRIDUNIT
10
10
20
10
9
$SNAPUNIT
10
1
20
1
0
ENDSEC
0
SECTION
2
TABLES
0
TABLE
2
STYLE
70
1
0
STYLE
2
STANDARD
70
0
40
0
41
1
50
0
71
0
42
0.20000000000000001
3
txt
4

0
ENDTAB
0
TABLE
2
LTYPE
70
14
0
LTYPE
2
CONTINUOUS
70
0
3
Solid line
72
65
73
0
40
0
0
LTYPE
2
DOT
70
0
3
............................................
72
65
73
2
40
0.25
49
0
49
-0.25
0
LTYPE
2
HIDDEN
70
0
3
_ _ _ _ _ _ _ _ _ _ _ _ _ _ _ _ _ _ _ _ _ _ 
72
65
73
2
40
0.375
49
0.25
49
-0.125
0
LTYPE
2
TSLONGDASH
70
0
3
__ __ __ __ __ __ __ __ __ __ __ __ __ __ _ 
72
65
73
2
40
1.28
49
1
49
-0.28000000000000003
0
LTYPE
2
TSDASHDOT
70
0
3
______ . ______ . ______ . ______ . ______ .
72
65
73
4
40
1.28
49
1
49
-0.14000000000000001
49
0
49
-0.14000000000000001
0
LTYPE
2
TSCENTER
70
0
3
______ _ ______ _ ______ _ ______ _ ______ _
72
65
73
4
40
2
49
1.5
49
-0.17999999999999999
49
0.14000000000000001
49
-0.17999999999999999
0
LTYPE
2
TSPHANTOM
70
0
3
_____ _ _ _____ _ _ _____ _ _ _____ _ _ ____
72
65
73
6
40
2.5
49
1.6299999999999999
49
-0.19
49
0.14999999999999999
49
-0.19
49
0.14999999999999999
49
-0.19
0
LTYPE
2
DASHED
70
0
3
__ __ __ __ __ __ __ __ __ __ __ __ __ __ __
72
65
73
2
40
0.75
49
0.5
49
-0.25
0
LTYPE
2
CENTER
70
0
3
____ _ ____ _ ____ _ ____ _ ____ _ ____ _ __
72
65
73
4
40
2
49
1.25
49
-0.25
49
0.25
49
-0.25
0
LTYPE
2
PHANTOM
70
0
3
_____ _ _ _____ _ _ _____ _ _ _____ _ _ ____
72
65
73
6
40
2.5
49
1.25
49
-0.25
49
0.25
49
-0.25
49
0.25
49
-0.25
0
LTYPE
2
DASHDOT
70
0
3
__ . __ . __ . __ . __ . __ . __ . __ . __ .
72
65
73
4
40
1
49
0.5
49
-0.25
49
0
49
-0.25
0
LTYPE
2
BORDER
70
0
3
__ __ . __ __ . __ __ . __ __ . __ __ . __ _
72
65
73
6
40
1.75
49
0.5
49
-0.25
49
0.5
49
-0.25
49
0
49
-0.25
0
LTYPE
2
DIVIDE
70
0
3
__ . . __ . . __ . . __ . . __ . . __ . . __
72
65
73
6
40
1.25
49
0.5
49
-0.25
49
0
49
-0.25
49
0
49
-0.25
0
ENDTAB
0
TABLE
2
LAYER
70
4
0
LAYER
2
Layer_1
70
0
62
7
6
CONTINUOUS
0
LAYER
2
Layer_2
70
0
62
7
6
CONTINUOUS
0
LAYER
2
Layer_3
70
0
62
7
6
CONTINUOUS
0
LAYER
2
20
70
0
62
7
6
CONTINUOUS
0
ENDTAB
0
ENDSEC
0
SECTION
2
ENTITIES
0
ARC
8
20
6
CONTINUOUS
62
1
10
119.47147302904568
20
466.25767634854782
40
3
50
180
51
270
0
LINE
8
20
6
CONTINUOUS
62
1
10
119.47147302904568
20
463.25767634854782
11
221.97147302904568
21
463.25767634854782
0
ARC
8
20
6
CONTINUOUS
62
1
10
221.97147302904568
20
466.25767634854782
40
3
50
270
51
0
0
LINE
8
20
6
CONTINUOUS
62
1
10
224.97147302904568
20
466.25767634854782
11
224.97147302904568
21
489.75767634854782
0
ARC
8
20
6
CONTINUOUS
62
1
10
221.97147302904568
20
489.75767634854782
40
3
50
0
51
90
0
LINE
8
20
6
CONTINUOUS
62
1
10
221.97147302904568
20
492.75767634854782
11
119.47147302904568
21
492.75767634854782
0
ARC
8
20
6
CONTINUOUS
62
1
10
119.47147302904568
20
489.75767634854782
40
3
50
90
51
180
0
LINE
8
20
6
CONTINUOUS
62
1
10
116.47147302904568
20
489.75767634854782
11
116.47147302904568
21
466.25767634854782
0
POLYLINE
8
20
6
CONTINUOUS
62
1
66
1
10
0
20
0
70
129
40
0
41
0
0
VERTEX
8
20
6
CONTINUOUS
62
1
10
123.47147302904568
20
484.35767634854778
0
VERTEX
8
20
6
CONTINUOUS
62
1
10
217.97147302904568
20
484.35767634854778
0
VERTEX
8
20
6
CONTINUOUS
62
1
10
217.97147302904568
20
471.95767634854781
0
VERTEX
8
20
6
CONTINUOUS
62
1
10
123.47147302904568
20
471.95767634854781
0
VERTEX
8
20
6
CONTINUOUS
62
1
10
123.47147302904568
20
484.35767634854778
0
SEQEND
0
CIRCLE
8
20
6
CONTINUOUS
62
1
10
122.47147302904568
20
489.45767634854781
40
1.8499999999999659
0
CIRCLE
8
20
6
CONTINUOUS
62
1
10
218.97147302904568
20
489.45767634854781
40
1.8500000000000227
0
CIRCLE
8
20
6
CONTINUOUS
62
1
10
122.47147302904568
20
467.95767634854781
40
1.8499999999999659
0
CIRCLE
8
20
6
CONTINUOUS
62
1
10
218.97147302904568
20
467.95767634854781
40
1.8500000000000227
0
ARC
8
20
6
CONTINUOUS
62
1
10
6.3882780083661714
20
466.80124481327806
40
3
50
180
51
270
0
LINE
8
20
6
CONTINUOUS
62
1
10
6.3882780083661714
20
463.80124481327806
11
108.88827800836617
21
463.80124481327806
0
ARC
8
20
6
CONTINUOUS
62
1
10
108.88827800836617
20
466.80124481327806
40
3
50
270
51
0
0
LINE
8
20
6
CONTINUOUS
62
1
10
111.88827800836617
20
466.80124481327806
11
111.88827800836617
21
490.30124481327806
0
ARC
8
20
6
CONTINUOUS
62
1
10
108.88827800836617
20
490.30124481327806
40
3
50
0
51
90
0
LINE
8
20
6
CONTINUOUS
62
1
10
108.88827800836617
20
493.30124481327806
11
6.3882780083661714
21
493.30124481327806
0
ARC
8
20
6
CONTINUOUS
62
1
10
6.3882780083661714
20
490.30124481327806
40
3
50
90
51
180
0
LINE
8
20
6
CONTINUOUS
62
1
10
3.3882780083661714
20
490.30124481327806
11
3.3882780083661714
21
466.80124481327806
0
POLYLINE
8
20
6
CONTINUOUS
62
1
66
1
10
0
20
0
70
129
40
0
41
0
0
VERTEX
8
20
6
CONTINUOUS
62
1
10
10.388278008366171
20
484.90124481327803
0
VERTEX
8
20
6
CONTINUOUS
62
1
10
104.88827800836617
20
484.90124481327803
0
VERTEX
8
20
6
CONTINUOUS
62
1
10
104.88827800836617
20
472.50124481327805
0
VERTEX
8
20
6
CONTINUOUS
62
1
10
86.888278008366171
20
472.50124481327805
0
VERTEX
8
20
6
CONTINUOUS
62
1
10
86.888278008366171
20
469.50124481327805
0
VERTEX
8
20
6
CONTINUOUS
62
1
10
71.888278008366171
20
469.50124481327805
0
VERTEX
8
20
6
CONTINUOUS
62
1
10
71.888278008366171
20
472.50124481327805
0
VERTEX
8
20
6
CONTINUOUS
62
1
10
10.388278008366171
20
472.50124481327805
0
VERTEX
8
20
6
CONTINUOUS
62
1
10
10.388278008366171
20
484.90124481327803
0
SEQEND
0
CIRCLE
8
20
6
CONTINUOUS
62
1
10
9.3882780083661714
20
490.00124481327805
40
1.8500000000000227
0
CIRCLE
8
20
6
CONTINUOUS
62
1
10
105.88827800836617
20
490.00124481327805
40
1.8500000000000227
0
CIRCLE
8
20
6
CONTINUOUS
62
1
10
9.3882780083661714
20
468.50124481327805
40
1.8500000000000227
0
CIRCLE
8
20
6
CONTINUOUS
62
1
10
105.88827800836617
20
468.50124481327805
40
1.8500000000000227
0
ARC
8
20
6
CONTINUOUS
62
1
10
6.3882780082314525
20
460.80124481327806
40
3
50
90
51
180
0
LINE
8
20
6
CONTINUOUS
62
1
10
3.3882780082314525
20
460.80124481327806
11
3.3882780082314525
21
437.30124481327806
0
ARC
8
20
6
CONTINUOUS
62
1
10
6.3882780082314525
20
437.30124481327806
40
3
50
180
51
270
0
LINE
8
20
6
CONTINUOUS
62
1
10
6.3882780082314525
20
434.30124481327806
11
108.88827800823145
21
434.30124481327806
0
ARC
8
20
6
CONTINUOUS
62
1
10
108.88827800823145
20
437.30124481327806
40
3
50
270
51
0
0
LINE
8
20
6
CONTINUOUS
62
1
10
111.88827800823145
20
437.30124481327806
11
111.88827800823145
21
460.80124481327806
0
ARC
8
20
6
CONTINUOUS
62
1
10
108.88827800823145
20
460.80124481327806
40
3
50
0
51
90
0
POLYLINE
8
20
6
CONTINUOUS
62
1
66
1
10
0
20
0
70
129
40
0
41
0
0
VERTEX
8
20
6
CONTINUOUS
62
1
10
10.388278008231453
20
455.40124481327803
0
VERTEX
8
20
6
CONTINUOUS
62
1
10
104.88827800823145
20
455.40124481327803
0
VERTEX
8
20
6
CONTINUOUS
62
1
10
104.88827800823145
20
443.00124481327805
0
VERTEX
8
20
6
CONTINUOUS
62
1
10
86.888278008231453
20
443.00124481327805
0
VERTEX
8
20
6
CONTINUOUS
62
1
10
86.888278008231453
20
440.00124481327805
0
VERTEX
8
20
6
CONTINUOUS
62
1
10
71.888278008231453
20
440.00124481327805
0
VERTEX
8
20
6
CONTINUOUS
62
1
10
71.888278008231453
20
443.00124481327805
0
VERTEX
8
20
6
CONTINUOUS
62
1
10
10.388278008231453
20
443.00124481327805
0
VERTEX
8
20
6
CONTINUOUS
62
1
10
10.388278008231453
20
455.40124481327803
0
SEQEND
0
CIRCLE
8
20
6
CONTINUOUS
62
1
10
9.3882780082314525
20
460.50124481327805
40
1.8500000000000227
0
CIRCLE
8
20
6
CONTINUOUS
62
1
10
105.88827800823145
20
460.50124481327805
40
1.8500000000000227
0
CIRCLE
8
20
6
CONTINUOUS
62
1
10
9.3882780082314525
20
439.00124481327805
40
1.8500000000000227
0
CIRCLE
8
20
6
CONTINUOUS
62
1
10
105.88827800823145
20
439.00124481327805
40
1.8500000000000227
0
ARC
8
20
6
CONTINUOUS
62
1
10
6.3882780080967336
20
431.30124481327806
40
3
50
90
51
180
0
LINE
8
20
6
CONTINUOUS
62
1
10
3.3882780080967336
20
431.30124481327806
11
3.3882780080967336
21
407.80124481327806
0
ARC
8
20
6
CONTINUOUS
62
1
10
6.3882780080967336
20
407.80124481327806
40
3
50
180
51
270
0
LINE
8
20
6
CONTINUOUS
62
1
10
6.3882780080967336
20
404.80124481327806
11
108.88827800809673
21
404.80124481327806
0
ARC
8
20
6
CONTINUOUS
62
1
10
108.88827800809673
20
407.80124481327806
40
3
50
270
51
0
0
LINE
8
20
6
CONTINUOUS
62
1
10
111.88827800809673
20
407.80124481327806
11
111.88827800809673
21
431.30124481327806
0
ARC
8
20
6
CONTINUOUS
62
1
10
108.88827800809673
20
431.30124481327806
40
3
50
0
51
90
0
POLYLINE
8
20
6
CONTINUOUS
62
1
66
1
10
0
20
0
70
129
40
0
41
0
0
VERTEX
8
20
6
CONTINUOUS
62
1
10
10.388278008096734
20
425.90124481327803
0
VERTEX
8
20
6
CONTINUOUS
62
1
10
104.88827800809673
20
425.90124481327803
0
VERTEX
8
20
6
CONTINUOUS
62
1
10
104.88827800809673
20
413.50124481327805
0
VERTEX
8
20
6
CONTINUOUS
62
1
10
86.888278008096734
20
413.50124481327805
0
VERTEX
8
20
6
CONTINUOUS
62
1
10
86.888278008096734
20
410.50124481327805
0
VERTEX
8
20
6
CONTINUOUS
62
1
10
71.888278008096734
20
410.50124481327805
0
VERTEX
8
20
6
CONTINUOUS
62
1
10
71.888278008096734
20
413.50124481327805
0
VERTEX
8
20
6
CONTINUOUS
62
1
10
10.388278008096734
20
413.50124481327805
0
VERTEX
8
20
6
CONTINUOUS
62
1
10
10.388278008096734
20
425.90124481327803
0
SEQEND
0
CIRCLE
8
20
6
CONTINUOUS
62
1
10
9.3882780080967336
20
431.00124481327805
40
1.8500000000000227
0
CIRCLE
8
20
6
CONTINUOUS
62
1
10
105.88827800809673
20
431.00124481327805
40
1.8500000000000227
0
CIRCLE
8
20
6
CONTINUOUS
62
1
10
9.3882780080967336
20
409.50124481327805
40
1.8500000000000227
0
CIRCLE
8
20
6
CONTINUOUS
62
1
10
105.88827800809673
20
409.50124481327805
40
1.8500000000000227
0
ARC
8
20
6
CONTINUOUS
62
1
10
6.3882780079620147
20
401.80124481327806
40
3
50
90
51
180
0
LINE
8
20
6
CONTINUOUS
62
1
10
3.3882780079620147
20
401.80124481327806
11
3.3882780079620147
21
378.30124481327806
0
ARC
8
20
6
CONTINUOUS
62
1
10
6.3882780079620147
20
378.30124481327806
40
3
50
180
51
270
0
LINE
8
20
6
CONTINUOUS
62
1
10
6.3882780079620147
20
375.30124481327806
11
108.88827800796201
21
375.30124481327806
0
ARC
8
20
6
CONTINUOUS
62
1
10
108.88827800796201
20
378.30124481327806
40
3
50
270
51
0
0
LINE
8
20
6
CONTINUOUS
62
1
10
111.88827800796201
20
378.30124481327806
11
111.88827800796201
21
401.80124481327806
0
ARC
8
20
6
CONTINUOUS
62
1
10
108.88827800796201
20
401.80124481327806
40
3
50
0
51
90
0
POLYLINE
8
20
6
CONTINUOUS
62
1
66
1
10
0
20
0
70
129
40
0
41
0
0
VERTEX
8
20
6
CONTINUOUS
62
1
10
10.388278007962015
20
396.40124481327803
0
VERTEX
8
20
6
CONTINUOUS
62
1
10
104.88827800796201
20
396.40124481327803
0
VERTEX
8
20
6
CONTINUOUS
62
1
10
104.88827800796201
20
384.00124481327805
0
VERTEX
8
20
6
CONTINUOUS
62
1
10
86.888278007962015
20
384.00124481327805
0
VERTEX
8
20
6
CONTINUOUS
62
1
10
86.888278007962015
20
381.00124481327805
0
VERTEX
8
20
6
CONTINUOUS
62
1
10
71.888278007962015
20
381.00124481327805
0
VERTEX
8
20
6
CONTINUOUS
62
1
10
71.888278007962015
20
384.00124481327805
0
VERTEX
8
20
6
CONTINUOUS
62
1
10
10.388278007962015
20
384.00124481327805
0
VERTEX
8
20
6
CONTINUOUS
62
1
10
10.388278007962015
20
396.40124481327803
0
SEQEND
0
CIRCLE
8
20
6
CONTINUOUS
62
1
10
9.3882780079620147
20
401.50124481327805
40
1.8500000000000227
0
CIRCLE
8
20
6
CONTINUOUS
62
1
10
105.88827800796201
20
401.50124481327805
40
1.8500000000000227
0
CIRCLE
8
20
6
CONTINUOUS
62
1
10
9.3882780079620147
20
380.00124481327805
40
1.8500000000000227
0
CIRCLE
8
20
6
CONTINUOUS
62
1
10
105.88827800796201
20
380.00124481327805
40
1.8500000000000227
0
ARC
8
20
6
CONTINUOUS
62
1
10
6.3882780078272958
20
372.30124481327806
40
3
50
90
51
180
0
LINE
8
20
6
CONTINUOUS
62
1
10
3.3882780078272958
20
372.30124481327806
11
3.3882780078272958
21
348.80124481327806
0
ARC
8
20
6
CONTINUOUS
62
1
10
6.3882780078272958
20
348.80124481327806
40
3
50
180
51
270
0
LINE
8
20
6
CONTINUOUS
62
1
10
6.3882780078272958
20
345.80124481327806
11
108.8882780078273
21
345.80124481327806
0
ARC
8
20
6
CONTINUOUS
62
1
10
108.8882780078273
20
348.80124481327806
40
3
50
270
51
0
0
LINE
8
20
6
CONTINUOUS
62
1
10
111.8882780078273
20
348.80124481327806
11
111.8882780078273
21
372.30124481327806
0
ARC
8
20
6
CONTINUOUS
62
1
10
108.8882780078273
20
372.30124481327806
40
3
50
0
51
90
0
POLYLINE
8
20
6
CONTINUOUS
62
1
66
1
10
0
20
0
70
129
40
0
41
0
0
VERTEX
8
20
6
CONTINUOUS
62
1
10
10.388278007827296
20
366.90124481327803
0
VERTEX
8
20
6
CONTINUOUS
62
1
10
104.8882780078273
20
366.90124481327803
0
VERTEX
8
20
6
CONTINUOUS
62
1
10
104.8882780078273
20
354.50124481327805
0
VERTEX
8
20
6
CONTINUOUS
62
1
10
86.888278007827296
20
354.50124481327805
0
VERTEX
8
20
6
CONTINUOUS
62
1
10
86.888278007827296
20
351.50124481327805
0
VERTEX
8
20
6
CONTINUOUS
62
1
10
71.888278007827296
20
351.50124481327805
0
VERTEX
8
20
6
CONTINUOUS
62
1
10
71.888278007827296
20
354.50124481327805
0
VERTEX
8
20
6
CONTINUOUS
62
1
10
10.388278007827296
20
354.50124481327805
0
VERTEX
8
20
6
CONTINUOUS
62
1
10
10.388278007827296
20
366.90124481327803
0
SEQEND
0
CIRCLE
8
20
6
CONTINUOUS
62
1
10
9.3882780078272958
20
372.00124481327805
40
1.8500000000000227
0
CIRCLE
8
20
6
CONTINUOUS
62
1
10
105.8882780078273
20
372.00124481327805
40
1.8500000000000227
0
CIRCLE
8
20
6
CONTINUOUS
62
1
10
9.3882780078272958
20
350.50124481327805
40
1.8500000000000227
0
CIRCLE
8
20
6
CONTINUOUS
62
1
10
105.8882780078273
20
350.50124481327805
40
1.8500000000000227
0
ARC
8
20
6
CONTINUOUS
62
1
10
6.3882780076925769
20
342.80124481327806
40
3
50
90
51
180
0
LINE
8
20
6
CONTINUOUS
62
1
10
3.3882780076925769
20
342.80124481327806
11
3.3882780076925769
21
319.30124481327806
0
ARC
8
20
6
CONTINUOUS
62
1
10
6.3882780076925769
20
319.30124481327806
40
3
50
180
51
270
0
LINE
8
20
6
CONTINUOUS
62
1
10
6.3882780076925769
20
316.30124481327806
11
108.88827800769258
21
316.30124481327806
0
ARC
8
20
6
CONTINUOUS
62
1
10
108.88827800769258
20
319.30124481327806
40
3
50
270
51
0
0
LINE
8
20
6
CONTINUOUS
62
1
10
111.88827800769258
20
319.30124481327806
11
111.88827800769258
21
342.80124481327806
0
ARC
8
20
6
CONTINUOUS
62
1
10
108.88827800769258
20
342.80124481327806
40
3
50
0
51
90
0
POLYLINE
8
20
6
CONTINUOUS
62
1
66
1
10
0
20
0
70
129
40
0
41
0
0
VERTEX
8
20
6
CONTINUOUS
62
1
10
10.388278007692577
20
337.40124481327803
0
VERTEX
8
20
6
CONTINUOUS
62
1
10
104.88827800769258
20
337.40124481327803
0
VERTEX
8
20
6
CONTINUOUS
62
1
10
104.88827800769258
20
325.00124481327805
0
VERTEX
8
20
6
CONTINUOUS
62
1
10
86.888278007692577
20
325.00124481327805
0
VERTEX
8
20
6
CONTINUOUS
62
1
10
86.888278007692577
20
322.00124481327805
0
VERTEX
8
20
6
CONTINUOUS
62
1
10
71.888278007692577
20
322.00124481327805
0
VERTEX
8
20
6
CONTINUOUS
62
1
10
71.888278007692577
20
325.00124481327805
0
VERTEX
8
20
6
CONTINUOUS
62
1
10
10.388278007692577
20
325.00124481327805
0
VERTEX
8
20
6
CONTINUOUS
62
1
10
10.388278007692577
20
337.40124481327803
0
SEQEND
0
CIRCLE
8
20
6
CONTINUOUS
62
1
10
9.3882780076925769
20
342.50124481327805
40
1.8500000000000227
0
CIRCLE
8
20
6
CONTINUOUS
62
1
10
105.88827800769258
20
342.50124481327805
40
1.8500000000000227
0
CIRCLE
8
20
6
CONTINUOUS
62
1
10
9.3882780076925769
20
321.00124481327805
40
1.8500000000000227
0
CIRCLE
8
20
6
CONTINUOUS
62
1
10
105.88827800769258
20
321.00124481327805
40
1.8500000000000227
0
ARC
8
20
6
CONTINUOUS
62
1
10
6.388278007557858
20
313.30124481327806
40
3
50
90
51
180
0
LINE
8
20
6
CONTINUOUS
62
1
10
3.388278007557858
20
313.30124481327806
11
3.388278007557858
21
289.80124481327806
0
ARC
8
20
6
CONTINUOUS
62
1
10
6.388278007557858
20
289.80124481327806
40
3
50
180
51
270
0
LINE
8
20
6
CONTINUOUS
62
1
10
6.388278007557858
20
286.80124481327806
11
108.88827800755786
21
286.80124481327806
0
ARC
8
20
6
CONTINUOUS
62
1
10
108.88827800755786
20
289.80124481327806
40
3
50
270
51
0
0
LINE
8
20
6
CONTINUOUS
62
1
10
111.88827800755786
20
289.80124481327806
11
111.88827800755786
21
313.30124481327806
0
ARC
8
20
6
CONTINUOUS
62
1
10
108.88827800755786
20
313.30124481327806
40
3
50
0
51
90
0
POLYLINE
8
20
6
CONTINUOUS
62
1
66
1
10
0
20
0
70
129
40
0
41
0
0
VERTEX
8
20
6
CONTINUOUS
62
1
10
10.388278007557858
20
307.90124481327803
0
VERTEX
8
20
6
CONTINUOUS
62
1
10
104.88827800755786
20
307.90124481327803
0
VERTEX
8
20
6
CONTINUOUS
62
1
10
104.88827800755786
20
295.50124481327805
0
VERTEX
8
20
6
CONTINUOUS
62
1
10
86.888278007557858
20
295.50124481327805
0
VERTEX
8
20
6
CONTINUOUS
62
1
10
86.888278007557858
20
292.50124481327805
0
VERTEX
8
20
6
CONTINUOUS
62
1
10
71.888278007557858
20
292.50124481327805
0
VERTEX
8
20
6
CONTINUOUS
62
1
10
71.888278007557858
20
295.50124481327805
0
VERTEX
8
20
6
CONTINUOUS
62
1
10
10.388278007557858
20
295.50124481327805
0
VERTEX
8
20
6
CONTINUOUS
62
1
10
10.388278007557858
20
307.90124481327803
0
SEQEND
0
CIRCLE
8
20
6
CONTINUOUS
62
1
10
9.388278007557858
20
313.00124481327805
40
1.8500000000000227
0
CIRCLE
8
20
6
CONTINUOUS
62
1
10
105.88827800755786
20
313.00124481327805
40
1.8500000000000227
0
CIRCLE
8
20
6
CONTINUOUS
62
1
10
9.388278007557858
20
291.50124481327805
40
1.8500000000000227
0
CIRCLE
8
20
6
CONTINUOUS
62
1
10
105.88827800755786
20
291.50124481327805
40
1.8500000000000227
0
ARC
8
20
6
CONTINUOUS
62
1
10
6.3882780074231391
20
283.80124481327806
40
3
50
90
51
180
0
LINE
8
20
6
CONTINUOUS
62
1
10
3.3882780074231391
20
283.80124481327806
11
3.3882780074231391
21
260.30124481327806
0
ARC
8
20
6
CONTINUOUS
62
1
10
6.3882780074231391
20
260.30124481327806
40
3
50
180
51
270
0
LINE
8
20
6
CONTINUOUS
62
1
10
6.3882780074231391
20
257.30124481327806
11
108.88827800742314
21
257.30124481327806
0
ARC
8
20
6
CONTINUOUS
62
1
10
108.88827800742314
20
260.30124481327806
40
3
50
270
51
0
0
LINE
8
20
6
CONTINUOUS
62
1
10
111.88827800742314
20
260.30124481327806
11
111.88827800742314
21
283.80124481327806
0
ARC
8
20
6
CONTINUOUS
62
1
10
108.88827800742314
20
283.80124481327806
40
3
50
0
51
90
0
POLYLINE
8
20
6
CONTINUOUS
62
1
66
1
10
0
20
0
70
129
40
0
41
0
0
VERTEX
8
20
6
CONTINUOUS
62
1
10
10.388278007423139
20
278.40124481327803
0
VERTEX
8
20
6
CONTINUOUS
62
1
10
104.88827800742314
20
278.40124481327803
0
VERTEX
8
20
6
CONTINUOUS
62
1
10
104.88827800742314
20
266.00124481327805
0
VERTEX
8
20
6
CONTINUOUS
62
1
10
86.888278007423139
20
266.00124481327805
0
VERTEX
8
20
6
CONTINUOUS
62
1
10
86.888278007423139
20
263.00124481327805
0
VERTEX
8
20
6
CONTINUOUS
62
1
10
71.888278007423139
20
263.00124481327805
0
VERTEX
8
20
6
CONTINUOUS
62
1
10
71.888278007423139
20
266.00124481327805
0
VERTEX
8
20
6
CONTINUOUS
62
1
10
10.388278007423139
20
266.00124481327805
0
VERTEX
8
20
6
CONTINUOUS
62
1
10
10.388278007423139
20
278.40124481327803
0
SEQEND
0
CIRCLE
8
20
6
CONTINUOUS
62
1
10
9.3882780074231391
20
283.50124481327805
40
1.8500000000000227
0
CIRCLE
8
20
6
CONTINUOUS
62
1
10
105.88827800742314
20
283.50124481327805
40
1.8500000000000227
0
CIRCLE
8
20
6
CONTINUOUS
62
1
10
9.3882780074231391
20
262.00124481327805
40
1.8500000000000227
0
CIRCLE
8
20
6
CONTINUOUS
62
1
10
105.88827800742314
20
262.00124481327805
40
1.8500000000000227
0
ARC
8
20
6
CONTINUOUS
62
1
10
6.3882780072884202
20
254.30124481327806
40
3
50
90
51
180
0
LINE
8
20
6
CONTINUOUS
62
1
10
3.3882780072884202
20
254.30124481327806
11
3.3882780072884202
21
230.80124481327806
0
ARC
8
20
6
CONTINUOUS
62
1
10
6.3882780072884202
20
230.80124481327806
40
3
50
180
51
270
0
LINE
8
20
6
CONTINUOUS
62
1
10
6.3882780072884202
20
227.80124481327806
11
108.88827800728842
21
227.80124481327806
0
ARC
8
20
6
CONTINUOUS
62
1
10
108.88827800728842
20
230.80124481327806
40
3
50
270
51
0
0
LINE
8
20
6
CONTINUOUS
62
1
10
111.88827800728842
20
230.80124481327806
11
111.88827800728842
21
254.30124481327806
0
ARC
8
20
6
CONTINUOUS
62
1
10
108.88827800728842
20
254.30124481327806
40
3
50
0
51
90
0
POLYLINE
8
20
6
CONTINUOUS
62
1
66
1
10
0
20
0
70
129
40
0
41
0
0
VERTEX
8
20
6
CONTINUOUS
62
1
10
10.38827800728842
20
248.90124481327803
0
VERTEX
8
20
6
CONTINUOUS
62
1
10
104.88827800728842
20
248.90124481327803
0
VERTEX
8
20
6
CONTINUOUS
62
1
10
104.88827800728842
20
236.50124481327805
0
VERTEX
8
20
6
CONTINUOUS
62
1
10
86.88827800728842
20
236.50124481327805
0
VERTEX
8
20
6
CONTINUOUS
62
1
10
86.88827800728842
20
233.50124481327805
0
VERTEX
8
20
6
CONTINUOUS
62
1
10
71.88827800728842
20
233.50124481327805
0
VERTEX
8
20
6
CONTINUOUS
62
1
10
71.88827800728842
20
236.50124481327805
0
VERTEX
8
20
6
CONTINUOUS
62
1
10
10.38827800728842
20
236.50124481327805
0
VERTEX
8
20
6
CONTINUOUS
62
1
10
10.38827800728842
20
248.90124481327803
0
SEQEND
0
CIRCLE
8
20
6
CONTINUOUS
62
1
10
9.3882780072884202
20
254.00124481327805
40
1.8500000000000227
0
CIRCLE
8
20
6
CONTINUOUS
62
1
10
105.88827800728842
20
254.00124481327805
40
1.8500000000000227
0
CIRCLE
8
20
6
CONTINUOUS
62
1
10
9.3882780072884202
20
232.50124481327805
40
1.8500000000000227
0
CIRCLE
8
20
6
CONTINUOUS
62
1
10
105.88827800728842
20
232.50124481327805
40
1.8500000000000227
0
ARC
8
20
6
CONTINUOUS
62
1
10
6.3882780071537013
20
224.80124481327806
40
3
50
90
51
180
0
LINE
8
20
6
CONTINUOUS
62
1
10
3.3882780071537013
20
224.80124481327806
11
3.3882780071537013
21
201.30124481327806
0
ARC
8
20
6
CONTINUOUS
62
1
10
6.3882780071537013
20
201.30124481327806
40
3
50
180
51
270
0
LINE
8
20
6
CONTINUOUS
62
1
10
6.3882780071537013
20
198.30124481327806
11
108.8882780071537
21
198.30124481327806
0
ARC
8
20
6
CONTINUOUS
62
1
10
108.8882780071537
20
201.30124481327806
40
3
50
270
51
0
0
LINE
8
20
6
CONTINUOUS
62
1
10
111.8882780071537
20
201.30124481327806
11
111.8882780071537
21
224.80124481327806
0
ARC
8
20
6
CONTINUOUS
62
1
10
108.8882780071537
20
224.80124481327806
40
3
50
0
51
90
0
POLYLINE
8
20
6
CONTINUOUS
62
1
66
1
10
0
20
0
70
129
40
0
41
0
0
VERTEX
8
20
6
CONTINUOUS
62
1
10
10.388278007153701
20
219.40124481327803
0
VERTEX
8
20
6
CONTINUOUS
62
1
10
104.8882780071537
20
219.40124481327803
0
VERTEX
8
20
6
CONTINUOUS
62
1
10
104.8882780071537
20
207.00124481327805
0
VERTEX
8
20
6
CONTINUOUS
62
1
10
86.888278007153701
20
207.00124481327805
0
VERTEX
8
20
6
CONTINUOUS
62
1
10
86.888278007153701
20
204.00124481327805
0
VERTEX
8
20
6
CONTINUOUS
62
1
10
71.888278007153701
20
204.00124481327805
0
VERTEX
8
20
6
CONTINUOUS
62
1
10
71.888278007153701
20
207.00124481327805
0
VERTEX
8
20
6
CONTINUOUS
62
1
10
10.388278007153701
20
207.00124481327805
0
VERTEX
8
20
6
CONTINUOUS
62
1
10
10.388278007153701
20
219.40124481327803
0
SEQEND
0
CIRCLE
8
20
6
CONTINUOUS
62
1
10
9.3882780071537013
20
224.50124481327805
40
1.8500000000000227
0
CIRCLE
8
20
6
CONTINUOUS
62
1
10
105.8882780071537
20
224.50124481327805
40
1.8500000000000227
0
CIRCLE
8
20
6
CONTINUOUS
62
1
10
9.3882780071537013
20
203.00124481327805
40
1.8500000000000227
0
CIRCLE
8
20
6
CONTINUOUS
62
1
10
105.8882780071537
20
203.00124481327805
40
1.8500000000000227
0
ARC
8
20
6
CONTINUOUS
62
1
10
6.3882780070189824
20
195.30124481327806
40
3
50
90
51
180
0
LINE
8
20
6
CONTINUOUS
62
1
10
3.3882780070189824
20
195.30124481327806
11
3.3882780070189824
21
171.80124481327806
0
ARC
8
20
6
CONTINUOUS
62
1
10
6.3882780070189824
20
171.80124481327806
40
3
50
180
51
270
0
LINE
8
20
6
CONTINUOUS
62
1
10
6.3882780070189824
20
168.80124481327806
11
108.88827800701898
21
168.80124481327806
0
ARC
8
20
6
CONTINUOUS
62
1
10
108.88827800701898
20
171.80124481327806
40
3
50
270
51
0
0
LINE
8
20
6
CONTINUOUS
62
1
10
111.88827800701898
20
171.80124481327806
11
111.88827800701898
21
195.30124481327806
0
ARC
8
20
6
CONTINUOUS
62
1
10
108.88827800701898
20
195.30124481327806
40
3
50
0
51
90
0
POLYLINE
8
20
6
CONTINUOUS
62
1
66
1
10
0
20
0
70
129
40
0
41
0
0
VERTEX
8
20
6
CONTINUOUS
62
1
10
10.388278007018982
20
189.90124481327803
0
VERTEX
8
20
6
CONTINUOUS
62
1
10
104.88827800701898
20
189.90124481327803
0
VERTEX
8
20
6
CONTINUOUS
62
1
10
104.88827800701898
20
177.50124481327805
0
VERTEX
8
20
6
CONTINUOUS
62
1
10
86.888278007018982
20
177.50124481327805
0
VERTEX
8
20
6
CONTINUOUS
62
1
10
86.888278007018982
20
174.50124481327805
0
VERTEX
8
20
6
CONTINUOUS
62
1
10
71.888278007018982
20
174.50124481327805
0
VERTEX
8
20
6
CONTINUOUS
62
1
10
71.888278007018982
20
177.50124481327805
0
VERTEX
8
20
6
CONTINUOUS
62
1
10
10.388278007018982
20
177.50124481327805
0
VERTEX
8
20
6
CONTINUOUS
62
1
10
10.388278007018982
20
189.90124481327803
0
SEQEND
0
CIRCLE
8
20
6
CONTINUOUS
62
1
10
9.3882780070189824
20
195.00124481327805
40
1.8500000000000227
0
CIRCLE
8
20
6
CONTINUOUS
62
1
10
105.88827800701898
20
195.00124481327805
40
1.8500000000000227
0
CIRCLE
8
20
6
CONTINUOUS
62
1
10
9.3882780070189824
20
173.50124481327805
40
1.8500000000000227
0
CIRCLE
8
20
6
CONTINUOUS
62
1
10
105.88827800701898
20
173.50124481327805
40
1.8500000000000227
0
ARC
8
20
6
CONTINUOUS
62
1
10
6.3882780068842635
20
165.80124481327806
40
3
50
90
51
180
0
LINE
8
20
6
CONTINUOUS
62
1
10
3.3882780068842635
20
165.80124481327806
11
3.3882780068842635
21
142.30124481327806
0
ARC
8
20
6
CONTINUOUS
62
1
10
6.3882780068842635
20
142.30124481327806
40
3
50
180
51
270
0
LINE
8
20
6
CONTINUOUS
62
1
10
6.3882780068842635
20
139.30124481327806
11
108.88827800688426
21
139.30124481327806
0
ARC
8
20
6
CONTINUOUS
62
1
10
108.88827800688426
20
142.30124481327806
40
3
50
270
51
0
0
LINE
8
20
6
CONTINUOUS
62
1
10
111.88827800688426
20
142.30124481327806
11
111.88827800688426
21
165.80124481327806
0
ARC
8
20
6
CONTINUOUS
62
1
10
108.88827800688426
20
165.80124481327806
40
3
50
0
51
90
0
POLYLINE
8
20
6
CONTINUOUS
62
1
66
1
10
0
20
0
70
129
40
0
41
0
0
VERTEX
8
20
6
CONTINUOUS
62
1
10
10.388278006884264
20
160.40124481327803
0
VERTEX
8
20
6
CONTINUOUS
62
1
10
104.88827800688426
20
160.40124481327803
0
VERTEX
8
20
6
CONTINUOUS
62
1
10
104.88827800688426
20
148.00124481327805
0
VERTEX
8
20
6
CONTINUOUS
62
1
10
86.888278006884264
20
148.00124481327805
0
VERTEX
8
20
6
CONTINUOUS
62
1
10
86.888278006884264
20
145.00124481327805
0
VERTEX
8
20
6
CONTINUOUS
62
1
10
71.888278006884264
20
145.00124481327805
0
VERTEX
8
20
6
CONTINUOUS
62
1
10
71.888278006884264
20
148.00124481327805
0
VERTEX
8
20
6
CONTINUOUS
62
1
10
10.388278006884264
20
148.00124481327805
0
VERTEX
8
20
6
CONTINUOUS
62
1
10
10.388278006884264
20
160.40124481327803
0
SEQEND
0
CIRCLE
8
20
6
CONTINUOUS
62
1
10
9.3882780068842635
20
165.50124481327805
40
1.8500000000000227
0
CIRCLE
8
20
6
CONTINUOUS
62
1
10
105.88827800688426
20
165.50124481327805
40
1.8500000000000227
0
CIRCLE
8
20
6
CONTINUOUS
62
1
10
9.3882780068842635
20
144.00124481327805
40
1.8500000000000227
0
CIRCLE
8
20
6
CONTINUOUS
62
1
10
105.88827800688426
20
144.00124481327805
40
1.8500000000000227
0
ARC
8
20
6
CONTINUOUS
62
1
10
6.3882780067495446
20
136.30124481327806
40
3
50
90
51
180
0
LINE
8
20
6
CONTINUOUS
62
1
10
3.3882780067495446
20
136.30124481327806
11
3.3882780067495446
21
112.80124481327806
0
ARC
8
20
6
CONTINUOUS
62
1
10
6.3882780067495446
20
112.80124481327806
40
3
50
180
51
270
0
LINE
8
20
6
CONTINUOUS
62
1
10
6.3882780067495446
20
109.80124481327806
11
108.88827800674954
21
109.80124481327806
0
ARC
8
20
6
CONTINUOUS
62
1
10
108.88827800674954
20
112.80124481327806
40
3
50
270
51
0
0
LINE
8
20
6
CONTINUOUS
62
1
10
111.88827800674954
20
112.80124481327806
11
111.88827800674954
21
136.30124481327806
0
ARC
8
20
6
CONTINUOUS
62
1
10
108.88827800674954
20
136.30124481327806
40
3
50
0
51
90
0
POLYLINE
8
20
6
CONTINUOUS
62
1
66
1
10
0
20
0
70
129
40
0
41
0
0
VERTEX
8
20
6
CONTINUOUS
62
1
10
10.388278006749545
20
130.90124481327803
0
VERTEX
8
20
6
CONTINUOUS
62
1
10
104.88827800674954
20
130.90124481327803
0
VERTEX
8
20
6
CONTINUOUS
62
1
10
104.88827800674954
20
118.50124481327805
0
VERTEX
8
20
6
CONTINUOUS
62
1
10
86.888278006749545
20
118.50124481327805
0
VERTEX
8
20
6
CONTINUOUS
62
1
10
86.888278006749545
20
115.50124481327805
0
VERTEX
8
20
6
CONTINUOUS
62
1
10
71.888278006749545
20
115.50124481327805
0
VERTEX
8
20
6
CONTINUOUS
62
1
10
71.888278006749545
20
118.50124481327805
0
VERTEX
8
20
6
CONTINUOUS
62
1
10
10.388278006749545
20
118.50124481327805
0
VERTEX
8
20
6
CONTINUOUS
62
1
10
10.388278006749545
20
130.90124481327803
0
SEQEND
0
CIRCLE
8
20
6
CONTINUOUS
62
1
10
9.3882780067495446
20
136.00124481327805
40
1.8500000000000227
0
CIRCLE
8
20
6
CONTINUOUS
62
1
10
105.88827800674954
20
136.00124481327805
40
1.8500000000000227
0
CIRCLE
8
20
6
CONTINUOUS
62
1
10
9.3882780067495446
20
114.50124481327805
40
1.8500000000000227
0
CIRCLE
8
20
6
CONTINUOUS
62
1
10
105.88827800674954
20
114.50124481327805
40
1.8500000000000227
0
ARC
8
20
6
CONTINUOUS
62
1
10
6.3882780066148257
20
106.80124481327806
40
3
50
90
51
180
0
LINE
8
20
6
CONTINUOUS
62
1
10
3.3882780066148257
20
106.80124481327806
11
3.3882780066148257
21
83.301244813278061
0
ARC
8
20
6
CONTINUOUS
62
1
10
6.3882780066148257
20
83.301244813278061
40
3
50
180
51
270
0
LINE
8
20
6
CONTINUOUS
62
1
10
6.3882780066148257
20
80.301244813278061
11
108.88827800661483
21
80.301244813278061
0
ARC
8
20
6
CONTINUOUS
62
1
10
108.88827800661483
20
83.301244813278061
40
3
50
270
51
0
0
LINE
8
20
6
CONTINUOUS
62
1
10
111.88827800661483
20
83.301244813278061
11
111.88827800661483
21
106.80124481327806
0
ARC
8
20
6
CONTINUOUS
62
1
10
108.88827800661483
20
106.80124481327806
40
3
50
0
51
90
0
POLYLINE
8
20
6
CONTINUOUS
62
1
66
1
10
0
20
0
70
129
40
0
41
0
0
VERTEX
8
20
6
CONTINUOUS
62
1
10
10.388278006614826
20
101.40124481327803
0
VERTEX
8
20
6
CONTINUOUS
62
1
10
104.88827800661483
20
101.40124481327803
0
VERTEX
8
20
6
CONTINUOUS
62
1
10
104.88827800661483
20
89.001244813278049
0
VERTEX
8
20
6
CONTINUOUS
62
1
10
86.888278006614826
20
89.001244813278049
0
VERTEX
8
20
6
CONTINUOUS
62
1
10
86.888278006614826
20
86.001244813278049
0
VERTEX
8
20
6
CONTINUOUS
62
1
10
71.888278006614826
20
86.001244813278049
0
VERTEX
8
20
6
CONTINUOUS
62
1
10
71.888278006614826
20
89.001244813278049
0
VERTEX
8
20
6
CONTINUOUS
62
1
10
10.388278006614826
20
89.001244813278049
0
VERTEX
8
20
6
CONTINUOUS
62
1
10
10.388278006614826
20
101.40124481327803
0
SEQEND
0
CIRCLE
8
20
6
CONTINUOUS
62
1
10
9.3882780066148257
20
106.50124481327805
40
1.8500000000000227
0
CIRCLE
8
20
6
CONTINUOUS
62
1
10
105.88827800661483
20
106.50124481327805
40
1.8500000000000227
0
CIRCLE
8
20
6
CONTINUOUS
62
1
10
9.3882780066148257
20
85.001244813278049
40
1.8500000000000227
0
CIRCLE
8
20
6
CONTINUOUS
62
1
10
105.88827800661483
20
85.001244813278049
40
1.8500000000000227
0
ARC
8
20
6
CONTINUOUS
62
1
10
6.3882780064801068
20
77.301244813278061
40
3
50
90
51
180
0
LINE
8
20
6
CONTINUOUS
62
1
10
3.3882780064801068
20
77.301244813278061
11
3.3882780064801068
21
53.801244813278061
0
ARC
8
20
6
CONTINUOUS
62
1
10
6.3882780064801068
20
53.801244813278061
40
3
50
180
51
270
0
LINE
8
20
6
CONTINUOUS
62
1
10
6.3882780064801068
20
50.801244813278061
11
108.88827800648011
21
50.801244813278061
0
ARC
8
20
6
CONTINUOUS
62
1
10
108.88827800648011
20
53.801244813278061
40
3
50
270
51
0
0
LINE
8
20
6
CONTINUOUS
62
1
10
111.88827800648011
20
53.801244813278061
11
111.88827800648011
21
77.301244813278061
0
ARC
8
20
6
CONTINUOUS
62
1
10
108.88827800648011
20
77.301244813278061
40
3
50
0
51
90
0
POLYLINE
8
20
6
CONTINUOUS
62
1
66
1
10
0
20
0
70
129
40
0
41
0
0
VERTEX
8
20
6
CONTINUOUS
62
1
10
10.388278006480107
20
71.901244813278026
0
VERTEX
8
20
6
CONTINUOUS
62
1
10
104.88827800648011
20
71.901244813278026
0
VERTEX
8
20
6
CONTINUOUS
62
1
10
104.88827800648011
20
59.501244813278049
0
VERTEX
8
20
6
CONTINUOUS
62
1
10
86.888278006480107
20
59.501244813278049
0
VERTEX
8
20
6
CONTINUOUS
62
1
10
86.888278006480107
20
56.501244813278049
0
VERTEX
8
20
6
CONTINUOUS
62
1
10
71.888278006480107
20
56.501244813278049
0
VERTEX
8
20
6
CONTINUOUS
62
1
10
71.888278006480107
20
59.501244813278049
0
VERTEX
8
20
6
CONTINUOUS
62
1
10
10.388278006480107
20
59.501244813278049
0
VERTEX
8
20
6
CONTINUOUS
62
1
10
10.388278006480107
20
71.901244813278026
0
SEQEND
0
CIRCLE
8
20
6
CONTINUOUS
62
1
10
9.3882780064801068
20
77.001244813278049
40
1.8500000000000227
0
CIRCLE
8
20
6
CONTINUOUS
62
1
10
105.88827800648011
20
77.001244813278049
40
1.8500000000000227
0
CIRCLE
8
20
6
CONTINUOUS
62
1
10
9.3882780064801068
20
55.501244813278049
40
1.8500000000000227
0
CIRCLE
8
20
6
CONTINUOUS
62
1
10
105.88827800648011
20
55.501244813278049
40
1.8500000000000227
0
ARC
8
20
6
CONTINUOUS
62
1
10
6.3882780063453879
20
47.801244813278061
40
3
50
90
51
180
0
LINE
8
20
6
CONTINUOUS
62
1
10
3.3882780063453879
20
47.801244813278061
11
3.3882780063453879
21
24.301244813278061
0
ARC
8
20
6
CONTINUOUS
62
1
10
6.3882780063453879
20
24.301244813278061
40
3
50
180
51
270
0
LINE
8
20
6
CONTINUOUS
62
1
10
6.3882780063453879
20
21.301244813278061
11
108.88827800634539
21
21.301244813278061
0
ARC
8
20
6
CONTINUOUS
62
1
10
108.88827800634539
20
24.301244813278061
40
3
50
270
51
0
0
LINE
8
20
6
CONTINUOUS
62
1
10
111.88827800634539
20
24.301244813278061
11
111.88827800634539
21
47.801244813278061
0
ARC
8
20
6
CONTINUOUS
62
1
10
108.88827800634539
20
47.801244813278061
40
3
50
0
51
90
0
POLYLINE
8
20
6
CONTINUOUS
62
1
66
1
10
0
20
0
70
129
40
0
41
0
0
VERTEX
8
20
6
CONTINUOUS
62
1
10
10.388278006345388
20
42.401244813278026
0
VERTEX
8
20
6
CONTINUOUS
62
1
10
104.88827800634539
20
42.401244813278026
0
VERTEX
8
20
6
CONTINUOUS
62
1
10
104.88827800634539
20
30.001244813278049
0
VERTEX
8
20
6
CONTINUOUS
62
1
10
86.888278006345388
20
30.001244813278049
0
VERTEX
8
20
6
CONTINUOUS
62
1
10
86.888278006345388
20
27.001244813278049
0
VERTEX
8
20
6
CONTINUOUS
62
1
10
71.888278006345388
20
27.001244813278049
0
VERTEX
8
20
6
CONTINUOUS
62
1
10
71.888278006345388
20
30.001244813278049
0
VERTEX
8
20
6
CONTINUOUS
62
1
10
10.388278006345388
20
30.001244813278049
0
VERTEX
8
20
6
CONTINUOUS
62
1
10
10.388278006345388
20
42.401244813278026
0
SEQEND
0
CIRCLE
8
20
6
CONTINUOUS
62
1
10
9.3882780063453879
20
47.501244813278049
40
1.8500000000000227
0
CIRCLE
8
20
6
CONTINUOUS
62
1
10
105.88827800634539
20
47.501244813278049
40
1.8500000000000227
0
CIRCLE
8
20
6
CONTINUOUS
62
1
10
9.3882780063453879
20
26.001244813278049
40
1.8500000000000227
0
CIRCLE
8
20
6
CONTINUOUS
62
1
10
105.88827800634539
20
26.001244813278049
40
1.8500000000000227
0
ARC
8
20
6
CONTINUOUS
62
1
10
119.47147302891102
20
460.25767634854782
40
3
50
90
51
180
0
LINE
8
20
6
CONTINUOUS
62
1
10
116.47147302891102
20
460.25767634854782
11
116.47147302891102
21
436.75767634854782
0
ARC
8
20
6
CONTINUOUS
62
1
10
119.47147302891102
20
436.75767634854782
40
3
50
180
51
270
0
LINE
8
20
6
CONTINUOUS
62
1
10
119.47147302891102
20
433.75767634854782
11
221.97147302891102
21
433.75767634854782
0
ARC
8
20
6
CONTINUOUS
62
1
10
221.97147302891102
20
436.75767634854782
40
3
50
270
51
0
0
LINE
8
20
6
CONTINUOUS
62
1
10
224.97147302891102
20
436.75767634854782
11
224.97147302891102
21
460.25767634854782
0
ARC
8
20
6
CONTINUOUS
62
1
10
221.97147302891102
20
460.25767634854782
40
3
50
0
51
90
0
POLYLINE
8
20
6
CONTINUOUS
62
1
66
1
10
0
20
0
70
129
40
0
41
0
0
VERTEX
8
20
6
CONTINUOUS
62
1
10
123.47147302891102
20
454.85767634854778
0
VERTEX
8
20
6
CONTINUOUS
62
1
10
217.97147302891102
20
454.85767634854778
0
VERTEX
8
20
6
CONTINUOUS
62
1
10
217.97147302891102
20
442.45767634854781
0
VERTEX
8
20
6
CONTINUOUS
62
1
10
123.47147302891102
20
442.45767634854781
0
VERTEX
8
20
6
CONTINUOUS
62
1
10
123.47147302891102
20
454.85767634854778
0
SEQEND
0
CIRCLE
8
20
6
CONTINUOUS
62
1
10
122.47147302891102
20
459.95767634854781
40
1.8499999999999659
0
CIRCLE
8
20
6
CONTINUOUS
62
1
10
218.97147302891102
20
459.95767634854781
40
1.8500000000000227
0
CIRCLE
8
20
6
CONTINUOUS
62
1
10
122.47147302891102
20
438.45767634854781
40
1.8499999999999659
0
CIRCLE
8
20
6
CONTINUOUS
62
1
10
218.97147302891102
20
438.45767634854781
40
1.8500000000000227
0
ARC
8
20
6
CONTINUOUS
62
1
10
119.47147302877636
20
430.75767634854782
40
3
50
90
51
180
0
LINE
8
20
6
CONTINUOUS
62
1
10
116.47147302877636
20
430.75767634854782
11
116.47147302877636
21
407.25767634854782
0
ARC
8
20
6
CONTINUOUS
62
1
10
119.47147302877636
20
407.25767634854782
40
3
50
180
51
270
0
LINE
8
20
6
CONTINUOUS
62
1
10
119.47147302877636
20
404.25767634854782
11
221.97147302877636
21
404.25767634854782
0
ARC
8
20
6
CONTINUOUS
62
1
10
221.97147302877636
20
407.25767634854782
40
3
50
270
51
0
0
LINE
8
20
6
CONTINUOUS
62
1
10
224.97147302877636
20
407.25767634854782
11
224.97147302877636
21
430.75767634854782
0
ARC
8
20
6
CONTINUOUS
62
1
10
221.97147302877636
20
430.75767634854782
40
3
50
0
51
90
0
POLYLINE
8
20
6
CONTINUOUS
62
1
66
1
10
0
20
0
70
129
40
0
41
0
0
VERTEX
8
20
6
CONTINUOUS
62
1
10
123.47147302877636
20
425.35767634854778
0
VERTEX
8
20
6
CONTINUOUS
62
1
10
217.97147302877636
20
425.35767634854778
0
VERTEX
8
20
6
CONTINUOUS
62
1
10
217.97147302877636
20
412.95767634854781
0
VERTEX
8
20
6
CONTINUOUS
62
1
10
123.47147302877636
20
412.95767634854781
0
VERTEX
8
20
6
CONTINUOUS
62
1
10
123.47147302877636
20
425.35767634854778
0
SEQEND
0
CIRCLE
8
20
6
CONTINUOUS
62
1
10
122.47147302877636
20
430.45767634854781
40
1.8499999999999659
0
CIRCLE
8
20
6
CONTINUOUS
62
1
10
218.97147302877636
20
430.45767634854781
40
1.8500000000000227
0
CIRCLE
8
20
6
CONTINUOUS
62
1
10
122.47147302877636
20
408.95767634854781
40
1.8499999999999659
0
CIRCLE
8
20
6
CONTINUOUS
62
1
10
218.97147302877636
20
408.95767634854781
40
1.8500000000000227
0
ARC
8
20
6
CONTINUOUS
62
1
10
119.4714730286417
20
401.25767634854782
40
3
50
90
51
180
0
LINE
8
20
6
CONTINUOUS
62
1
10
116.4714730286417
20
401.25767634854782
11
116.4714730286417
21
377.75767634854782
0
ARC
8
20
6
CONTINUOUS
62
1
10
119.4714730286417
20
377.75767634854782
40
3
50
180
51
270
0
LINE
8
20
6
CONTINUOUS
62
1
10
119.4714730286417
20
374.75767634854782
11
221.9714730286417
21
374.75767634854782
0
ARC
8
20
6
CONTINUOUS
62
1
10
221.9714730286417
20
377.75767634854782
40
3
50
270
51
0
0
LINE
8
20
6
CONTINUOUS
62
1
10
224.9714730286417
20
377.75767634854782
11
224.9714730286417
21
401.25767634854782
0
ARC
8
20
6
CONTINUOUS
62
1
10
221.9714730286417
20
401.25767634854782
40
3
50
0
51
90
0
POLYLINE
8
20
6
CONTINUOUS
62
1
66
1
10
0
20
0
70
129
40
0
41
0
0
VERTEX
8
20
6
CONTINUOUS
62
1
10
123.4714730286417
20
395.85767634854778
0
VERTEX
8
20
6
CONTINUOUS
62
1
10
217.9714730286417
20
395.85767634854778
0
VERTEX
8
20
6
CONTINUOUS
62
1
10
217.9714730286417
20
383.45767634854781
0
VERTEX
8
20
6
CONTINUOUS
62
1
10
123.4714730286417
20
383.45767634854781
0
VERTEX
8
20
6
CONTINUOUS
62
1
10
123.4714730286417
20
395.85767634854778
0
SEQEND
0
CIRCLE
8
20
6
CONTINUOUS
62
1
10
122.4714730286417
20
400.95767634854781
40
1.8499999999999659
0
CIRCLE
8
20
6
CONTINUOUS
62
1
10
218.9714730286417
20
400.95767634854781
40
1.8500000000000227
0
CIRCLE
8
20
6
CONTINUOUS
62
1
10
122.4714730286417
20
379.45767634854781
40
1.8499999999999659
0
CIRCLE
8
20
6
CONTINUOUS
62
1
10
218.9714730286417
20
379.45767634854781
40
1.8500000000000227
0
ARC
8
20
6
CONTINUOUS
62
1
10
119.47147302850703
20
371.75767634854782
40
3
50
90
51
180
0
LINE
8
20
6
CONTINUOUS
62
1
10
116.47147302850703
20
371.75767634854782
11
116.47147302850703
21
348.25767634854782
0
ARC
8
20
6
CONTINUOUS
62
1
10
119.47147302850703
20
348.25767634854782
40
3
50
180
51
270
0
LINE
8
20
6
CONTINUOUS
62
1
10
119.47147302850703
20
345.25767634854782
11
221.97147302850703
21
345.25767634854782
0
ARC
8
20
6
CONTINUOUS
62
1
10
221.97147302850703
20
348.25767634854782
40
3
50
270
51
0
0
LINE
8
20
6
CONTINUOUS
62
1
10
224.97147302850703
20
348.25767634854782
11
224.97147302850703
21
371.75767634854782
0
ARC
8
20
6
CONTINUOUS
62
1
10
221.97147302850703
20
371.75767634854782
40
3
50
0
51
90
0
POLYLINE
8
20
6
CONTINUOUS
62
1
66
1
10
0
20
0
70
129
40
0
41
0
0
VERTEX
8
20
6
CONTINUOUS
62
1
10
123.47147302850703
20
366.35767634854778
0
VERTEX
8
20
6
CONTINUOUS
62
1
10
217.97147302850703
20
366.35767634854778
0
VERTEX
8
20
6
CONTINUOUS
62
1
10
217.97147302850703
20
353.95767634854781
0
VERTEX
8
20
6
CONTINUOUS
62
1
10
123.47147302850703
20
353.95767634854781
0
VERTEX
8
20
6
CONTINUOUS
62
1
10
123.47147302850703
20
366.35767634854778
0
SEQEND
0
CIRCLE
8
20
6
CONTINUOUS
62
1
10
122.47147302850703
20
371.45767634854781
40
1.8499999999999659
0
CIRCLE
8
20
6
CONTINUOUS
62
1
10
218.97147302850703
20
371.45767634854781
40
1.8500000000000227
0
CIRCLE
8
20
6
CONTINUOUS
62
1
10
122.47147302850703
20
349.95767634854781
40
1.8499999999999659
0
CIRCLE
8
20
6
CONTINUOUS
62
1
10
218.97147302850703
20
349.95767634854781
40
1.8500000000000227
0
ARC
8
20
6
CONTINUOUS
62
1
10
119.47147302837237
20
342.25767634854782
40
3
50
90
51
180
0
LINE
8
20
6
CONTINUOUS
62
1
10
116.47147302837237
20
342.25767634854782
11
116.47147302837237
21
318.75767634854782
0
ARC
8
20
6
CONTINUOUS
62
1
10
119.47147302837237
20
318.75767634854782
40
3
50
180
51
270
0
LINE
8
20
6
CONTINUOUS
62
1
10
119.47147302837237
20
315.75767634854782
11
221.97147302837237
21
315.75767634854782
0
ARC
8
20
6
CONTINUOUS
62
1
10
221.97147302837237
20
318.75767634854782
40
3
50
270
51
0
0
LINE
8
20
6
CONTINUOUS
62
1
10
224.97147302837237
20
318.75767634854782
11
224.97147302837237
21
342.25767634854782
0
ARC
8
20
6
CONTINUOUS
62
1
10
221.97147302837237
20
342.25767634854782
40
3
50
0
51
90
0
POLYLINE
8
20
6
CONTINUOUS
62
1
66
1
10
0
20
0
70
129
40
0
41
0
0
VERTEX
8
20
6
CONTINUOUS
62
1
10
123.47147302837237
20
336.85767634854778
0
VERTEX
8
20
6
CONTINUOUS
62
1
10
217.97147302837237
20
336.85767634854778
0
VERTEX
8
20
6
CONTINUOUS
62
1
10
217.97147302837237
20
324.45767634854781
0
VERTEX
8
20
6
CONTINUOUS
62
1
10
123.47147302837237
20
324.45767634854781
0
VERTEX
8
20
6
CONTINUOUS
62
1
10
123.47147302837237
20
336.85767634854778
0
SEQEND
0
CIRCLE
8
20
6
CONTINUOUS
62
1
10
122.47147302837237
20
341.95767634854781
40
1.8499999999999659
0
CIRCLE
8
20
6
CONTINUOUS
62
1
10
218.97147302837237
20
341.95767634854781
40
1.8500000000000227
0
CIRCLE
8
20
6
CONTINUOUS
62
1
10
122.47147302837237
20
320.45767634854781
40
1.8499999999999659
0
CIRCLE
8
20
6
CONTINUOUS
62
1
10
218.97147302837237
20
320.45767634854781
40
1.8500000000000227
0
ARC
8
20
6
CONTINUOUS
62
1
10
119.47147302823771
20
312.75767634854782
40
3
50
90
51
180
0
LINE
8
20
6
CONTINUOUS
62
1
10
116.47147302823771
20
312.75767634854782
11
116.47147302823771
21
289.25767634854782
0
ARC
8
20
6
CONTINUOUS
62
1
10
119.47147302823771
20
289.25767634854782
40
3
50
180
51
270
0
LINE
8
20
6
CONTINUOUS
62
1
10
119.47147302823771
20
286.25767634854782
11
221.97147302823771
21
286.25767634854782
0
ARC
8
20
6
CONTINUOUS
62
1
10
221.97147302823771
20
289.25767634854782
40
3
50
270
51
0
0
LINE
8
20
6
CONTINUOUS
62
1
10
224.97147302823771
20
289.25767634854782
11
224.97147302823771
21
312.75767634854782
0
ARC
8
20
6
CONTINUOUS
62
1
10
221.97147302823771
20
312.75767634854782
40
3
50
0
51
90
0
POLYLINE
8
20
6
CONTINUOUS
62
1
66
1
10
0
20
0
70
129
40
0
41
0
0
VERTEX
8
20
6
CONTINUOUS
62
1
10
123.47147302823771
20
307.35767634854778
0
VERTEX
8
20
6
CONTINUOUS
62
1
10
217.97147302823771
20
307.35767634854778
0
VERTEX
8
20
6
CONTINUOUS
62
1
10
217.97147302823771
20
294.95767634854781
0
VERTEX
8
20
6
CONTINUOUS
62
1
10
123.47147302823771
20
294.95767634854781
0
VERTEX
8
20
6
CONTINUOUS
62
1
10
123.47147302823771
20
307.35767634854778
0
SEQEND
0
CIRCLE
8
20
6
CONTINUOUS
62
1
10
122.47147302823771
20
312.45767634854781
40
1.8499999999999659
0
CIRCLE
8
20
6
CONTINUOUS
62
1
10
218.97147302823771
20
312.45767634854781
40
1.8500000000000227
0
CIRCLE
8
20
6
CONTINUOUS
62
1
10
122.47147302823771
20
290.95767634854781
40
1.8499999999999659
0
CIRCLE
8
20
6
CONTINUOUS
62
1
10
218.97147302823771
20
290.95767634854781
40
1.8500000000000227
0
ARC
8
20
6
CONTINUOUS
62
1
10
119.47147302810305
20
283.25767634854782
40
3
50
90
51
180
0
LINE
8
20
6
CONTINUOUS
62
1
10
116.47147302810305
20
283.25767634854782
11
116.47147302810305
21
259.75767634854782
0
ARC
8
20
6
CONTINUOUS
62
1
10
119.47147302810305
20
259.75767634854782
40
3
50
180
51
270
0
LINE
8
20
6
CONTINUOUS
62
1
10
119.47147302810305
20
256.75767634854782
11
221.97147302810305
21
256.75767634854782
0
ARC
8
20
6
CONTINUOUS
62
1
10
221.97147302810305
20
259.75767634854782
40
3
50
270
51
0
0
LINE
8
20
6
CONTINUOUS
62
1
10
224.97147302810305
20
259.75767634854782
11
224.97147302810305
21
283.25767634854782
0
ARC
8
20
6
CONTINUOUS
62
1
10
221.97147302810305
20
283.25767634854782
40
3
50
0
51
90
0
POLYLINE
8
20
6
CONTINUOUS
62
1
66
1
10
0
20
0
70
129
40
0
41
0
0
VERTEX
8
20
6
CONTINUOUS
62
1
10
123.47147302810305
20
277.85767634854778
0
VERTEX
8
20
6
CONTINUOUS
62
1
10
217.97147302810305
20
277.85767634854778
0
VERTEX
8
20
6
CONTINUOUS
62
1
10
217.97147302810305
20
265.45767634854781
0
VERTEX
8
20
6
CONTINUOUS
62
1
10
123.47147302810305
20
265.45767634854781
0
VERTEX
8
20
6
CONTINUOUS
62
1
10
123.47147302810305
20
277.85767634854778
0
SEQEND
0
CIRCLE
8
20
6
CONTINUOUS
62
1
10
122.47147302810305
20
282.95767634854781
40
1.8499999999999659
0
CIRCLE
8
20
6
CONTINUOUS
62
1
10
218.97147302810305
20
282.95767634854781
40
1.8500000000000227
0
CIRCLE
8
20
6
CONTINUOUS
62
1
10
122.47147302810305
20
261.45767634854781
40
1.8499999999999659
0
CIRCLE
8
20
6
CONTINUOUS
62
1
10
218.97147302810305
20
261.45767634854781
40
1.8500000000000227
0
ARC
8
20
6
CONTINUOUS
62
1
10
119.47147302796839
20
253.75767634854782
40
3
50
90
51
180
0
LINE
8
20
6
CONTINUOUS
62
1
10
116.47147302796839
20
253.75767634854782
11
116.47147302796839
21
230.25767634854782
0
ARC
8
20
6
CONTINUOUS
62
1
10
119.47147302796839
20
230.25767634854782
40
3
50
180
51
270
0
LINE
8
20
6
CONTINUOUS
62
1
10
119.47147302796839
20
227.25767634854782
11
221.97147302796839
21
227.25767634854782
0
ARC
8
20
6
CONTINUOUS
62
1
10
221.97147302796839
20
230.25767634854782
40
3
50
270
51
0
0
LINE
8
20
6
CONTINUOUS
62
1
10
224.97147302796839
20
230.25767634854782
11
224.97147302796839
21
253.75767634854782
0
ARC
8
20
6
CONTINUOUS
62
1
10
221.97147302796839
20
253.75767634854782
40
3
50
0
51
90
0
POLYLINE
8
20
6
CONTINUOUS
62
1
66
1
10
0
20
0
70
129
40
0
41
0
0
VERTEX
8
20
6
CONTINUOUS
62
1
10
123.47147302796839
20
248.35767634854778
0
VERTEX
8
20
6
CONTINUOUS
62
1
10
217.97147302796839
20
248.35767634854778
0
VERTEX
8
20
6
CONTINUOUS
62
1
10
217.97147302796839
20
235.95767634854781
0
VERTEX
8
20
6
CONTINUOUS
62
1
10
123.47147302796839
20
235.95767634854781
0
VERTEX
8
20
6
CONTINUOUS
62
1
10
123.47147302796839
20
248.35767634854778
0
SEQEND
0
CIRCLE
8
20
6
CONTINUOUS
62
1
10
122.47147302796839
20
253.45767634854781
40
1.8499999999999659
0
CIRCLE
8
20
6
CONTINUOUS
62
1
10
218.97147302796839
20
253.45767634854781
40
1.8500000000000227
0
CIRCLE
8
20
6
CONTINUOUS
62
1
10
122.47147302796839
20
231.95767634854781
40
1.8499999999999659
0
CIRCLE
8
20
6
CONTINUOUS
62
1
10
218.97147302796839
20
231.95767634854781
40
1.8500000000000227
0
ARC
8
20
6
CONTINUOUS
62
1
10
119.47147302783372
20
224.25767634854782
40
3
50
90
51
180
0
LINE
8
20
6
CONTINUOUS
62
1
10
116.47147302783372
20
224.25767634854782
11
116.47147302783372
21
200.75767634854782
0
ARC
8
20
6
CONTINUOUS
62
1
10
119.47147302783372
20
200.75767634854782
40
3
50
180
51
270
0
LINE
8
20
6
CONTINUOUS
62
1
10
119.47147302783372
20
197.75767634854782
11
221.97147302783372
21
197.75767634854782
0
ARC
8
20
6
CONTINUOUS
62
1
10
221.97147302783372
20
200.75767634854782
40
3
50
270
51
0
0
LINE
8
20
6
CONTINUOUS
62
1
10
224.97147302783372
20
200.75767634854782
11
224.97147302783372
21
224.25767634854782
0
ARC
8
20
6
CONTINUOUS
62
1
10
221.97147302783372
20
224.25767634854782
40
3
50
0
51
90
0
POLYLINE
8
20
6
CONTINUOUS
62
1
66
1
10
0
20
0
70
129
40
0
41
0
0
VERTEX
8
20
6
CONTINUOUS
62
1
10
123.47147302783372
20
218.85767634854778
0
VERTEX
8
20
6
CONTINUOUS
62
1
10
217.97147302783372
20
218.85767634854778
0
VERTEX
8
20
6
CONTINUOUS
62
1
10
217.97147302783372
20
206.45767634854781
0
VERTEX
8
20
6
CONTINUOUS
62
1
10
123.47147302783372
20
206.45767634854781
0
VERTEX
8
20
6
CONTINUOUS
62
1
10
123.47147302783372
20
218.85767634854778
0
SEQEND
0
CIRCLE
8
20
6
CONTINUOUS
62
1
10
122.47147302783372
20
223.95767634854781
40
1.8499999999999659
0
CIRCLE
8
20
6
CONTINUOUS
62
1
10
218.97147302783372
20
223.95767634854781
40
1.8500000000000227
0
CIRCLE
8
20
6
CONTINUOUS
62
1
10
122.47147302783372
20
202.45767634854781
40
1.8499999999999659
0
CIRCLE
8
20
6
CONTINUOUS
62
1
10
218.97147302783372
20
202.45767634854781
40
1.8500000000000227
0
ARC
8
20
6
CONTINUOUS
62
1
10
119.47147302769906
20
194.75767634854782
40
3
50
90
51
180
0
LINE
8
20
6
CONTINUOUS
62
1
10
116.47147302769906
20
194.75767634854782
11
116.47147302769906
21
171.25767634854782
0
ARC
8
20
6
CONTINUOUS
62
1
10
119.47147302769906
20
171.25767634854782
40
3
50
180
51
270
0
LINE
8
20
6
CONTINUOUS
62
1
10
119.47147302769906
20
168.25767634854782
11
221.97147302769906
21
168.25767634854782
0
ARC
8
20
6
CONTINUOUS
62
1
10
221.97147302769906
20
171.25767634854782
40
3
50
270
51
0
0
LINE
8
20
6
CONTINUOUS
62
1
10
224.97147302769906
20
171.25767634854782
11
224.97147302769906
21
194.75767634854782
0
ARC
8
20
6
CONTINUOUS
62
1
10
221.97147302769906
20
194.75767634854782
40
3
50
0
51
90
0
POLYLINE
8
20
6
CONTINUOUS
62
1
66
1
10
0
20
0
70
129
40
0
41
0
0
VERTEX
8
20
6
CONTINUOUS
62
1
10
123.47147302769906
20
189.35767634854778
0
VERTEX
8
20
6
CONTINUOUS
62
1
10
217.97147302769906
20
189.35767634854778
0
VERTEX
8
20
6
CONTINUOUS
62
1
10
217.97147302769906
20
176.95767634854781
0
VERTEX
8
20
6
CONTINUOUS
62
1
10
123.47147302769906
20
176.95767634854781
0
VERTEX
8
20
6
CONTINUOUS
62
1
10
123.47147302769906
20
189.35767634854778
0
SEQEND
0
CIRCLE
8
20
6
CONTINUOUS
62
1
10
122.47147302769906
20
194.45767634854781
40
1.8499999999999659
0
CIRCLE
8
20
6
CONTINUOUS
62
1
10
218.97147302769906
20
194.45767634854781
40
1.8500000000000227
0
CIRCLE
8
20
6
CONTINUOUS
62
1
10
122.47147302769906
20
172.95767634854781
40
1.8499999999999659
0
CIRCLE
8
20
6
CONTINUOUS
62
1
10
218.97147302769906
20
172.95767634854781
40
1.8500000000000227
0
ARC
8
20
6
CONTINUOUS
62
1
10
119.4714730275644
20
165.25767634854782
40
3
50
90
51
180
0
LINE
8
20
6
CONTINUOUS
62
1
10
116.4714730275644
20
165.25767634854782
11
116.4714730275644
21
141.75767634854782
0
ARC
8
20
6
CONTINUOUS
62
1
10
119.4714730275644
20
141.75767634854782
40
3
50
180
51
270
0
LINE
8
20
6
CONTINUOUS
62
1
10
119.4714730275644
20
138.75767634854782
11
221.9714730275644
21
138.75767634854782
0
ARC
8
20
6
CONTINUOUS
62
1
10
221.9714730275644
20
141.75767634854782
40
3
50
270
51
0
0
LINE
8
20
6
CONTINUOUS
62
1
10
224.9714730275644
20
141.75767634854782
11
224.9714730275644
21
165.25767634854782
0
ARC
8
20
6
CONTINUOUS
62
1
10
221.9714730275644
20
165.25767634854782
40
3
50
0
51
90
0
POLYLINE
8
20
6
CONTINUOUS
62
1
66
1
10
0
20
0
70
129
40
0
41
0
0
VERTEX
8
20
6
CONTINUOUS
62
1
10
123.4714730275644
20
159.85767634854778
0
VERTEX
8
20
6
CONTINUOUS
62
1
10
217.9714730275644
20
159.85767634854778
0
VERTEX
8
20
6
CONTINUOUS
62
1
10
217.9714730275644
20
147.45767634854781
0
VERTEX
8
20
6
CONTINUOUS
62
1
10
123.4714730275644
20
147.45767634854781
0
VERTEX
8
20
6
CONTINUOUS
62
1
10
123.4714730275644
20
159.85767634854778
0
SEQEND
0
CIRCLE
8
20
6
CONTINUOUS
62
1
10
122.4714730275644
20
164.95767634854781
40
1.8499999999999659
0
CIRCLE
8
20
6
CONTINUOUS
62
1
10
218.9714730275644
20
164.95767634854781
40
1.8500000000000227
0
CIRCLE
8
20
6
CONTINUOUS
62
1
10
122.4714730275644
20
143.45767634854781
40
1.8499999999999659
0
CIRCLE
8
20
6
CONTINUOUS
62
1
10
218.9714730275644
20
143.45767634854781
40
1.8500000000000227
0
ARC
8
20
6
CONTINUOUS
62
1
10
119.47147302742974
20
135.75767634854782
40
3
50
90
51
180
0
LINE
8
20
6
CONTINUOUS
62
1
10
116.47147302742974
20
135.75767634854782
11
116.47147302742974
21
112.25767634854782
0
ARC
8
20
6
CONTINUOUS
62
1
10
119.47147302742974
20
112.25767634854782
40
3
50
180
51
270
0
LINE
8
20
6
CONTINUOUS
62
1
10
119.47147302742974
20
109.25767634854782
11
221.97147302742974
21
109.25767634854782
0
ARC
8
20
6
CONTINUOUS
62
1
10
221.97147302742974
20
112.25767634854782
40
3
50
270
51
0
0
LINE
8
20
6
CONTINUOUS
62
1
10
224.97147302742974
20
112.25767634854782
11
224.97147302742974
21
135.75767634854782
0
ARC
8
20
6
CONTINUOUS
62
1
10
221.97147302742974
20
135.75767634854782
40
3
50
0
51
90
0
POLYLINE
8
20
6
CONTINUOUS
62
1
66
1
10
0
20
0
70
129
40
0
41
0
0
VERTEX
8
20
6
CONTINUOUS
62
1
10
123.47147302742974
20
130.35767634854778
0
VERTEX
8
20
6
CONTINUOUS
62
1
10
217.97147302742974
20
130.35767634854778
0
VERTEX
8
20
6
CONTINUOUS
62
1
10
217.97147302742974
20
117.95767634854781
0
VERTEX
8
20
6
CONTINUOUS
62
1
10
123.47147302742974
20
117.95767634854781
0
VERTEX
8
20
6
CONTINUOUS
62
1
10
123.47147302742974
20
130.35767634854778
0
SEQEND
0
CIRCLE
8
20
6
CONTINUOUS
62
1
10
122.47147302742974
20
135.45767634854781
40
1.8499999999999659
0
CIRCLE
8
20
6
CONTINUOUS
62
1
10
218.97147302742974
20
135.45767634854781
40
1.8500000000000227
0
CIRCLE
8
20
6
CONTINUOUS
62
1
10
122.47147302742974
20
113.95767634854781
40
1.8499999999999659
0
CIRCLE
8
20
6
CONTINUOUS
62
1
10
218.97147302742974
20
113.95767634854781
40
1.8500000000000227
0
ARC
8
20
6
CONTINUOUS
62
1
10
119.47147302729508
20
106.25767634854782
40
3
50
90
51
180
0
LINE
8
20
6
CONTINUOUS
62
1
10
116.47147302729508
20
106.25767634854782
11
116.47147302729508
21
82.757676348547818
0
ARC
8
20
6
CONTINUOUS
62
1
10
119.47147302729508
20
82.757676348547818
40
3
50
180
51
270
0
LINE
8
20
6
CONTINUOUS
62
1
10
119.47147302729508
20
79.757676348547818
11
221.97147302729508
21
79.757676348547818
0
ARC
8
20
6
CONTINUOUS
62
1
10
221.97147302729508
20
82.757676348547818
40
3
50
270
51
0
0
LINE
8
20
6
CONTINUOUS
62
1
10
224.97147302729508
20
82.757676348547818
11
224.97147302729508
21
106.25767634854782
0
ARC
8
20
6
CONTINUOUS
62
1
10
221.97147302729508
20
106.25767634854782
40
3
50
0
51
90
0
POLYLINE
8
20
6
CONTINUOUS
62
1
66
1
10
0
20
0
70
129
40
0
41
0
0
VERTEX
8
20
6
CONTINUOUS
62
1
10
123.47147302729508
20
100.85767634854778
0
VERTEX
8
20
6
CONTINUOUS
62
1
10
217.97147302729508
20
100.85767634854778
0
VERTEX
8
20
6
CONTINUOUS
62
1
10
217.97147302729508
20
88.457676348547807
0
VERTEX
8
20
6
CONTINUOUS
62
1
10
123.47147302729508
20
88.457676348547807
0
VERTEX
8
20
6
CONTINUOUS
62
1
10
123.47147302729508
20
100.85767634854778
0
SEQEND
0
CIRCLE
8
20
6
CONTINUOUS
62
1
10
122.47147302729508
20
105.95767634854781
40
1.8499999999999659
0
CIRCLE
8
20
6
CONTINUOUS
62
1
10
218.97147302729508
20
105.95767634854781
40
1.8500000000000227
0
CIRCLE
8
20
6
CONTINUOUS
62
1
10
122.47147302729508
20
84.457676348547807
40
1.8499999999999659
0
CIRCLE
8
20
6
CONTINUOUS
62
1
10
218.97147302729508
20
84.457676348547807
40
1.8500000000000227
0
ARC
8
20
6
CONTINUOUS
62
1
10
119.47147302716041
20
76.757676348547818
40
3
50
90
51
180
0
LINE
8
20
6
CONTINUOUS
62
1
10
116.47147302716041
20
76.757676348547818
11
116.47147302716041
21
53.257676348547818
0
ARC
8
20
6
CONTINUOUS
62
1
10
119.47147302716041
20
53.257676348547818
40
3
50
180
51
270
0
LINE
8
20
6
CONTINUOUS
62
1
10
119.47147302716041
20
50.257676348547818
11
221.97147302716041
21
50.257676348547818
0
ARC
8
20
6
CONTINUOUS
62
1
10
221.97147302716041
20
53.257676348547818
40
3
50
270
51
0
0
LINE
8
20
6
CONTINUOUS
62
1
10
224.97147302716041
20
53.257676348547818
11
224.97147302716041
21
76.757676348547818
0
ARC
8
20
6
CONTINUOUS
62
1
10
221.97147302716041
20
76.757676348547818
40
3
50
0
51
90
0
POLYLINE
8
20
6
CONTINUOUS
62
1
66
1
10
0
20
0
70
129
40
0
41
0
0
VERTEX
8
20
6
CONTINUOUS
62
1
10
123.47147302716041
20
71.357676348547784
0
VERTEX
8
20
6
CONTINUOUS
62
1
10
217.97147302716041
20
71.357676348547784
0
VERTEX
8
20
6
CONTINUOUS
62
1
10
217.97147302716041
20
58.957676348547807
0
VERTEX
8
20
6
CONTINUOUS
62
1
10
123.47147302716041
20
58.957676348547807
0
VERTEX
8
20
6
CONTINUOUS
62
1
10
123.47147302716041
20
71.357676348547784
0
SEQEND
0
CIRCLE
8
20
6
CONTINUOUS
62
1
10
122.47147302716041
20
76.457676348547807
40
1.8499999999999659
0
CIRCLE
8
20
6
CONTINUOUS
62
1
10
218.97147302716041
20
76.457676348547807
40
1.8500000000000227
0
CIRCLE
8
20
6
CONTINUOUS
62
1
10
122.47147302716041
20
54.957676348547807
40
1.8499999999999659
0
CIRCLE
8
20
6
CONTINUOUS
62
1
10
218.97147302716041
20
54.957676348547807
40
1.8500000000000227
0
ARC
8
20
6
CONTINUOUS
62
1
10
119.47147302702575
20
47.257676348547818
40
3
50
90
51
180
0
LINE
8
20
6
CONTINUOUS
62
1
10
116.47147302702575
20
47.257676348547818
11
116.47147302702575
21
23.757676348547818
0
ARC
8
20
6
CONTINUOUS
62
1
10
119.47147302702575
20
23.757676348547818
40
3
50
180
51
270
0
LINE
8
20
6
CONTINUOUS
62
1
10
119.47147302702575
20
20.757676348547818
11
221.97147302702575
21
20.757676348547818
0
ARC
8
20
6
CONTINUOUS
62
1
10
221.97147302702575
20
23.757676348547818
40
3
50
270
51
0
0
LINE
8
20
6
CONTINUOUS
62
1
10
224.97147302702575
20
23.757676348547818
11
224.97147302702575
21
47.257676348547818
0
ARC
8
20
6
CONTINUOUS
62
1
10
221.97147302702575
20
47.257676348547818
40
3
50
0
51
90
0
POLYLINE
8
20
6
CONTINUOUS
62
1
66
1
10
0
20
0
70
129
40
0
41
0
0
VERTEX
8
20
6
CONTINUOUS
62
1
10
123.47147302702575
20
41.857676348547784
0
VERTEX
8
20
6
CONTINUOUS
62
1
10
217.97147302702575
20
41.857676348547784
0
VERTEX
8
20
6
CONTINUOUS
62
1
10
217.97147302702575
20
29.457676348547807
0
VERTEX
8
20
6
CONTINUOUS
62
1
10
123.47147302702575
20
29.457676348547807
0
VERTEX
8
20
6
CONTINUOUS
62
1
10
123.47147302702575
20
41.857676348547784
0
SEQEND
0
CIRCLE
8
20
6
CONTINUOUS
62
1
10
122.47147302702575
20
46.957676348547807
40
1.8499999999999659
0
CIRCLE
8
20
6
CONTINUOUS
62
1
10
218.97147302702575
20
46.957676348547807
40
1.8500000000000227
0
CIRCLE
8
20
6
CONTINUOUS
62
1
10
122.47147302702575
20
25.457676348547807
40
1.8499999999999659
0
CIRCLE
8
20
6
CONTINUOUS
62
1
10
218.97147302702575
20
25.457676348547807
40
1.8500000000000227
0
ENDSEC
0
EOF
