G75*
%MOIN*%
%OFA0B0*%
%FSLAX24Y24*%
%IPPOS*%
%LPD*%
%AMOC8*
5,1,8,0,0,1.08239X$1,22.5*
%
%ADD10C,0.0080*%
%ADD11C,0.0060*%
%ADD12C,0.0040*%
%ADD13C,0.0050*%
%ADD14R,0.0150X0.0200*%
%ADD15R,0.0200X0.0150*%
%ADD16C,0.0240*%
%ADD17C,0.0120*%
%ADD18C,0.0080*%
D10*
X001010Y008513D02*
X000760Y008763D01*
X000760Y009263D01*
X001010Y009513D01*
X000760Y009763D01*
X000760Y010263D01*
X001010Y010513D01*
X001510Y010513D01*
X001760Y010263D01*
X001760Y009763D01*
X001510Y009513D01*
X001760Y009263D01*
X001760Y008763D01*
X001510Y008513D01*
X001010Y008513D01*
X001010Y010753D02*
X001510Y010753D01*
X001760Y011003D01*
X001760Y011503D01*
X001510Y011753D01*
X001760Y012003D01*
X001760Y012503D01*
X001510Y012753D01*
X001010Y012753D01*
X000760Y012503D01*
X000760Y012003D01*
X001010Y011753D01*
X000760Y011503D01*
X000760Y011003D01*
X001010Y010753D01*
X001010Y013033D02*
X001510Y013033D01*
X001760Y013283D01*
X001760Y013783D01*
X001510Y014033D01*
X001760Y014283D01*
X001760Y014783D01*
X001510Y015033D01*
X001010Y015033D01*
X000760Y014783D01*
X000760Y014283D01*
X001010Y014033D01*
X000760Y013783D01*
X000760Y013283D01*
X001010Y013033D01*
X000908Y018402D02*
X000908Y021316D01*
X004963Y021316D01*
X004963Y018402D01*
X000908Y018402D01*
X000938Y020774D02*
X001076Y020774D01*
X001213Y020912D01*
X001213Y021257D01*
X001902Y021257D02*
X001902Y020912D01*
X002040Y020774D01*
X002454Y020774D01*
X002591Y020912D01*
X002591Y021257D01*
X003280Y021257D02*
X003280Y020912D01*
X003418Y020774D01*
X003832Y020774D01*
X003969Y020912D01*
X003969Y021257D01*
X004658Y021257D02*
X004658Y020912D01*
X004796Y020774D01*
X004934Y020774D01*
X005072Y020774D02*
X005210Y020774D01*
X005347Y020912D01*
X005347Y021257D01*
X005042Y021316D02*
X009097Y021316D01*
X009097Y018402D01*
X005042Y018402D01*
X005042Y021316D01*
X006036Y021257D02*
X006036Y020912D01*
X006174Y020774D01*
X006587Y020774D01*
X006725Y020912D01*
X006725Y021257D01*
X007414Y021257D02*
X007414Y020912D01*
X007552Y020774D01*
X007965Y020774D01*
X008103Y020912D01*
X008103Y021257D01*
X008792Y021257D02*
X008792Y020912D01*
X008930Y020774D01*
X009068Y020774D01*
X009206Y020774D02*
X009343Y020774D01*
X009481Y020912D01*
X009481Y021257D01*
X009176Y021316D02*
X013231Y021316D01*
X013231Y018402D01*
X009176Y018402D01*
X009176Y021316D01*
X010170Y021257D02*
X010170Y020912D01*
X010308Y020774D01*
X010721Y020774D01*
X010859Y020912D01*
X010859Y021257D01*
X011548Y021257D02*
X011548Y020912D01*
X011686Y020774D01*
X012099Y020774D01*
X012237Y020912D01*
X012237Y021257D01*
X012926Y021257D02*
X012926Y020912D01*
X013064Y020774D01*
X013202Y020774D01*
X013339Y020774D02*
X013477Y020774D01*
X013615Y020912D01*
X013615Y021257D01*
X013310Y021316D02*
X017365Y021316D01*
X017365Y018402D01*
X013310Y018402D01*
X013310Y021316D01*
X014304Y021257D02*
X014304Y020912D01*
X014442Y020774D01*
X014855Y020774D01*
X014993Y020912D01*
X014993Y021257D01*
X015682Y021257D02*
X015682Y020912D01*
X015820Y020774D01*
X016233Y020774D01*
X016371Y020912D01*
X016371Y021257D01*
X017060Y021257D02*
X017060Y020912D01*
X017198Y020774D01*
X017336Y020774D01*
X017508Y018111D02*
X017508Y010237D01*
X015146Y010237D01*
X015146Y004725D01*
X009634Y004725D01*
X009634Y010237D01*
X014752Y010237D01*
X014752Y014174D01*
X011602Y014174D01*
X009634Y014174D01*
X009634Y018111D01*
X009724Y017786D02*
X009974Y018036D01*
X010474Y018036D01*
X010724Y017786D01*
X010724Y017286D01*
X010474Y017036D01*
X010724Y016786D01*
X010724Y016286D01*
X010474Y016036D01*
X009974Y016036D01*
X009724Y016286D01*
X009724Y016786D01*
X009974Y017036D01*
X009724Y017286D01*
X009724Y017786D01*
X011602Y018111D02*
X011602Y014174D01*
X009634Y014174D02*
X009634Y010237D01*
X009634Y004725D02*
X009634Y001182D01*
X017508Y001182D01*
X017508Y010237D01*
X015146Y010237D02*
X014752Y010237D01*
X014752Y014174D02*
X015146Y014174D01*
X015146Y018111D01*
X016417Y017786D02*
X016417Y017286D01*
X016667Y017036D01*
X016417Y016786D01*
X016417Y016286D01*
X016667Y016036D01*
X017167Y016036D01*
X017417Y016286D01*
X017417Y016786D01*
X017167Y017036D01*
X017417Y017286D01*
X017417Y017786D01*
X017167Y018036D01*
X016667Y018036D01*
X016417Y017786D01*
X016667Y003272D02*
X017167Y003272D01*
X017417Y003022D01*
X017417Y002522D01*
X017167Y002272D01*
X017417Y002022D01*
X017417Y001522D01*
X017167Y001272D01*
X016667Y001272D01*
X016417Y001522D01*
X016417Y002022D01*
X016667Y002272D01*
X016417Y002522D01*
X016417Y003022D01*
X016667Y003272D01*
X010724Y003022D02*
X010724Y002522D01*
X010474Y002272D01*
X010724Y002022D01*
X010724Y001522D01*
X010474Y001272D01*
X009974Y001272D01*
X009724Y001522D01*
X009724Y002022D01*
X009974Y002272D01*
X009724Y002522D01*
X009724Y003022D01*
X009974Y003272D01*
X010474Y003272D01*
X010724Y003022D01*
D11*
X000777Y000873D02*
X000604Y000873D01*
X000690Y000873D02*
X000690Y001134D01*
X000604Y001047D01*
X000898Y001090D02*
X000942Y001134D01*
X001028Y001134D01*
X001072Y001090D01*
X000898Y000917D01*
X000942Y000873D01*
X001028Y000873D01*
X001072Y000917D01*
X001072Y001090D01*
X001193Y001090D02*
X001193Y000917D01*
X001366Y001090D01*
X001366Y000917D01*
X001323Y000873D01*
X001236Y000873D01*
X001193Y000917D01*
X001193Y001090D02*
X001236Y001134D01*
X001323Y001134D01*
X001366Y001090D01*
X001488Y001047D02*
X001618Y001047D01*
X001661Y001003D01*
X001661Y000873D01*
X001782Y000873D02*
X001782Y001134D01*
X001956Y001134D01*
X001869Y001003D02*
X001782Y001003D01*
X001488Y001047D02*
X001488Y000873D01*
X001510Y001323D02*
X001010Y001323D01*
X000984Y001325D01*
X000958Y001330D01*
X000933Y001338D01*
X000910Y001350D01*
X000888Y001364D01*
X000869Y001382D01*
X000851Y001401D01*
X000837Y001423D01*
X000825Y001446D01*
X000817Y001471D01*
X000812Y001497D01*
X000810Y001523D01*
X000810Y002823D01*
X000812Y002849D01*
X000817Y002875D01*
X000825Y002900D01*
X000837Y002923D01*
X000851Y002945D01*
X000869Y002964D01*
X000888Y002982D01*
X000910Y002996D01*
X000933Y003008D01*
X000958Y003016D01*
X000984Y003021D01*
X001010Y003023D01*
X001510Y003023D01*
X001536Y003021D01*
X001562Y003016D01*
X001587Y003008D01*
X001610Y002996D01*
X001632Y002982D01*
X001651Y002964D01*
X001669Y002945D01*
X001683Y002923D01*
X001695Y002900D01*
X001703Y002875D01*
X001708Y002849D01*
X001710Y002823D01*
X001710Y001523D01*
X001708Y001497D01*
X001703Y001471D01*
X001695Y001446D01*
X001683Y001423D01*
X001669Y001401D01*
X001651Y001382D01*
X001632Y001364D01*
X001610Y001350D01*
X001587Y001338D01*
X001562Y001330D01*
X001536Y001325D01*
X001510Y001323D01*
X000898Y001090D02*
X000898Y000917D01*
X002347Y001629D02*
X002347Y001890D01*
X002434Y001803D01*
X002521Y001890D01*
X002521Y001629D01*
X002642Y001673D02*
X002642Y001846D01*
X002685Y001890D01*
X002772Y001890D01*
X002816Y001846D01*
X002937Y001890D02*
X002937Y001629D01*
X002937Y001716D02*
X003067Y001716D01*
X003110Y001760D01*
X003110Y001846D01*
X003067Y001890D01*
X002937Y001890D01*
X002816Y001673D02*
X002772Y001629D01*
X002685Y001629D01*
X002642Y001673D01*
X003231Y001629D02*
X003405Y001629D01*
X003318Y001629D02*
X003318Y001890D01*
X003231Y001803D01*
X003526Y001803D02*
X003526Y001846D01*
X003569Y001890D01*
X003656Y001890D01*
X003700Y001846D01*
X003700Y001803D01*
X003656Y001760D01*
X003569Y001760D01*
X003526Y001803D01*
X003569Y001760D02*
X003526Y001716D01*
X003526Y001673D01*
X003569Y001629D01*
X003656Y001629D01*
X003700Y001673D01*
X003700Y001716D01*
X003656Y001760D01*
X003821Y001846D02*
X003864Y001890D01*
X003951Y001890D01*
X003994Y001846D01*
X003994Y001803D01*
X003821Y001629D01*
X003994Y001629D01*
X004115Y001673D02*
X004159Y001629D01*
X004245Y001629D01*
X004289Y001673D01*
X004289Y001760D01*
X004245Y001803D01*
X004202Y001803D01*
X004115Y001760D01*
X004115Y001890D01*
X004289Y001890D01*
X005226Y003850D02*
X005399Y003850D01*
X005443Y003894D01*
X005443Y003980D01*
X005399Y004024D01*
X005443Y004145D02*
X005269Y004318D01*
X005226Y004318D01*
X005182Y004275D01*
X005182Y004188D01*
X005226Y004145D01*
X005226Y004024D02*
X005182Y003980D01*
X005182Y003894D01*
X005226Y003850D01*
X005443Y004145D02*
X005443Y004318D01*
X005399Y004440D02*
X005226Y004613D01*
X005399Y004613D01*
X005443Y004570D01*
X005443Y004483D01*
X005399Y004440D01*
X005226Y004440D01*
X005182Y004483D01*
X005182Y004570D01*
X005226Y004613D01*
X005249Y004854D02*
X005162Y004941D01*
X005423Y004941D01*
X005423Y004854D02*
X005423Y005028D01*
X005379Y005149D02*
X005206Y005322D01*
X005379Y005322D01*
X005423Y005279D01*
X005423Y005192D01*
X005379Y005149D01*
X005206Y005149D01*
X005162Y005192D01*
X005162Y005279D01*
X005206Y005322D01*
X005292Y005487D02*
X005379Y005487D01*
X005466Y005487D01*
X005509Y005444D01*
X005423Y005530D02*
X005423Y005574D01*
X005379Y005617D01*
X005292Y005617D01*
X005379Y005487D02*
X005423Y005530D01*
X004553Y004434D02*
X004553Y004234D01*
X004653Y004334D02*
X004453Y004334D01*
X003453Y004884D02*
X003455Y004940D01*
X003461Y004997D01*
X003471Y005052D01*
X003485Y005107D01*
X003502Y005161D01*
X003524Y005213D01*
X003549Y005263D01*
X003577Y005312D01*
X003609Y005359D01*
X003644Y005403D01*
X003682Y005445D01*
X003723Y005484D01*
X003767Y005519D01*
X003813Y005552D01*
X003861Y005581D01*
X003911Y005607D01*
X003963Y005630D01*
X004017Y005648D01*
X004071Y005663D01*
X004126Y005674D01*
X004182Y005681D01*
X004239Y005684D01*
X004295Y005683D01*
X004352Y005678D01*
X004407Y005669D01*
X004462Y005656D01*
X004516Y005639D01*
X004569Y005619D01*
X004620Y005595D01*
X004669Y005567D01*
X004716Y005536D01*
X004761Y005502D01*
X004804Y005464D01*
X004843Y005424D01*
X004880Y005381D01*
X004913Y005336D01*
X004943Y005288D01*
X004970Y005238D01*
X004993Y005187D01*
X005013Y005134D01*
X005029Y005080D01*
X005041Y005024D01*
X005049Y004969D01*
X005053Y004912D01*
X005053Y004856D01*
X005049Y004799D01*
X005041Y004744D01*
X005029Y004688D01*
X005013Y004634D01*
X004993Y004581D01*
X004970Y004530D01*
X004943Y004480D01*
X004913Y004432D01*
X004880Y004387D01*
X004843Y004344D01*
X004804Y004304D01*
X004761Y004266D01*
X004716Y004232D01*
X004669Y004201D01*
X004620Y004173D01*
X004569Y004149D01*
X004516Y004129D01*
X004462Y004112D01*
X004407Y004099D01*
X004352Y004090D01*
X004295Y004085D01*
X004239Y004084D01*
X004182Y004087D01*
X004126Y004094D01*
X004071Y004105D01*
X004017Y004120D01*
X003963Y004138D01*
X003911Y004161D01*
X003861Y004187D01*
X003813Y004216D01*
X003767Y004249D01*
X003723Y004284D01*
X003682Y004323D01*
X003644Y004365D01*
X003609Y004409D01*
X003577Y004456D01*
X003549Y004505D01*
X003524Y004555D01*
X003502Y004607D01*
X003485Y004661D01*
X003471Y004716D01*
X003461Y004771D01*
X003455Y004828D01*
X003453Y004884D01*
X001593Y004884D02*
X001595Y004940D01*
X001601Y004997D01*
X001611Y005052D01*
X001625Y005107D01*
X001642Y005161D01*
X001664Y005213D01*
X001689Y005263D01*
X001717Y005312D01*
X001749Y005359D01*
X001784Y005403D01*
X001822Y005445D01*
X001863Y005484D01*
X001907Y005519D01*
X001953Y005552D01*
X002001Y005581D01*
X002051Y005607D01*
X002103Y005630D01*
X002157Y005648D01*
X002211Y005663D01*
X002266Y005674D01*
X002322Y005681D01*
X002379Y005684D01*
X002435Y005683D01*
X002492Y005678D01*
X002547Y005669D01*
X002602Y005656D01*
X002656Y005639D01*
X002709Y005619D01*
X002760Y005595D01*
X002809Y005567D01*
X002856Y005536D01*
X002901Y005502D01*
X002944Y005464D01*
X002983Y005424D01*
X003020Y005381D01*
X003053Y005336D01*
X003083Y005288D01*
X003110Y005238D01*
X003133Y005187D01*
X003153Y005134D01*
X003169Y005080D01*
X003181Y005024D01*
X003189Y004969D01*
X003193Y004912D01*
X003193Y004856D01*
X003189Y004799D01*
X003181Y004744D01*
X003169Y004688D01*
X003153Y004634D01*
X003133Y004581D01*
X003110Y004530D01*
X003083Y004480D01*
X003053Y004432D01*
X003020Y004387D01*
X002983Y004344D01*
X002944Y004304D01*
X002901Y004266D01*
X002856Y004232D01*
X002809Y004201D01*
X002760Y004173D01*
X002709Y004149D01*
X002656Y004129D01*
X002602Y004112D01*
X002547Y004099D01*
X002492Y004090D01*
X002435Y004085D01*
X002379Y004084D01*
X002322Y004087D01*
X002266Y004094D01*
X002211Y004105D01*
X002157Y004120D01*
X002103Y004138D01*
X002051Y004161D01*
X002001Y004187D01*
X001953Y004216D01*
X001907Y004249D01*
X001863Y004284D01*
X001822Y004323D01*
X001784Y004365D01*
X001749Y004409D01*
X001717Y004456D01*
X001689Y004505D01*
X001664Y004555D01*
X001642Y004607D01*
X001625Y004661D01*
X001611Y004716D01*
X001601Y004771D01*
X001595Y004828D01*
X001593Y004884D01*
X001483Y004897D02*
X001222Y004897D01*
X001309Y004810D01*
X001483Y004810D02*
X001483Y004984D01*
X001439Y005105D02*
X001266Y005278D01*
X001439Y005278D01*
X001483Y005235D01*
X001483Y005148D01*
X001439Y005105D01*
X001266Y005105D01*
X001222Y005148D01*
X001222Y005235D01*
X001266Y005278D01*
X001352Y005443D02*
X001439Y005443D01*
X001526Y005443D01*
X001569Y005400D01*
X001483Y005486D02*
X001439Y005443D01*
X001483Y005486D02*
X001483Y005530D01*
X001439Y005573D01*
X001352Y005573D01*
X001993Y005434D02*
X002193Y005434D01*
X002093Y005334D02*
X002093Y005534D01*
X001483Y004613D02*
X001483Y004440D01*
X001483Y004526D02*
X001222Y004526D01*
X001309Y004440D01*
X001309Y004318D02*
X001266Y004318D01*
X001222Y004275D01*
X001222Y004188D01*
X001266Y004145D01*
X001266Y004024D02*
X001222Y003980D01*
X001222Y003894D01*
X001266Y003850D01*
X001439Y003850D01*
X001483Y003894D01*
X001483Y003980D01*
X001439Y004024D01*
X001483Y004145D02*
X001309Y004318D01*
X001483Y004318D02*
X001483Y004145D01*
X001466Y003496D02*
X001292Y003496D01*
X001292Y003366D01*
X001379Y003409D01*
X001422Y003409D01*
X001466Y003366D01*
X001466Y003279D01*
X001422Y003236D01*
X001335Y003236D01*
X001292Y003279D01*
X001171Y003279D02*
X001128Y003236D01*
X001041Y003236D01*
X000997Y003279D01*
X000997Y003452D01*
X001041Y003496D01*
X001128Y003496D01*
X001171Y003452D01*
X001770Y008518D02*
X001770Y008649D01*
X001813Y008692D01*
X001900Y008692D01*
X001943Y008649D01*
X001943Y008518D01*
X002030Y008518D02*
X001770Y008518D01*
X001943Y008605D02*
X002030Y008692D01*
X002030Y008813D02*
X001770Y008987D01*
X001770Y008813D02*
X002030Y008987D01*
X002073Y009108D02*
X002073Y009281D01*
X002030Y009402D02*
X002030Y009576D01*
X002030Y009697D02*
X002030Y009784D01*
X002030Y009740D02*
X001770Y009740D01*
X001770Y009697D02*
X001770Y009784D01*
X001770Y009893D02*
X002030Y010067D01*
X001770Y010067D01*
X001770Y010188D02*
X002030Y010188D01*
X001943Y010188D02*
X001770Y010362D01*
X001900Y010231D02*
X002030Y010362D01*
X002030Y009893D02*
X001770Y009893D01*
X001770Y009402D02*
X002030Y009402D01*
X001770Y010918D02*
X001770Y011092D01*
X001770Y011005D02*
X002030Y011005D01*
X002030Y011213D02*
X001770Y011387D01*
X001770Y011213D02*
X002030Y011387D01*
X002073Y011508D02*
X002073Y011681D01*
X002030Y011802D02*
X002030Y011976D01*
X002030Y012097D02*
X002030Y012184D01*
X002030Y012140D02*
X001770Y012140D01*
X001770Y012097D02*
X001770Y012184D01*
X001770Y012293D02*
X002030Y012467D01*
X001770Y012467D01*
X001770Y012588D02*
X002030Y012588D01*
X001943Y012588D02*
X001770Y012762D01*
X001900Y012631D02*
X002030Y012762D01*
X002030Y012293D02*
X001770Y012293D01*
X001770Y011802D02*
X002030Y011802D01*
X001740Y015160D02*
X001653Y015160D01*
X001610Y015203D01*
X001783Y015376D01*
X001783Y015203D01*
X001740Y015160D01*
X001610Y015203D02*
X001610Y015376D01*
X001653Y015420D01*
X001740Y015420D01*
X001783Y015376D01*
X001489Y015376D02*
X001445Y015420D01*
X001358Y015420D01*
X001315Y015376D01*
X001315Y015203D01*
X001358Y015160D01*
X001445Y015160D01*
X001489Y015203D01*
X001489Y015376D01*
X001205Y015420D02*
X001119Y015420D01*
X001162Y015420D02*
X001162Y015160D01*
X001119Y015160D02*
X001205Y015160D01*
X000997Y015290D02*
X000954Y015246D01*
X000824Y015246D01*
X000824Y015160D02*
X000824Y015420D01*
X000954Y015420D01*
X000997Y015376D01*
X000997Y015290D01*
X000703Y015290D02*
X000616Y015290D01*
X000703Y015290D02*
X000703Y015203D01*
X000659Y015160D01*
X000573Y015160D01*
X000529Y015203D01*
X000529Y015376D01*
X000573Y015420D01*
X000659Y015420D01*
X000703Y015376D01*
X002540Y016143D02*
X002540Y016643D01*
X002790Y016893D01*
X003290Y016893D01*
X003540Y016643D01*
X003790Y016893D01*
X004290Y016893D01*
X004540Y016643D01*
X004790Y016893D01*
X005290Y016893D01*
X005540Y016643D01*
X005790Y016893D01*
X006290Y016893D01*
X006540Y016643D01*
X006790Y016893D01*
X007290Y016893D01*
X007540Y016643D01*
X007790Y016893D01*
X008290Y016893D01*
X008540Y016643D01*
X008540Y016143D01*
X008290Y015893D01*
X007790Y015893D01*
X007540Y016143D01*
X007290Y015893D01*
X006790Y015893D01*
X006540Y016143D01*
X006290Y015893D01*
X005790Y015893D01*
X005540Y016143D01*
X005290Y015893D01*
X004790Y015893D01*
X004540Y016143D01*
X004290Y015893D01*
X003790Y015893D01*
X003540Y016143D01*
X003290Y015893D01*
X002790Y015893D01*
X002540Y016143D01*
X002856Y017999D02*
X002856Y018260D01*
X002769Y018260D02*
X002943Y018260D01*
X003950Y018216D02*
X003950Y018043D01*
X003994Y017999D01*
X004080Y017999D01*
X004124Y018043D01*
X004124Y018129D01*
X004037Y018129D01*
X004124Y018216D02*
X004080Y018260D01*
X003994Y018260D01*
X003950Y018216D01*
X004245Y018260D02*
X004245Y017999D01*
X004418Y017999D02*
X004418Y018260D01*
X004539Y018260D02*
X004670Y018260D01*
X004713Y018216D01*
X004713Y018043D01*
X004670Y017999D01*
X004539Y017999D01*
X004539Y018260D01*
X004418Y017999D02*
X004245Y018260D01*
X005328Y018216D02*
X005371Y018260D01*
X005458Y018260D01*
X005502Y018216D01*
X005502Y018173D01*
X005458Y018129D01*
X005502Y018086D01*
X005502Y018043D01*
X005458Y017999D01*
X005371Y017999D01*
X005328Y018043D01*
X005415Y018129D02*
X005458Y018129D01*
X005623Y018043D02*
X005623Y017999D01*
X005666Y017999D01*
X005666Y018043D01*
X005623Y018043D01*
X005770Y018043D02*
X005813Y017999D01*
X005900Y017999D01*
X005944Y018043D01*
X005944Y018086D01*
X005900Y018129D01*
X005857Y018129D01*
X005900Y018129D02*
X005944Y018173D01*
X005944Y018216D01*
X005900Y018260D01*
X005813Y018260D01*
X005770Y018216D01*
X006493Y017964D02*
X006493Y017364D01*
X006495Y017347D01*
X006499Y017330D01*
X006506Y017314D01*
X006516Y017300D01*
X006529Y017287D01*
X006543Y017277D01*
X006559Y017270D01*
X006576Y017266D01*
X006593Y017264D01*
X006743Y017264D01*
X006793Y017314D01*
X008193Y017314D01*
X008243Y017264D01*
X008393Y017264D01*
X008410Y017266D01*
X008427Y017270D01*
X008443Y017277D01*
X008457Y017287D01*
X008470Y017300D01*
X008480Y017314D01*
X008487Y017330D01*
X008491Y017347D01*
X008493Y017364D01*
X008493Y017964D01*
X008552Y017999D02*
X008552Y018260D01*
X008673Y018260D02*
X008803Y018260D01*
X008847Y018216D01*
X008847Y018043D01*
X008803Y017999D01*
X008673Y017999D01*
X008673Y018260D01*
X008552Y017999D02*
X008379Y018260D01*
X008379Y017999D01*
X008393Y018064D02*
X008410Y018062D01*
X008427Y018058D01*
X008443Y018051D01*
X008457Y018041D01*
X008470Y018028D01*
X008480Y018014D01*
X008487Y017998D01*
X008491Y017981D01*
X008493Y017964D01*
X008393Y018064D02*
X008243Y018064D01*
X008193Y018014D01*
X006793Y018014D01*
X006743Y018064D01*
X006593Y018064D01*
X006576Y018062D01*
X006559Y018058D01*
X006543Y018051D01*
X006529Y018041D01*
X006516Y018028D01*
X006506Y018014D01*
X006499Y017998D01*
X006495Y017981D01*
X006493Y017964D01*
X006690Y017693D02*
X006863Y017693D01*
X006820Y017823D02*
X006690Y017693D01*
X006820Y017563D02*
X006820Y017823D01*
X006990Y017999D02*
X006990Y018260D01*
X007076Y018260D02*
X006903Y018260D01*
X007132Y017823D02*
X007305Y017823D01*
X007305Y017780D01*
X007132Y017606D01*
X007132Y017563D01*
X007028Y017563D02*
X007028Y017606D01*
X006985Y017606D01*
X006985Y017563D01*
X007028Y017563D01*
X007427Y017563D02*
X007427Y017823D01*
X007470Y017693D02*
X007600Y017563D01*
X007427Y017649D02*
X007600Y017823D01*
X007890Y017823D02*
X008020Y017823D01*
X008063Y017780D01*
X008063Y017693D01*
X008020Y017649D01*
X007890Y017649D01*
X007890Y017563D02*
X007890Y017823D01*
X007977Y017649D02*
X008063Y017563D01*
X008185Y017563D02*
X008185Y017606D01*
X008358Y017780D01*
X008358Y017823D01*
X008185Y017823D01*
X008214Y017999D02*
X008257Y018043D01*
X008257Y018129D01*
X008171Y018129D01*
X008084Y018043D02*
X008127Y017999D01*
X008214Y017999D01*
X008084Y018043D02*
X008084Y018216D01*
X008127Y018260D01*
X008214Y018260D01*
X008257Y018216D01*
X009462Y018216D02*
X009505Y018260D01*
X009592Y018260D01*
X009635Y018216D01*
X009635Y018173D01*
X009592Y018129D01*
X009635Y018086D01*
X009635Y018043D01*
X009592Y017999D01*
X009505Y017999D01*
X009462Y018043D01*
X009549Y018129D02*
X009592Y018129D01*
X009757Y018043D02*
X009800Y018043D01*
X009800Y017999D01*
X009757Y017999D01*
X009757Y018043D01*
X009904Y018043D02*
X009947Y017999D01*
X010034Y017999D01*
X010077Y018043D01*
X010077Y018086D01*
X010034Y018129D01*
X009991Y018129D01*
X010034Y018129D02*
X010077Y018173D01*
X010077Y018216D01*
X010034Y018260D01*
X009947Y018260D01*
X009904Y018216D01*
X010643Y018260D02*
X010643Y017999D01*
X010643Y018086D02*
X010773Y018086D01*
X010817Y018129D01*
X010817Y018216D01*
X010773Y018260D01*
X010643Y018260D01*
X010938Y018260D02*
X010938Y018043D01*
X010981Y017999D01*
X011068Y017999D01*
X011111Y018043D01*
X011111Y018260D01*
X011232Y018260D02*
X011232Y017999D01*
X011406Y017999D01*
X011527Y018043D02*
X011570Y017999D01*
X011657Y017999D01*
X011701Y018043D01*
X011701Y018086D01*
X011657Y018129D01*
X011570Y018129D01*
X011527Y018173D01*
X011527Y018216D01*
X011570Y018260D01*
X011657Y018260D01*
X011701Y018216D01*
X011822Y018260D02*
X011822Y017999D01*
X011995Y017999D01*
X011908Y018129D02*
X011822Y018129D01*
X011822Y018260D02*
X011995Y018260D01*
X012415Y018260D02*
X012415Y017999D01*
X012545Y017999D01*
X012588Y018043D01*
X012588Y018216D01*
X012545Y018260D01*
X012415Y018260D01*
X012709Y018216D02*
X012753Y018260D01*
X012839Y018260D01*
X012883Y018216D01*
X012883Y018173D01*
X012709Y017999D01*
X012883Y017999D01*
X013596Y018043D02*
X013639Y017999D01*
X013726Y017999D01*
X013769Y018043D01*
X013769Y018129D01*
X013683Y018129D01*
X013769Y018216D02*
X013726Y018260D01*
X013639Y018260D01*
X013596Y018216D01*
X013596Y018043D01*
X013890Y017999D02*
X013890Y018260D01*
X014064Y017999D01*
X014064Y018260D01*
X014185Y018260D02*
X014315Y018260D01*
X014359Y018216D01*
X014359Y018043D01*
X014315Y017999D01*
X014185Y017999D01*
X014185Y018260D01*
X015069Y018260D02*
X015069Y017999D01*
X015243Y017999D02*
X015243Y018260D01*
X015156Y018173D01*
X015069Y018260D01*
X015364Y018260D02*
X015494Y018260D01*
X015537Y018216D01*
X015537Y018173D01*
X015494Y018129D01*
X015364Y018129D01*
X015364Y017999D02*
X015494Y017999D01*
X015537Y018043D01*
X015537Y018086D01*
X015494Y018129D01*
X015364Y017999D02*
X015364Y018260D01*
X015658Y018260D02*
X015658Y018043D01*
X015702Y017999D01*
X015789Y017999D01*
X015832Y018043D01*
X015832Y018260D01*
X015953Y018216D02*
X015953Y018173D01*
X015996Y018129D01*
X016083Y018129D01*
X016127Y018086D01*
X016127Y018043D01*
X016083Y017999D01*
X015996Y017999D01*
X015953Y018043D01*
X015953Y018216D02*
X015996Y018260D01*
X016083Y018260D01*
X016127Y018216D01*
X016069Y016280D02*
X016243Y016280D01*
X016243Y016236D01*
X016069Y016063D01*
X016069Y016019D01*
X015948Y016063D02*
X015905Y016019D01*
X015818Y016019D01*
X015775Y016063D01*
X015948Y016236D01*
X015948Y016063D01*
X015948Y016236D02*
X015905Y016280D01*
X015818Y016280D01*
X015775Y016236D01*
X015775Y016063D01*
X015653Y016063D02*
X015610Y016019D01*
X015523Y016019D01*
X015480Y016063D01*
X015359Y016063D02*
X015315Y016019D01*
X015229Y016019D01*
X015185Y016063D01*
X015185Y016236D01*
X015229Y016280D01*
X015315Y016280D01*
X015359Y016236D01*
X015480Y016236D02*
X015523Y016280D01*
X015610Y016280D01*
X015653Y016236D01*
X015653Y016193D01*
X015610Y016150D01*
X015653Y016106D01*
X015653Y016063D01*
X015610Y016150D02*
X015567Y016150D01*
X015608Y015854D02*
X017257Y015854D01*
X017320Y015304D02*
X017478Y015304D01*
X016545Y015304D02*
X016320Y015304D01*
X015607Y015854D02*
X015570Y015803D01*
X015535Y015750D01*
X015503Y015694D01*
X015475Y015637D01*
X015451Y015578D01*
X015430Y015518D01*
X015413Y015457D01*
X015399Y015395D01*
X015390Y015332D01*
X015384Y015269D01*
X015382Y015205D01*
X015384Y015141D01*
X015390Y015078D01*
X015399Y015015D01*
X015412Y014953D01*
X015430Y014892D01*
X015450Y014832D01*
X015475Y014773D01*
X015502Y014716D01*
X015534Y014660D01*
X015568Y014607D01*
X015606Y014556D01*
X015647Y014507D01*
X015691Y014461D01*
X015737Y014417D01*
X015786Y014376D01*
X015837Y014339D01*
X015891Y014304D01*
X015946Y014273D01*
X016003Y014245D01*
X016062Y014221D01*
X016122Y014201D01*
X016743Y014201D02*
X016803Y014221D01*
X016862Y014245D01*
X016919Y014273D01*
X016974Y014304D01*
X017028Y014339D01*
X017079Y014376D01*
X017128Y014417D01*
X017174Y014461D01*
X017218Y014507D01*
X017259Y014556D01*
X017297Y014607D01*
X017331Y014660D01*
X017362Y014716D01*
X017390Y014773D01*
X017415Y014832D01*
X017435Y014892D01*
X017453Y014953D01*
X017466Y015015D01*
X017475Y015078D01*
X017481Y015141D01*
X017483Y015205D01*
X017481Y015269D01*
X017475Y015332D01*
X017466Y015395D01*
X017452Y015457D01*
X017435Y015518D01*
X017414Y015578D01*
X017390Y015637D01*
X017362Y015694D01*
X017330Y015750D01*
X017295Y015803D01*
X017258Y015854D01*
X015545Y015304D02*
X015387Y015304D01*
X015021Y016019D02*
X014891Y016019D01*
X014891Y016280D01*
X015021Y016280D01*
X015064Y016236D01*
X015064Y016193D01*
X015021Y016150D01*
X014891Y016150D01*
X015021Y016150D02*
X015064Y016106D01*
X015064Y016063D01*
X015021Y016019D01*
X014971Y013561D02*
X015015Y013561D01*
X015188Y013388D01*
X015232Y013388D01*
X015188Y013266D02*
X015232Y013223D01*
X015232Y013136D01*
X015188Y013093D01*
X015188Y012972D02*
X015145Y012972D01*
X015101Y012928D01*
X015101Y012885D01*
X015101Y012928D02*
X015058Y012972D01*
X015015Y012972D01*
X014971Y012928D01*
X014971Y012842D01*
X015015Y012798D01*
X015015Y012677D02*
X014971Y012634D01*
X014971Y012547D01*
X015015Y012504D01*
X015188Y012504D01*
X015232Y012547D01*
X015232Y012634D01*
X015188Y012677D01*
X015188Y012798D02*
X015232Y012842D01*
X015232Y012928D01*
X015188Y012972D01*
X015015Y013093D02*
X014971Y013136D01*
X014971Y013223D01*
X015015Y013266D01*
X015058Y013266D01*
X015101Y013223D01*
X015145Y013266D01*
X015188Y013266D01*
X015101Y013223D02*
X015101Y013180D01*
X014971Y013388D02*
X014971Y013561D01*
X015015Y012383D02*
X015058Y012383D01*
X015101Y012339D01*
X015101Y012209D01*
X014971Y012209D02*
X014971Y012339D01*
X015015Y012383D01*
X015101Y012339D02*
X015145Y012383D01*
X015188Y012383D01*
X015232Y012339D01*
X015232Y012209D01*
X014971Y012209D01*
X014971Y011750D02*
X015015Y011750D01*
X015188Y011576D01*
X015232Y011576D01*
X015188Y011455D02*
X015145Y011455D01*
X015101Y011412D01*
X015101Y011368D01*
X015101Y011412D02*
X015058Y011455D01*
X015015Y011455D01*
X014971Y011412D01*
X014971Y011325D01*
X015015Y011282D01*
X015015Y011160D02*
X014971Y011117D01*
X014971Y011030D01*
X015015Y010987D01*
X015015Y010866D02*
X014971Y010822D01*
X014971Y010736D01*
X015015Y010692D01*
X015188Y010692D01*
X015232Y010736D01*
X015232Y010822D01*
X015188Y010866D01*
X015188Y010987D02*
X015232Y011030D01*
X015232Y011117D01*
X015188Y011160D01*
X015145Y011160D01*
X015101Y011117D01*
X015101Y011074D01*
X015101Y011117D02*
X015058Y011160D01*
X015015Y011160D01*
X015188Y011282D02*
X015232Y011325D01*
X015232Y011412D01*
X015188Y011455D01*
X014971Y011576D02*
X014971Y011750D01*
X015015Y010571D02*
X014971Y010528D01*
X014971Y010398D01*
X015232Y010398D01*
X015232Y010528D01*
X015188Y010571D01*
X015145Y010571D01*
X015101Y010528D01*
X015101Y010398D01*
X015101Y010528D02*
X015058Y010571D01*
X015015Y010571D01*
X013773Y010344D02*
X013773Y010944D01*
X013771Y010961D01*
X013767Y010978D01*
X013760Y010994D01*
X013750Y011008D01*
X013737Y011021D01*
X013723Y011031D01*
X013707Y011038D01*
X013690Y011042D01*
X013673Y011044D01*
X013523Y011044D01*
X013473Y010994D01*
X012073Y010994D01*
X012023Y011044D01*
X011873Y011044D01*
X011856Y011042D01*
X011839Y011038D01*
X011823Y011031D01*
X011809Y011021D01*
X011796Y011008D01*
X011786Y010994D01*
X011779Y010978D01*
X011775Y010961D01*
X011773Y010944D01*
X011773Y010344D01*
X011775Y010327D01*
X011779Y010310D01*
X011786Y010294D01*
X011796Y010280D01*
X011809Y010267D01*
X011823Y010257D01*
X011839Y010250D01*
X011856Y010246D01*
X011873Y010244D01*
X012023Y010244D01*
X012073Y010294D01*
X013473Y010294D01*
X013523Y010244D01*
X013673Y010244D01*
X013690Y010246D01*
X013707Y010250D01*
X013723Y010257D01*
X013737Y010267D01*
X013750Y010280D01*
X013760Y010294D01*
X013767Y010310D01*
X013771Y010327D01*
X013773Y010344D01*
X013627Y010519D02*
X013670Y010562D01*
X013670Y010736D01*
X013627Y010779D01*
X013540Y010779D01*
X013497Y010736D01*
X013497Y010692D01*
X013540Y010649D01*
X013670Y010649D01*
X013627Y010519D02*
X013540Y010519D01*
X013497Y010562D01*
X013376Y010519D02*
X013289Y010606D01*
X013332Y010606D02*
X013202Y010606D01*
X013202Y010519D02*
X013202Y010779D01*
X013332Y010779D01*
X013376Y010736D01*
X013376Y010649D01*
X013332Y010606D01*
X013530Y010013D02*
X013480Y009963D01*
X012080Y009963D01*
X012030Y010013D01*
X011880Y010013D01*
X011863Y010011D01*
X011846Y010007D01*
X011830Y010000D01*
X011816Y009990D01*
X011803Y009977D01*
X011793Y009963D01*
X011786Y009947D01*
X011782Y009930D01*
X011780Y009913D01*
X011780Y009313D01*
X011782Y009296D01*
X011786Y009279D01*
X011793Y009263D01*
X011803Y009249D01*
X011816Y009236D01*
X011830Y009226D01*
X011846Y009219D01*
X011863Y009215D01*
X011880Y009213D01*
X012030Y009213D01*
X012080Y009263D01*
X013480Y009263D01*
X013530Y009213D01*
X013680Y009213D01*
X013697Y009215D01*
X013714Y009219D01*
X013730Y009226D01*
X013744Y009236D01*
X013757Y009249D01*
X013767Y009263D01*
X013774Y009279D01*
X013778Y009296D01*
X013780Y009313D01*
X013780Y009913D01*
X013778Y009930D01*
X013774Y009947D01*
X013767Y009963D01*
X013757Y009977D01*
X013744Y009990D01*
X013730Y010000D01*
X013714Y010007D01*
X013697Y010011D01*
X013680Y010013D01*
X013530Y010013D01*
X013549Y009733D02*
X013506Y009689D01*
X013506Y009646D01*
X013549Y009603D01*
X013679Y009603D01*
X013679Y009689D02*
X013636Y009733D01*
X013549Y009733D01*
X013679Y009689D02*
X013679Y009516D01*
X013636Y009473D01*
X013549Y009473D01*
X013506Y009516D01*
X013384Y009473D02*
X013211Y009473D01*
X013298Y009473D02*
X013298Y009733D01*
X013211Y009646D01*
X013090Y009603D02*
X013046Y009559D01*
X012916Y009559D01*
X012916Y009473D02*
X012916Y009733D01*
X013046Y009733D01*
X013090Y009689D01*
X013090Y009603D01*
X013003Y009559D02*
X013090Y009473D01*
X013530Y008993D02*
X013480Y008943D01*
X012080Y008943D01*
X012030Y008993D01*
X011880Y008993D01*
X011863Y008991D01*
X011846Y008987D01*
X011830Y008980D01*
X011816Y008970D01*
X011803Y008957D01*
X011793Y008943D01*
X011786Y008927D01*
X011782Y008910D01*
X011780Y008893D01*
X011780Y008293D01*
X011782Y008276D01*
X011786Y008259D01*
X011793Y008243D01*
X011803Y008229D01*
X011816Y008216D01*
X011830Y008206D01*
X011846Y008199D01*
X011863Y008195D01*
X011880Y008193D01*
X012030Y008193D01*
X012080Y008243D01*
X013480Y008243D01*
X013530Y008193D01*
X013680Y008193D01*
X013697Y008195D01*
X013714Y008199D01*
X013730Y008206D01*
X013744Y008216D01*
X013757Y008229D01*
X013767Y008243D01*
X013774Y008259D01*
X013778Y008276D01*
X013780Y008293D01*
X013780Y008893D01*
X013778Y008910D01*
X013774Y008927D01*
X013767Y008943D01*
X013757Y008957D01*
X013744Y008970D01*
X013730Y008980D01*
X013714Y008987D01*
X013697Y008991D01*
X013680Y008993D01*
X013530Y008993D01*
X013503Y008703D02*
X013589Y008703D01*
X013633Y008660D01*
X013633Y008616D01*
X013589Y008573D01*
X013503Y008573D01*
X013459Y008616D01*
X013459Y008660D01*
X013503Y008703D01*
X013503Y008573D02*
X013459Y008529D01*
X013459Y008486D01*
X013503Y008443D01*
X013589Y008443D01*
X013633Y008486D01*
X013633Y008529D01*
X013589Y008573D01*
X013338Y008443D02*
X013165Y008443D01*
X013251Y008443D02*
X013251Y008703D01*
X013165Y008616D01*
X013043Y008573D02*
X013000Y008529D01*
X012870Y008529D01*
X012870Y008443D02*
X012870Y008703D01*
X013000Y008703D01*
X013043Y008660D01*
X013043Y008573D01*
X012957Y008529D02*
X013043Y008443D01*
X013530Y007973D02*
X013680Y007973D01*
X013697Y007971D01*
X013714Y007967D01*
X013730Y007960D01*
X013744Y007950D01*
X013757Y007937D01*
X013767Y007923D01*
X013774Y007907D01*
X013778Y007890D01*
X013780Y007873D01*
X013780Y007273D01*
X013778Y007256D01*
X013774Y007239D01*
X013767Y007223D01*
X013757Y007209D01*
X013744Y007196D01*
X013730Y007186D01*
X013714Y007179D01*
X013697Y007175D01*
X013680Y007173D01*
X013530Y007173D01*
X013480Y007223D01*
X012080Y007223D01*
X012030Y007173D01*
X011880Y007173D01*
X011863Y007175D01*
X011846Y007179D01*
X011830Y007186D01*
X011816Y007196D01*
X011803Y007209D01*
X011793Y007223D01*
X011786Y007239D01*
X011782Y007256D01*
X011780Y007273D01*
X011780Y007873D01*
X011782Y007890D01*
X011786Y007907D01*
X011793Y007923D01*
X011803Y007937D01*
X011816Y007950D01*
X011830Y007960D01*
X011846Y007967D01*
X011863Y007971D01*
X011880Y007973D01*
X012030Y007973D01*
X012080Y007923D01*
X013480Y007923D01*
X013530Y007973D01*
X013636Y007733D02*
X013506Y007603D01*
X013679Y007603D01*
X013636Y007473D02*
X013636Y007733D01*
X013384Y007473D02*
X013211Y007473D01*
X013298Y007473D02*
X013298Y007733D01*
X013211Y007646D01*
X013090Y007603D02*
X013046Y007559D01*
X012916Y007559D01*
X012916Y007473D02*
X012916Y007733D01*
X013046Y007733D01*
X013090Y007689D01*
X013090Y007603D01*
X013003Y007559D02*
X013090Y007473D01*
X013523Y006964D02*
X013673Y006964D01*
X013690Y006962D01*
X013707Y006958D01*
X013723Y006951D01*
X013737Y006941D01*
X013750Y006928D01*
X013760Y006914D01*
X013767Y006898D01*
X013771Y006881D01*
X013773Y006864D01*
X013773Y006264D01*
X013771Y006247D01*
X013767Y006230D01*
X013760Y006214D01*
X013750Y006200D01*
X013737Y006187D01*
X013723Y006177D01*
X013707Y006170D01*
X013690Y006166D01*
X013673Y006164D01*
X013523Y006164D01*
X013473Y006214D01*
X012073Y006214D01*
X012023Y006164D01*
X011873Y006164D01*
X011856Y006166D01*
X011839Y006170D01*
X011823Y006177D01*
X011809Y006187D01*
X011796Y006200D01*
X011786Y006214D01*
X011779Y006230D01*
X011775Y006247D01*
X011773Y006264D01*
X011773Y006864D01*
X011775Y006881D01*
X011779Y006898D01*
X011786Y006914D01*
X011796Y006928D01*
X011809Y006941D01*
X011823Y006951D01*
X011839Y006958D01*
X011856Y006962D01*
X011873Y006964D01*
X012023Y006964D01*
X012073Y006914D01*
X013473Y006914D01*
X013523Y006964D01*
X013498Y006704D02*
X013498Y006574D01*
X013585Y006618D01*
X013628Y006618D01*
X013672Y006574D01*
X013672Y006487D01*
X013628Y006444D01*
X013541Y006444D01*
X013498Y006487D01*
X013377Y006444D02*
X013203Y006444D01*
X013290Y006444D02*
X013290Y006704D01*
X013203Y006618D01*
X013082Y006661D02*
X013082Y006574D01*
X013039Y006531D01*
X012909Y006531D01*
X012996Y006531D02*
X013082Y006444D01*
X012909Y006444D02*
X012909Y006704D01*
X013039Y006704D01*
X013082Y006661D01*
X013498Y006704D02*
X013672Y006704D01*
X013673Y005944D02*
X013523Y005944D01*
X013473Y005894D01*
X012073Y005894D01*
X012023Y005944D01*
X011873Y005944D01*
X011856Y005942D01*
X011839Y005938D01*
X011823Y005931D01*
X011809Y005921D01*
X011796Y005908D01*
X011786Y005894D01*
X011779Y005878D01*
X011775Y005861D01*
X011773Y005844D01*
X011773Y005244D01*
X011775Y005227D01*
X011779Y005210D01*
X011786Y005194D01*
X011796Y005180D01*
X011809Y005167D01*
X011823Y005157D01*
X011839Y005150D01*
X011856Y005146D01*
X011873Y005144D01*
X012023Y005144D01*
X012073Y005194D01*
X013473Y005194D01*
X013523Y005144D01*
X013673Y005144D01*
X013690Y005146D01*
X013707Y005150D01*
X013723Y005157D01*
X013737Y005167D01*
X013750Y005180D01*
X013760Y005194D01*
X013767Y005210D01*
X013771Y005227D01*
X013773Y005244D01*
X013773Y005844D01*
X013771Y005861D01*
X013767Y005878D01*
X013760Y005894D01*
X013750Y005908D01*
X013737Y005921D01*
X013723Y005931D01*
X013707Y005938D01*
X013690Y005942D01*
X013673Y005944D01*
X013672Y005664D02*
X013585Y005621D01*
X013498Y005534D01*
X013628Y005534D01*
X013672Y005491D01*
X013672Y005447D01*
X013628Y005404D01*
X013541Y005404D01*
X013498Y005447D01*
X013498Y005534D01*
X013377Y005404D02*
X013203Y005404D01*
X013290Y005404D02*
X013290Y005664D01*
X013203Y005578D01*
X013082Y005621D02*
X013039Y005664D01*
X012909Y005664D01*
X012909Y005404D01*
X012909Y005491D02*
X013039Y005491D01*
X013082Y005534D01*
X013082Y005621D01*
X012996Y005491D02*
X013082Y005404D01*
X012608Y005578D02*
X012565Y005578D01*
X012478Y005491D01*
X012478Y005404D02*
X012478Y005578D01*
X012357Y005578D02*
X012357Y005621D01*
X012314Y005664D01*
X012227Y005664D01*
X012183Y005621D01*
X012062Y005621D02*
X012019Y005664D01*
X011932Y005664D01*
X011889Y005621D01*
X011889Y005578D01*
X011932Y005534D01*
X012019Y005534D01*
X012062Y005491D01*
X012062Y005447D01*
X012019Y005404D01*
X011932Y005404D01*
X011889Y005447D01*
X011889Y005491D01*
X011932Y005534D01*
X012019Y005534D02*
X012062Y005578D01*
X012062Y005621D01*
X012183Y005404D02*
X012357Y005578D01*
X012357Y005404D02*
X012183Y005404D01*
X012183Y006444D02*
X012183Y006704D01*
X012062Y006661D02*
X012062Y006618D01*
X012019Y006574D01*
X012062Y006531D01*
X012062Y006487D01*
X012019Y006444D01*
X011932Y006444D01*
X011889Y006487D01*
X011976Y006574D02*
X012019Y006574D01*
X012062Y006661D02*
X012019Y006704D01*
X011932Y006704D01*
X011889Y006661D01*
X012183Y006531D02*
X012314Y006618D01*
X012429Y006661D02*
X012472Y006704D01*
X012559Y006704D01*
X012602Y006661D01*
X012602Y006618D01*
X012559Y006574D01*
X012602Y006531D01*
X012602Y006487D01*
X012559Y006444D01*
X012472Y006444D01*
X012429Y006487D01*
X012516Y006574D02*
X012559Y006574D01*
X012314Y006444D02*
X012183Y006531D01*
X012191Y007473D02*
X012364Y007646D01*
X012364Y007689D01*
X012321Y007733D01*
X012234Y007733D01*
X012191Y007689D01*
X012070Y007689D02*
X012026Y007733D01*
X011940Y007733D01*
X011896Y007689D01*
X012070Y007689D02*
X012070Y007646D01*
X011896Y007473D01*
X012070Y007473D01*
X012191Y007473D02*
X012364Y007473D01*
X012486Y007473D02*
X012486Y007733D01*
X012616Y007646D02*
X012486Y007559D01*
X012616Y007473D01*
X012348Y008426D02*
X012217Y008513D01*
X012348Y008599D01*
X012217Y008686D02*
X012217Y008426D01*
X012096Y008426D02*
X011923Y008426D01*
X012010Y008426D02*
X012010Y008686D01*
X011923Y008599D01*
X011896Y009473D02*
X012070Y009473D01*
X011983Y009473D02*
X011983Y009733D01*
X011896Y009646D01*
X012191Y009559D02*
X012321Y009646D01*
X012191Y009559D02*
X012321Y009473D01*
X012191Y009473D02*
X012191Y009733D01*
X012151Y010519D02*
X012064Y010519D01*
X012021Y010562D01*
X012108Y010649D02*
X012151Y010649D01*
X012195Y010606D01*
X012195Y010562D01*
X012151Y010519D01*
X012151Y010649D02*
X012195Y010692D01*
X012195Y010736D01*
X012151Y010779D01*
X012064Y010779D01*
X012021Y010736D01*
X012316Y010736D02*
X012316Y010692D01*
X012359Y010649D01*
X012489Y010649D01*
X012489Y010562D02*
X012489Y010736D01*
X012446Y010779D01*
X012359Y010779D01*
X012316Y010736D01*
X012316Y010562D02*
X012359Y010519D01*
X012446Y010519D01*
X012489Y010562D01*
X012610Y010519D02*
X012610Y010779D01*
X012740Y010692D02*
X012610Y010606D01*
X012740Y010519D01*
X012023Y011264D02*
X012073Y011314D01*
X013473Y011314D01*
X013523Y011264D01*
X013673Y011264D01*
X013690Y011266D01*
X013707Y011270D01*
X013723Y011277D01*
X013737Y011287D01*
X013750Y011300D01*
X013760Y011314D01*
X013767Y011330D01*
X013771Y011347D01*
X013773Y011364D01*
X013773Y011964D01*
X013771Y011981D01*
X013767Y011998D01*
X013760Y012014D01*
X013750Y012028D01*
X013737Y012041D01*
X013723Y012051D01*
X013707Y012058D01*
X013690Y012062D01*
X013673Y012064D01*
X013523Y012064D01*
X013473Y012014D01*
X012073Y012014D01*
X012023Y012064D01*
X011873Y012064D01*
X011856Y012062D01*
X011839Y012058D01*
X011823Y012051D01*
X011809Y012041D01*
X011796Y012028D01*
X011786Y012014D01*
X011779Y011998D01*
X011775Y011981D01*
X011773Y011964D01*
X011773Y011364D01*
X011775Y011347D01*
X011779Y011330D01*
X011786Y011314D01*
X011796Y011300D01*
X011809Y011287D01*
X011823Y011277D01*
X011839Y011270D01*
X011856Y011266D01*
X011873Y011264D01*
X012023Y011264D01*
X012064Y011503D02*
X012021Y011547D01*
X012064Y011503D02*
X012151Y011503D01*
X012195Y011547D01*
X012195Y011590D01*
X012151Y011633D01*
X012108Y011633D01*
X012151Y011633D02*
X012195Y011677D01*
X012195Y011720D01*
X012151Y011763D01*
X012064Y011763D01*
X012021Y011720D01*
X012316Y011720D02*
X012359Y011763D01*
X012446Y011763D01*
X012489Y011720D01*
X012489Y011677D01*
X012446Y011633D01*
X012489Y011590D01*
X012489Y011547D01*
X012446Y011503D01*
X012359Y011503D01*
X012316Y011547D01*
X012402Y011633D02*
X012446Y011633D01*
X012610Y011590D02*
X012740Y011677D01*
X012610Y011763D02*
X012610Y011503D01*
X012610Y011590D02*
X012740Y011503D01*
X013005Y011503D02*
X013005Y011763D01*
X013135Y011763D01*
X013179Y011720D01*
X013179Y011633D01*
X013135Y011590D01*
X013005Y011590D01*
X013092Y011590D02*
X013179Y011503D01*
X013300Y011503D02*
X013473Y011503D01*
X013387Y011503D02*
X013387Y011763D01*
X013300Y011677D01*
X013595Y011677D02*
X013681Y011763D01*
X013681Y011503D01*
X013595Y011503D02*
X013768Y011503D01*
X013673Y012284D02*
X013523Y012284D01*
X013473Y012334D01*
X012073Y012334D01*
X012023Y012284D01*
X011873Y012284D01*
X011856Y012286D01*
X011839Y012290D01*
X011823Y012297D01*
X011809Y012307D01*
X011796Y012320D01*
X011786Y012334D01*
X011779Y012350D01*
X011775Y012367D01*
X011773Y012384D01*
X011773Y012984D01*
X011775Y013001D01*
X011779Y013018D01*
X011786Y013034D01*
X011796Y013048D01*
X011809Y013061D01*
X011823Y013071D01*
X011839Y013078D01*
X011856Y013082D01*
X011873Y013084D01*
X012023Y013084D01*
X012073Y013034D01*
X013473Y013034D01*
X013523Y013084D01*
X013673Y013084D01*
X013690Y013082D01*
X013707Y013078D01*
X013723Y013071D01*
X013737Y013061D01*
X013750Y013048D01*
X013760Y013034D01*
X013767Y013018D01*
X013771Y013001D01*
X013773Y012984D01*
X013773Y012384D01*
X013771Y012367D01*
X013767Y012350D01*
X013760Y012334D01*
X013750Y012320D01*
X013737Y012307D01*
X013723Y012297D01*
X013707Y012290D01*
X013690Y012286D01*
X013673Y012284D01*
X013035Y012487D02*
X012905Y012574D01*
X013035Y012661D01*
X012905Y012748D02*
X012905Y012487D01*
X012784Y012531D02*
X012784Y012704D01*
X012610Y012531D01*
X012654Y012487D01*
X012740Y012487D01*
X012784Y012531D01*
X012784Y012704D02*
X012740Y012748D01*
X012654Y012748D01*
X012610Y012704D01*
X012610Y012531D01*
X012489Y012487D02*
X012316Y012487D01*
X012489Y012661D01*
X012489Y012704D01*
X012446Y012748D01*
X012359Y012748D01*
X012316Y012704D01*
X012195Y012704D02*
X012151Y012748D01*
X012064Y012748D01*
X012021Y012704D01*
X012195Y012704D02*
X012195Y012661D01*
X012021Y012487D01*
X012195Y012487D01*
X012195Y013078D02*
X012108Y013165D01*
X012151Y013165D02*
X012021Y013165D01*
X012021Y013078D02*
X012021Y013338D01*
X012151Y013338D01*
X012195Y013295D01*
X012195Y013208D01*
X012151Y013165D01*
X012316Y013252D02*
X012402Y013338D01*
X012402Y013078D01*
X012316Y013078D02*
X012489Y013078D01*
X012610Y013078D02*
X012610Y013121D01*
X012784Y013295D01*
X012784Y013338D01*
X012610Y013338D01*
X011887Y013910D02*
X011844Y013867D01*
X011670Y013867D01*
X011627Y013910D01*
X011627Y013997D01*
X011670Y014040D01*
X011757Y014161D02*
X011627Y014291D01*
X011887Y014291D01*
X011757Y014335D02*
X011757Y014161D01*
X011844Y014040D02*
X011887Y013997D01*
X011887Y013910D01*
X011463Y013994D02*
X011463Y014494D01*
X011461Y014520D01*
X011456Y014546D01*
X011448Y014571D01*
X011436Y014594D01*
X011422Y014616D01*
X011404Y014635D01*
X011385Y014653D01*
X011363Y014667D01*
X011340Y014679D01*
X011315Y014687D01*
X011289Y014692D01*
X011263Y014694D01*
X009963Y014694D01*
X009937Y014692D01*
X009911Y014687D01*
X009886Y014679D01*
X009863Y014667D01*
X009841Y014653D01*
X009822Y014635D01*
X009804Y014616D01*
X009790Y014594D01*
X009778Y014571D01*
X009770Y014546D01*
X009765Y014520D01*
X009763Y014494D01*
X009763Y013994D01*
X009765Y013968D01*
X009770Y013942D01*
X009778Y013917D01*
X009790Y013894D01*
X009804Y013872D01*
X009822Y013853D01*
X009841Y013835D01*
X009863Y013821D01*
X009886Y013809D01*
X009911Y013801D01*
X009937Y013796D01*
X009963Y013794D01*
X011263Y013794D01*
X011309Y013609D02*
X011136Y013609D01*
X011136Y013349D01*
X011015Y013349D02*
X011015Y013479D01*
X010971Y013522D01*
X010841Y013522D01*
X010841Y013349D01*
X010720Y013392D02*
X010677Y013349D01*
X010590Y013349D01*
X010547Y013392D01*
X010720Y013565D01*
X010720Y013392D01*
X010720Y013565D02*
X010677Y013609D01*
X010590Y013609D01*
X010547Y013565D01*
X010547Y013392D01*
X010425Y013392D02*
X010425Y013565D01*
X010252Y013392D01*
X010295Y013349D01*
X010382Y013349D01*
X010425Y013392D01*
X010252Y013392D02*
X010252Y013565D01*
X010295Y013609D01*
X010382Y013609D01*
X010425Y013565D01*
X010131Y013349D02*
X009957Y013349D01*
X010044Y013349D02*
X010044Y013609D01*
X009957Y013522D01*
X011136Y013479D02*
X011223Y013479D01*
X011263Y013794D02*
X011289Y013796D01*
X011315Y013801D01*
X011340Y013809D01*
X011363Y013821D01*
X011385Y013835D01*
X011404Y013853D01*
X011422Y013872D01*
X011436Y013894D01*
X011448Y013917D01*
X011456Y013942D01*
X011461Y013968D01*
X011463Y013994D01*
X011731Y014982D02*
X011731Y015112D01*
X011775Y015155D01*
X011861Y015155D01*
X011905Y015112D01*
X011905Y014982D01*
X011905Y015069D02*
X011992Y015155D01*
X011948Y015276D02*
X011905Y015276D01*
X011861Y015320D01*
X011861Y015407D01*
X011905Y015450D01*
X011948Y015450D01*
X011992Y015407D01*
X011992Y015320D01*
X011948Y015276D01*
X011861Y015320D02*
X011818Y015276D01*
X011775Y015276D01*
X011731Y015320D01*
X011731Y015407D01*
X011775Y015450D01*
X011818Y015450D01*
X011861Y015407D01*
X011992Y014982D02*
X011731Y014982D01*
X010613Y015324D02*
X010615Y015368D01*
X010621Y015412D01*
X010631Y015455D01*
X010644Y015497D01*
X010661Y015538D01*
X010682Y015577D01*
X010706Y015614D01*
X010733Y015649D01*
X010763Y015681D01*
X010796Y015711D01*
X010832Y015737D01*
X010869Y015761D01*
X010909Y015780D01*
X010950Y015797D01*
X010993Y015809D01*
X011036Y015818D01*
X011080Y015823D01*
X011124Y015824D01*
X011168Y015821D01*
X011212Y015814D01*
X011255Y015803D01*
X011297Y015789D01*
X011337Y015771D01*
X011376Y015749D01*
X011412Y015725D01*
X011446Y015697D01*
X011478Y015666D01*
X011507Y015632D01*
X011533Y015596D01*
X011555Y015558D01*
X011574Y015518D01*
X011589Y015476D01*
X011601Y015434D01*
X011609Y015390D01*
X011613Y015346D01*
X011613Y015302D01*
X011609Y015258D01*
X011601Y015214D01*
X011589Y015172D01*
X011574Y015130D01*
X011555Y015090D01*
X011533Y015052D01*
X011507Y015016D01*
X011478Y014982D01*
X011446Y014951D01*
X011412Y014923D01*
X011376Y014899D01*
X011337Y014877D01*
X011297Y014859D01*
X011255Y014845D01*
X011212Y014834D01*
X011168Y014827D01*
X011124Y014824D01*
X011080Y014825D01*
X011036Y014830D01*
X010993Y014839D01*
X010950Y014851D01*
X010909Y014868D01*
X010869Y014887D01*
X010832Y014911D01*
X010796Y014937D01*
X010763Y014967D01*
X010733Y014999D01*
X010706Y015034D01*
X010682Y015071D01*
X010661Y015110D01*
X010644Y015151D01*
X010631Y015193D01*
X010621Y015236D01*
X010615Y015280D01*
X010613Y015324D01*
X010840Y016031D02*
X011013Y016031D01*
X010927Y016031D02*
X010927Y016291D01*
X010840Y016204D01*
X011135Y016248D02*
X011178Y016291D01*
X011265Y016291D01*
X011308Y016248D01*
X011135Y016074D01*
X011178Y016031D01*
X011265Y016031D01*
X011308Y016074D01*
X011308Y016248D01*
X011429Y016248D02*
X011473Y016291D01*
X011559Y016291D01*
X011603Y016248D01*
X011429Y016074D01*
X011473Y016031D01*
X011559Y016031D01*
X011603Y016074D01*
X011603Y016248D01*
X011724Y016291D02*
X011724Y016031D01*
X011724Y016118D02*
X011854Y016204D01*
X011724Y016118D02*
X011854Y016031D01*
X011429Y016074D02*
X011429Y016248D01*
X011135Y016248D02*
X011135Y016074D01*
X010387Y012200D02*
X009787Y012200D01*
X009770Y012198D01*
X009753Y012194D01*
X009737Y012187D01*
X009723Y012177D01*
X009710Y012164D01*
X009700Y012150D01*
X009693Y012134D01*
X009689Y012117D01*
X009687Y012100D01*
X009687Y011950D01*
X009737Y011900D01*
X009737Y010500D01*
X009687Y010450D01*
X009687Y010300D01*
X009689Y010283D01*
X009693Y010266D01*
X009700Y010250D01*
X009710Y010236D01*
X009723Y010223D01*
X009737Y010213D01*
X009753Y010206D01*
X009770Y010202D01*
X009787Y010200D01*
X010387Y010200D01*
X010404Y010202D01*
X010421Y010206D01*
X010437Y010213D01*
X010451Y010223D01*
X010464Y010236D01*
X010474Y010250D01*
X010481Y010266D01*
X010485Y010283D01*
X010487Y010300D01*
X010487Y010450D01*
X010437Y010500D01*
X010437Y011900D01*
X010487Y011950D01*
X010487Y012100D01*
X010485Y012117D01*
X010481Y012134D01*
X010474Y012150D01*
X010464Y012164D01*
X010451Y012177D01*
X010437Y012187D01*
X010421Y012194D01*
X010404Y012198D01*
X010387Y012200D01*
X015957Y002385D02*
X016000Y002385D01*
X016174Y002211D01*
X016217Y002211D01*
X016087Y002090D02*
X016131Y002047D01*
X016131Y001917D01*
X016217Y001917D02*
X015957Y001917D01*
X015957Y002047D01*
X016000Y002090D01*
X016087Y002090D01*
X015957Y002211D02*
X015957Y002385D01*
X015957Y001796D02*
X015957Y001709D01*
X015957Y001752D02*
X016174Y001752D01*
X016217Y001709D01*
X016217Y001665D01*
X016174Y001622D01*
X001766Y017999D02*
X001810Y018043D01*
X001810Y018086D01*
X001766Y018129D01*
X001723Y018129D01*
X001766Y018129D02*
X001810Y018173D01*
X001810Y018216D01*
X001766Y018260D01*
X001680Y018260D01*
X001636Y018216D01*
X001636Y018043D02*
X001680Y017999D01*
X001766Y017999D01*
X001532Y017999D02*
X001532Y018043D01*
X001489Y018043D01*
X001489Y017999D01*
X001532Y017999D01*
X001368Y018043D02*
X001324Y017999D01*
X001238Y017999D01*
X001194Y018043D01*
X001281Y018129D02*
X001324Y018129D01*
X001368Y018086D01*
X001368Y018043D01*
X001324Y018129D02*
X001368Y018173D01*
X001368Y018216D01*
X001324Y018260D01*
X001238Y018260D01*
X001194Y018216D01*
D12*
X004183Y007476D02*
X004183Y007016D01*
X004490Y007016D01*
X004644Y007093D02*
X004720Y007016D01*
X004874Y007016D01*
X004951Y007093D01*
X004951Y007169D01*
X004874Y007246D01*
X004720Y007246D01*
X004644Y007323D01*
X004644Y007400D01*
X004720Y007476D01*
X004874Y007476D01*
X004951Y007400D01*
X005104Y007476D02*
X005334Y007476D01*
X005411Y007400D01*
X005411Y007246D01*
X005334Y007169D01*
X005104Y007169D01*
X005104Y007016D02*
X005104Y007476D01*
X005564Y007246D02*
X005871Y007246D01*
X006025Y007323D02*
X006178Y007476D01*
X006178Y007016D01*
X006025Y007016D02*
X006332Y007016D01*
X006485Y007016D02*
X006792Y007323D01*
X006792Y007400D01*
X006715Y007476D01*
X006562Y007476D01*
X006485Y007400D01*
X006485Y007016D02*
X006792Y007016D01*
X004490Y007476D02*
X004183Y007476D01*
X004183Y007246D02*
X004337Y007246D01*
X006891Y000939D02*
X006891Y000939D01*
D13*
X005764Y000508D02*
X008835Y000508D01*
X008835Y002319D02*
X008835Y003146D01*
X008835Y004130D02*
X008126Y004130D01*
X008894Y005882D02*
X008894Y015370D01*
X002516Y015370D01*
X002516Y005882D01*
X008894Y005882D01*
X006473Y004130D02*
X005764Y004130D01*
X005764Y003146D02*
X005764Y002083D01*
X015387Y010784D02*
X015545Y010784D01*
X015608Y010234D02*
X017257Y010234D01*
X017320Y010784D02*
X017478Y010784D01*
X016545Y010784D02*
X016320Y010784D01*
X015608Y010234D02*
X015573Y010282D01*
X015540Y010332D01*
X015509Y010384D01*
X015482Y010438D01*
X015458Y010493D01*
X015438Y010550D01*
X015420Y010607D01*
X015406Y010665D01*
X015395Y010724D01*
X015388Y010784D01*
X015384Y010846D01*
X015383Y010909D01*
X015387Y010971D01*
X015394Y011033D01*
X015404Y011094D01*
X015419Y011155D01*
X015437Y011215D01*
X015458Y011274D01*
X015483Y011331D01*
X015511Y011386D01*
X015542Y011440D01*
X015577Y011492D01*
X015615Y011542D01*
X015655Y011589D01*
X015699Y011634D01*
X015744Y011677D01*
X015793Y011716D01*
X015843Y011753D01*
X015896Y011786D01*
X015950Y011817D01*
X016007Y011844D01*
X016064Y011867D01*
X016123Y011887D01*
X015608Y012154D02*
X017257Y012154D01*
X017320Y012704D02*
X017478Y012704D01*
X016545Y012704D02*
X016320Y012704D01*
X015608Y012154D02*
X015573Y012202D01*
X015540Y012252D01*
X015509Y012304D01*
X015482Y012358D01*
X015458Y012413D01*
X015438Y012470D01*
X015420Y012527D01*
X015406Y012585D01*
X015395Y012644D01*
X015388Y012704D01*
X015387Y012704D02*
X015545Y012704D01*
X015388Y012704D02*
X015384Y012766D01*
X015383Y012829D01*
X015387Y012891D01*
X015394Y012953D01*
X015404Y013014D01*
X015419Y013075D01*
X015437Y013135D01*
X015458Y013194D01*
X015483Y013251D01*
X015511Y013306D01*
X015542Y013360D01*
X015577Y013412D01*
X015615Y013462D01*
X015655Y013509D01*
X015699Y013554D01*
X015744Y013597D01*
X015793Y013636D01*
X015843Y013673D01*
X015896Y013706D01*
X015950Y013737D01*
X016007Y013764D01*
X016064Y013787D01*
X016123Y013807D01*
X016743Y013807D02*
X016803Y013787D01*
X016862Y013763D01*
X016919Y013735D01*
X016974Y013704D01*
X017028Y013669D01*
X017079Y013632D01*
X017128Y013591D01*
X017174Y013547D01*
X017218Y013501D01*
X017259Y013452D01*
X017297Y013401D01*
X017331Y013348D01*
X017363Y013292D01*
X017390Y013235D01*
X017415Y013176D01*
X017435Y013116D01*
X017453Y013055D01*
X017466Y012993D01*
X017475Y012930D01*
X017481Y012867D01*
X017483Y012803D01*
X017481Y012739D01*
X017475Y012676D01*
X017466Y012613D01*
X017452Y012551D01*
X017435Y012490D01*
X017414Y012430D01*
X017390Y012371D01*
X017362Y012314D01*
X017330Y012258D01*
X017295Y012205D01*
X017258Y012154D01*
X016743Y011887D02*
X016803Y011867D01*
X016862Y011843D01*
X016919Y011815D01*
X016974Y011784D01*
X017028Y011749D01*
X017079Y011712D01*
X017128Y011671D01*
X017174Y011627D01*
X017218Y011581D01*
X017259Y011532D01*
X017297Y011481D01*
X017331Y011428D01*
X017363Y011372D01*
X017390Y011315D01*
X017415Y011256D01*
X017435Y011196D01*
X017453Y011135D01*
X017466Y011073D01*
X017475Y011010D01*
X017481Y010947D01*
X017483Y010883D01*
X017481Y010819D01*
X017475Y010756D01*
X017466Y010693D01*
X017452Y010631D01*
X017435Y010570D01*
X017414Y010510D01*
X017390Y010451D01*
X017362Y010394D01*
X017330Y010338D01*
X017295Y010285D01*
X017258Y010234D01*
D14*
X013848Y010644D03*
X013848Y011664D03*
X013848Y012684D03*
X011698Y012684D03*
X011698Y011664D03*
X011698Y010644D03*
X011705Y009613D03*
X011705Y008593D03*
X011705Y007573D03*
X011698Y006564D03*
X011698Y005544D03*
X013848Y005544D03*
X013848Y006564D03*
X013855Y007573D03*
X013855Y008593D03*
X013855Y009613D03*
X008568Y017664D03*
X006418Y017664D03*
D15*
X010087Y012275D03*
X010087Y010125D03*
D16*
X010513Y015324D02*
X010713Y015324D01*
D17*
X010743Y014544D02*
X010743Y013944D01*
X010493Y013944D02*
X010493Y014544D01*
X001560Y002303D02*
X000960Y002303D01*
X000960Y002053D02*
X001560Y002053D01*
D18*
X001954Y001514D02*
X004631Y001514D01*
X004631Y002774D01*
X001954Y002774D01*
X001954Y001514D01*
M02*
