G75*
%MOIN*%
%OFA0B0*%
%FSLAX24Y24*%
%IPPOS*%
%LPD*%
%AMOC8*
5,1,8,0,0,1.08239X$1,22.5*
%
%ADD10C,0.0100*%
%ADD11C,0.0060*%
D10*
X004864Y009295D02*
X004931Y009229D01*
X004998Y009229D01*
X005064Y009362D02*
X004864Y009362D01*
X004864Y009295D02*
X004864Y009629D01*
X004671Y009762D02*
X004671Y009362D01*
X004404Y009362D02*
X004404Y009762D01*
X004537Y009629D01*
X004671Y009762D01*
X004210Y009562D02*
X004210Y009429D01*
X004144Y009362D01*
X004010Y009362D01*
X003943Y009429D01*
X003943Y009562D01*
X004010Y009629D01*
X004144Y009629D01*
X004210Y009562D01*
X003750Y009629D02*
X003750Y009362D01*
X003750Y009629D02*
X003550Y009629D01*
X003483Y009562D01*
X003483Y009362D01*
X003290Y009362D02*
X003156Y009362D01*
X003223Y009362D02*
X003223Y009629D01*
X003290Y009629D01*
X003223Y009762D02*
X003223Y009829D01*
X002983Y009629D02*
X002849Y009629D01*
X002916Y009696D02*
X002916Y009429D01*
X002849Y009362D01*
X002676Y009429D02*
X002676Y009562D01*
X002609Y009629D01*
X002475Y009629D01*
X002409Y009562D01*
X002409Y009429D01*
X002475Y009362D01*
X002609Y009362D01*
X002676Y009429D01*
X002215Y009495D02*
X002082Y009629D01*
X002015Y009629D01*
X002215Y009629D02*
X002215Y009362D01*
X002472Y010339D02*
X002472Y010606D01*
X002472Y010472D02*
X002338Y010606D01*
X002271Y010606D01*
X002665Y010539D02*
X002665Y010472D01*
X002932Y010472D01*
X002932Y010406D02*
X002932Y010539D01*
X002865Y010606D01*
X002732Y010606D01*
X002665Y010539D01*
X002732Y010339D02*
X002865Y010339D01*
X002932Y010406D01*
X003125Y010339D02*
X003326Y010339D01*
X003392Y010406D01*
X003392Y010539D01*
X003326Y010606D01*
X003125Y010606D01*
X003125Y010739D02*
X003125Y010339D01*
X003586Y010339D02*
X003786Y010339D01*
X003853Y010406D01*
X003786Y010472D01*
X003586Y010472D01*
X003586Y010539D02*
X003586Y010339D01*
X003586Y010539D02*
X003653Y010606D01*
X003786Y010606D01*
X004046Y010539D02*
X004046Y010472D01*
X004313Y010472D01*
X004313Y010406D02*
X004313Y010539D01*
X004246Y010606D01*
X004113Y010606D01*
X004046Y010539D01*
X004113Y010339D02*
X004246Y010339D01*
X004313Y010406D01*
X004507Y010339D02*
X004640Y010472D01*
X004573Y010472D02*
X004773Y010472D01*
X004773Y010339D02*
X004773Y010739D01*
X004573Y010739D01*
X004507Y010672D01*
X004507Y010539D01*
X004573Y010472D01*
X005131Y009629D02*
X005131Y009429D01*
X005064Y009362D01*
X005325Y009362D02*
X005525Y009362D01*
X005591Y009429D01*
X005591Y009562D01*
X005525Y009629D01*
X005325Y009629D01*
X005325Y009295D01*
X005391Y009229D01*
X005458Y009229D01*
X005775Y009629D02*
X005842Y009629D01*
X005975Y009495D01*
X005975Y009362D02*
X005975Y009629D01*
X006169Y009562D02*
X006169Y009495D01*
X006436Y009495D01*
X006436Y009429D02*
X006436Y009562D01*
X006369Y009629D01*
X006235Y009629D01*
X006169Y009562D01*
X006235Y009362D02*
X006369Y009362D01*
X006436Y009429D01*
X006629Y009362D02*
X006629Y009562D01*
X006696Y009629D01*
X006896Y009629D01*
X006896Y009362D01*
X007089Y009362D02*
X007356Y009362D01*
X007356Y009762D01*
X007089Y009762D01*
X007223Y009562D02*
X007356Y009562D01*
X007550Y009562D02*
X007550Y009362D01*
X007550Y009562D02*
X007617Y009629D01*
X007817Y009629D01*
X007817Y009362D01*
X008010Y009495D02*
X008010Y009562D01*
X008077Y009629D01*
X008210Y009629D01*
X008277Y009562D01*
X008277Y009429D01*
X008210Y009362D01*
X008077Y009362D01*
X008010Y009495D02*
X008277Y009495D01*
X008471Y009429D02*
X008471Y009562D01*
X008537Y009629D01*
X008737Y009629D01*
X008737Y009229D01*
X008737Y009362D02*
X008537Y009362D01*
X008471Y009429D01*
X008931Y009429D02*
X008931Y009696D01*
X008998Y009762D01*
X009131Y009762D01*
X009198Y009696D01*
X009198Y009429D01*
X009131Y009362D01*
X008998Y009362D01*
X008931Y009429D01*
X008804Y010339D02*
X008804Y010739D01*
X008610Y010606D02*
X008543Y010606D01*
X008543Y010339D01*
X008477Y010339D02*
X008610Y010339D01*
X008804Y010339D02*
X008937Y010472D01*
X009070Y010339D01*
X009070Y010739D01*
X008543Y010739D02*
X008543Y010806D01*
X008303Y010739D02*
X008303Y010339D01*
X008303Y010539D02*
X008170Y010539D01*
X008303Y010739D02*
X008036Y010739D01*
X007843Y010606D02*
X007776Y010606D01*
X007776Y010339D01*
X007843Y010339D02*
X007709Y010339D01*
X007776Y010739D02*
X007776Y010806D01*
X007075Y010739D02*
X007075Y010339D01*
X006942Y010606D02*
X006809Y010739D01*
X006809Y010339D01*
X006615Y010339D02*
X006415Y010339D01*
X006348Y010406D01*
X006348Y010472D01*
X006415Y010539D01*
X006615Y010539D01*
X006415Y010539D02*
X006348Y010606D01*
X006348Y010672D01*
X006415Y010739D01*
X006615Y010739D01*
X006615Y010339D01*
X006942Y010606D02*
X007075Y010739D01*
X006155Y010739D02*
X006155Y010406D01*
X006088Y010339D01*
X005954Y010339D01*
X005888Y010406D01*
X005888Y010739D01*
X005694Y010672D02*
X005694Y010606D01*
X005628Y010539D01*
X005494Y010539D01*
X005427Y010472D01*
X005427Y010406D01*
X005494Y010339D01*
X005628Y010339D01*
X005694Y010406D01*
X005694Y010672D02*
X005628Y010739D01*
X005494Y010739D01*
X005427Y010672D01*
D11*
X005395Y012230D02*
X005395Y012457D01*
X005281Y012457D02*
X005225Y012457D01*
X005281Y012457D02*
X005395Y012343D01*
X005536Y012343D02*
X005706Y012343D01*
X005763Y012286D01*
X005706Y012230D01*
X005536Y012230D01*
X005536Y012400D01*
X005593Y012457D01*
X005706Y012457D01*
X005904Y012400D02*
X006131Y012400D01*
X006273Y012400D02*
X006500Y012400D01*
X006641Y012400D02*
X006641Y012230D01*
X006641Y012400D02*
X006698Y012457D01*
X006868Y012457D01*
X006868Y012230D01*
X007009Y012343D02*
X007009Y012400D01*
X007066Y012457D01*
X007180Y012457D01*
X007236Y012400D01*
X007236Y012286D01*
X007180Y012230D01*
X007066Y012230D01*
X007009Y012343D02*
X007236Y012343D01*
X007378Y012286D02*
X007434Y012230D01*
X007605Y012230D01*
X007605Y012116D02*
X007605Y012457D01*
X007434Y012457D01*
X007378Y012400D01*
X007378Y012286D01*
X007746Y012286D02*
X007746Y012513D01*
X007803Y012570D01*
X007916Y012570D01*
X007973Y012513D01*
X007973Y012286D01*
X007916Y012230D01*
X007803Y012230D01*
X007746Y012286D01*
X006704Y013085D02*
X006544Y013325D01*
X006644Y013595D02*
X006944Y013645D01*
X006944Y013905D01*
X006644Y013965D01*
X006534Y014215D02*
X006714Y014475D01*
X006524Y014655D01*
X006264Y014475D01*
X006014Y014575D02*
X005964Y014895D01*
X005694Y014895D01*
X005644Y014575D01*
X005394Y014475D02*
X005134Y014655D01*
X004944Y014475D01*
X005124Y014215D01*
X005014Y013965D02*
X004714Y013905D01*
X004714Y013645D01*
X005014Y013595D01*
X005114Y013325D02*
X004944Y013085D01*
X005134Y012895D01*
X005374Y013065D01*
X005474Y013005D01*
X005664Y013455D01*
X005114Y013325D02*
X005091Y013366D01*
X005070Y013409D01*
X005052Y013454D01*
X005037Y013499D01*
X005024Y013545D01*
X005014Y013592D01*
X005015Y013965D02*
X005030Y014017D01*
X005049Y014068D01*
X005071Y014118D01*
X005096Y014166D01*
X005125Y014213D01*
X005664Y013465D02*
X005631Y013483D01*
X005601Y013504D01*
X005572Y013528D01*
X005546Y013555D01*
X005524Y013584D01*
X005504Y013616D01*
X005487Y013649D01*
X005474Y013684D01*
X005465Y013720D01*
X005459Y013757D01*
X005457Y013794D01*
X005459Y013831D01*
X005464Y013868D01*
X005474Y013904D01*
X005486Y013939D01*
X005503Y013973D01*
X005522Y014004D01*
X005545Y014034D01*
X005571Y014061D01*
X005599Y014085D01*
X005630Y014106D01*
X005662Y014124D01*
X005696Y014139D01*
X005732Y014150D01*
X005768Y014158D01*
X005805Y014162D01*
X005843Y014162D01*
X005880Y014158D01*
X005916Y014150D01*
X005952Y014139D01*
X005986Y014124D01*
X006018Y014106D01*
X006049Y014085D01*
X006077Y014061D01*
X006103Y014034D01*
X006126Y014004D01*
X006145Y013973D01*
X006162Y013939D01*
X006174Y013904D01*
X006184Y013868D01*
X006189Y013831D01*
X006191Y013794D01*
X006189Y013757D01*
X006183Y013720D01*
X006174Y013684D01*
X006161Y013649D01*
X006144Y013616D01*
X006124Y013584D01*
X006102Y013555D01*
X006076Y013528D01*
X006047Y013504D01*
X006017Y013483D01*
X005984Y013465D01*
X005984Y013455D02*
X006184Y013005D01*
X006284Y013065D01*
X006524Y012895D01*
X006704Y013085D01*
X006131Y012570D02*
X006131Y012230D01*
X005904Y012230D02*
X005904Y012570D01*
X005088Y012400D02*
X005088Y012286D01*
X005031Y012230D01*
X004861Y012230D01*
X004861Y012570D01*
X004861Y012457D02*
X005031Y012457D01*
X005088Y012400D01*
X004719Y012457D02*
X004719Y012286D01*
X004663Y012230D01*
X004606Y012286D01*
X004549Y012230D01*
X004493Y012286D01*
X004493Y012457D01*
X004294Y012457D02*
X004181Y012457D01*
X004124Y012400D01*
X004124Y012230D01*
X004294Y012230D01*
X004351Y012286D01*
X004294Y012343D01*
X004124Y012343D01*
X003983Y012343D02*
X003869Y012457D01*
X003813Y012457D01*
X003676Y012400D02*
X003676Y012286D01*
X003619Y012230D01*
X003506Y012230D01*
X003449Y012343D02*
X003676Y012343D01*
X003676Y012400D02*
X003619Y012457D01*
X003506Y012457D01*
X003449Y012400D01*
X003449Y012343D01*
X003983Y012230D02*
X003983Y012457D01*
X006540Y013328D02*
X006568Y013378D01*
X006592Y013430D01*
X006613Y013483D01*
X006630Y013538D01*
X006643Y013594D01*
X006261Y014478D02*
X006216Y014503D01*
X006169Y014526D01*
X006121Y014545D01*
X006072Y014562D01*
X006022Y014575D01*
X006533Y014210D02*
X006560Y014163D01*
X006584Y014116D01*
X006605Y014067D01*
X006623Y014016D01*
X006637Y013965D01*
X005639Y014577D02*
X005587Y014563D01*
X005536Y014546D01*
X005486Y014526D01*
X005437Y014503D01*
X005390Y014476D01*
M02*
