G75*
%MOIN*%
%OFA0B0*%
%FSLAX24Y24*%
%IPPOS*%
%LPD*%
%AMOC8*
5,1,8,0,0,1.08239X$1,22.5*
%
%ADD10C,0.1500*%
%ADD11C,0.0476*%
%ADD12OC8,0.0520*%
%ADD13C,0.0840*%
%ADD14OC8,0.0480*%
%ADD15C,0.0480*%
%ADD16C,0.0600*%
%ADD17C,0.0740*%
%ADD18C,0.0357*%
%ADD19C,0.0160*%
%ADD20C,0.0396*%
D10*
X005863Y002299D03*
X008737Y002299D03*
D11*
X007615Y003339D02*
X007615Y003815D01*
X007930Y004327D02*
X007930Y004802D01*
X007300Y004802D02*
X007300Y004327D01*
X006985Y003815D02*
X006985Y003339D01*
X006670Y004327D02*
X006670Y004802D01*
D12*
X010087Y009700D03*
X011280Y009613D03*
X011280Y008593D03*
X011280Y007573D03*
X011273Y006564D03*
X011273Y005544D03*
X014273Y005544D03*
X014273Y006564D03*
X014280Y007573D03*
X014280Y008593D03*
X014280Y009613D03*
X014273Y010644D03*
X014273Y011664D03*
X014273Y012684D03*
X015933Y012804D03*
X016433Y013554D03*
X016933Y012804D03*
X016433Y011634D03*
X016933Y010884D03*
X015933Y010884D03*
X016433Y014454D03*
X016933Y015204D03*
X015933Y015204D03*
X011273Y012684D03*
X011273Y011664D03*
X011273Y010644D03*
X010087Y012700D03*
X010113Y014244D03*
X010113Y015324D03*
X011113Y015324D03*
X011113Y014244D03*
X008993Y017664D03*
X005993Y017664D03*
X001260Y002673D03*
X001260Y001673D03*
D13*
X001558Y019321D02*
X001558Y020161D01*
X002936Y020161D02*
X002936Y019321D01*
X004314Y019321D02*
X004314Y020161D01*
X005692Y020161D02*
X005692Y019321D01*
X007070Y019321D02*
X007070Y020161D01*
X008448Y020161D02*
X008448Y019321D01*
X009826Y019321D02*
X009826Y020161D01*
X011204Y020161D02*
X011204Y019321D01*
X012582Y019321D02*
X012582Y020161D01*
X013960Y020161D02*
X013960Y019321D01*
X015337Y019321D02*
X015337Y020161D01*
X016715Y020161D02*
X016715Y019321D01*
D14*
X003903Y004884D03*
X002743Y004884D03*
D15*
X002043Y004884D03*
X004603Y004884D03*
D16*
X005040Y016093D02*
X005040Y016693D01*
X004040Y016693D02*
X004040Y016093D01*
X003040Y016093D02*
X003040Y016693D01*
X006040Y016693D02*
X006040Y016093D01*
X007040Y016093D02*
X007040Y016693D01*
X008040Y016693D02*
X008040Y016093D01*
D17*
X010224Y016536D03*
X010224Y017536D03*
X016917Y017536D03*
X016917Y016536D03*
X016917Y002772D03*
X016917Y001772D03*
X010224Y001772D03*
X010224Y002772D03*
X001260Y009013D03*
X001260Y010013D03*
X001260Y011253D03*
X001260Y012253D03*
X001260Y013533D03*
X001260Y014533D03*
D18*
X004800Y011953D03*
X006326Y013252D03*
X006086Y009788D03*
X012452Y015007D03*
X012212Y017542D03*
X016322Y006552D03*
X015141Y002221D03*
D19*
X000660Y000733D02*
X000660Y005765D01*
X008841Y005765D01*
X008841Y008333D01*
X010918Y008333D01*
X011098Y008153D01*
X011462Y008153D01*
X011720Y008411D01*
X011720Y008775D01*
X011462Y009033D01*
X011098Y009033D01*
X010918Y008853D01*
X002788Y008853D01*
X001789Y009852D01*
X001810Y009903D01*
X001810Y010122D01*
X001726Y010324D01*
X001572Y010479D01*
X001369Y010563D01*
X001151Y010563D01*
X000948Y010479D01*
X000794Y010324D01*
X000710Y010122D01*
X000710Y009903D01*
X000794Y009701D01*
X000948Y009546D01*
X001030Y009513D01*
X000948Y009479D01*
X000794Y009324D01*
X000710Y009122D01*
X000710Y008903D01*
X000794Y008701D01*
X000948Y008546D01*
X001011Y008520D01*
X000660Y008520D01*
X000660Y016031D01*
X000728Y015963D01*
X000963Y015827D01*
X001225Y015757D01*
X001497Y015757D01*
X001759Y015827D01*
X001994Y015963D01*
X002186Y016155D01*
X002322Y016390D01*
X002392Y016652D01*
X002392Y016924D01*
X002322Y017186D01*
X002186Y017421D01*
X001994Y017613D01*
X001759Y017749D01*
X001497Y017819D01*
X001225Y017819D01*
X000963Y017749D01*
X000728Y017613D01*
X000660Y017545D01*
X000660Y021033D01*
X002033Y021033D01*
X001992Y020992D01*
X001737Y020736D01*
X001677Y020761D01*
X001439Y020761D01*
X001218Y020670D01*
X001049Y020501D01*
X000958Y020280D01*
X000958Y019202D01*
X001049Y018981D01*
X001218Y018812D01*
X001439Y018721D01*
X001677Y018721D01*
X001898Y018812D01*
X002067Y018981D01*
X002158Y019202D01*
X002158Y020280D01*
X002116Y020380D01*
X002320Y020584D01*
X002511Y020584D01*
X002427Y020501D01*
X002336Y020280D01*
X002336Y019202D01*
X002427Y018981D01*
X002596Y018812D01*
X002673Y018780D01*
X002673Y018676D01*
X002673Y018625D01*
X002672Y018573D01*
X002673Y018573D01*
X002673Y018573D01*
X002692Y018525D01*
X002712Y018478D01*
X002712Y018477D01*
X002748Y018441D01*
X002785Y018404D01*
X003672Y017517D01*
X003745Y017444D01*
X003841Y017404D01*
X005630Y017404D01*
X005810Y017224D01*
X006175Y017224D01*
X006433Y017482D01*
X006433Y017847D01*
X006256Y018023D01*
X006301Y018004D01*
X008302Y018004D01*
X008553Y017745D01*
X008553Y017482D01*
X008733Y017302D01*
X008733Y013833D01*
X008772Y013737D01*
X008845Y013664D01*
X009647Y012863D01*
X009647Y012517D01*
X009904Y012260D01*
X010269Y012260D01*
X010527Y012517D01*
X010527Y012882D01*
X010269Y013140D01*
X010105Y013140D01*
X009253Y013992D01*
X009253Y017302D01*
X009433Y017482D01*
X009433Y017847D01*
X009175Y018104D01*
X008929Y018104D01*
X008634Y018409D01*
X008633Y018412D01*
X008598Y018447D01*
X008564Y018482D01*
X008561Y018483D01*
X008560Y018485D01*
X008514Y018504D01*
X008469Y018523D01*
X008466Y018523D01*
X008464Y018524D01*
X008415Y018524D01*
X008365Y018525D01*
X008363Y018524D01*
X006460Y018524D01*
X006102Y018883D01*
X006200Y018981D01*
X006292Y019202D01*
X006292Y020280D01*
X006200Y020501D01*
X006032Y020670D01*
X005811Y020761D01*
X005572Y020761D01*
X005467Y020717D01*
X005152Y021033D01*
X017417Y021033D01*
X017417Y017768D01*
X017384Y017847D01*
X017229Y018002D01*
X017027Y018086D01*
X016808Y018086D01*
X016606Y018002D01*
X016451Y017847D01*
X016367Y017645D01*
X016367Y017427D01*
X016451Y017224D01*
X016606Y017070D01*
X016687Y017036D01*
X016606Y017002D01*
X016451Y016847D01*
X016367Y016645D01*
X016367Y016427D01*
X016451Y016224D01*
X016606Y016070D01*
X016808Y015986D01*
X017027Y015986D01*
X017229Y016070D01*
X017384Y016224D01*
X017417Y016304D01*
X017417Y003004D01*
X017384Y003084D01*
X017229Y003238D01*
X017027Y003322D01*
X016808Y003322D01*
X016606Y003238D01*
X016451Y003084D01*
X016367Y002882D01*
X016367Y002663D01*
X016451Y002461D01*
X016606Y002306D01*
X016687Y002272D01*
X016606Y002238D01*
X016451Y002084D01*
X016367Y001882D01*
X016367Y001663D01*
X016451Y001461D01*
X016606Y001306D01*
X016808Y001222D01*
X017027Y001222D01*
X017229Y001306D01*
X017384Y001461D01*
X017417Y001540D01*
X017417Y000733D01*
X000660Y000733D01*
X000660Y000887D02*
X017417Y000887D01*
X017417Y001045D02*
X000660Y001045D01*
X000660Y001204D02*
X013227Y001204D01*
X013153Y001224D02*
X013425Y001151D01*
X013707Y001151D01*
X013979Y001224D01*
X014223Y001365D01*
X014422Y001564D01*
X014563Y001808D01*
X014636Y002080D01*
X014636Y002362D01*
X014563Y002634D01*
X014422Y002879D01*
X014223Y003078D01*
X013979Y003219D01*
X013707Y003292D01*
X013425Y003292D01*
X013153Y003219D01*
X012908Y003078D01*
X012709Y002879D01*
X012568Y002634D01*
X012495Y002362D01*
X012495Y002080D01*
X012568Y001808D01*
X012709Y001564D01*
X012908Y001365D01*
X013153Y001224D01*
X012913Y001362D02*
X010592Y001362D01*
X010583Y001353D02*
X010644Y001414D01*
X010695Y001484D01*
X010734Y001561D01*
X010761Y001643D01*
X010774Y001729D01*
X010774Y001752D01*
X010244Y001752D01*
X010244Y001222D01*
X010268Y001222D01*
X010353Y001236D01*
X010436Y001262D01*
X010513Y001302D01*
X010583Y001353D01*
X010714Y001521D02*
X012752Y001521D01*
X012643Y001679D02*
X010767Y001679D01*
X010774Y001792D02*
X010774Y001815D01*
X010761Y001901D01*
X010734Y001983D01*
X010695Y002060D01*
X010644Y002130D01*
X010583Y002192D01*
X010513Y002243D01*
X010455Y002272D01*
X010513Y002302D01*
X010583Y002353D01*
X010644Y002414D01*
X010695Y002484D01*
X010734Y002561D01*
X010761Y002643D01*
X010774Y002729D01*
X010774Y002752D01*
X010244Y002752D01*
X010244Y002222D01*
X010244Y001792D01*
X010204Y001792D01*
X010204Y001752D01*
X009674Y001752D01*
X009674Y001729D01*
X009688Y001643D01*
X009715Y001561D01*
X009754Y001484D01*
X009805Y001414D01*
X009866Y001353D01*
X009936Y001302D01*
X010013Y001262D01*
X010096Y001236D01*
X010181Y001222D01*
X010204Y001222D01*
X010204Y001752D01*
X010244Y001752D01*
X010244Y001792D01*
X010774Y001792D01*
X010771Y001838D02*
X012560Y001838D01*
X012518Y001996D02*
X010727Y001996D01*
X010620Y002155D02*
X012495Y002155D01*
X012495Y002313D02*
X010529Y002313D01*
X010686Y002472D02*
X012525Y002472D01*
X012567Y002630D02*
X010757Y002630D01*
X010774Y002792D02*
X010774Y002815D01*
X010761Y002901D01*
X010734Y002983D01*
X010695Y003060D01*
X010644Y003130D01*
X010583Y003192D01*
X010513Y003243D01*
X010436Y003282D01*
X010353Y003309D01*
X010268Y003322D01*
X010244Y003322D01*
X010244Y002792D01*
X010204Y002792D01*
X010204Y002752D01*
X009674Y002752D01*
X009674Y002729D01*
X009688Y002643D01*
X009715Y002561D01*
X009754Y002484D01*
X009805Y002414D01*
X009866Y002353D01*
X009936Y002302D01*
X009994Y002272D01*
X009936Y002243D01*
X009866Y002192D01*
X009805Y002130D01*
X009754Y002060D01*
X009715Y001983D01*
X009688Y001901D01*
X009674Y001815D01*
X009674Y001792D01*
X010204Y001792D01*
X010204Y002752D01*
X010244Y002752D01*
X010244Y002792D01*
X010774Y002792D01*
X010746Y002947D02*
X012778Y002947D01*
X012657Y002789D02*
X010244Y002789D01*
X010204Y002789D02*
X009541Y002789D01*
X009525Y002826D02*
X009264Y003088D01*
X008922Y003229D01*
X008552Y003229D01*
X008210Y003088D01*
X007948Y002826D01*
X007807Y002484D01*
X007807Y002114D01*
X007948Y001772D01*
X008210Y001511D01*
X008552Y001369D01*
X008922Y001369D01*
X009264Y001511D01*
X009525Y001772D01*
X009667Y002114D01*
X009667Y002484D01*
X009525Y002826D01*
X009674Y002815D02*
X009674Y002792D01*
X010204Y002792D01*
X010204Y003322D01*
X010181Y003322D01*
X010096Y003309D01*
X010013Y003282D01*
X009936Y003243D01*
X009866Y003192D01*
X009805Y003130D01*
X009754Y003060D01*
X009715Y002983D01*
X009688Y002901D01*
X009674Y002815D01*
X009703Y002947D02*
X009404Y002947D01*
X009220Y003106D02*
X009787Y003106D01*
X009979Y003264D02*
X008032Y003264D01*
X008032Y003256D02*
X008032Y003898D01*
X012066Y003898D01*
X012042Y003958D02*
X012099Y003819D01*
X012206Y003712D01*
X012345Y003655D01*
X012495Y003655D01*
X012634Y003712D01*
X012741Y003819D01*
X012798Y003958D01*
X012798Y004108D01*
X012741Y004247D01*
X012680Y004307D01*
X012680Y010864D01*
X012640Y010960D01*
X012567Y011033D01*
X012207Y011393D01*
X012112Y011433D01*
X011663Y011433D01*
X011713Y011482D01*
X011713Y011847D01*
X011455Y012104D01*
X011090Y012104D01*
X010833Y011847D01*
X010833Y011482D01*
X010882Y011433D01*
X010608Y011433D01*
X009807Y012233D01*
X009712Y012273D01*
X005808Y012273D01*
X005300Y012780D01*
X005300Y015681D01*
X005312Y015686D01*
X005447Y015821D01*
X005520Y015997D01*
X005520Y016788D01*
X005447Y016965D01*
X005312Y017100D01*
X005135Y017173D01*
X004945Y017173D01*
X004768Y017100D01*
X004633Y016965D01*
X004560Y016788D01*
X004560Y015997D01*
X004633Y015821D01*
X004768Y015686D01*
X004780Y015681D01*
X004780Y012621D01*
X004820Y012525D01*
X005553Y011792D01*
X005648Y011753D01*
X009552Y011753D01*
X010353Y010952D01*
X010448Y010913D01*
X010919Y010913D01*
X010833Y010827D01*
X010833Y010462D01*
X011090Y010204D01*
X011455Y010204D01*
X011713Y010462D01*
X011713Y010827D01*
X011626Y010913D01*
X011952Y010913D01*
X012160Y010705D01*
X012160Y004307D01*
X012099Y004247D01*
X012042Y004108D01*
X012042Y003958D01*
X012042Y004057D02*
X008250Y004057D01*
X008248Y004055D02*
X008287Y004108D01*
X008317Y004166D01*
X008337Y004229D01*
X008347Y004294D01*
X008347Y004327D01*
X008347Y004835D01*
X008337Y004900D01*
X008317Y004963D01*
X008287Y005021D01*
X008248Y005075D01*
X008202Y005121D01*
X008149Y005160D01*
X008090Y005190D01*
X008027Y005210D01*
X007963Y005220D01*
X007930Y005220D01*
X007930Y004327D01*
X008347Y004327D01*
X007930Y004327D01*
X007930Y004327D01*
X007930Y004327D01*
X007930Y005220D01*
X007897Y005220D01*
X007832Y005210D01*
X007769Y005190D01*
X007711Y005160D01*
X007657Y005121D01*
X007615Y005078D01*
X007536Y005157D01*
X007383Y005220D01*
X007217Y005220D01*
X007063Y005157D01*
X006985Y005078D01*
X006906Y005157D01*
X006753Y005220D01*
X006587Y005220D01*
X006433Y005157D01*
X006316Y005039D01*
X006252Y004885D01*
X006252Y004244D01*
X006316Y004090D01*
X006433Y003973D01*
X006574Y003914D01*
X006567Y003898D01*
X006567Y003256D01*
X006631Y003103D01*
X006748Y002985D01*
X006902Y002922D01*
X007068Y002922D01*
X007221Y002985D01*
X007300Y003063D01*
X007378Y002985D01*
X007532Y002922D01*
X007698Y002922D01*
X007851Y002985D01*
X007969Y003103D01*
X008032Y003256D01*
X007970Y003106D02*
X008254Y003106D01*
X008070Y002947D02*
X007760Y002947D01*
X007933Y002789D02*
X006667Y002789D01*
X006651Y002826D02*
X006390Y003088D01*
X006048Y003229D01*
X005678Y003229D01*
X005336Y003088D01*
X005074Y002826D01*
X004933Y002484D01*
X004933Y002114D01*
X005074Y001772D01*
X005336Y001511D01*
X005678Y001369D01*
X006048Y001369D01*
X006390Y001511D01*
X006651Y001772D01*
X006793Y002114D01*
X006793Y002484D01*
X006651Y002826D01*
X006530Y002947D02*
X006840Y002947D01*
X006629Y003106D02*
X006346Y003106D01*
X006567Y003264D02*
X000660Y003264D01*
X000660Y003106D02*
X001071Y003106D01*
X001078Y003113D02*
X000820Y002855D01*
X000820Y002491D01*
X001078Y002233D01*
X001442Y002233D01*
X001700Y002491D01*
X001700Y002855D01*
X001442Y003113D01*
X001078Y003113D01*
X000912Y002947D02*
X000660Y002947D01*
X000660Y002789D02*
X000820Y002789D01*
X000820Y002630D02*
X000660Y002630D01*
X000660Y002472D02*
X000839Y002472D01*
X000997Y002313D02*
X000660Y002313D01*
X000660Y002155D02*
X004933Y002155D01*
X004933Y002313D02*
X001523Y002313D01*
X001442Y002113D02*
X001260Y002113D01*
X001260Y001673D01*
X001260Y002113D01*
X001078Y002113D01*
X000820Y001855D01*
X000820Y001673D01*
X001260Y001673D01*
X001260Y001673D01*
X001260Y001673D01*
X001700Y001673D01*
X001700Y001855D01*
X001442Y002113D01*
X001559Y001996D02*
X004982Y001996D01*
X005047Y001838D02*
X001700Y001838D01*
X001700Y001679D02*
X005167Y001679D01*
X005326Y001521D02*
X001700Y001521D01*
X001700Y001491D02*
X001700Y001673D01*
X001260Y001673D01*
X001260Y001673D01*
X000820Y001673D01*
X000820Y001491D01*
X001078Y001233D01*
X001260Y001233D01*
X001442Y001233D01*
X001700Y001491D01*
X001572Y001362D02*
X009856Y001362D01*
X009735Y001521D02*
X009273Y001521D01*
X009432Y001679D02*
X009682Y001679D01*
X009678Y001838D02*
X009552Y001838D01*
X009618Y001996D02*
X009721Y001996D01*
X009667Y002155D02*
X009829Y002155D01*
X009920Y002313D02*
X009667Y002313D01*
X009667Y002472D02*
X009763Y002472D01*
X009692Y002630D02*
X009606Y002630D01*
X010204Y002630D02*
X010244Y002630D01*
X010244Y002472D02*
X010204Y002472D01*
X010204Y002313D02*
X010244Y002313D01*
X010244Y002155D02*
X010204Y002155D01*
X010204Y001996D02*
X010244Y001996D01*
X010244Y001838D02*
X010204Y001838D01*
X010204Y001679D02*
X010244Y001679D01*
X010244Y001521D02*
X010204Y001521D01*
X010204Y001362D02*
X010244Y001362D01*
X010204Y002947D02*
X010244Y002947D01*
X010244Y003106D02*
X010204Y003106D01*
X010204Y003264D02*
X010244Y003264D01*
X010470Y003264D02*
X013322Y003264D01*
X012957Y003106D02*
X010662Y003106D01*
X012086Y004215D02*
X008333Y004215D01*
X008347Y004374D02*
X012160Y004374D01*
X012160Y004532D02*
X008347Y004532D01*
X008347Y004691D02*
X012160Y004691D01*
X012160Y004849D02*
X008345Y004849D01*
X008294Y005008D02*
X012160Y005008D01*
X012160Y005166D02*
X011517Y005166D01*
X011455Y005104D02*
X011713Y005362D01*
X011713Y005544D01*
X011273Y005544D01*
X011273Y005544D01*
X011273Y005104D01*
X011455Y005104D01*
X011273Y005104D02*
X011273Y005544D01*
X011273Y005544D01*
X011713Y005544D01*
X011713Y005727D01*
X011455Y005984D01*
X011273Y005984D01*
X011273Y005544D01*
X011273Y005544D01*
X010833Y005544D01*
X010833Y005362D01*
X011090Y005104D01*
X011273Y005104D01*
X011273Y005166D02*
X011273Y005166D01*
X011273Y005325D02*
X011273Y005325D01*
X011273Y005483D02*
X011273Y005483D01*
X011273Y005544D02*
X011273Y005544D01*
X011273Y005984D01*
X011090Y005984D01*
X010833Y005727D01*
X010833Y005544D01*
X011273Y005544D01*
X011273Y005642D02*
X011273Y005642D01*
X011273Y005800D02*
X011273Y005800D01*
X011273Y005959D02*
X011273Y005959D01*
X011273Y006124D02*
X011455Y006124D01*
X011713Y006382D01*
X011713Y006564D01*
X011273Y006564D01*
X011273Y006564D01*
X011273Y006124D01*
X011273Y006564D01*
X011273Y006564D01*
X011713Y006564D01*
X011713Y006747D01*
X011455Y007004D01*
X011273Y007004D01*
X011273Y006564D01*
X011273Y006564D01*
X010833Y006564D01*
X010833Y006382D01*
X011090Y006124D01*
X011273Y006124D01*
X011273Y006276D02*
X011273Y006276D01*
X011273Y006434D02*
X011273Y006434D01*
X011273Y006564D02*
X011273Y006564D01*
X011273Y007004D01*
X011090Y007004D01*
X010833Y006747D01*
X010833Y006564D01*
X011273Y006564D01*
X011273Y006593D02*
X011273Y006593D01*
X011273Y006751D02*
X011273Y006751D01*
X011273Y006910D02*
X011273Y006910D01*
X011280Y007133D02*
X011462Y007133D01*
X011720Y007391D01*
X011720Y007573D01*
X011720Y007755D01*
X011462Y008013D01*
X011280Y008013D01*
X011098Y008013D01*
X010840Y007755D01*
X010840Y007573D01*
X011280Y007573D01*
X011280Y008013D01*
X011280Y007573D01*
X011280Y007573D01*
X011720Y007573D01*
X011280Y007573D01*
X011280Y007573D01*
X011280Y007573D01*
X010840Y007573D01*
X010840Y007391D01*
X011098Y007133D01*
X011280Y007133D01*
X011280Y007573D01*
X011280Y007133D01*
X011280Y007227D02*
X011280Y007227D01*
X011280Y007385D02*
X011280Y007385D01*
X011280Y007544D02*
X011280Y007544D01*
X011280Y007573D02*
X011280Y007573D01*
X011280Y007702D02*
X011280Y007702D01*
X011280Y007861D02*
X011280Y007861D01*
X011073Y008178D02*
X008841Y008178D01*
X008841Y008019D02*
X012160Y008019D01*
X012160Y007861D02*
X011614Y007861D01*
X011720Y007702D02*
X012160Y007702D01*
X012160Y007544D02*
X011720Y007544D01*
X011715Y007385D02*
X012160Y007385D01*
X012160Y007227D02*
X011556Y007227D01*
X011549Y006910D02*
X012160Y006910D01*
X012160Y007068D02*
X008841Y007068D01*
X008841Y006910D02*
X010996Y006910D01*
X010837Y006751D02*
X008841Y006751D01*
X008841Y006593D02*
X010833Y006593D01*
X010833Y006434D02*
X008841Y006434D01*
X008841Y006276D02*
X010939Y006276D01*
X011065Y005959D02*
X008841Y005959D01*
X008841Y006117D02*
X012160Y006117D01*
X012160Y005959D02*
X011480Y005959D01*
X011639Y005800D02*
X012160Y005800D01*
X012160Y005642D02*
X011713Y005642D01*
X011713Y005483D02*
X012160Y005483D01*
X012160Y005325D02*
X011675Y005325D01*
X011028Y005166D02*
X008136Y005166D01*
X007930Y005166D02*
X007930Y005166D01*
X007930Y005008D02*
X007930Y005008D01*
X007930Y004849D02*
X007930Y004849D01*
X007930Y004691D02*
X007930Y004691D01*
X007930Y004532D02*
X007930Y004532D01*
X007930Y004374D02*
X007930Y004374D01*
X008248Y004055D02*
X008202Y004008D01*
X008149Y003969D01*
X008090Y003940D01*
X008027Y003919D01*
X008024Y003919D01*
X008032Y003898D01*
X008032Y003740D02*
X012178Y003740D01*
X012420Y004033D02*
X012420Y010813D01*
X012060Y011173D01*
X010500Y011173D01*
X009660Y012013D01*
X005700Y012013D01*
X005040Y012673D01*
X005040Y016393D01*
X004560Y016420D02*
X004520Y016420D01*
X004520Y016578D02*
X004560Y016578D01*
X004560Y016737D02*
X004520Y016737D01*
X004520Y016788D02*
X004447Y016965D01*
X004312Y017100D01*
X004135Y017173D01*
X003945Y017173D01*
X003768Y017100D01*
X003633Y016965D01*
X003560Y016788D01*
X003560Y015997D01*
X003633Y015821D01*
X003768Y015686D01*
X003945Y015613D01*
X004135Y015613D01*
X004312Y015686D01*
X004447Y015821D01*
X004520Y015997D01*
X004520Y016788D01*
X004476Y016895D02*
X004604Y016895D01*
X004722Y017054D02*
X004358Y017054D01*
X003893Y017664D02*
X005993Y017664D01*
X006321Y017371D02*
X008664Y017371D01*
X008733Y017212D02*
X002307Y017212D01*
X002357Y017054D02*
X002722Y017054D01*
X002727Y017059D02*
X002674Y017005D01*
X002629Y016944D01*
X002595Y016877D01*
X002572Y016805D01*
X002560Y016731D01*
X002560Y016413D01*
X003020Y016413D01*
X003020Y017173D01*
X003002Y017173D01*
X002928Y017161D01*
X002856Y017138D01*
X002788Y017103D01*
X002727Y017059D01*
X002604Y016895D02*
X002392Y016895D01*
X002392Y016737D02*
X002561Y016737D01*
X002560Y016578D02*
X002372Y016578D01*
X002330Y016420D02*
X002560Y016420D01*
X002560Y016373D02*
X002560Y016055D01*
X002572Y015980D01*
X002595Y015908D01*
X002629Y015841D01*
X002674Y015780D01*
X002727Y015727D01*
X002788Y015682D01*
X002856Y015648D01*
X002928Y015625D01*
X003002Y015613D01*
X003020Y015613D01*
X003020Y016373D01*
X002560Y016373D01*
X002560Y016261D02*
X002248Y016261D01*
X002134Y016103D02*
X002560Y016103D01*
X002584Y015944D02*
X001962Y015944D01*
X001604Y015786D02*
X002670Y015786D01*
X002919Y015627D02*
X000660Y015627D01*
X000660Y015469D02*
X004780Y015469D01*
X004780Y015627D02*
X004171Y015627D01*
X004412Y015786D02*
X004668Y015786D01*
X004582Y015944D02*
X004498Y015944D01*
X004520Y016103D02*
X004560Y016103D01*
X004560Y016261D02*
X004520Y016261D01*
X003909Y015627D02*
X003161Y015627D01*
X003152Y015625D02*
X003224Y015648D01*
X003292Y015682D01*
X003353Y015727D01*
X003406Y015780D01*
X003451Y015841D01*
X003485Y015908D01*
X003508Y015980D01*
X003520Y016055D01*
X003520Y016373D01*
X003060Y016373D01*
X003060Y016413D01*
X003020Y016413D01*
X003020Y016373D01*
X003060Y016373D01*
X003060Y015613D01*
X003078Y015613D01*
X003152Y015625D01*
X003060Y015627D02*
X003020Y015627D01*
X003020Y015786D02*
X003060Y015786D01*
X003060Y015944D02*
X003020Y015944D01*
X003020Y016103D02*
X003060Y016103D01*
X003060Y016261D02*
X003020Y016261D01*
X003060Y016413D02*
X003520Y016413D01*
X003520Y016731D01*
X003508Y016805D01*
X003485Y016877D01*
X003451Y016944D01*
X003406Y017005D01*
X003353Y017059D01*
X003292Y017103D01*
X003224Y017138D01*
X003152Y017161D01*
X003078Y017173D01*
X003060Y017173D01*
X003060Y016413D01*
X003060Y016420D02*
X003020Y016420D01*
X003020Y016578D02*
X003060Y016578D01*
X003060Y016737D02*
X003020Y016737D01*
X003020Y016895D02*
X003060Y016895D01*
X003060Y017054D02*
X003020Y017054D01*
X003358Y017054D02*
X003722Y017054D01*
X003604Y016895D02*
X003476Y016895D01*
X003519Y016737D02*
X003560Y016737D01*
X003560Y016578D02*
X003520Y016578D01*
X003520Y016420D02*
X003560Y016420D01*
X003560Y016261D02*
X003520Y016261D01*
X003520Y016103D02*
X003560Y016103D01*
X003582Y015944D02*
X003496Y015944D01*
X003410Y015786D02*
X003668Y015786D01*
X004780Y015310D02*
X000660Y015310D01*
X000660Y015152D02*
X004780Y015152D01*
X004780Y014993D02*
X001562Y014993D01*
X001548Y015003D02*
X001471Y015042D01*
X001389Y015069D01*
X001303Y015083D01*
X001280Y015083D01*
X001280Y014553D01*
X001240Y014553D01*
X001240Y015083D01*
X001217Y015083D01*
X001131Y015069D01*
X001049Y015042D01*
X000972Y015003D01*
X000902Y014952D01*
X000840Y014891D01*
X000790Y014821D01*
X000750Y014744D01*
X000724Y014662D01*
X000710Y014576D01*
X000710Y014553D01*
X001240Y014553D01*
X001240Y014513D01*
X000710Y014513D01*
X000710Y014489D01*
X000724Y014404D01*
X000750Y014322D01*
X000790Y014244D01*
X000840Y014174D01*
X000902Y014113D01*
X000972Y014062D01*
X001030Y014033D01*
X000948Y013999D01*
X000794Y013844D01*
X000710Y013642D01*
X000710Y013423D01*
X000794Y013221D01*
X000948Y013066D01*
X001151Y012983D01*
X001369Y012983D01*
X001572Y013066D01*
X001726Y013221D01*
X001810Y013423D01*
X001810Y013642D01*
X001726Y013844D01*
X001572Y013999D01*
X001490Y014033D01*
X001548Y014062D01*
X001618Y014113D01*
X001680Y014174D01*
X001730Y014244D01*
X001770Y014322D01*
X001796Y014404D01*
X001810Y014489D01*
X001810Y014513D01*
X001280Y014513D01*
X001280Y014553D01*
X001810Y014553D01*
X001810Y014576D01*
X001796Y014662D01*
X001770Y014744D01*
X001730Y014821D01*
X001680Y014891D01*
X001618Y014952D01*
X001548Y015003D01*
X001720Y014835D02*
X004780Y014835D01*
X004780Y014676D02*
X001792Y014676D01*
X001782Y014359D02*
X004780Y014359D01*
X004780Y014201D02*
X001699Y014201D01*
X001509Y014042D02*
X004780Y014042D01*
X004780Y013884D02*
X001687Y013884D01*
X001776Y013725D02*
X004780Y013725D01*
X004780Y013567D02*
X001810Y013567D01*
X001804Y013408D02*
X004780Y013408D01*
X004780Y013250D02*
X001738Y013250D01*
X001596Y013091D02*
X004780Y013091D01*
X004780Y012933D02*
X000660Y012933D01*
X000660Y013091D02*
X000924Y013091D01*
X000782Y013250D02*
X000660Y013250D01*
X000660Y013408D02*
X000716Y013408D01*
X000710Y013567D02*
X000660Y013567D01*
X000660Y013725D02*
X000744Y013725D01*
X000660Y013884D02*
X000833Y013884D01*
X000660Y014042D02*
X001011Y014042D01*
X000821Y014201D02*
X000660Y014201D01*
X000660Y014359D02*
X000738Y014359D01*
X000660Y014518D02*
X001240Y014518D01*
X001280Y014518D02*
X004780Y014518D01*
X005300Y014518D02*
X008733Y014518D01*
X008733Y014676D02*
X005300Y014676D01*
X005300Y014835D02*
X008733Y014835D01*
X008733Y014993D02*
X005300Y014993D01*
X005300Y015152D02*
X008733Y015152D01*
X008733Y015310D02*
X005300Y015310D01*
X005300Y015469D02*
X008733Y015469D01*
X008733Y015627D02*
X008171Y015627D01*
X008135Y015613D02*
X008312Y015686D01*
X008447Y015821D01*
X008520Y015997D01*
X008520Y016788D01*
X008447Y016965D01*
X008312Y017100D01*
X008135Y017173D01*
X007945Y017173D01*
X007768Y017100D01*
X007633Y016965D01*
X007560Y016788D01*
X007560Y015997D01*
X007633Y015821D01*
X007768Y015686D01*
X007945Y015613D01*
X008135Y015613D01*
X008412Y015786D02*
X008733Y015786D01*
X008733Y015944D02*
X008498Y015944D01*
X008520Y016103D02*
X008733Y016103D01*
X008733Y016261D02*
X008520Y016261D01*
X008520Y016420D02*
X008733Y016420D01*
X008733Y016578D02*
X008520Y016578D01*
X008520Y016737D02*
X008733Y016737D01*
X008733Y016895D02*
X008476Y016895D01*
X008358Y017054D02*
X008733Y017054D01*
X008993Y017404D02*
X009013Y017424D01*
X008993Y017664D01*
X008413Y018264D01*
X006353Y018264D01*
X005695Y018922D01*
X005692Y019741D01*
X005693Y019586D01*
X005693Y020124D01*
X004973Y020844D01*
X002213Y020844D01*
X001555Y020186D01*
X001558Y019741D01*
X002158Y019748D02*
X002336Y019748D01*
X002336Y019590D02*
X002158Y019590D01*
X002158Y019431D02*
X002336Y019431D01*
X002336Y019273D02*
X002158Y019273D01*
X002122Y019114D02*
X002372Y019114D01*
X002453Y018956D02*
X002041Y018956D01*
X001862Y018797D02*
X002632Y018797D01*
X002673Y018676D02*
X002673Y018676D01*
X002673Y018639D02*
X000660Y018639D01*
X000660Y018797D02*
X001254Y018797D01*
X001075Y018956D02*
X000660Y018956D01*
X000660Y019114D02*
X000994Y019114D01*
X000958Y019273D02*
X000660Y019273D01*
X000660Y019431D02*
X000958Y019431D01*
X000958Y019590D02*
X000660Y019590D01*
X000660Y019748D02*
X000958Y019748D01*
X000958Y019907D02*
X000660Y019907D01*
X000660Y020065D02*
X000958Y020065D01*
X000958Y020224D02*
X000660Y020224D01*
X000660Y020382D02*
X001000Y020382D01*
X001089Y020541D02*
X000660Y020541D01*
X000660Y020699D02*
X001290Y020699D01*
X001858Y020858D02*
X000660Y020858D01*
X000660Y021016D02*
X002017Y021016D01*
X002277Y020541D02*
X002467Y020541D01*
X002378Y020382D02*
X002118Y020382D01*
X002158Y020224D02*
X002336Y020224D01*
X002336Y020065D02*
X002158Y020065D01*
X002158Y019907D02*
X002336Y019907D01*
X002936Y019741D02*
X002933Y018624D01*
X003893Y017664D01*
X003660Y017529D02*
X002078Y017529D01*
X002215Y017371D02*
X005664Y017371D01*
X005768Y017100D02*
X005945Y017173D01*
X006135Y017173D01*
X006312Y017100D01*
X006447Y016965D01*
X006520Y016788D01*
X006520Y015997D01*
X006447Y015821D01*
X006312Y015686D01*
X006135Y015613D01*
X005945Y015613D01*
X005768Y015686D01*
X005633Y015821D01*
X005560Y015997D01*
X005560Y016788D01*
X005633Y016965D01*
X005768Y017100D01*
X005722Y017054D02*
X005358Y017054D01*
X005476Y016895D02*
X005604Y016895D01*
X005560Y016737D02*
X005520Y016737D01*
X005520Y016578D02*
X005560Y016578D01*
X005560Y016420D02*
X005520Y016420D01*
X005520Y016261D02*
X005560Y016261D01*
X005560Y016103D02*
X005520Y016103D01*
X005498Y015944D02*
X005582Y015944D01*
X005668Y015786D02*
X005412Y015786D01*
X005300Y015627D02*
X005909Y015627D01*
X006171Y015627D02*
X006909Y015627D01*
X006945Y015613D02*
X007135Y015613D01*
X007312Y015686D01*
X007447Y015821D01*
X007520Y015997D01*
X007520Y016788D01*
X007447Y016965D01*
X007312Y017100D01*
X007135Y017173D01*
X006945Y017173D01*
X006768Y017100D01*
X006633Y016965D01*
X006560Y016788D01*
X006560Y015997D01*
X006633Y015821D01*
X006768Y015686D01*
X006945Y015613D01*
X007171Y015627D02*
X007909Y015627D01*
X007668Y015786D02*
X007412Y015786D01*
X007498Y015944D02*
X007582Y015944D01*
X007560Y016103D02*
X007520Y016103D01*
X007520Y016261D02*
X007560Y016261D01*
X007560Y016420D02*
X007520Y016420D01*
X007520Y016578D02*
X007560Y016578D01*
X007560Y016737D02*
X007520Y016737D01*
X007476Y016895D02*
X007604Y016895D01*
X007722Y017054D02*
X007358Y017054D01*
X006722Y017054D02*
X006358Y017054D01*
X006476Y016895D02*
X006604Y016895D01*
X006560Y016737D02*
X006520Y016737D01*
X006520Y016578D02*
X006560Y016578D01*
X006560Y016420D02*
X006520Y016420D01*
X006520Y016261D02*
X006560Y016261D01*
X006560Y016103D02*
X006520Y016103D01*
X006498Y015944D02*
X006582Y015944D01*
X006668Y015786D02*
X006412Y015786D01*
X005300Y014359D02*
X008733Y014359D01*
X008733Y014201D02*
X005300Y014201D01*
X005300Y014042D02*
X008733Y014042D01*
X008733Y013884D02*
X005300Y013884D01*
X005300Y013725D02*
X008784Y013725D01*
X008942Y013567D02*
X005300Y013567D01*
X005300Y013408D02*
X009101Y013408D01*
X009259Y013250D02*
X005300Y013250D01*
X005300Y013091D02*
X009418Y013091D01*
X009576Y012933D02*
X005300Y012933D01*
X005306Y012774D02*
X009647Y012774D01*
X009647Y012616D02*
X005465Y012616D01*
X005623Y012457D02*
X009707Y012457D01*
X009865Y012299D02*
X005782Y012299D01*
X005363Y011982D02*
X004164Y011982D01*
X004114Y011932D02*
X004221Y012039D01*
X004278Y012178D01*
X004278Y012328D01*
X004221Y012467D01*
X004114Y012573D01*
X003975Y012631D01*
X003825Y012631D01*
X003686Y012573D01*
X003625Y012513D01*
X001748Y012513D01*
X001726Y012564D01*
X001572Y012719D01*
X001369Y012803D01*
X001151Y012803D01*
X000948Y012719D01*
X000794Y012564D01*
X000710Y012362D01*
X000710Y012143D01*
X000794Y011941D01*
X000948Y011786D01*
X001030Y011753D01*
X000948Y011719D01*
X000794Y011564D01*
X000710Y011362D01*
X000710Y011143D01*
X000794Y010941D01*
X000948Y010786D01*
X001151Y010703D01*
X001369Y010703D01*
X001572Y010786D01*
X001726Y010941D01*
X001748Y010993D01*
X009532Y010993D01*
X010840Y009685D01*
X010840Y009431D01*
X011098Y009173D01*
X011462Y009173D01*
X011720Y009431D01*
X011720Y009795D01*
X011462Y010053D01*
X011208Y010053D01*
X009860Y011400D01*
X009787Y011473D01*
X009692Y011513D01*
X001748Y011513D01*
X001726Y011564D01*
X001572Y011719D01*
X001490Y011753D01*
X001572Y011786D01*
X001726Y011941D01*
X001748Y011993D01*
X003625Y011993D01*
X003686Y011932D01*
X003825Y011875D01*
X003975Y011875D01*
X004114Y011932D01*
X004263Y012140D02*
X005205Y012140D01*
X005046Y012299D02*
X004278Y012299D01*
X004225Y012457D02*
X004888Y012457D01*
X004782Y012616D02*
X004012Y012616D01*
X003788Y012616D02*
X001675Y012616D01*
X001438Y012774D02*
X004780Y012774D01*
X005522Y011823D02*
X001608Y011823D01*
X001626Y011665D02*
X009640Y011665D01*
X009707Y011506D02*
X009799Y011506D01*
X009913Y011348D02*
X009957Y011348D01*
X010071Y011189D02*
X010116Y011189D01*
X010230Y011031D02*
X010274Y011031D01*
X010388Y010872D02*
X010878Y010872D01*
X010833Y010714D02*
X010547Y010714D01*
X010705Y010555D02*
X010833Y010555D01*
X010864Y010397D02*
X010898Y010397D01*
X011022Y010238D02*
X011056Y010238D01*
X011181Y010080D02*
X012160Y010080D01*
X012160Y010238D02*
X011489Y010238D01*
X011647Y010397D02*
X012160Y010397D01*
X012160Y010555D02*
X011713Y010555D01*
X011713Y010714D02*
X012151Y010714D01*
X011993Y010872D02*
X011667Y010872D01*
X011713Y011506D02*
X013833Y011506D01*
X013833Y011482D02*
X014090Y011224D01*
X014455Y011224D01*
X014713Y011482D01*
X014713Y011737D01*
X015520Y012544D01*
X015570Y012544D01*
X015750Y012364D01*
X016045Y012364D01*
X014965Y011285D01*
X014892Y011212D01*
X014853Y011116D01*
X014853Y006492D01*
X014345Y005984D01*
X014090Y005984D01*
X013833Y005727D01*
X013833Y005362D01*
X014090Y005104D01*
X014455Y005104D01*
X014713Y005362D01*
X014713Y005617D01*
X015333Y006237D01*
X015373Y006333D01*
X015373Y010957D01*
X015993Y011577D01*
X015993Y011452D01*
X016250Y011194D01*
X016615Y011194D01*
X016873Y011452D01*
X016873Y011817D01*
X016615Y012074D01*
X016490Y012074D01*
X016653Y012237D01*
X016693Y012333D01*
X016693Y012422D01*
X016750Y012364D01*
X016933Y012364D01*
X017115Y012364D01*
X017373Y012622D01*
X017373Y012804D01*
X016933Y012804D01*
X016933Y012804D01*
X016933Y012364D01*
X016933Y012804D01*
X016933Y012804D01*
X017373Y012804D01*
X017373Y012987D01*
X017115Y013244D01*
X016933Y013244D01*
X016933Y012804D01*
X016933Y012804D01*
X016933Y013244D01*
X016750Y013244D01*
X016693Y013187D01*
X016693Y013192D01*
X016873Y013372D01*
X016873Y013737D01*
X016615Y013994D01*
X016250Y013994D01*
X015993Y013737D01*
X015993Y013372D01*
X016173Y013192D01*
X016173Y013187D01*
X016115Y013244D01*
X015750Y013244D01*
X015570Y013064D01*
X015361Y013064D01*
X015265Y013025D01*
X015192Y012952D01*
X014345Y012104D01*
X014090Y012104D01*
X013833Y011847D01*
X013833Y011482D01*
X013833Y011665D02*
X011713Y011665D01*
X011713Y011823D02*
X013833Y011823D01*
X013968Y011982D02*
X011577Y011982D01*
X011455Y012244D02*
X011713Y012502D01*
X011713Y012867D01*
X011455Y013124D01*
X011090Y013124D01*
X010833Y012867D01*
X010833Y012502D01*
X011090Y012244D01*
X011455Y012244D01*
X011509Y012299D02*
X014036Y012299D01*
X014090Y012244D02*
X014455Y012244D01*
X014713Y012502D01*
X014713Y012867D01*
X014455Y013124D01*
X014090Y013124D01*
X013833Y012867D01*
X013833Y012502D01*
X014090Y012244D01*
X013877Y012457D02*
X011668Y012457D01*
X011713Y012616D02*
X013833Y012616D01*
X013833Y012774D02*
X011713Y012774D01*
X011646Y012933D02*
X013899Y012933D01*
X014057Y013091D02*
X011488Y013091D01*
X011057Y013091D02*
X010317Y013091D01*
X010476Y012933D02*
X010899Y012933D01*
X010833Y012774D02*
X010527Y012774D01*
X010527Y012616D02*
X010833Y012616D01*
X010877Y012457D02*
X010467Y012457D01*
X010308Y012299D02*
X011036Y012299D01*
X010968Y011982D02*
X010059Y011982D01*
X010217Y011823D02*
X010833Y011823D01*
X010833Y011665D02*
X010376Y011665D01*
X010534Y011506D02*
X010833Y011506D01*
X009900Y012140D02*
X014381Y012140D01*
X014509Y012299D02*
X014539Y012299D01*
X014668Y012457D02*
X014698Y012457D01*
X014713Y012616D02*
X014856Y012616D01*
X014713Y012774D02*
X015015Y012774D01*
X015173Y012933D02*
X014646Y012933D01*
X014488Y013091D02*
X015597Y013091D01*
X015413Y012804D02*
X015933Y012804D01*
X015657Y012457D02*
X015433Y012457D01*
X015275Y012299D02*
X015979Y012299D01*
X015821Y012140D02*
X015116Y012140D01*
X014958Y011982D02*
X015662Y011982D01*
X015504Y011823D02*
X014799Y011823D01*
X014713Y011665D02*
X015345Y011665D01*
X015187Y011506D02*
X014713Y011506D01*
X014578Y011348D02*
X015028Y011348D01*
X014883Y011189D02*
X012411Y011189D01*
X012570Y011031D02*
X014037Y011031D01*
X014090Y011084D02*
X013833Y010827D01*
X013833Y010572D01*
X013272Y010012D01*
X013233Y009916D01*
X013233Y007713D01*
X013272Y007617D01*
X013345Y007544D01*
X013487Y007402D01*
X013521Y007367D01*
X013524Y007366D01*
X013525Y007364D01*
X013571Y007345D01*
X013616Y007325D01*
X013619Y007325D01*
X013621Y007324D01*
X013670Y007324D01*
X013911Y007320D01*
X014098Y007133D01*
X014462Y007133D01*
X014720Y007391D01*
X014720Y007755D01*
X014462Y008013D01*
X014098Y008013D01*
X013925Y007840D01*
X013782Y007842D01*
X013753Y007872D01*
X013753Y009757D01*
X014200Y010204D01*
X014455Y010204D01*
X014713Y010462D01*
X014713Y010827D01*
X014455Y011084D01*
X014090Y011084D01*
X013967Y011348D02*
X012253Y011348D01*
X012677Y010872D02*
X013878Y010872D01*
X013833Y010714D02*
X012680Y010714D01*
X012680Y010555D02*
X013816Y010555D01*
X013657Y010397D02*
X012680Y010397D01*
X012680Y010238D02*
X013499Y010238D01*
X013340Y010080D02*
X012680Y010080D01*
X012680Y009921D02*
X013235Y009921D01*
X013233Y009763D02*
X012680Y009763D01*
X012680Y009604D02*
X013233Y009604D01*
X013233Y009446D02*
X012680Y009446D01*
X012680Y009287D02*
X013233Y009287D01*
X013233Y009129D02*
X012680Y009129D01*
X012680Y008970D02*
X013233Y008970D01*
X013233Y008812D02*
X012680Y008812D01*
X012680Y008653D02*
X013233Y008653D01*
X013233Y008495D02*
X012680Y008495D01*
X012680Y008336D02*
X013233Y008336D01*
X013233Y008178D02*
X012680Y008178D01*
X012680Y008019D02*
X013233Y008019D01*
X013233Y007861D02*
X012680Y007861D01*
X012680Y007702D02*
X013237Y007702D01*
X013345Y007544D02*
X012680Y007544D01*
X012680Y007385D02*
X013503Y007385D01*
X013673Y007584D02*
X013493Y007764D01*
X013493Y009864D01*
X014273Y010644D01*
X014508Y011031D02*
X014853Y011031D01*
X014853Y010872D02*
X014667Y010872D01*
X014713Y010714D02*
X014853Y010714D01*
X014853Y010555D02*
X014713Y010555D01*
X014647Y010397D02*
X014853Y010397D01*
X014853Y010238D02*
X014489Y010238D01*
X014462Y010053D02*
X014098Y010053D01*
X013840Y009795D01*
X013840Y009431D01*
X014098Y009173D01*
X014462Y009173D01*
X014720Y009431D01*
X014720Y009795D01*
X014462Y010053D01*
X014594Y009921D02*
X014853Y009921D01*
X014853Y009763D02*
X014720Y009763D01*
X014720Y009604D02*
X014853Y009604D01*
X014853Y009446D02*
X014720Y009446D01*
X014853Y009287D02*
X014577Y009287D01*
X014462Y009033D02*
X014098Y009033D01*
X013840Y008775D01*
X013840Y008411D01*
X014098Y008153D01*
X014462Y008153D01*
X014720Y008411D01*
X014720Y008775D01*
X014462Y009033D01*
X014525Y008970D02*
X014853Y008970D01*
X014853Y008812D02*
X014683Y008812D01*
X014720Y008653D02*
X014853Y008653D01*
X014853Y008495D02*
X014720Y008495D01*
X014646Y008336D02*
X014853Y008336D01*
X014853Y008178D02*
X014487Y008178D01*
X014614Y007861D02*
X014853Y007861D01*
X014853Y008019D02*
X013753Y008019D01*
X013764Y007861D02*
X013946Y007861D01*
X014073Y008178D02*
X013753Y008178D01*
X013753Y008336D02*
X013914Y008336D01*
X013840Y008495D02*
X013753Y008495D01*
X013753Y008653D02*
X013840Y008653D01*
X013877Y008812D02*
X013753Y008812D01*
X013753Y008970D02*
X014035Y008970D01*
X013983Y009287D02*
X013753Y009287D01*
X013753Y009129D02*
X014853Y009129D01*
X015373Y009129D02*
X017417Y009129D01*
X017417Y009287D02*
X015373Y009287D01*
X015373Y009446D02*
X017417Y009446D01*
X017417Y009604D02*
X015373Y009604D01*
X015373Y009763D02*
X017417Y009763D01*
X017417Y009921D02*
X015373Y009921D01*
X015373Y010080D02*
X017417Y010080D01*
X017417Y010238D02*
X015373Y010238D01*
X015373Y010397D02*
X017417Y010397D01*
X017417Y010555D02*
X017226Y010555D01*
X017115Y010444D02*
X017373Y010702D01*
X017373Y010884D01*
X016933Y010884D01*
X016933Y010884D01*
X016933Y010444D01*
X017115Y010444D01*
X016933Y010444D02*
X016933Y010884D01*
X016933Y010884D01*
X017373Y010884D01*
X017373Y011067D01*
X017115Y011324D01*
X016933Y011324D01*
X016933Y010884D01*
X016933Y010884D01*
X016493Y010884D01*
X016493Y010702D01*
X016750Y010444D01*
X016933Y010444D01*
X016933Y010555D02*
X016933Y010555D01*
X016933Y010714D02*
X016933Y010714D01*
X016933Y010872D02*
X016933Y010872D01*
X016933Y010884D02*
X016933Y010884D01*
X016933Y011324D01*
X016750Y011324D01*
X016493Y011067D01*
X016493Y010884D01*
X016933Y010884D01*
X016933Y011031D02*
X016933Y011031D01*
X016933Y011189D02*
X016933Y011189D01*
X016768Y011348D02*
X017417Y011348D01*
X017417Y011506D02*
X016873Y011506D01*
X016873Y011665D02*
X017417Y011665D01*
X017417Y011823D02*
X016866Y011823D01*
X016707Y011982D02*
X017417Y011982D01*
X017417Y012140D02*
X016556Y012140D01*
X016679Y012299D02*
X017417Y012299D01*
X017417Y012457D02*
X017208Y012457D01*
X017366Y012616D02*
X017417Y012616D01*
X017417Y012774D02*
X017373Y012774D01*
X017373Y012933D02*
X017417Y012933D01*
X017417Y013091D02*
X017268Y013091D01*
X017417Y013250D02*
X016750Y013250D01*
X016873Y013408D02*
X017417Y013408D01*
X017417Y013567D02*
X016873Y013567D01*
X016873Y013725D02*
X017417Y013725D01*
X017417Y013884D02*
X016725Y013884D01*
X016615Y014014D02*
X016873Y014272D01*
X016873Y014637D01*
X016615Y014894D01*
X016250Y014894D01*
X015993Y014637D01*
X015993Y014272D01*
X016250Y014014D01*
X016615Y014014D01*
X016643Y014042D02*
X017417Y014042D01*
X017417Y014201D02*
X016801Y014201D01*
X016873Y014359D02*
X017417Y014359D01*
X017417Y014518D02*
X016873Y014518D01*
X016833Y014676D02*
X017417Y014676D01*
X017417Y014835D02*
X017185Y014835D01*
X017115Y014764D02*
X017373Y015022D01*
X017373Y015387D01*
X017115Y015644D01*
X016750Y015644D01*
X016493Y015387D01*
X016493Y015022D01*
X016750Y014764D01*
X017115Y014764D01*
X017344Y014993D02*
X017417Y014993D01*
X017417Y015152D02*
X017373Y015152D01*
X017373Y015310D02*
X017417Y015310D01*
X017417Y015469D02*
X017290Y015469D01*
X017417Y015627D02*
X017132Y015627D01*
X017417Y015786D02*
X016193Y015786D01*
X016193Y015944D02*
X017417Y015944D01*
X017417Y016103D02*
X017262Y016103D01*
X017399Y016261D02*
X017417Y016261D01*
X016733Y015627D02*
X016193Y015627D01*
X016193Y015567D02*
X016193Y017756D01*
X016868Y018432D01*
X016869Y018432D01*
X016905Y018469D01*
X016941Y018505D01*
X016941Y018505D01*
X016942Y018506D01*
X016961Y018553D01*
X016980Y018600D01*
X016980Y018601D01*
X016981Y018602D01*
X016980Y018653D01*
X016980Y018704D01*
X016980Y018781D01*
X017055Y018812D01*
X017224Y018981D01*
X017315Y019202D01*
X017315Y020280D01*
X017224Y020501D01*
X017055Y020670D01*
X016835Y020761D01*
X016596Y020761D01*
X016376Y020670D01*
X016207Y020501D01*
X016115Y020280D01*
X016115Y019202D01*
X016207Y018981D01*
X016376Y018812D01*
X016460Y018777D01*
X016460Y018759D01*
X015785Y018085D01*
X015712Y018011D01*
X015673Y017916D01*
X015673Y015567D01*
X015493Y015387D01*
X015493Y015022D01*
X015750Y014764D01*
X016115Y014764D01*
X016373Y015022D01*
X016373Y015387D01*
X016193Y015567D01*
X016290Y015469D02*
X016575Y015469D01*
X016493Y015310D02*
X016373Y015310D01*
X016373Y015152D02*
X016493Y015152D01*
X016521Y014993D02*
X016344Y014993D01*
X016191Y014835D02*
X016185Y014835D01*
X016032Y014676D02*
X011303Y014676D01*
X011295Y014684D02*
X010930Y014684D01*
X010673Y014427D01*
X010673Y014062D01*
X010930Y013804D01*
X011295Y013804D01*
X011553Y014062D01*
X011553Y014427D01*
X011295Y014684D01*
X011295Y014884D02*
X011553Y015142D01*
X011553Y015507D01*
X011295Y015764D01*
X010930Y015764D01*
X010673Y015507D01*
X010673Y015142D01*
X010930Y014884D01*
X011295Y014884D01*
X011404Y014993D02*
X015521Y014993D01*
X015493Y015152D02*
X011553Y015152D01*
X011553Y015310D02*
X015493Y015310D01*
X015575Y015469D02*
X011553Y015469D01*
X011432Y015627D02*
X015673Y015627D01*
X015673Y015786D02*
X013809Y015786D01*
X013702Y015757D02*
X013964Y015827D01*
X014199Y015963D01*
X014391Y016155D01*
X014527Y016390D01*
X014597Y016652D01*
X014597Y016924D01*
X014527Y017186D01*
X014391Y017421D01*
X014199Y017613D01*
X013964Y017749D01*
X013702Y017819D01*
X013430Y017819D01*
X013168Y017749D01*
X012933Y017613D01*
X012741Y017421D01*
X012605Y017186D01*
X012535Y016924D01*
X012535Y016652D01*
X012605Y016390D01*
X012741Y016155D01*
X012933Y015963D01*
X013168Y015827D01*
X013430Y015757D01*
X013702Y015757D01*
X013323Y015786D02*
X009253Y015786D01*
X009253Y015944D02*
X012965Y015944D01*
X012793Y016103D02*
X010564Y016103D01*
X010583Y016116D02*
X010644Y016178D01*
X010695Y016248D01*
X010734Y016325D01*
X010761Y016407D01*
X010774Y016493D01*
X010774Y016516D01*
X010244Y016516D01*
X010244Y015986D01*
X010268Y015986D01*
X010353Y015999D01*
X010436Y016026D01*
X010513Y016066D01*
X010583Y016116D01*
X010702Y016261D02*
X012679Y016261D01*
X012597Y016420D02*
X010763Y016420D01*
X010774Y016556D02*
X010774Y016579D01*
X010761Y016665D01*
X010734Y016747D01*
X010695Y016824D01*
X010644Y016894D01*
X010583Y016955D01*
X010513Y017006D01*
X010455Y017036D01*
X010513Y017066D01*
X010583Y017116D01*
X010644Y017178D01*
X010695Y017248D01*
X010734Y017325D01*
X010761Y017407D01*
X010774Y017493D01*
X010774Y017516D01*
X010244Y017516D01*
X010244Y016986D01*
X010244Y016556D01*
X010204Y016556D01*
X010204Y016516D01*
X009674Y016516D01*
X009674Y016493D01*
X009688Y016407D01*
X009715Y016325D01*
X009754Y016248D01*
X009805Y016178D01*
X009866Y016116D01*
X009936Y016066D01*
X010013Y016026D01*
X010096Y015999D01*
X010181Y015986D01*
X010204Y015986D01*
X010204Y016516D01*
X010244Y016516D01*
X010244Y016556D01*
X010774Y016556D01*
X010774Y016578D02*
X012555Y016578D01*
X012535Y016737D02*
X010737Y016737D01*
X010643Y016895D02*
X012535Y016895D01*
X012569Y017054D02*
X010490Y017054D01*
X010669Y017212D02*
X012620Y017212D01*
X012711Y017371D02*
X010749Y017371D01*
X010774Y017556D02*
X010774Y017579D01*
X010761Y017665D01*
X010734Y017747D01*
X010695Y017824D01*
X010644Y017894D01*
X010583Y017955D01*
X010513Y018006D01*
X010436Y018046D01*
X010353Y018072D01*
X010268Y018086D01*
X010244Y018086D01*
X010244Y017556D01*
X010204Y017556D01*
X010204Y017516D01*
X009674Y017516D01*
X009674Y017493D01*
X009688Y017407D01*
X009715Y017325D01*
X009754Y017248D01*
X009805Y017178D01*
X009866Y017116D01*
X009936Y017066D01*
X009994Y017036D01*
X009936Y017006D01*
X009866Y016955D01*
X009805Y016894D01*
X009754Y016824D01*
X009715Y016747D01*
X009688Y016665D01*
X009674Y016579D01*
X009674Y016556D01*
X010204Y016556D01*
X010204Y017516D01*
X010244Y017516D01*
X010244Y017556D01*
X010774Y017556D01*
X010753Y017688D02*
X013062Y017688D01*
X012849Y017529D02*
X010244Y017529D01*
X010204Y017529D02*
X009433Y017529D01*
X009433Y017688D02*
X009695Y017688D01*
X009688Y017665D02*
X009674Y017579D01*
X009674Y017556D01*
X010204Y017556D01*
X010204Y018086D01*
X010181Y018086D01*
X010096Y018072D01*
X010013Y018046D01*
X009936Y018006D01*
X009866Y017955D01*
X009805Y017894D01*
X009754Y017824D01*
X009715Y017747D01*
X009688Y017665D01*
X009770Y017846D02*
X009433Y017846D01*
X009274Y018005D02*
X009934Y018005D01*
X010204Y018005D02*
X010244Y018005D01*
X010244Y017846D02*
X010204Y017846D01*
X010204Y017688D02*
X010244Y017688D01*
X010244Y017371D02*
X010204Y017371D01*
X010204Y017212D02*
X010244Y017212D01*
X010244Y017054D02*
X010204Y017054D01*
X010204Y016895D02*
X010244Y016895D01*
X010244Y016737D02*
X010204Y016737D01*
X010204Y016578D02*
X010244Y016578D01*
X010244Y016420D02*
X010204Y016420D01*
X010204Y016261D02*
X010244Y016261D01*
X010244Y016103D02*
X010204Y016103D01*
X009885Y016103D02*
X009253Y016103D01*
X009253Y016261D02*
X009747Y016261D01*
X009686Y016420D02*
X009253Y016420D01*
X009253Y016578D02*
X009674Y016578D01*
X009711Y016737D02*
X009253Y016737D01*
X009253Y016895D02*
X009806Y016895D01*
X009959Y017054D02*
X009253Y017054D01*
X009253Y017212D02*
X009780Y017212D01*
X009700Y017371D02*
X009321Y017371D01*
X008993Y017404D02*
X008993Y013884D01*
X010087Y012790D01*
X010087Y012700D01*
X009995Y013250D02*
X016115Y013250D01*
X015993Y013408D02*
X009836Y013408D01*
X009678Y013567D02*
X015993Y013567D01*
X015993Y013725D02*
X009519Y013725D01*
X009361Y013884D02*
X009851Y013884D01*
X009930Y013804D02*
X010113Y013804D01*
X010295Y013804D01*
X010553Y014062D01*
X010553Y014244D01*
X010113Y014244D01*
X010113Y014244D01*
X010113Y013804D01*
X010113Y014244D01*
X010113Y014244D01*
X010553Y014244D01*
X010553Y014427D01*
X010295Y014684D01*
X010113Y014684D01*
X010113Y014244D01*
X010113Y014244D01*
X009673Y014244D01*
X009673Y014062D01*
X009930Y013804D01*
X010113Y013884D02*
X010113Y013884D01*
X010113Y014042D02*
X010113Y014042D01*
X010113Y014201D02*
X010113Y014201D01*
X010113Y014244D02*
X010113Y014244D01*
X010113Y014684D01*
X009930Y014684D01*
X009673Y014427D01*
X009673Y014244D01*
X010113Y014244D01*
X010113Y014359D02*
X010113Y014359D01*
X010113Y014518D02*
X010113Y014518D01*
X010113Y014676D02*
X010113Y014676D01*
X010303Y014676D02*
X010922Y014676D01*
X010764Y014518D02*
X010461Y014518D01*
X010553Y014359D02*
X010673Y014359D01*
X010673Y014201D02*
X010553Y014201D01*
X010533Y014042D02*
X010692Y014042D01*
X010851Y013884D02*
X010374Y013884D01*
X009764Y014518D02*
X009253Y014518D01*
X009253Y014676D02*
X009922Y014676D01*
X009930Y014884D02*
X010113Y014884D01*
X010295Y014884D01*
X010553Y015142D01*
X010553Y015324D01*
X010113Y015324D01*
X010113Y015324D01*
X010113Y014884D01*
X010113Y015324D01*
X010113Y015324D01*
X010553Y015324D01*
X010553Y015507D01*
X010295Y015764D01*
X010113Y015764D01*
X010113Y015324D01*
X010113Y015324D01*
X009673Y015324D01*
X009673Y015142D01*
X009930Y014884D01*
X009821Y014993D02*
X009253Y014993D01*
X009253Y014835D02*
X015680Y014835D01*
X015993Y014518D02*
X011461Y014518D01*
X011553Y014359D02*
X015993Y014359D01*
X016064Y014201D02*
X011553Y014201D01*
X011533Y014042D02*
X016222Y014042D01*
X016140Y013884D02*
X011374Y013884D01*
X010821Y014993D02*
X010404Y014993D01*
X010553Y015152D02*
X010673Y015152D01*
X010673Y015310D02*
X010553Y015310D01*
X010553Y015469D02*
X010673Y015469D01*
X010793Y015627D02*
X010432Y015627D01*
X010113Y015627D02*
X010113Y015627D01*
X010113Y015764D02*
X009930Y015764D01*
X009673Y015507D01*
X009673Y015324D01*
X010113Y015324D01*
X010113Y015324D01*
X010113Y015764D01*
X010113Y015469D02*
X010113Y015469D01*
X010113Y015310D02*
X010113Y015310D01*
X010113Y015152D02*
X010113Y015152D01*
X010113Y014993D02*
X010113Y014993D01*
X009673Y015152D02*
X009253Y015152D01*
X009253Y015310D02*
X009673Y015310D01*
X009673Y015469D02*
X009253Y015469D01*
X009253Y015627D02*
X009793Y015627D01*
X009673Y014359D02*
X009253Y014359D01*
X009253Y014201D02*
X009673Y014201D01*
X009692Y014042D02*
X009253Y014042D01*
X009640Y011253D02*
X001260Y011253D01*
X000757Y011031D02*
X000660Y011031D01*
X000660Y011189D02*
X000710Y011189D01*
X000710Y011348D02*
X000660Y011348D01*
X000660Y011506D02*
X000770Y011506D01*
X000660Y011665D02*
X000894Y011665D01*
X000912Y011823D02*
X000660Y011823D01*
X000660Y011982D02*
X000777Y011982D01*
X000711Y012140D02*
X000660Y012140D01*
X000660Y012299D02*
X000710Y012299D01*
X000749Y012457D02*
X000660Y012457D01*
X000660Y012616D02*
X000845Y012616D01*
X000660Y012774D02*
X001082Y012774D01*
X001260Y012253D02*
X003900Y012253D01*
X003636Y011982D02*
X001743Y011982D01*
X001657Y010872D02*
X009653Y010872D01*
X009811Y010714D02*
X001396Y010714D01*
X001387Y010555D02*
X009970Y010555D01*
X010128Y010397D02*
X001654Y010397D01*
X001762Y010238D02*
X010287Y010238D01*
X010269Y010140D02*
X009904Y010140D01*
X009647Y009882D01*
X009647Y009517D01*
X009904Y009260D01*
X010269Y009260D01*
X010527Y009517D01*
X010527Y009882D01*
X010269Y010140D01*
X010329Y010080D02*
X010445Y010080D01*
X010487Y009921D02*
X010604Y009921D01*
X010527Y009763D02*
X010762Y009763D01*
X010840Y009604D02*
X010527Y009604D01*
X010455Y009446D02*
X010840Y009446D01*
X010983Y009287D02*
X010297Y009287D01*
X009877Y009287D02*
X002353Y009287D01*
X002512Y009129D02*
X012160Y009129D01*
X012160Y009287D02*
X011577Y009287D01*
X011720Y009446D02*
X012160Y009446D01*
X012160Y009604D02*
X011720Y009604D01*
X011720Y009763D02*
X012160Y009763D01*
X012160Y009921D02*
X011594Y009921D01*
X011280Y009613D02*
X009640Y011253D01*
X009845Y010080D02*
X001810Y010080D01*
X001810Y009921D02*
X009686Y009921D01*
X009647Y009763D02*
X001878Y009763D01*
X002036Y009604D02*
X009647Y009604D01*
X009718Y009446D02*
X002195Y009446D01*
X002670Y008970D02*
X011035Y008970D01*
X011280Y008593D02*
X002680Y008593D01*
X001260Y010013D01*
X000866Y010397D02*
X000660Y010397D01*
X000660Y010555D02*
X001133Y010555D01*
X001124Y010714D02*
X000660Y010714D01*
X000660Y010872D02*
X000863Y010872D01*
X000758Y010238D02*
X000660Y010238D01*
X000660Y010080D02*
X000710Y010080D01*
X000710Y009921D02*
X000660Y009921D01*
X000660Y009763D02*
X000768Y009763D01*
X000660Y009604D02*
X000891Y009604D01*
X000915Y009446D02*
X000660Y009446D01*
X000660Y009287D02*
X000778Y009287D01*
X000713Y009129D02*
X000660Y009129D01*
X000660Y008970D02*
X000710Y008970D01*
X000748Y008812D02*
X000660Y008812D01*
X000660Y008653D02*
X000842Y008653D01*
X000660Y005642D02*
X010833Y005642D01*
X010833Y005483D02*
X000660Y005483D01*
X000660Y005325D02*
X010870Y005325D01*
X010906Y005800D02*
X008841Y005800D01*
X007724Y005166D02*
X007513Y005166D01*
X007087Y005166D02*
X006883Y005166D01*
X006457Y005166D02*
X004915Y005166D01*
X004959Y005122D02*
X004841Y005240D01*
X004686Y005304D01*
X004519Y005304D01*
X004365Y005240D01*
X004253Y005128D01*
X004077Y005304D01*
X003903Y005304D01*
X003903Y004884D01*
X003903Y004464D01*
X004077Y004464D01*
X004253Y004640D01*
X004365Y004528D01*
X004519Y004464D01*
X004686Y004464D01*
X004841Y004528D01*
X004959Y004646D01*
X005023Y004801D01*
X005023Y004968D01*
X004959Y005122D01*
X005006Y005008D02*
X006303Y005008D01*
X006252Y004849D02*
X005023Y004849D01*
X004977Y004691D02*
X006252Y004691D01*
X006252Y004532D02*
X004845Y004532D01*
X004603Y004884D02*
X004545Y004942D01*
X004291Y005166D02*
X004215Y005166D01*
X003903Y005166D02*
X003903Y005166D01*
X003903Y005304D02*
X003729Y005304D01*
X003483Y005058D01*
X003483Y004884D01*
X003483Y004710D01*
X003729Y004464D01*
X003903Y004464D01*
X003903Y004884D01*
X003903Y004884D01*
X003903Y004884D01*
X003483Y004884D01*
X003903Y004884D01*
X003903Y004884D01*
X003903Y005304D01*
X003903Y005008D02*
X003903Y005008D01*
X003903Y004849D02*
X003903Y004849D01*
X003903Y004691D02*
X003903Y004691D01*
X003903Y004532D02*
X003903Y004532D01*
X004145Y004532D02*
X004361Y004532D01*
X003661Y004532D02*
X002985Y004532D01*
X002917Y004464D02*
X003163Y004710D01*
X003163Y004884D01*
X002743Y004884D01*
X002743Y004884D01*
X002743Y004464D01*
X002917Y004464D01*
X002743Y004464D02*
X002743Y004884D01*
X002743Y004884D01*
X003163Y004884D01*
X003163Y005058D01*
X002917Y005304D01*
X002743Y005304D01*
X002743Y004884D01*
X002743Y004884D01*
X002743Y005304D01*
X002569Y005304D01*
X002393Y005128D01*
X002281Y005240D01*
X002126Y005304D01*
X001959Y005304D01*
X001805Y005240D01*
X001687Y005122D01*
X001623Y004968D01*
X001623Y004801D01*
X001687Y004646D01*
X001805Y004528D01*
X001959Y004464D01*
X002126Y004464D01*
X002281Y004528D01*
X002393Y004640D01*
X002569Y004464D01*
X002743Y004464D01*
X002743Y004532D02*
X002743Y004532D01*
X002743Y004691D02*
X002743Y004691D01*
X002743Y004849D02*
X002743Y004849D01*
X002743Y005008D02*
X002743Y005008D01*
X002743Y005166D02*
X002743Y005166D01*
X003055Y005166D02*
X003591Y005166D01*
X003483Y005008D02*
X003163Y005008D01*
X003163Y004849D02*
X003483Y004849D01*
X003502Y004691D02*
X003143Y004691D01*
X002501Y004532D02*
X002285Y004532D01*
X001801Y004532D02*
X000660Y004532D01*
X000660Y004374D02*
X006252Y004374D01*
X006264Y004215D02*
X000660Y004215D01*
X000660Y004057D02*
X006349Y004057D01*
X006567Y003898D02*
X000660Y003898D01*
X000660Y003740D02*
X006567Y003740D01*
X006567Y003581D02*
X000660Y003581D01*
X000660Y003423D02*
X006567Y003423D01*
X007130Y002947D02*
X007470Y002947D01*
X007867Y002630D02*
X006732Y002630D01*
X006793Y002472D02*
X007807Y002472D01*
X007807Y002313D02*
X006793Y002313D01*
X006793Y002155D02*
X007807Y002155D01*
X007856Y001996D02*
X006744Y001996D01*
X006678Y001838D02*
X007921Y001838D01*
X008041Y001679D02*
X006558Y001679D01*
X006399Y001521D02*
X008200Y001521D01*
X008032Y003423D02*
X017417Y003423D01*
X017417Y003581D02*
X008032Y003581D01*
X005380Y003106D02*
X001449Y003106D01*
X001608Y002947D02*
X005196Y002947D01*
X005059Y002789D02*
X001700Y002789D01*
X001700Y002630D02*
X004993Y002630D01*
X004933Y002472D02*
X001681Y002472D01*
X001260Y001996D02*
X001260Y001996D01*
X001260Y001838D02*
X001260Y001838D01*
X001260Y001679D02*
X001260Y001679D01*
X001260Y001673D02*
X001260Y001233D01*
X001260Y001673D01*
X001260Y001673D01*
X001260Y001521D02*
X001260Y001521D01*
X001260Y001362D02*
X001260Y001362D01*
X000948Y001362D02*
X000660Y001362D01*
X000660Y001521D02*
X000820Y001521D01*
X000820Y001679D02*
X000660Y001679D01*
X000660Y001838D02*
X000820Y001838D01*
X000961Y001996D02*
X000660Y001996D01*
X000660Y004691D02*
X001668Y004691D01*
X001623Y004849D02*
X000660Y004849D01*
X000660Y005008D02*
X001639Y005008D01*
X001731Y005166D02*
X000660Y005166D01*
X002355Y005166D02*
X002431Y005166D01*
X008841Y007227D02*
X011004Y007227D01*
X010845Y007385D02*
X008841Y007385D01*
X008841Y007544D02*
X010840Y007544D01*
X010840Y007702D02*
X008841Y007702D01*
X008841Y007861D02*
X010946Y007861D01*
X011487Y008178D02*
X012160Y008178D01*
X012160Y008336D02*
X011646Y008336D01*
X011720Y008495D02*
X012160Y008495D01*
X012160Y008653D02*
X011720Y008653D01*
X011683Y008812D02*
X012160Y008812D01*
X012160Y008970D02*
X011525Y008970D01*
X012680Y007227D02*
X014004Y007227D01*
X014090Y007004D02*
X013833Y006747D01*
X013833Y006382D01*
X014090Y006124D01*
X014455Y006124D01*
X014713Y006382D01*
X014713Y006747D01*
X014455Y007004D01*
X014090Y007004D01*
X013996Y006910D02*
X012680Y006910D01*
X012680Y007068D02*
X014853Y007068D01*
X014853Y006910D02*
X014549Y006910D01*
X014708Y006751D02*
X014853Y006751D01*
X014853Y006593D02*
X014713Y006593D01*
X014713Y006434D02*
X014795Y006434D01*
X014636Y006276D02*
X014606Y006276D01*
X014478Y006117D02*
X012680Y006117D01*
X012680Y005959D02*
X014065Y005959D01*
X013906Y005800D02*
X012680Y005800D01*
X012680Y005642D02*
X013833Y005642D01*
X013833Y005483D02*
X012680Y005483D01*
X012680Y005325D02*
X013870Y005325D01*
X014028Y005166D02*
X012680Y005166D01*
X012680Y005008D02*
X017417Y005008D01*
X017417Y005166D02*
X014517Y005166D01*
X014675Y005325D02*
X017417Y005325D01*
X017417Y005483D02*
X014713Y005483D01*
X014738Y005642D02*
X017417Y005642D01*
X017417Y005800D02*
X014896Y005800D01*
X015055Y005959D02*
X017417Y005959D01*
X017417Y006117D02*
X015213Y006117D01*
X015349Y006276D02*
X017417Y006276D01*
X017417Y006434D02*
X015373Y006434D01*
X015373Y006593D02*
X017417Y006593D01*
X017417Y006751D02*
X015373Y006751D01*
X015373Y006910D02*
X017417Y006910D01*
X017417Y007068D02*
X015373Y007068D01*
X015373Y007227D02*
X017417Y007227D01*
X017417Y007385D02*
X015373Y007385D01*
X015373Y007544D02*
X017417Y007544D01*
X017417Y007702D02*
X015373Y007702D01*
X015373Y007861D02*
X017417Y007861D01*
X017417Y008019D02*
X015373Y008019D01*
X015373Y008178D02*
X017417Y008178D01*
X017417Y008336D02*
X015373Y008336D01*
X015373Y008495D02*
X017417Y008495D01*
X017417Y008653D02*
X015373Y008653D01*
X015373Y008812D02*
X017417Y008812D01*
X017417Y008970D02*
X015373Y008970D01*
X014853Y010080D02*
X014076Y010080D01*
X013966Y009921D02*
X013917Y009921D01*
X013840Y009763D02*
X013759Y009763D01*
X013753Y009604D02*
X013840Y009604D01*
X013840Y009446D02*
X013753Y009446D01*
X014720Y007702D02*
X014853Y007702D01*
X014853Y007544D02*
X014720Y007544D01*
X014715Y007385D02*
X014853Y007385D01*
X014853Y007227D02*
X014556Y007227D01*
X014280Y007573D02*
X013673Y007584D01*
X013837Y006751D02*
X012680Y006751D01*
X012680Y006593D02*
X013833Y006593D01*
X013833Y006434D02*
X012680Y006434D01*
X012680Y006276D02*
X013939Y006276D01*
X014273Y005544D02*
X015113Y006384D01*
X015113Y011064D01*
X016433Y012384D01*
X016433Y013554D01*
X016933Y013091D02*
X016933Y013091D01*
X016933Y012933D02*
X016933Y012933D01*
X016933Y012774D02*
X016933Y012774D01*
X016933Y012616D02*
X016933Y012616D01*
X016933Y012457D02*
X016933Y012457D01*
X015993Y011506D02*
X015922Y011506D01*
X015764Y011348D02*
X016097Y011348D01*
X016115Y011324D02*
X015750Y011324D01*
X015493Y011067D01*
X015493Y010702D01*
X015750Y010444D01*
X016115Y010444D01*
X016373Y010702D01*
X016373Y011067D01*
X016115Y011324D01*
X016250Y011189D02*
X016615Y011189D01*
X016493Y011031D02*
X016373Y011031D01*
X016373Y010872D02*
X016493Y010872D01*
X016493Y010714D02*
X016373Y010714D01*
X016226Y010555D02*
X016639Y010555D01*
X017250Y011189D02*
X017417Y011189D01*
X017417Y011031D02*
X017373Y011031D01*
X017373Y010872D02*
X017417Y010872D01*
X017417Y010714D02*
X017373Y010714D01*
X015639Y010555D02*
X015373Y010555D01*
X015373Y010714D02*
X015493Y010714D01*
X015493Y010872D02*
X015373Y010872D01*
X015447Y011031D02*
X015493Y011031D01*
X015605Y011189D02*
X015615Y011189D01*
X014273Y011664D02*
X015413Y012804D01*
X016674Y014835D02*
X016680Y014835D01*
X015933Y015204D02*
X015933Y017864D01*
X016720Y018652D01*
X016715Y019741D01*
X016115Y019748D02*
X015937Y019748D01*
X015937Y019590D02*
X016115Y019590D01*
X016115Y019431D02*
X015937Y019431D01*
X015937Y019273D02*
X016115Y019273D01*
X016152Y019114D02*
X015901Y019114D01*
X015937Y019202D02*
X015846Y018981D01*
X015677Y018812D01*
X015457Y018721D01*
X015218Y018721D01*
X014998Y018812D01*
X014829Y018981D01*
X014737Y019202D01*
X014737Y020280D01*
X014829Y020501D01*
X014998Y020670D01*
X015218Y020761D01*
X015457Y020761D01*
X015677Y020670D01*
X015846Y020501D01*
X015937Y020280D01*
X015937Y019202D01*
X015821Y018956D02*
X016232Y018956D01*
X016412Y018797D02*
X015641Y018797D01*
X016023Y018322D02*
X008719Y018322D01*
X008872Y018163D02*
X015864Y018163D01*
X015709Y018005D02*
X010515Y018005D01*
X010679Y017846D02*
X015673Y017846D01*
X015673Y017688D02*
X014070Y017688D01*
X014283Y017529D02*
X015673Y017529D01*
X015673Y017371D02*
X014420Y017371D01*
X014512Y017212D02*
X015673Y017212D01*
X015673Y017054D02*
X014562Y017054D01*
X014597Y016895D02*
X015673Y016895D01*
X015673Y016737D02*
X014597Y016737D01*
X014577Y016578D02*
X015673Y016578D01*
X015673Y016420D02*
X014535Y016420D01*
X014452Y016261D02*
X015673Y016261D01*
X015673Y016103D02*
X014339Y016103D01*
X014166Y015944D02*
X015673Y015944D01*
X016193Y016103D02*
X016573Y016103D01*
X016436Y016261D02*
X016193Y016261D01*
X016193Y016420D02*
X016370Y016420D01*
X016367Y016578D02*
X016193Y016578D01*
X016193Y016737D02*
X016405Y016737D01*
X016499Y016895D02*
X016193Y016895D01*
X016193Y017054D02*
X016644Y017054D01*
X016463Y017212D02*
X016193Y017212D01*
X016193Y017371D02*
X016390Y017371D01*
X016367Y017529D02*
X016193Y017529D01*
X016193Y017688D02*
X016385Y017688D01*
X016451Y017846D02*
X016282Y017846D01*
X016441Y018005D02*
X016612Y018005D01*
X016599Y018163D02*
X017417Y018163D01*
X017417Y018005D02*
X017223Y018005D01*
X017384Y017846D02*
X017417Y017846D01*
X017417Y018322D02*
X016758Y018322D01*
X016916Y018480D02*
X017417Y018480D01*
X017417Y018639D02*
X016981Y018639D01*
X016980Y018704D02*
X016980Y018704D01*
X017019Y018797D02*
X017417Y018797D01*
X017417Y018956D02*
X017199Y018956D01*
X017279Y019114D02*
X017417Y019114D01*
X017417Y019273D02*
X017315Y019273D01*
X017315Y019431D02*
X017417Y019431D01*
X017417Y019590D02*
X017315Y019590D01*
X017315Y019748D02*
X017417Y019748D01*
X017417Y019907D02*
X017315Y019907D01*
X017315Y020065D02*
X017417Y020065D01*
X017417Y020224D02*
X017315Y020224D01*
X017273Y020382D02*
X017417Y020382D01*
X017417Y020541D02*
X017184Y020541D01*
X016984Y020699D02*
X017417Y020699D01*
X017417Y020858D02*
X005327Y020858D01*
X005168Y021016D02*
X017417Y021016D01*
X016447Y020699D02*
X015606Y020699D01*
X015806Y020541D02*
X016247Y020541D01*
X016158Y020382D02*
X015895Y020382D01*
X015937Y020224D02*
X016115Y020224D01*
X016115Y020065D02*
X015937Y020065D01*
X015937Y019907D02*
X016115Y019907D01*
X016340Y018639D02*
X006346Y018639D01*
X006187Y018797D02*
X006766Y018797D01*
X006730Y018812D02*
X006950Y018721D01*
X007189Y018721D01*
X007410Y018812D01*
X007578Y018981D01*
X007670Y019202D01*
X007670Y020280D01*
X007578Y020501D01*
X007410Y020670D01*
X007189Y020761D01*
X006950Y020761D01*
X006730Y020670D01*
X006561Y020501D01*
X006470Y020280D01*
X006470Y019202D01*
X006561Y018981D01*
X006730Y018812D01*
X006586Y018956D02*
X006175Y018956D01*
X006256Y019114D02*
X006506Y019114D01*
X006470Y019273D02*
X006292Y019273D01*
X006292Y019431D02*
X006470Y019431D01*
X006470Y019590D02*
X006292Y019590D01*
X006292Y019748D02*
X006470Y019748D01*
X006470Y019907D02*
X006292Y019907D01*
X006292Y020065D02*
X006470Y020065D01*
X006470Y020224D02*
X006292Y020224D01*
X006250Y020382D02*
X006512Y020382D01*
X006601Y020541D02*
X006160Y020541D01*
X005960Y020699D02*
X006802Y020699D01*
X007338Y020699D02*
X008183Y020699D01*
X008217Y020717D02*
X008133Y020674D01*
X008057Y020619D01*
X007990Y020552D01*
X007935Y020475D01*
X007892Y020391D01*
X007862Y020301D01*
X007848Y020208D01*
X007848Y019801D01*
X008388Y019801D01*
X008388Y020759D01*
X008307Y020746D01*
X008217Y020717D01*
X008388Y020699D02*
X008508Y020699D01*
X008508Y020759D02*
X008508Y019801D01*
X009048Y019801D01*
X009048Y020208D01*
X009033Y020301D01*
X009004Y020391D01*
X008961Y020475D01*
X008905Y020552D01*
X008839Y020619D01*
X008762Y020674D01*
X008678Y020717D01*
X008588Y020746D01*
X008508Y020759D01*
X008713Y020699D02*
X009557Y020699D01*
X009486Y020670D02*
X009317Y020501D01*
X009226Y020280D01*
X009226Y019202D01*
X009317Y018981D01*
X009486Y018812D01*
X009706Y018721D01*
X009945Y018721D01*
X010166Y018812D01*
X010334Y018981D01*
X010426Y019202D01*
X010426Y020280D01*
X010334Y020501D01*
X010166Y020670D01*
X009945Y020761D01*
X009706Y020761D01*
X009486Y020670D01*
X009357Y020541D02*
X008913Y020541D01*
X009007Y020382D02*
X009268Y020382D01*
X009226Y020224D02*
X009045Y020224D01*
X009048Y020065D02*
X009226Y020065D01*
X009226Y019907D02*
X009048Y019907D01*
X009048Y019681D02*
X008508Y019681D01*
X008508Y019801D01*
X008388Y019801D01*
X008388Y019681D01*
X008508Y019681D01*
X008508Y018723D01*
X008588Y018736D01*
X008678Y018765D01*
X008762Y018808D01*
X008839Y018863D01*
X008905Y018930D01*
X008961Y019006D01*
X009004Y019091D01*
X009033Y019180D01*
X009048Y019274D01*
X009048Y019681D01*
X009048Y019590D02*
X009226Y019590D01*
X009226Y019748D02*
X008508Y019748D01*
X008388Y019748D02*
X007670Y019748D01*
X007670Y019590D02*
X007848Y019590D01*
X007848Y019681D02*
X007848Y019274D01*
X007862Y019180D01*
X007892Y019091D01*
X007935Y019006D01*
X007990Y018930D01*
X008057Y018863D01*
X008133Y018808D01*
X008217Y018765D01*
X008307Y018736D01*
X008388Y018723D01*
X008388Y019681D01*
X007848Y019681D01*
X007848Y019907D02*
X007670Y019907D01*
X007670Y020065D02*
X007848Y020065D01*
X007850Y020224D02*
X007670Y020224D01*
X007628Y020382D02*
X007889Y020382D01*
X007982Y020541D02*
X007538Y020541D01*
X008388Y020541D02*
X008508Y020541D01*
X008508Y020382D02*
X008388Y020382D01*
X008388Y020224D02*
X008508Y020224D01*
X008508Y020065D02*
X008388Y020065D01*
X008388Y019907D02*
X008508Y019907D01*
X008508Y019590D02*
X008388Y019590D01*
X008388Y019431D02*
X008508Y019431D01*
X008508Y019273D02*
X008388Y019273D01*
X008388Y019114D02*
X008508Y019114D01*
X008508Y018956D02*
X008388Y018956D01*
X008388Y018797D02*
X008508Y018797D01*
X008742Y018797D02*
X009522Y018797D01*
X009342Y018956D02*
X008924Y018956D01*
X009011Y019114D02*
X009262Y019114D01*
X009226Y019273D02*
X009048Y019273D01*
X009048Y019431D02*
X009226Y019431D01*
X008565Y018480D02*
X016181Y018480D01*
X015034Y018797D02*
X014253Y018797D01*
X014274Y018808D02*
X014350Y018863D01*
X014417Y018930D01*
X014473Y019006D01*
X014516Y019091D01*
X014545Y019180D01*
X014560Y019274D01*
X014560Y019681D01*
X014020Y019681D01*
X014020Y019801D01*
X014560Y019801D01*
X014560Y020208D01*
X014545Y020301D01*
X014516Y020391D01*
X014473Y020475D01*
X014417Y020552D01*
X014350Y020619D01*
X014274Y020674D01*
X014190Y020717D01*
X014100Y020746D01*
X014020Y020759D01*
X014020Y019801D01*
X013900Y019801D01*
X013900Y020759D01*
X013819Y020746D01*
X013729Y020717D01*
X013645Y020674D01*
X013569Y020619D01*
X013502Y020552D01*
X013446Y020475D01*
X013403Y020391D01*
X013374Y020301D01*
X013360Y020208D01*
X013360Y019801D01*
X013900Y019801D01*
X013900Y019681D01*
X014020Y019681D01*
X014020Y018723D01*
X014100Y018736D01*
X014190Y018765D01*
X014274Y018808D01*
X014436Y018956D02*
X014854Y018956D01*
X014774Y019114D02*
X014523Y019114D01*
X014559Y019273D02*
X014737Y019273D01*
X014737Y019431D02*
X014560Y019431D01*
X014560Y019590D02*
X014737Y019590D01*
X014737Y019748D02*
X014020Y019748D01*
X013900Y019748D02*
X013182Y019748D01*
X013182Y019590D02*
X013360Y019590D01*
X013360Y019681D02*
X013360Y019274D01*
X013374Y019180D01*
X013403Y019091D01*
X013446Y019006D01*
X013502Y018930D01*
X013569Y018863D01*
X013645Y018808D01*
X013729Y018765D01*
X013819Y018736D01*
X013900Y018723D01*
X013900Y019681D01*
X013360Y019681D01*
X013360Y019907D02*
X013182Y019907D01*
X013182Y020065D02*
X013360Y020065D01*
X013362Y020224D02*
X013182Y020224D01*
X013182Y020280D02*
X013090Y020501D01*
X012921Y020670D01*
X012701Y020761D01*
X012462Y020761D01*
X012242Y020670D01*
X012073Y020501D01*
X011982Y020280D01*
X011982Y019202D01*
X012073Y018981D01*
X012242Y018812D01*
X012462Y018721D01*
X012701Y018721D01*
X012921Y018812D01*
X013090Y018981D01*
X013182Y019202D01*
X013182Y020280D01*
X013139Y020382D02*
X013401Y020382D01*
X013494Y020541D02*
X013050Y020541D01*
X012850Y020699D02*
X013694Y020699D01*
X013900Y020699D02*
X014020Y020699D01*
X014020Y020541D02*
X013900Y020541D01*
X013900Y020382D02*
X014020Y020382D01*
X014020Y020224D02*
X013900Y020224D01*
X013900Y020065D02*
X014020Y020065D01*
X014020Y019907D02*
X013900Y019907D01*
X013900Y019590D02*
X014020Y019590D01*
X014020Y019431D02*
X013900Y019431D01*
X013900Y019273D02*
X014020Y019273D01*
X014020Y019114D02*
X013900Y019114D01*
X013900Y018956D02*
X014020Y018956D01*
X014020Y018797D02*
X013900Y018797D01*
X013666Y018797D02*
X012885Y018797D01*
X013065Y018956D02*
X013483Y018956D01*
X013396Y019114D02*
X013145Y019114D01*
X013182Y019273D02*
X013360Y019273D01*
X013360Y019431D02*
X013182Y019431D01*
X012278Y018797D02*
X011507Y018797D01*
X011543Y018812D02*
X011712Y018981D01*
X011804Y019202D01*
X011804Y020280D01*
X011712Y020501D01*
X011543Y020670D01*
X011323Y020761D01*
X011084Y020761D01*
X010864Y020670D01*
X010695Y020501D01*
X010604Y020280D01*
X010604Y019202D01*
X010695Y018981D01*
X010864Y018812D01*
X011084Y018721D01*
X011323Y018721D01*
X011543Y018812D01*
X011687Y018956D02*
X012098Y018956D01*
X012018Y019114D02*
X011767Y019114D01*
X011804Y019273D02*
X011982Y019273D01*
X011982Y019431D02*
X011804Y019431D01*
X011804Y019590D02*
X011982Y019590D01*
X011982Y019748D02*
X011804Y019748D01*
X011804Y019907D02*
X011982Y019907D01*
X011982Y020065D02*
X011804Y020065D01*
X011804Y020224D02*
X011982Y020224D01*
X012024Y020382D02*
X011761Y020382D01*
X011672Y020541D02*
X012113Y020541D01*
X012313Y020699D02*
X011472Y020699D01*
X010935Y020699D02*
X010094Y020699D01*
X010294Y020541D02*
X010735Y020541D01*
X010646Y020382D02*
X010383Y020382D01*
X010426Y020224D02*
X010604Y020224D01*
X010604Y020065D02*
X010426Y020065D01*
X010426Y019907D02*
X010604Y019907D01*
X010604Y019748D02*
X010426Y019748D01*
X010426Y019590D02*
X010604Y019590D01*
X010604Y019431D02*
X010426Y019431D01*
X010426Y019273D02*
X010604Y019273D01*
X010640Y019114D02*
X010390Y019114D01*
X010309Y018956D02*
X010720Y018956D01*
X010900Y018797D02*
X010129Y018797D01*
X008553Y017688D02*
X006433Y017688D01*
X006433Y017846D02*
X008455Y017846D01*
X008553Y017529D02*
X006433Y017529D01*
X006300Y018005D02*
X006274Y018005D01*
X006145Y018104D02*
X005810Y018104D01*
X005630Y017924D01*
X004000Y017924D01*
X003193Y018732D01*
X003193Y018778D01*
X003276Y018812D01*
X003445Y018981D01*
X003536Y019202D01*
X003536Y020280D01*
X003445Y020501D01*
X003361Y020584D01*
X003889Y020584D01*
X003856Y020552D01*
X003801Y020475D01*
X003758Y020391D01*
X003729Y020301D01*
X003714Y020208D01*
X003714Y019801D01*
X004254Y019801D01*
X004254Y019681D01*
X004374Y019681D01*
X004374Y019801D01*
X004914Y019801D01*
X004914Y020208D01*
X004899Y020301D01*
X004870Y020391D01*
X004827Y020475D01*
X004772Y020552D01*
X004739Y020584D01*
X004865Y020584D01*
X005114Y020335D01*
X005092Y020280D01*
X005092Y019202D01*
X005183Y018981D01*
X005352Y018812D01*
X005497Y018752D01*
X005511Y018738D01*
X006145Y018104D01*
X006086Y018163D02*
X003761Y018163D01*
X003920Y018005D02*
X005711Y018005D01*
X005927Y018322D02*
X003603Y018322D01*
X003444Y018480D02*
X005769Y018480D01*
X005610Y018639D02*
X003286Y018639D01*
X003240Y018797D02*
X004020Y018797D01*
X003999Y018808D02*
X004084Y018765D01*
X004173Y018736D01*
X004254Y018723D01*
X004254Y019681D01*
X003714Y019681D01*
X003714Y019274D01*
X003729Y019180D01*
X003758Y019091D01*
X003801Y019006D01*
X003856Y018930D01*
X003923Y018863D01*
X003999Y018808D01*
X003838Y018956D02*
X003419Y018956D01*
X003500Y019114D02*
X003750Y019114D01*
X003714Y019273D02*
X003536Y019273D01*
X003536Y019431D02*
X003714Y019431D01*
X003714Y019590D02*
X003536Y019590D01*
X003536Y019748D02*
X004254Y019748D01*
X004374Y019748D02*
X005092Y019748D01*
X005092Y019590D02*
X004914Y019590D01*
X004914Y019681D02*
X004374Y019681D01*
X004374Y018723D01*
X004454Y018736D01*
X004544Y018765D01*
X004628Y018808D01*
X004705Y018863D01*
X004772Y018930D01*
X004827Y019006D01*
X004870Y019091D01*
X004899Y019180D01*
X004914Y019274D01*
X004914Y019681D01*
X004914Y019907D02*
X005092Y019907D01*
X005092Y020065D02*
X004914Y020065D01*
X004911Y020224D02*
X005092Y020224D01*
X005067Y020382D02*
X004873Y020382D01*
X004908Y020541D02*
X004780Y020541D01*
X004374Y019590D02*
X004254Y019590D01*
X004254Y019431D02*
X004374Y019431D01*
X004374Y019273D02*
X004254Y019273D01*
X004254Y019114D02*
X004374Y019114D01*
X004374Y018956D02*
X004254Y018956D01*
X004254Y018797D02*
X004374Y018797D01*
X004608Y018797D02*
X005388Y018797D01*
X005208Y018956D02*
X004790Y018956D01*
X004878Y019114D02*
X005128Y019114D01*
X005092Y019273D02*
X004914Y019273D01*
X004914Y019431D02*
X005092Y019431D01*
X003848Y020541D02*
X003405Y020541D01*
X003494Y020382D02*
X003755Y020382D01*
X003716Y020224D02*
X003536Y020224D01*
X003536Y020065D02*
X003714Y020065D01*
X003714Y019907D02*
X003536Y019907D01*
X002711Y018480D02*
X000660Y018480D01*
X000660Y018322D02*
X002867Y018322D01*
X002785Y018404D02*
X002785Y018404D01*
X002712Y018477D02*
X002712Y018477D01*
X003026Y018163D02*
X000660Y018163D01*
X000660Y018005D02*
X003184Y018005D01*
X003343Y017846D02*
X000660Y017846D01*
X000660Y017688D02*
X000857Y017688D01*
X001865Y017688D02*
X003501Y017688D01*
X001280Y014993D02*
X001240Y014993D01*
X001240Y014835D02*
X001280Y014835D01*
X001280Y014676D02*
X001240Y014676D01*
X000958Y014993D02*
X000660Y014993D01*
X000660Y014835D02*
X000800Y014835D01*
X000728Y014676D02*
X000660Y014676D01*
X000660Y015786D02*
X001118Y015786D01*
X000760Y015944D02*
X000660Y015944D01*
X007373Y018797D02*
X008154Y018797D01*
X007971Y018956D02*
X007553Y018956D01*
X007634Y019114D02*
X007884Y019114D01*
X007848Y019273D02*
X007670Y019273D01*
X007670Y019431D02*
X007848Y019431D01*
X014225Y020699D02*
X015069Y020699D01*
X014869Y020541D02*
X014425Y020541D01*
X014518Y020382D02*
X014780Y020382D01*
X014737Y020224D02*
X014557Y020224D01*
X014560Y020065D02*
X014737Y020065D01*
X014737Y019907D02*
X014560Y019907D01*
X012160Y006751D02*
X011708Y006751D01*
X011713Y006593D02*
X012160Y006593D01*
X012160Y006434D02*
X011713Y006434D01*
X011606Y006276D02*
X012160Y006276D01*
X012680Y004849D02*
X017417Y004849D01*
X017417Y004691D02*
X012680Y004691D01*
X012680Y004532D02*
X017417Y004532D01*
X017417Y004374D02*
X012680Y004374D01*
X012754Y004215D02*
X017417Y004215D01*
X017417Y004057D02*
X012798Y004057D01*
X012774Y003898D02*
X017417Y003898D01*
X017417Y003740D02*
X012662Y003740D01*
X013810Y003264D02*
X016668Y003264D01*
X016473Y003106D02*
X014175Y003106D01*
X014354Y002947D02*
X016395Y002947D01*
X016367Y002789D02*
X014474Y002789D01*
X014565Y002630D02*
X016381Y002630D01*
X016446Y002472D02*
X014607Y002472D01*
X014636Y002313D02*
X016598Y002313D01*
X016522Y002155D02*
X014636Y002155D01*
X014614Y001996D02*
X016415Y001996D01*
X016367Y001838D02*
X014571Y001838D01*
X014489Y001679D02*
X016367Y001679D01*
X016426Y001521D02*
X014379Y001521D01*
X014219Y001362D02*
X016549Y001362D01*
X017285Y001362D02*
X017417Y001362D01*
X017417Y001204D02*
X013905Y001204D01*
X017166Y003264D02*
X017417Y003264D01*
X017417Y003106D02*
X017362Y003106D01*
X017409Y001521D02*
X017417Y001521D01*
D20*
X012420Y004033D03*
X003900Y012253D03*
M02*
