%
M48
M72
T01C0.0197
T02C0.0236
T03C0.0354
T04C0.0400
T05C0.0560
T06C0.1102
T07C0.1181
%
T01
X7377Y1449
X8397Y4329
X10737Y7989
X10737Y11289
X8757Y15129
X4617Y18129
T02
X3180Y13100
X6840Y6860
X5220Y5900
X7140Y10580
X7980Y10580
X7620Y12380
X9540Y5840
T03
X8186Y2547
X6454Y2547
T04
X4052Y2468
X4052Y1468
X10745Y1468
X10745Y2468
X10280Y14240
X9280Y14240
X8280Y14240
X7280Y14240
X6280Y14240
X5280Y14240
X4140Y14020
X4140Y15020
X4052Y16232
X4052Y17232
X10745Y17232
X10745Y16232
T05
X10798Y19280
X9420Y19280
X8042Y19280
X6720Y19283
X5342Y19283
X3964Y19283
X1860Y19038
X1860Y17660
X1860Y16282
X1860Y14958
X1860Y13580
X1860Y12202
T06
X1860Y20420
X10380Y12680
T07
X1860Y1863
M30
