G75*
%MOIN*%
%OFA0B0*%
%FSLAX24Y24*%
%IPPOS*%
%LPD*%
%AMOC8*
5,1,8,0,0,1.08239X$1,22.5*
%
%ADD10C,0.1142*%
%ADD11C,0.1221*%
%ADD12C,0.0880*%
%ADD13C,0.0640*%
%ADD14C,0.0780*%
%ADD15C,0.0394*%
D10*
X010380Y012680D03*
X001860Y020420D03*
D11*
X001860Y001863D03*
D12*
X001440Y012202D02*
X002280Y012202D01*
X002280Y013580D02*
X001440Y013580D01*
X001440Y014958D02*
X002280Y014958D01*
X002280Y016282D02*
X001440Y016282D01*
X001440Y017660D02*
X002280Y017660D01*
X002280Y019038D02*
X001440Y019038D01*
X003964Y018863D02*
X003964Y019703D01*
X005342Y019703D02*
X005342Y018863D01*
X006720Y018863D02*
X006720Y019703D01*
X008042Y019700D02*
X008042Y018860D01*
X009420Y018860D02*
X009420Y019700D01*
X010798Y019700D02*
X010798Y018860D01*
D13*
X010280Y014540D02*
X010280Y013940D01*
X009280Y013940D02*
X009280Y014540D01*
X008280Y014540D02*
X008280Y013940D01*
X007280Y013940D02*
X007280Y014540D01*
X006280Y014540D02*
X006280Y013940D01*
X005280Y013940D02*
X005280Y014540D01*
D14*
X004140Y015020D03*
X004140Y014020D03*
X004052Y016232D03*
X004052Y017232D03*
X010745Y017232D03*
X010745Y016232D03*
X010745Y002468D03*
X010745Y001468D03*
X004052Y001468D03*
X004052Y002468D03*
D15*
X006454Y002547D03*
X008186Y002547D03*
M02*
