G75*
%MOIN*%
%OFA0B0*%
%FSLAX24Y24*%
%IPPOS*%
%LPD*%
%AMOC8*
5,1,8,0,0,1.08239X$1,22.5*
%
%ADD10R,0.0531X0.0374*%
%ADD11R,0.0413X0.0374*%
%ADD12R,0.0374X0.0413*%
%ADD13R,0.0452X0.0767*%
%ADD14R,0.0452X0.0197*%
%ADD15R,0.0177X0.1476*%
%ADD16R,0.0767X0.0964*%
D10*
X005893Y015366D03*
X005893Y016114D03*
X005027Y015740D03*
X007787Y015366D03*
X007787Y016114D03*
X007787Y017060D03*
X008653Y016686D03*
X008653Y017434D03*
X008653Y015740D03*
D11*
X009660Y015405D03*
X009660Y016075D03*
X009660Y016725D03*
X009660Y017395D03*
X008040Y013075D03*
X008040Y012405D03*
X007080Y012405D03*
X007080Y013075D03*
X006780Y015405D03*
X006780Y016075D03*
X006780Y016725D03*
X006780Y017395D03*
X005940Y017395D03*
X005940Y016725D03*
X005100Y016725D03*
X005100Y017395D03*
X004620Y013075D03*
X004620Y012405D03*
X003780Y012405D03*
X003780Y013075D03*
D12*
X001800Y003405D03*
X001800Y004075D03*
X002470Y004714D03*
X003139Y004714D03*
X004440Y004075D03*
X004440Y003405D03*
X008880Y012405D03*
X008880Y013075D03*
X010153Y004013D03*
X010153Y003344D03*
D13*
X009593Y005060D03*
X008805Y005060D03*
X008018Y005060D03*
X007230Y005060D03*
X006443Y005060D03*
X005656Y005060D03*
X004868Y005060D03*
X004081Y005060D03*
X004081Y011438D03*
X004868Y011438D03*
X005656Y011438D03*
X006443Y011438D03*
X007230Y011438D03*
X008018Y011438D03*
X008805Y011438D03*
X009593Y011438D03*
D14*
X003632Y004114D03*
X003632Y003740D03*
X003632Y003366D03*
X002608Y003366D03*
X002608Y004114D03*
D15*
X006690Y003610D03*
X007005Y003610D03*
X007320Y003610D03*
X007635Y003610D03*
X007950Y003610D03*
D16*
X009072Y003551D03*
X009072Y001386D03*
X005568Y001386D03*
X005568Y003551D03*
M02*
