%
M48
M72
T01C0.0197
T02C0.0236
T03C0.0240
T04C0.0276
T05C0.0280
T06C0.0320
T07C0.0354
T08C0.0360
T09C0.0400
T10C0.0520
T11C0.0560
T12C0.0591
T13C0.0787
T14C0.1102
T15C0.1181
T16C0.1260
%
T01
X2149Y5315
X4708Y5315
X7267Y5315
X8841Y8071
X11991Y8071
X11007Y5315
X8054Y11614
X6086Y12598
X2149Y10827
X2149Y9252
X1361Y14567
X10023Y20669
X12582Y20226
X16912Y21654
X16912Y24803
X17995Y26673
X15141Y27756
X14550Y25787
X12188Y24606
X12385Y27756
X10416Y27756
X7267Y27756
X6086Y25394
X4117Y25394
X11204Y14370
X17897Y8071
X23180Y10234
X25055Y13109
X27542Y9055
X26164Y6890
X24983Y4528
X33363Y8859
X34600Y7359
X35555Y12984
X35613Y15945
X36794Y17913
X36794Y20276
X33251Y24606
X34826Y26181
X30298Y24803
X29680Y25484
X28723Y23819
X30298Y22638
X26361Y25984
X25475Y28937
X22818Y24803
X22129Y23819
X22129Y22835
X21805Y20234
X21440Y18307
T02
X16125Y20866
X8940Y5217
T03
X13934Y14476
X15934Y14476
T04
X27917Y4327
X28232Y3815
X28547Y4327
X28862Y3815
X29177Y4327
T05
X16850Y22959
X16850Y23659
X12100Y23659
X12100Y22959
X7267Y23185
X7267Y22485
X7267Y21243
X7267Y20543
X2794Y24705
X2094Y24705
X4904Y14819
X4904Y14119
X2681Y12582
X1981Y12582
T06
X3231Y13969
X2481Y14469
X3231Y14969
X5667Y15984
X6381Y14969
X6381Y13969
X7430Y16234
X8430Y16234
X9430Y16234
X10430Y16234
X11430Y16234
X12430Y16234
X13430Y16234
X14430Y16234
X15430Y16234
X16430Y16234
X17430Y16234
X18430Y16234
X19430Y16234
X20430Y16234
X20430Y19234
X19430Y19234
X18430Y19234
X17430Y19234
X16430Y19234
X15430Y19234
X14430Y19234
X13430Y19234
X12430Y19234
X11430Y19234
X10430Y19234
X9430Y19234
X8430Y19234
X7430Y19234
X5667Y18984
X5845Y20333
X4877Y20333
X3908Y20333
X2936Y20350
X1952Y20350
X1952Y23350
X2936Y23350
X3908Y23333
X4877Y23333
X5845Y23333
X8680Y24784
X9680Y24784
X10680Y24784
X13480Y24784
X14480Y24784
X15480Y24784
X18225Y24809
X19225Y24809
X20225Y24809
X20225Y21809
X19225Y21809
X18225Y21809
X15480Y21784
X14480Y21784
X13480Y21784
X13361Y20276
X14361Y20276
X10680Y21784
X9680Y21784
X8680Y21784
X12180Y12734
X13180Y12734
X14180Y12734
X15180Y12734
X18365Y9449
X19357Y7996
X20357Y7996
X21357Y7996
X21365Y9449
X23385Y8858
X24396Y10180
X25396Y10180
X26385Y8858
X27075Y9982
X27075Y10991
X30075Y10991
X30075Y9982
X31873Y13083
X31873Y14083
X31690Y17498
X32690Y17498
X33690Y17498
X34690Y17498
X34690Y20498
X33690Y20498
X32690Y20498
X31690Y20498
X31753Y21667
X31751Y22638
X31753Y23667
X31753Y24667
X34753Y24667
X34753Y23667
X34751Y22638
X34753Y21667
X36491Y22441
X36991Y23191
X37491Y22441
X37491Y24409
X36991Y25159
X36491Y24409
X36991Y26022
X36491Y26772
X37491Y26772
X29223Y27165
X28223Y27165
X28223Y28445
X29223Y28445
X26664Y23720
X25664Y23720
X26680Y22638
X23680Y22638
X6660Y11484
X3660Y11484
X19357Y4996
X20357Y4996
X21357Y4996
X23507Y4945
X23507Y1945
X24582Y1969
X25582Y1969
X28125Y6594
X29125Y6594
T07
X2574Y16181
X2574Y19181
T08
X4217Y18484
X4217Y17484
X4217Y16484
X18902Y26118
X18902Y27118
X19902Y27118
X20902Y27118
X20902Y26118
X19902Y26118
X21902Y26118
X22902Y26118
X22902Y27118
X21902Y27118
T09
X30692Y27756
X30692Y28756
X37385Y28756
X37385Y27756
X37385Y13992
X37385Y12992
X36893Y11417
X35893Y11417
X34893Y11417
X33893Y11417
X32893Y11417
X31893Y11417
X30692Y12992
X30692Y13992
X29055Y13109
X29055Y12109
X28055Y12109
X28055Y13109
X26149Y12127
X25149Y12127
X24149Y12127
X23149Y12127
X22149Y12127
X21149Y12127
X21341Y14862
X20357Y14862
X19357Y14862
X18357Y14862
X28119Y7905
X29119Y7905
T10
X27936Y22441
T11
X2070Y2618
X3448Y2618
X4826Y2618
X6204Y2618
X7582Y2618
X8960Y2618
X10337Y2610
X11715Y2610
X13093Y2610
X14471Y2610
X15849Y2610
X17227Y2610
X18999Y2610
X20377Y2610
X21755Y2610
X22030Y30807
X23408Y30807
X24786Y30807
X26164Y30807
X27542Y30807
X28920Y30807
X30298Y30807
X31676Y30807
X33054Y30807
X34432Y30807
X35810Y30807
X37188Y30807
T12
X20480Y31231
X18512Y31231
X16543Y31231
X15309Y31221
X13341Y31221
X11372Y31221
X10109Y31221
X8141Y31221
X6172Y31221
X6133Y29253
X7196Y29253
X9086Y29253
X10149Y29253
X11333Y29253
X12396Y29253
X14286Y29253
X15349Y29253
X16504Y29262
X17567Y29262
X19457Y29262
X20520Y29262
T13
X27110Y2299
X29984Y2299
T14
X24839Y7327
X24839Y26618
X3680Y30791
X1790Y29452
X2005Y26618
T15
X2005Y7327
T16
X3680Y28330
M30
