G75*
%MOIN*%
%OFA0B0*%
%FSLAX24Y24*%
%IPPOS*%
%LPD*%
%AMOC8*
5,1,8,0,0,1.08239X$1,22.5*
%
%ADD10C,0.1142*%
%ADD11C,0.1221*%
%ADD12C,0.0560*%
%ADD13OC8,0.0560*%
%ADD14C,0.0480*%
%ADD15OC8,0.0670*%
%ADD16OC8,0.1040*%
%ADD17R,0.0540X0.1040*%
%ADD18C,0.1540*%
%ADD19C,0.0516*%
%ADD20C,0.1040*%
%ADD21C,0.0926*%
%ADD22C,0.0631*%
%ADD23OC8,0.0520*%
%ADD24C,0.0520*%
%ADD25C,0.1700*%
%ADD26C,0.1542*%
%ADD27C,0.0640*%
%ADD28C,0.0600*%
%ADD29OC8,0.0600*%
%ADD30C,0.0880*%
%ADD31R,0.0827X0.0512*%
%ADD32C,0.0780*%
%ADD33R,0.0290X0.0540*%
%ADD34OC8,0.0700*%
%ADD35R,0.0434X0.0867*%
%ADD36R,0.1497X0.0867*%
%ADD37R,0.0257X0.0512*%
%ADD38R,0.0434X0.0473*%
%ADD39R,0.0473X0.0434*%
D10*
X024839Y007327D03*
X024839Y026618D03*
X002005Y026618D03*
D11*
X002005Y007327D03*
D12*
X007430Y015974D02*
X007430Y016494D01*
X008430Y016494D02*
X008430Y015974D01*
X009430Y015974D02*
X009430Y016494D01*
X010430Y016494D02*
X010430Y015974D01*
X011430Y015974D02*
X011430Y016494D01*
X012430Y016494D02*
X012430Y015974D01*
X013430Y015974D02*
X013430Y016494D01*
X014430Y016494D02*
X014430Y015974D01*
X015430Y015974D02*
X015430Y016494D01*
X016430Y016494D02*
X016430Y015974D01*
X017430Y015974D02*
X017430Y016494D01*
X018430Y016494D02*
X018430Y015974D01*
X019430Y015974D02*
X019430Y016494D01*
X020430Y016494D02*
X020430Y015974D01*
X020430Y018974D02*
X020430Y019494D01*
X019430Y019494D02*
X019430Y018974D01*
X018430Y018974D02*
X018430Y019494D01*
X017430Y019494D02*
X017430Y018974D01*
X016430Y018974D02*
X016430Y019494D01*
X015430Y019494D02*
X015430Y018974D01*
X014430Y018974D02*
X014430Y019494D01*
X013430Y019494D02*
X013430Y018974D01*
X012430Y018974D02*
X012430Y019494D01*
X011430Y019494D02*
X011430Y018974D01*
X010430Y018974D02*
X010430Y019494D01*
X009430Y019494D02*
X009430Y018974D01*
X008430Y018974D02*
X008430Y019494D01*
X007430Y019494D02*
X007430Y018974D01*
X019357Y008516D02*
X019357Y007996D01*
X020357Y007996D02*
X020357Y008516D01*
X021357Y008516D02*
X021357Y007996D01*
X021357Y004996D02*
X021357Y004476D01*
X020357Y004476D02*
X020357Y004996D01*
X019357Y004996D02*
X019357Y004476D01*
D13*
X023507Y004945D03*
X023507Y001945D03*
X028125Y006594D03*
X029125Y006594D03*
X026385Y008858D03*
X027075Y009982D03*
X027075Y010991D03*
X025396Y010180D03*
X024396Y010180D03*
X023385Y008858D03*
X021365Y009449D03*
X018365Y009449D03*
X030075Y009982D03*
X030075Y010991D03*
X031873Y013083D03*
X031873Y014083D03*
X031690Y017498D03*
X032690Y017498D03*
X033690Y017498D03*
X034690Y017498D03*
X034690Y020498D03*
X033690Y020498D03*
X032690Y020498D03*
X031690Y020498D03*
X031753Y021667D03*
X031751Y022638D03*
X031753Y023667D03*
X031753Y024667D03*
X034753Y024667D03*
X034753Y023667D03*
X034751Y022638D03*
X034753Y021667D03*
X036491Y022441D03*
X036991Y023191D03*
X037491Y022441D03*
X037491Y024409D03*
X036991Y025159D03*
X036491Y024409D03*
X036991Y026022D03*
X036491Y026772D03*
X037491Y026772D03*
X029223Y027165D03*
X028223Y027165D03*
X028223Y028445D03*
X029223Y028445D03*
X026664Y023720D03*
X025664Y023720D03*
X026680Y022638D03*
X023680Y022638D03*
X020225Y021809D03*
X019225Y021809D03*
X018225Y021809D03*
X015480Y021784D03*
X014480Y021784D03*
X013480Y021784D03*
X013361Y020276D03*
X014361Y020276D03*
X010680Y021784D03*
X009680Y021784D03*
X008680Y021784D03*
X005845Y021733D03*
X004877Y021733D03*
X003908Y021733D03*
X002936Y021750D03*
X005667Y019284D03*
X005667Y016284D03*
X006381Y014669D03*
X006381Y013669D03*
X006660Y011484D03*
X003660Y011484D03*
X003908Y024733D03*
X002936Y024750D03*
X004877Y024733D03*
X005845Y024733D03*
X008680Y024784D03*
X009680Y024784D03*
X010680Y024784D03*
X013480Y024784D03*
X014480Y024784D03*
X015480Y024784D03*
X018225Y024809D03*
X019225Y024809D03*
X020225Y024809D03*
D14*
X015934Y014696D02*
X015934Y014256D01*
X013934Y014256D02*
X013934Y014696D01*
D15*
X014180Y012734D03*
X013180Y012734D03*
X012180Y012734D03*
X015180Y012734D03*
D16*
X027936Y022441D03*
D17*
X027922Y021218D03*
X027135Y021218D03*
X026347Y021218D03*
X025560Y021218D03*
X024773Y021218D03*
X023985Y021218D03*
X023198Y021218D03*
X023198Y014918D03*
X023985Y014918D03*
X024773Y014918D03*
X025560Y014918D03*
X026347Y014918D03*
X027135Y014918D03*
X027922Y014918D03*
D18*
X027110Y002299D03*
X029984Y002299D03*
D19*
X028862Y003339D02*
X028862Y003815D01*
X028547Y004327D02*
X028547Y004802D01*
X027917Y004802D02*
X027917Y004327D01*
X028232Y003815D02*
X028232Y003339D01*
X029177Y004327D02*
X029177Y004802D01*
D20*
X018512Y031231D03*
X013341Y031221D03*
X008141Y031221D03*
D21*
X009086Y029253D03*
X010149Y029253D03*
X011333Y029253D03*
X012396Y029253D03*
X014286Y029253D03*
X015349Y029253D03*
X016504Y029262D03*
X017567Y029262D03*
X019457Y029262D03*
X020520Y029262D03*
X007196Y029253D03*
X006133Y029253D03*
D22*
X006172Y031221D03*
X010109Y031221D03*
X011372Y031221D03*
X015309Y031221D03*
X016543Y031231D03*
X020480Y031231D03*
D23*
X016850Y022959D03*
X012100Y022959D03*
X007267Y023885D03*
X007267Y021943D03*
X003864Y013160D03*
X002781Y013182D03*
D24*
X002081Y013182D03*
X004564Y013160D03*
X007267Y022643D03*
X007267Y024585D03*
X012100Y023659D03*
X016850Y023659D03*
D25*
X003680Y028330D03*
D26*
X001790Y029452D03*
X003680Y030791D03*
D27*
X003480Y015084D02*
X003480Y014484D01*
X002480Y014484D02*
X002480Y015084D01*
X004480Y015084D02*
X004480Y014484D01*
X021149Y012427D02*
X021149Y011827D01*
X022149Y011827D02*
X022149Y012427D01*
X023149Y012427D02*
X023149Y011827D01*
X024149Y011827D02*
X024149Y012427D01*
X025149Y012427D02*
X025149Y011827D01*
X026149Y011827D02*
X026149Y012427D01*
X031893Y011717D02*
X031893Y011117D01*
X032893Y011117D02*
X032893Y011717D01*
X033893Y011717D02*
X033893Y011117D01*
X034893Y011117D02*
X034893Y011717D01*
X035893Y011717D02*
X035893Y011117D01*
X036893Y011117D02*
X036893Y011717D01*
D28*
X018902Y027118D03*
D29*
X018902Y026118D03*
X019902Y026118D03*
X020902Y026118D03*
X020902Y027118D03*
X019902Y027118D03*
X021902Y027118D03*
X022902Y027118D03*
X022902Y026118D03*
X021902Y026118D03*
D30*
X002070Y003038D02*
X002070Y002198D01*
X003448Y002198D02*
X003448Y003038D01*
X004826Y003038D02*
X004826Y002198D01*
X006204Y002198D02*
X006204Y003038D01*
X007582Y003038D02*
X007582Y002198D01*
X008960Y002198D02*
X008960Y003038D01*
X010337Y003030D02*
X010337Y002190D01*
X011715Y002190D02*
X011715Y003030D01*
X013093Y003030D02*
X013093Y002190D01*
X014471Y002190D02*
X014471Y003030D01*
X015849Y003030D02*
X015849Y002190D01*
X017227Y002190D02*
X017227Y003030D01*
X018999Y003030D02*
X018999Y002190D01*
X020377Y002190D02*
X020377Y003030D01*
X021755Y003030D02*
X021755Y002190D01*
X022030Y030387D02*
X022030Y031227D01*
X023408Y031227D02*
X023408Y030387D01*
X024786Y030387D02*
X024786Y031227D01*
X026164Y031227D02*
X026164Y030387D01*
X027542Y030387D02*
X027542Y031227D01*
X028920Y031227D02*
X028920Y030387D01*
X030298Y030387D02*
X030298Y031227D01*
X031676Y031227D02*
X031676Y030387D01*
X033054Y030387D02*
X033054Y031227D01*
X034432Y031227D02*
X034432Y030387D01*
X035810Y030387D02*
X035810Y031227D01*
X037188Y031227D02*
X037188Y030387D01*
D31*
X037582Y009843D03*
X037582Y009055D03*
X037582Y008268D03*
X037582Y007480D03*
X037582Y006693D03*
X037582Y005906D03*
X037582Y005118D03*
X037582Y004331D03*
X031204Y004331D03*
X031204Y005118D03*
X031204Y005906D03*
X031204Y006693D03*
X031204Y007480D03*
X031204Y008268D03*
X031204Y009055D03*
X031204Y009843D03*
D32*
X029119Y007905D03*
X028119Y007905D03*
X028055Y012109D03*
X029055Y012109D03*
X029055Y013109D03*
X028055Y013109D03*
X030692Y012992D03*
X030692Y013992D03*
X037385Y013992D03*
X037385Y012992D03*
X021341Y014862D03*
X020357Y014862D03*
X019357Y014862D03*
X018357Y014862D03*
X030692Y027756D03*
X030692Y028756D03*
X037385Y028756D03*
X037385Y027756D03*
D33*
X021420Y022047D03*
X021066Y022047D03*
X030057Y009007D03*
X030411Y009007D03*
X037674Y011407D03*
X038029Y011407D03*
D34*
X025582Y001969D03*
X024582Y001969D03*
D35*
X003186Y016364D03*
X002280Y016364D03*
X001374Y016364D03*
D36*
X002280Y018805D03*
D37*
X004006Y018396D03*
X004754Y018396D03*
X004754Y017372D03*
X004380Y017372D03*
X004006Y017372D03*
D38*
X004045Y016684D03*
X004715Y016684D03*
D39*
X004715Y019084D03*
X004045Y019084D03*
M02*
