%
M48
M72
T01C0.0197
T02C0.0236
T03C0.0276
T04C0.0280
T05C0.0320
T06C0.0400
T07C0.0560
T08C0.0787
T09C0.1102
T10C0.1181
%
T01
X6086Y9788
X4800Y11953
X6326Y13252
X12212Y17542
X12452Y15007
X16322Y6552
X15141Y2221
T02
X12420Y4033
X3900Y12253
T03
X6670Y4327
X6985Y3815
X7300Y4327
X7615Y3815
X7930Y4327
T04
X4603Y4884
X3903Y4884
X2743Y4884
X2043Y4884
T05
X1260Y1673
X1260Y2673
X10087Y9700
X11280Y9613
X11280Y8593
X11280Y7573
X11273Y6564
X11273Y5544
X14273Y5544
X14273Y6564
X14280Y7573
X14280Y8593
X14280Y9613
X14273Y10644
X14273Y11664
X14273Y12684
X15933Y12804
X16433Y13554
X16933Y12804
X16433Y11634
X16933Y10884
X15933Y10884
X16433Y14454
X16933Y15204
X15933Y15204
X11273Y12684
X11273Y11664
X11273Y10644
X10087Y12700
X10113Y14244
X10113Y15324
X11113Y15324
X11113Y14244
X8993Y17664
X5993Y17664
T06
X6040Y16393
X7040Y16393
X8040Y16393
X10224Y16536
X10224Y17536
X5040Y16393
X4040Y16393
X3040Y16393
X1260Y14533
X1260Y13533
X1260Y12253
X1260Y11253
X1260Y10013
X1260Y9013
X10224Y2772
X10224Y1772
X16917Y1772
X16917Y2772
X16917Y16536
X16917Y17536
T07
X16715Y19741
X15337Y19741
X13960Y19741
X12582Y19741
X11204Y19741
X9826Y19741
X8448Y19741
X7070Y19741
X5692Y19741
X4314Y19741
X2936Y19741
X1558Y19741
T08
X5863Y2299
X8737Y2299
T09
X1361Y6946
X1361Y16788
X13566Y16788
T10
X13566Y2221
M30
