G75*
%MOIN*%
%OFA0B0*%
%FSLAX24Y24*%
%IPPOS*%
%LPD*%
%AMOC8*
5,1,8,0,0,1.08239X$1,22.5*
%
%ADD10C,0.0000*%
%ADD11C,0.1500*%
%ADD12C,0.0476*%
%ADD13OC8,0.0520*%
%ADD14C,0.0840*%
%ADD15OC8,0.0480*%
%ADD16C,0.0480*%
%ADD17R,0.0787X0.0472*%
%ADD18C,0.0600*%
%ADD19C,0.0740*%
%ADD20R,0.0394X0.0827*%
%ADD21R,0.1457X0.0827*%
%ADD22C,0.0220*%
%ADD23C,0.0160*%
%ADD24C,0.0357*%
%ADD25C,0.0396*%
%ADD26C,0.0120*%
D10*
X000180Y000253D02*
X017897Y000253D01*
X017897Y021513D01*
X000180Y021513D01*
X000180Y000253D01*
X000810Y006946D02*
X000812Y006993D01*
X000818Y007039D01*
X000828Y007085D01*
X000841Y007130D01*
X000859Y007173D01*
X000880Y007215D01*
X000904Y007255D01*
X000932Y007292D01*
X000963Y007327D01*
X000997Y007360D01*
X001033Y007389D01*
X001072Y007415D01*
X001113Y007438D01*
X001156Y007457D01*
X001200Y007473D01*
X001245Y007485D01*
X001291Y007493D01*
X001338Y007497D01*
X001384Y007497D01*
X001431Y007493D01*
X001477Y007485D01*
X001522Y007473D01*
X001566Y007457D01*
X001609Y007438D01*
X001650Y007415D01*
X001689Y007389D01*
X001725Y007360D01*
X001759Y007327D01*
X001790Y007292D01*
X001818Y007255D01*
X001842Y007215D01*
X001863Y007173D01*
X001881Y007130D01*
X001894Y007085D01*
X001904Y007039D01*
X001910Y006993D01*
X001912Y006946D01*
X001910Y006899D01*
X001904Y006853D01*
X001894Y006807D01*
X001881Y006762D01*
X001863Y006719D01*
X001842Y006677D01*
X001818Y006637D01*
X001790Y006600D01*
X001759Y006565D01*
X001725Y006532D01*
X001689Y006503D01*
X001650Y006477D01*
X001609Y006454D01*
X001566Y006435D01*
X001522Y006419D01*
X001477Y006407D01*
X001431Y006399D01*
X001384Y006395D01*
X001338Y006395D01*
X001291Y006399D01*
X001245Y006407D01*
X001200Y006419D01*
X001156Y006435D01*
X001113Y006454D01*
X001072Y006477D01*
X001033Y006503D01*
X000997Y006532D01*
X000963Y006565D01*
X000932Y006600D01*
X000904Y006637D01*
X000880Y006677D01*
X000859Y006719D01*
X000841Y006762D01*
X000828Y006807D01*
X000818Y006853D01*
X000812Y006899D01*
X000810Y006946D01*
X000810Y016788D02*
X000812Y016835D01*
X000818Y016881D01*
X000828Y016927D01*
X000841Y016972D01*
X000859Y017015D01*
X000880Y017057D01*
X000904Y017097D01*
X000932Y017134D01*
X000963Y017169D01*
X000997Y017202D01*
X001033Y017231D01*
X001072Y017257D01*
X001113Y017280D01*
X001156Y017299D01*
X001200Y017315D01*
X001245Y017327D01*
X001291Y017335D01*
X001338Y017339D01*
X001384Y017339D01*
X001431Y017335D01*
X001477Y017327D01*
X001522Y017315D01*
X001566Y017299D01*
X001609Y017280D01*
X001650Y017257D01*
X001689Y017231D01*
X001725Y017202D01*
X001759Y017169D01*
X001790Y017134D01*
X001818Y017097D01*
X001842Y017057D01*
X001863Y017015D01*
X001881Y016972D01*
X001894Y016927D01*
X001904Y016881D01*
X001910Y016835D01*
X001912Y016788D01*
X001910Y016741D01*
X001904Y016695D01*
X001894Y016649D01*
X001881Y016604D01*
X001863Y016561D01*
X001842Y016519D01*
X001818Y016479D01*
X001790Y016442D01*
X001759Y016407D01*
X001725Y016374D01*
X001689Y016345D01*
X001650Y016319D01*
X001609Y016296D01*
X001566Y016277D01*
X001522Y016261D01*
X001477Y016249D01*
X001431Y016241D01*
X001384Y016237D01*
X001338Y016237D01*
X001291Y016241D01*
X001245Y016249D01*
X001200Y016261D01*
X001156Y016277D01*
X001113Y016296D01*
X001072Y016319D01*
X001033Y016345D01*
X000997Y016374D01*
X000963Y016407D01*
X000932Y016442D01*
X000904Y016479D01*
X000880Y016519D01*
X000859Y016561D01*
X000841Y016604D01*
X000828Y016649D01*
X000818Y016695D01*
X000812Y016741D01*
X000810Y016788D01*
X013015Y016788D02*
X013017Y016835D01*
X013023Y016881D01*
X013033Y016927D01*
X013046Y016972D01*
X013064Y017015D01*
X013085Y017057D01*
X013109Y017097D01*
X013137Y017134D01*
X013168Y017169D01*
X013202Y017202D01*
X013238Y017231D01*
X013277Y017257D01*
X013318Y017280D01*
X013361Y017299D01*
X013405Y017315D01*
X013450Y017327D01*
X013496Y017335D01*
X013543Y017339D01*
X013589Y017339D01*
X013636Y017335D01*
X013682Y017327D01*
X013727Y017315D01*
X013771Y017299D01*
X013814Y017280D01*
X013855Y017257D01*
X013894Y017231D01*
X013930Y017202D01*
X013964Y017169D01*
X013995Y017134D01*
X014023Y017097D01*
X014047Y017057D01*
X014068Y017015D01*
X014086Y016972D01*
X014099Y016927D01*
X014109Y016881D01*
X014115Y016835D01*
X014117Y016788D01*
X014115Y016741D01*
X014109Y016695D01*
X014099Y016649D01*
X014086Y016604D01*
X014068Y016561D01*
X014047Y016519D01*
X014023Y016479D01*
X013995Y016442D01*
X013964Y016407D01*
X013930Y016374D01*
X013894Y016345D01*
X013855Y016319D01*
X013814Y016296D01*
X013771Y016277D01*
X013727Y016261D01*
X013682Y016249D01*
X013636Y016241D01*
X013589Y016237D01*
X013543Y016237D01*
X013496Y016241D01*
X013450Y016249D01*
X013405Y016261D01*
X013361Y016277D01*
X013318Y016296D01*
X013277Y016319D01*
X013238Y016345D01*
X013202Y016374D01*
X013168Y016407D01*
X013137Y016442D01*
X013109Y016479D01*
X013085Y016519D01*
X013064Y016561D01*
X013046Y016604D01*
X013033Y016649D01*
X013023Y016695D01*
X013017Y016741D01*
X013015Y016788D01*
X012975Y002221D02*
X012977Y002269D01*
X012983Y002317D01*
X012993Y002364D01*
X013006Y002410D01*
X013024Y002455D01*
X013044Y002499D01*
X013069Y002541D01*
X013097Y002580D01*
X013127Y002617D01*
X013161Y002651D01*
X013198Y002683D01*
X013236Y002712D01*
X013277Y002737D01*
X013320Y002759D01*
X013365Y002777D01*
X013411Y002791D01*
X013458Y002802D01*
X013506Y002809D01*
X013554Y002812D01*
X013602Y002811D01*
X013650Y002806D01*
X013698Y002797D01*
X013744Y002785D01*
X013789Y002768D01*
X013833Y002748D01*
X013875Y002725D01*
X013915Y002698D01*
X013953Y002668D01*
X013988Y002635D01*
X014020Y002599D01*
X014050Y002561D01*
X014076Y002520D01*
X014098Y002477D01*
X014118Y002433D01*
X014133Y002388D01*
X014145Y002341D01*
X014153Y002293D01*
X014157Y002245D01*
X014157Y002197D01*
X014153Y002149D01*
X014145Y002101D01*
X014133Y002054D01*
X014118Y002009D01*
X014098Y001965D01*
X014076Y001922D01*
X014050Y001881D01*
X014020Y001843D01*
X013988Y001807D01*
X013953Y001774D01*
X013915Y001744D01*
X013875Y001717D01*
X013833Y001694D01*
X013789Y001674D01*
X013744Y001657D01*
X013698Y001645D01*
X013650Y001636D01*
X013602Y001631D01*
X013554Y001630D01*
X013506Y001633D01*
X013458Y001640D01*
X013411Y001651D01*
X013365Y001665D01*
X013320Y001683D01*
X013277Y001705D01*
X013236Y001730D01*
X013198Y001759D01*
X013161Y001791D01*
X013127Y001825D01*
X013097Y001862D01*
X013069Y001901D01*
X013044Y001943D01*
X013024Y001987D01*
X013006Y002032D01*
X012993Y002078D01*
X012983Y002125D01*
X012977Y002173D01*
X012975Y002221D01*
D11*
X008737Y002299D03*
X005863Y002299D03*
D12*
X006985Y003339D02*
X006985Y003815D01*
X007300Y004327D02*
X007300Y004802D01*
X007930Y004802D02*
X007930Y004327D01*
X007615Y003815D02*
X007615Y003339D01*
X006670Y004327D02*
X006670Y004802D01*
D13*
X010087Y009700D03*
X011280Y009613D03*
X011280Y008593D03*
X011280Y007573D03*
X011273Y006564D03*
X011273Y005544D03*
X014273Y005544D03*
X014273Y006564D03*
X014280Y007573D03*
X014280Y008593D03*
X014280Y009613D03*
X014273Y010644D03*
X014273Y011664D03*
X014273Y012684D03*
X015933Y012804D03*
X016433Y013554D03*
X016933Y012804D03*
X016433Y011634D03*
X016933Y010884D03*
X015933Y010884D03*
X016433Y014454D03*
X016933Y015204D03*
X015933Y015204D03*
X011273Y012684D03*
X011273Y011664D03*
X011273Y010644D03*
X010087Y012700D03*
X010113Y014244D03*
X010113Y015324D03*
X011113Y015324D03*
X011113Y014244D03*
X008993Y017664D03*
X005993Y017664D03*
X001260Y002673D03*
X001260Y001673D03*
D14*
X001558Y019321D02*
X001558Y020161D01*
X002936Y020161D02*
X002936Y019321D01*
X004314Y019321D02*
X004314Y020161D01*
X005692Y020161D02*
X005692Y019321D01*
X007070Y019321D02*
X007070Y020161D01*
X008448Y020161D02*
X008448Y019321D01*
X009826Y019321D02*
X009826Y020161D01*
X011204Y020161D02*
X011204Y019321D01*
X012582Y019321D02*
X012582Y020161D01*
X013960Y020161D02*
X013960Y019321D01*
X015337Y019321D02*
X015337Y020161D01*
X016715Y020161D02*
X016715Y019321D01*
D15*
X003903Y004884D03*
X002743Y004884D03*
D16*
X002043Y004884D03*
X004603Y004884D03*
D17*
X002516Y009071D03*
X002516Y009858D03*
X002516Y010646D03*
X002516Y011433D03*
X002516Y012220D03*
X002516Y013008D03*
X002516Y013795D03*
X002516Y014583D03*
X008894Y014583D03*
X008894Y013795D03*
X008894Y013008D03*
X008894Y012220D03*
X008894Y011433D03*
X008894Y010646D03*
X008894Y009858D03*
X008894Y009071D03*
D18*
X008040Y016093D02*
X008040Y016693D01*
X007040Y016693D02*
X007040Y016093D01*
X006040Y016093D02*
X006040Y016693D01*
X005040Y016693D02*
X005040Y016093D01*
X004040Y016093D02*
X004040Y016693D01*
X003040Y016693D02*
X003040Y016093D01*
D19*
X001260Y014533D03*
X001260Y013533D03*
X001260Y012253D03*
X001260Y011253D03*
X001260Y010013D03*
X001260Y009013D03*
X010224Y002772D03*
X010224Y001772D03*
X016917Y001772D03*
X016917Y002772D03*
X016917Y016536D03*
X016917Y017536D03*
X010224Y017536D03*
X010224Y016536D03*
D20*
X004198Y003365D03*
X003293Y003365D03*
X002387Y003365D03*
D21*
X003293Y000924D03*
D22*
X011273Y005544D02*
X011273Y006564D01*
X011280Y007573D01*
D23*
X011280Y008013D01*
X011098Y008013D01*
X010840Y007755D01*
X010840Y007573D01*
X011280Y007573D01*
X011280Y007573D01*
X011280Y008013D01*
X011462Y008013D01*
X011720Y007755D01*
X011720Y007573D01*
X011280Y007573D01*
X011280Y007573D01*
X011280Y007573D01*
X011720Y007573D01*
X011720Y007391D01*
X011462Y007133D01*
X011280Y007133D01*
X011280Y007573D01*
X010840Y007573D01*
X010840Y007391D01*
X011098Y007133D01*
X011280Y007133D01*
X011280Y007573D01*
X011280Y007573D01*
X011280Y007544D02*
X011280Y007544D01*
X011280Y007702D02*
X011280Y007702D01*
X011280Y007861D02*
X011280Y007861D01*
X011098Y008153D02*
X011462Y008153D01*
X011720Y008411D01*
X011720Y008775D01*
X011462Y009033D01*
X011098Y009033D01*
X010840Y008775D01*
X010840Y008411D01*
X011098Y008153D01*
X011073Y008178D02*
X008841Y008178D01*
X008841Y008336D02*
X010914Y008336D01*
X010840Y008495D02*
X008841Y008495D01*
X008841Y008520D02*
X003295Y008520D01*
X005160Y010386D01*
X008320Y010386D01*
X008320Y010335D01*
X008403Y010252D01*
X008320Y010169D01*
X008320Y009547D01*
X008403Y009464D01*
X008320Y009381D01*
X008320Y008760D01*
X008426Y008654D01*
X009362Y008654D01*
X009468Y008760D01*
X009468Y009193D01*
X009714Y009440D01*
X009724Y009440D01*
X009904Y009260D01*
X010269Y009260D01*
X010527Y009517D01*
X010527Y009882D01*
X010269Y010140D01*
X009904Y010140D01*
X009724Y009960D01*
X009555Y009960D01*
X009468Y009923D01*
X009468Y010169D01*
X009385Y010252D01*
X009468Y010335D01*
X009468Y010411D01*
X009501Y010425D01*
X009574Y010498D01*
X010307Y011231D01*
X010347Y011327D01*
X010347Y012337D01*
X010527Y012517D01*
X010527Y012882D01*
X010269Y013140D01*
X009954Y013140D01*
X010008Y013193D01*
X010773Y013193D01*
X010868Y013232D01*
X010942Y013305D01*
X010942Y013305D01*
X011313Y013677D01*
X011353Y013773D01*
X011353Y013862D01*
X011553Y014062D01*
X011553Y014427D01*
X011373Y014607D01*
X011373Y014962D01*
X011553Y015142D01*
X011553Y015507D01*
X011472Y015587D01*
X011466Y018780D01*
X011543Y018812D01*
X011712Y018981D01*
X011804Y019202D01*
X011804Y020280D01*
X011712Y020501D01*
X011689Y020524D01*
X012096Y020524D01*
X012073Y020501D01*
X011982Y020280D01*
X011982Y019202D01*
X012073Y018981D01*
X012242Y018812D01*
X012462Y018721D01*
X012701Y018721D01*
X012921Y018812D01*
X013090Y018981D01*
X013182Y019202D01*
X013182Y020280D01*
X013090Y020501D01*
X012921Y020670D01*
X012701Y020761D01*
X012624Y020761D01*
X012380Y021005D01*
X012312Y021033D01*
X017417Y021033D01*
X017417Y017768D01*
X017384Y017847D01*
X017229Y018002D01*
X017027Y018086D01*
X016808Y018086D01*
X016606Y018002D01*
X016451Y017847D01*
X016379Y017674D01*
X015602Y017674D01*
X015600Y018780D01*
X015677Y018812D01*
X015846Y018981D01*
X015937Y019202D01*
X015937Y020280D01*
X015846Y020501D01*
X015677Y020670D01*
X015457Y020761D01*
X015218Y020761D01*
X014998Y020670D01*
X014829Y020501D01*
X014737Y020280D01*
X014737Y019202D01*
X014829Y018981D01*
X014998Y018812D01*
X015080Y018778D01*
X015082Y017522D01*
X014892Y017332D01*
X014853Y017236D01*
X014853Y015312D01*
X012545Y013004D01*
X011575Y013004D01*
X011455Y013124D01*
X011090Y013124D01*
X010833Y012867D01*
X010833Y012502D01*
X011013Y012322D01*
X011013Y012027D01*
X010833Y011847D01*
X010833Y011482D01*
X011017Y011298D01*
X011015Y011009D01*
X010833Y010827D01*
X010833Y010462D01*
X011090Y010204D01*
X011455Y010204D01*
X011713Y010462D01*
X011713Y010827D01*
X011535Y011004D01*
X011537Y011306D01*
X011713Y011482D01*
X011713Y011847D01*
X011541Y012018D01*
X011543Y012332D01*
X011695Y012484D01*
X012704Y012484D01*
X012800Y012524D01*
X015260Y014984D01*
X015333Y015057D01*
X015373Y015153D01*
X015373Y017077D01*
X015450Y017154D01*
X016521Y017154D01*
X016606Y017070D01*
X016657Y017048D01*
X016657Y017024D01*
X016606Y017002D01*
X016451Y016847D01*
X016367Y016645D01*
X016367Y016427D01*
X016451Y016224D01*
X016606Y016070D01*
X016808Y015986D01*
X017027Y015986D01*
X017229Y016070D01*
X017384Y016224D01*
X017417Y016304D01*
X017417Y015128D01*
X017373Y015172D01*
X017373Y015387D01*
X017115Y015644D01*
X016750Y015644D01*
X016493Y015387D01*
X016493Y015022D01*
X016750Y014764D01*
X017045Y014764D01*
X017073Y014737D01*
X017073Y014112D01*
X016805Y013844D01*
X016765Y013844D01*
X016615Y013994D01*
X016250Y013994D01*
X015993Y013737D01*
X015993Y013372D01*
X016250Y013114D01*
X016615Y013114D01*
X016825Y013324D01*
X016964Y013324D01*
X017060Y013364D01*
X017133Y013437D01*
X017417Y013720D01*
X017417Y003004D01*
X017384Y003084D01*
X017229Y003238D01*
X017027Y003322D01*
X016808Y003322D01*
X016759Y003302D01*
X015880Y004180D01*
X015807Y004253D01*
X015712Y004293D01*
X012695Y004293D01*
X012634Y004353D01*
X012495Y004411D01*
X012345Y004411D01*
X012206Y004353D01*
X012145Y004293D01*
X009952Y004293D01*
X008540Y005705D01*
X008444Y005744D01*
X007141Y005744D01*
X007045Y005705D01*
X006972Y005632D01*
X006543Y005202D01*
X006433Y005157D01*
X006421Y005144D01*
X004937Y005144D01*
X004841Y005240D01*
X004686Y005304D01*
X004519Y005304D01*
X004365Y005240D01*
X004253Y005128D01*
X004077Y005304D01*
X003903Y005304D01*
X003903Y004884D01*
X003903Y004464D01*
X004077Y004464D01*
X004253Y004640D01*
X004343Y004550D01*
X004343Y003958D01*
X003927Y003958D01*
X003821Y003853D01*
X003821Y002877D01*
X003927Y002771D01*
X004470Y002771D01*
X004575Y002877D01*
X004575Y003374D01*
X004750Y003549D01*
X004823Y003622D01*
X004863Y003717D01*
X004863Y004550D01*
X004937Y004624D01*
X006252Y004624D01*
X006252Y004244D01*
X006316Y004090D01*
X006433Y003973D01*
X006574Y003914D01*
X006567Y003898D01*
X006567Y003256D01*
X006631Y003103D01*
X006748Y002985D01*
X006902Y002922D01*
X007068Y002922D01*
X007221Y002985D01*
X007300Y003063D01*
X007378Y002985D01*
X007532Y002922D01*
X007698Y002922D01*
X007851Y002985D01*
X007969Y003103D01*
X008032Y003256D01*
X008032Y003898D01*
X009611Y003898D01*
X009624Y003885D02*
X009697Y003812D01*
X009792Y003773D01*
X012145Y003773D01*
X012206Y003712D01*
X012345Y003655D01*
X012495Y003655D01*
X012634Y003712D01*
X012695Y003773D01*
X015552Y003773D01*
X016390Y002935D01*
X016367Y002882D01*
X016367Y002663D01*
X016451Y002461D01*
X016606Y002306D01*
X016657Y002285D01*
X016657Y002260D01*
X016606Y002238D01*
X016451Y002084D01*
X016367Y001882D01*
X016367Y001663D01*
X016451Y001461D01*
X016606Y001306D01*
X016808Y001222D01*
X017027Y001222D01*
X017229Y001306D01*
X017384Y001461D01*
X017417Y001540D01*
X017417Y000733D01*
X004201Y000733D01*
X004201Y001412D01*
X004096Y001517D01*
X002490Y001517D01*
X002384Y001412D01*
X002384Y000733D01*
X000660Y000733D01*
X000660Y005765D01*
X001783Y005765D01*
X001783Y005218D01*
X001687Y005122D01*
X001623Y004968D01*
X001623Y004801D01*
X001687Y004646D01*
X001783Y004550D01*
X001783Y003657D01*
X001811Y003588D01*
X001805Y003585D01*
X001332Y003113D01*
X001078Y003113D01*
X000820Y002855D01*
X000820Y002491D01*
X001078Y002233D01*
X001442Y002233D01*
X001700Y002491D01*
X001700Y002745D01*
X002010Y003055D01*
X002010Y002877D01*
X002116Y002771D01*
X002658Y002771D01*
X002764Y002877D01*
X002764Y003853D01*
X002658Y003958D01*
X002303Y003958D01*
X002303Y004550D01*
X002393Y004640D01*
X002569Y004464D01*
X002743Y004464D01*
X002917Y004464D01*
X003163Y004710D01*
X003163Y004884D01*
X002743Y004884D01*
X002743Y004884D01*
X002743Y004464D01*
X002743Y004884D01*
X002743Y004884D01*
X003163Y004884D01*
X003163Y005058D01*
X002917Y005304D01*
X002743Y005304D01*
X002743Y004884D01*
X002743Y005186D01*
X002743Y005166D02*
X002743Y005166D01*
X002743Y005304D02*
X002569Y005304D01*
X002393Y005128D01*
X002303Y005218D01*
X002303Y005728D01*
X002340Y005765D01*
X008841Y005765D01*
X008841Y008520D01*
X008894Y009071D02*
X008978Y009071D01*
X009607Y009700D01*
X010087Y009700D01*
X010455Y009446D02*
X010840Y009446D01*
X010840Y009431D02*
X011098Y009173D01*
X011462Y009173D01*
X011720Y009431D01*
X011720Y009795D01*
X011462Y010053D01*
X011098Y010053D01*
X010840Y009795D01*
X010840Y009431D01*
X010840Y009604D02*
X010527Y009604D01*
X010527Y009763D02*
X010840Y009763D01*
X010966Y009921D02*
X010487Y009921D01*
X010329Y010080D02*
X013293Y010080D01*
X013293Y010238D02*
X011489Y010238D01*
X011647Y010397D02*
X013293Y010397D01*
X013293Y010555D02*
X011713Y010555D01*
X011713Y010714D02*
X013293Y010714D01*
X013293Y010872D02*
X011667Y010872D01*
X011535Y011031D02*
X013293Y011031D01*
X013293Y011056D02*
X013293Y006933D01*
X013332Y006837D01*
X013405Y006764D01*
X013405Y006764D01*
X013752Y006417D01*
X013825Y006344D01*
X013903Y006312D01*
X014090Y006124D01*
X014455Y006124D01*
X014713Y006382D01*
X014713Y006747D01*
X014455Y007004D01*
X014090Y007004D01*
X013995Y006909D01*
X013813Y007092D01*
X013813Y009353D01*
X013918Y009353D01*
X014098Y009173D01*
X014462Y009173D01*
X014720Y009431D01*
X014720Y009795D01*
X014462Y010053D01*
X014098Y010053D01*
X013943Y009898D01*
X013813Y010028D01*
X013813Y010897D01*
X014140Y011224D01*
X014455Y011224D01*
X014713Y011482D01*
X014713Y011847D01*
X014455Y012104D01*
X014090Y012104D01*
X013833Y011847D01*
X013833Y011652D01*
X013405Y011225D01*
X013332Y011152D01*
X013293Y011056D01*
X013370Y011189D02*
X011536Y011189D01*
X011578Y011348D02*
X013528Y011348D01*
X013405Y011225D02*
X013405Y011225D01*
X013553Y011004D02*
X013553Y010033D01*
X013553Y009920D01*
X013860Y009613D01*
X014280Y009613D01*
X013966Y009921D02*
X013919Y009921D01*
X013813Y010080D02*
X015800Y010080D01*
X015642Y009921D02*
X014594Y009921D01*
X014720Y009763D02*
X015483Y009763D01*
X015325Y009604D02*
X014720Y009604D01*
X014720Y009446D02*
X015166Y009446D01*
X015008Y009287D02*
X014577Y009287D01*
X014462Y009033D02*
X014098Y009033D01*
X013840Y008775D01*
X013840Y008411D01*
X014098Y008153D01*
X014462Y008153D01*
X014642Y008333D01*
X014733Y008333D01*
X014828Y008372D01*
X016653Y010197D01*
X016693Y010293D01*
X016693Y010502D01*
X016750Y010444D01*
X016933Y010444D01*
X017115Y010444D01*
X017373Y010702D01*
X017373Y010884D01*
X016933Y010884D01*
X016933Y010884D01*
X016933Y010444D01*
X016933Y010884D01*
X016933Y010884D01*
X017373Y010884D01*
X017373Y011067D01*
X017115Y011324D01*
X016933Y011324D01*
X016933Y010884D01*
X016933Y012804D01*
X016933Y012804D01*
X017373Y012804D01*
X017373Y012622D01*
X017115Y012364D01*
X016933Y012364D01*
X016933Y012804D01*
X016933Y012804D01*
X017373Y012804D01*
X017373Y012987D01*
X017115Y013244D01*
X016933Y013244D01*
X016933Y012804D01*
X016933Y012364D01*
X016750Y012364D01*
X016493Y012622D01*
X016493Y012804D01*
X016933Y012804D01*
X016933Y012804D01*
X016933Y012804D01*
X016933Y013244D01*
X016750Y013244D01*
X016493Y012987D01*
X016493Y012804D01*
X016933Y012804D01*
X016933Y012774D02*
X016933Y012774D01*
X016933Y012616D02*
X016933Y012616D01*
X016933Y012457D02*
X016933Y012457D01*
X016657Y012457D02*
X016208Y012457D01*
X016115Y012364D02*
X016373Y012622D01*
X016373Y012987D01*
X016115Y013244D01*
X015750Y013244D01*
X015493Y012987D01*
X015493Y012622D01*
X015750Y012364D01*
X016115Y012364D01*
X016250Y012074D02*
X015993Y011817D01*
X015993Y011452D01*
X016173Y011272D01*
X016173Y011267D01*
X016115Y011324D01*
X015750Y011324D01*
X015695Y011269D01*
X015373Y011592D01*
X015373Y013177D01*
X016230Y014034D01*
X016250Y014014D01*
X016615Y014014D01*
X016873Y014272D01*
X016873Y014637D01*
X016615Y014894D01*
X016250Y014894D01*
X015993Y014637D01*
X015993Y014532D01*
X014965Y013505D01*
X014892Y013432D01*
X014853Y013336D01*
X014853Y011592D01*
X014345Y011084D01*
X014090Y011084D01*
X013833Y010827D01*
X013833Y010462D01*
X014090Y010204D01*
X014455Y010204D01*
X014713Y010462D01*
X014713Y010717D01*
X015113Y011117D01*
X015493Y010737D01*
X015493Y010702D01*
X015750Y010444D01*
X016115Y010444D01*
X016173Y010502D01*
X016173Y010452D01*
X014608Y008887D01*
X014462Y009033D01*
X014525Y008970D02*
X014691Y008970D01*
X014849Y009129D02*
X013813Y009129D01*
X013813Y009287D02*
X013983Y009287D01*
X014035Y008970D02*
X013813Y008970D01*
X013813Y008812D02*
X013877Y008812D01*
X013840Y008653D02*
X013813Y008653D01*
X013813Y008495D02*
X013840Y008495D01*
X013813Y008336D02*
X013914Y008336D01*
X013813Y008178D02*
X014073Y008178D01*
X014098Y008013D02*
X013840Y007755D01*
X013840Y007391D01*
X014098Y007133D01*
X014462Y007133D01*
X014720Y007391D01*
X014720Y007755D01*
X014462Y008013D01*
X014098Y008013D01*
X013946Y007861D02*
X013813Y007861D01*
X013813Y008019D02*
X017417Y008019D01*
X017417Y007861D02*
X014614Y007861D01*
X014720Y007702D02*
X017417Y007702D01*
X017417Y007544D02*
X014720Y007544D01*
X014715Y007385D02*
X017417Y007385D01*
X017417Y007227D02*
X014556Y007227D01*
X014549Y006910D02*
X017417Y006910D01*
X017417Y007068D02*
X013836Y007068D01*
X013813Y007227D02*
X014004Y007227D01*
X013845Y007385D02*
X013813Y007385D01*
X013813Y007544D02*
X013840Y007544D01*
X013840Y007702D02*
X013813Y007702D01*
X013293Y007702D02*
X011720Y007702D01*
X011720Y007544D02*
X013293Y007544D01*
X013293Y007385D02*
X011715Y007385D01*
X011556Y007227D02*
X013293Y007227D01*
X013293Y007068D02*
X008841Y007068D01*
X008841Y006910D02*
X010996Y006910D01*
X011090Y007004D02*
X010833Y006747D01*
X010833Y006564D01*
X010833Y006382D01*
X011090Y006124D01*
X011273Y006124D01*
X011455Y006124D01*
X011713Y006382D01*
X011713Y006564D01*
X011273Y006564D01*
X011273Y006564D01*
X011273Y006124D01*
X011273Y006564D01*
X011273Y006564D01*
X011713Y006564D01*
X011713Y006747D01*
X011455Y007004D01*
X011273Y007004D01*
X011273Y006564D01*
X011273Y006564D01*
X010833Y006564D01*
X011273Y006564D01*
X011273Y006564D01*
X011273Y007004D01*
X011090Y007004D01*
X011273Y006910D02*
X011273Y006910D01*
X011273Y006751D02*
X011273Y006751D01*
X011273Y006593D02*
X011273Y006593D01*
X011273Y006434D02*
X011273Y006434D01*
X011273Y006276D02*
X011273Y006276D01*
X011273Y005984D02*
X011090Y005984D01*
X010833Y005727D01*
X010833Y005544D01*
X010833Y005362D01*
X011090Y005104D01*
X011273Y005104D01*
X011455Y005104D01*
X011713Y005362D01*
X011713Y005544D01*
X011273Y005544D01*
X011273Y005544D01*
X011273Y005104D01*
X011273Y005544D01*
X011273Y005544D01*
X011713Y005544D01*
X011713Y005727D01*
X011455Y005984D01*
X011273Y005984D01*
X011273Y005544D01*
X011273Y005544D01*
X010833Y005544D01*
X011273Y005544D01*
X011273Y005544D01*
X011273Y005984D01*
X011273Y005959D02*
X011273Y005959D01*
X011273Y005800D02*
X011273Y005800D01*
X011273Y005642D02*
X011273Y005642D01*
X011273Y005483D02*
X011273Y005483D01*
X011273Y005325D02*
X011273Y005325D01*
X011273Y005166D02*
X011273Y005166D01*
X011517Y005166D02*
X014028Y005166D01*
X014090Y005104D02*
X014455Y005104D01*
X014713Y005362D01*
X014713Y005727D01*
X014455Y005984D01*
X014090Y005984D01*
X013833Y005727D01*
X013833Y005362D01*
X014090Y005104D01*
X013870Y005325D02*
X011675Y005325D01*
X011713Y005483D02*
X013833Y005483D01*
X013833Y005642D02*
X011713Y005642D01*
X011639Y005800D02*
X013906Y005800D01*
X014065Y005959D02*
X011480Y005959D01*
X011606Y006276D02*
X013939Y006276D01*
X013752Y006417D02*
X013752Y006417D01*
X013735Y006434D02*
X011713Y006434D01*
X011713Y006593D02*
X013576Y006593D01*
X013418Y006751D02*
X011708Y006751D01*
X011549Y006910D02*
X013302Y006910D01*
X013553Y006984D02*
X013553Y009920D01*
X013293Y009921D02*
X011594Y009921D01*
X011720Y009763D02*
X013293Y009763D01*
X013293Y009604D02*
X011720Y009604D01*
X011720Y009446D02*
X013293Y009446D01*
X013293Y009287D02*
X011577Y009287D01*
X011525Y008970D02*
X013293Y008970D01*
X013293Y008812D02*
X011683Y008812D01*
X011720Y008653D02*
X013293Y008653D01*
X013293Y008495D02*
X011720Y008495D01*
X011646Y008336D02*
X013293Y008336D01*
X013293Y008178D02*
X011487Y008178D01*
X011614Y007861D02*
X013293Y007861D01*
X013293Y008019D02*
X008841Y008019D01*
X008841Y007861D02*
X010946Y007861D01*
X010840Y007702D02*
X008841Y007702D01*
X008841Y007544D02*
X010840Y007544D01*
X010845Y007385D02*
X008841Y007385D01*
X008841Y007227D02*
X011004Y007227D01*
X011280Y007227D02*
X011280Y007227D01*
X011280Y007385D02*
X011280Y007385D01*
X010837Y006751D02*
X008841Y006751D01*
X008841Y006593D02*
X010833Y006593D01*
X010833Y006434D02*
X008841Y006434D01*
X008841Y006276D02*
X010939Y006276D01*
X011065Y005959D02*
X008841Y005959D01*
X008841Y006117D02*
X017417Y006117D01*
X017417Y005959D02*
X014480Y005959D01*
X014639Y005800D02*
X017417Y005800D01*
X017417Y005642D02*
X014713Y005642D01*
X014713Y005483D02*
X017417Y005483D01*
X017417Y005325D02*
X014675Y005325D01*
X014517Y005166D02*
X017417Y005166D01*
X017417Y005008D02*
X009237Y005008D01*
X009078Y005166D02*
X011028Y005166D01*
X010870Y005325D02*
X008920Y005325D01*
X008761Y005483D02*
X010833Y005483D01*
X010833Y005642D02*
X008603Y005642D01*
X008393Y005484D02*
X009844Y004033D01*
X012420Y004033D01*
X015660Y004033D01*
X016917Y002775D01*
X016917Y002772D01*
X016917Y001772D01*
X016522Y002155D02*
X014636Y002155D01*
X014636Y002080D02*
X014563Y001808D01*
X014422Y001564D01*
X014223Y001365D01*
X013979Y001224D01*
X013707Y001151D01*
X013425Y001151D01*
X013153Y001224D01*
X012908Y001365D01*
X012709Y001564D01*
X012568Y001808D01*
X012495Y002080D01*
X012495Y002362D01*
X012568Y002634D01*
X012709Y002879D01*
X012908Y003078D01*
X013153Y003219D01*
X013425Y003292D01*
X013707Y003292D01*
X013979Y003219D01*
X014223Y003078D01*
X014422Y002879D01*
X014563Y002634D01*
X014636Y002362D01*
X014636Y002080D01*
X014614Y001996D02*
X016415Y001996D01*
X016367Y001838D02*
X014571Y001838D01*
X014489Y001679D02*
X016367Y001679D01*
X016426Y001521D02*
X014379Y001521D01*
X014219Y001362D02*
X016549Y001362D01*
X017285Y001362D02*
X017417Y001362D01*
X017417Y001204D02*
X013905Y001204D01*
X013227Y001204D02*
X004201Y001204D01*
X004201Y001362D02*
X009856Y001362D01*
X009866Y001353D02*
X009936Y001302D01*
X010013Y001262D01*
X010096Y001236D01*
X010181Y001222D01*
X010204Y001222D01*
X010204Y001752D01*
X009674Y001752D01*
X009674Y001729D01*
X009688Y001643D01*
X009715Y001561D01*
X009754Y001484D01*
X009805Y001414D01*
X009866Y001353D01*
X009735Y001521D02*
X009273Y001521D01*
X009264Y001511D02*
X009525Y001772D01*
X009667Y002114D01*
X009667Y002484D01*
X009525Y002826D01*
X009264Y003088D01*
X008922Y003229D01*
X008552Y003229D01*
X008210Y003088D01*
X007948Y002826D01*
X007807Y002484D01*
X007807Y002114D01*
X007948Y001772D01*
X008210Y001511D01*
X008552Y001369D01*
X008922Y001369D01*
X009264Y001511D01*
X009432Y001679D02*
X009682Y001679D01*
X009674Y001792D02*
X010204Y001792D01*
X010204Y001752D01*
X010244Y001752D01*
X010244Y001222D01*
X010268Y001222D01*
X010353Y001236D01*
X010436Y001262D01*
X010513Y001302D01*
X010583Y001353D01*
X010644Y001414D01*
X010695Y001484D01*
X010734Y001561D01*
X010761Y001643D01*
X010774Y001729D01*
X010774Y001752D01*
X010244Y001752D01*
X010244Y001792D01*
X010204Y001792D01*
X010204Y002752D01*
X009674Y002752D01*
X009674Y002729D01*
X009688Y002643D01*
X009715Y002561D01*
X009754Y002484D01*
X009805Y002414D01*
X009866Y002353D01*
X009936Y002302D01*
X009994Y002272D01*
X009936Y002243D01*
X009866Y002192D01*
X009805Y002130D01*
X009754Y002060D01*
X009715Y001983D01*
X009688Y001901D01*
X009674Y001815D01*
X009674Y001792D01*
X009678Y001838D02*
X009552Y001838D01*
X009618Y001996D02*
X009721Y001996D01*
X009667Y002155D02*
X009829Y002155D01*
X009920Y002313D02*
X009667Y002313D01*
X009667Y002472D02*
X009763Y002472D01*
X009692Y002630D02*
X009606Y002630D01*
X009541Y002789D02*
X010204Y002789D01*
X010204Y002792D02*
X010204Y002752D01*
X010244Y002752D01*
X010244Y002222D01*
X010244Y001792D01*
X010774Y001792D01*
X010774Y001815D01*
X010761Y001901D01*
X010734Y001983D01*
X010695Y002060D01*
X010644Y002130D01*
X010583Y002192D01*
X010513Y002243D01*
X010455Y002272D01*
X010513Y002302D01*
X010583Y002353D01*
X010644Y002414D01*
X010695Y002484D01*
X010734Y002561D01*
X010761Y002643D01*
X010774Y002729D01*
X010774Y002752D01*
X010244Y002752D01*
X010244Y002792D01*
X010204Y002792D01*
X009674Y002792D01*
X009674Y002815D01*
X009688Y002901D01*
X009715Y002983D01*
X009754Y003060D01*
X009805Y003130D01*
X009866Y003192D01*
X009936Y003243D01*
X010013Y003282D01*
X010096Y003309D01*
X010181Y003322D01*
X010204Y003322D01*
X010204Y002792D01*
X010224Y002772D02*
X010224Y001772D01*
X010204Y001838D02*
X010244Y001838D01*
X010244Y001996D02*
X010204Y001996D01*
X010204Y002155D02*
X010244Y002155D01*
X010244Y002313D02*
X010204Y002313D01*
X010204Y002472D02*
X010244Y002472D01*
X010244Y002630D02*
X010204Y002630D01*
X010244Y002789D02*
X012657Y002789D01*
X012567Y002630D02*
X010757Y002630D01*
X010774Y002792D02*
X010774Y002815D01*
X010761Y002901D01*
X010734Y002983D01*
X010695Y003060D01*
X010644Y003130D01*
X010583Y003192D01*
X010513Y003243D01*
X010436Y003282D01*
X010353Y003309D01*
X010268Y003322D01*
X010244Y003322D01*
X010244Y002792D01*
X010774Y002792D01*
X010746Y002947D02*
X012778Y002947D01*
X012957Y003106D02*
X010662Y003106D01*
X010470Y003264D02*
X013322Y003264D01*
X013810Y003264D02*
X016061Y003264D01*
X016219Y003106D02*
X014175Y003106D01*
X014354Y002947D02*
X016378Y002947D01*
X016367Y002789D02*
X014474Y002789D01*
X014565Y002630D02*
X016381Y002630D01*
X016446Y002472D02*
X014607Y002472D01*
X014636Y002313D02*
X016598Y002313D01*
X017362Y003106D02*
X017417Y003106D01*
X017417Y003264D02*
X017166Y003264D01*
X017417Y003423D02*
X016638Y003423D01*
X016479Y003581D02*
X017417Y003581D01*
X017417Y003740D02*
X016321Y003740D01*
X016162Y003898D02*
X017417Y003898D01*
X017417Y004057D02*
X016004Y004057D01*
X015845Y004215D02*
X017417Y004215D01*
X017417Y004374D02*
X012585Y004374D01*
X012255Y004374D02*
X009871Y004374D01*
X009712Y004532D02*
X017417Y004532D01*
X017417Y004691D02*
X009554Y004691D01*
X009395Y004849D02*
X017417Y004849D01*
X017417Y006276D02*
X014606Y006276D01*
X014713Y006434D02*
X017417Y006434D01*
X017417Y006593D02*
X014713Y006593D01*
X014708Y006751D02*
X017417Y006751D01*
X017417Y008178D02*
X014487Y008178D01*
X014741Y008336D02*
X017417Y008336D01*
X017417Y008495D02*
X014951Y008495D01*
X015109Y008653D02*
X017417Y008653D01*
X017417Y008812D02*
X015268Y008812D01*
X015426Y008970D02*
X017417Y008970D01*
X017417Y009129D02*
X015585Y009129D01*
X015743Y009287D02*
X017417Y009287D01*
X017417Y009446D02*
X015902Y009446D01*
X016060Y009604D02*
X017417Y009604D01*
X017417Y009763D02*
X016219Y009763D01*
X016377Y009921D02*
X017417Y009921D01*
X017417Y010080D02*
X016536Y010080D01*
X016670Y010238D02*
X017417Y010238D01*
X017417Y010397D02*
X016693Y010397D01*
X016933Y010555D02*
X016933Y010555D01*
X016933Y010714D02*
X016933Y010714D01*
X016933Y010872D02*
X016933Y010872D01*
X016933Y010884D02*
X016933Y011324D01*
X016750Y011324D01*
X016693Y011267D01*
X016693Y011272D01*
X016873Y011452D01*
X016873Y011817D01*
X016615Y012074D01*
X016250Y012074D01*
X016158Y011982D02*
X015373Y011982D01*
X015373Y012140D02*
X017417Y012140D01*
X017417Y011982D02*
X016707Y011982D01*
X016866Y011823D02*
X017417Y011823D01*
X017417Y011665D02*
X016873Y011665D01*
X016873Y011506D02*
X017417Y011506D01*
X017417Y011348D02*
X016768Y011348D01*
X016933Y011189D02*
X016933Y011189D01*
X016933Y011031D02*
X016933Y011031D01*
X016933Y010884D02*
X016933Y010884D01*
X017250Y011189D02*
X017417Y011189D01*
X017417Y011031D02*
X017373Y011031D01*
X017373Y010872D02*
X017417Y010872D01*
X017417Y010714D02*
X017373Y010714D01*
X017417Y010555D02*
X017226Y010555D01*
X016433Y010344D02*
X016433Y011634D01*
X016097Y011348D02*
X015617Y011348D01*
X015458Y011506D02*
X015993Y011506D01*
X015993Y011665D02*
X015373Y011665D01*
X015373Y011823D02*
X015999Y011823D01*
X015657Y012457D02*
X015373Y012457D01*
X015373Y012299D02*
X017417Y012299D01*
X017417Y012457D02*
X017208Y012457D01*
X017366Y012616D02*
X017417Y012616D01*
X017417Y012774D02*
X017373Y012774D01*
X017373Y012933D02*
X017417Y012933D01*
X017417Y013091D02*
X017268Y013091D01*
X017417Y013250D02*
X016750Y013250D01*
X016597Y013091D02*
X016268Y013091D01*
X016373Y012933D02*
X016493Y012933D01*
X016493Y012774D02*
X016373Y012774D01*
X016366Y012616D02*
X016499Y012616D01*
X016933Y012933D02*
X016933Y012933D01*
X016933Y013091D02*
X016933Y013091D01*
X017104Y013408D02*
X017417Y013408D01*
X017417Y013567D02*
X017263Y013567D01*
X016913Y013584D02*
X017333Y014004D01*
X017333Y014844D01*
X016973Y015204D01*
X016933Y015204D01*
X016493Y015152D02*
X016373Y015152D01*
X016373Y015022D02*
X016115Y014764D01*
X015860Y014764D01*
X014533Y013437D01*
X014533Y013047D01*
X014713Y012867D01*
X014713Y012502D01*
X014455Y012244D01*
X014090Y012244D01*
X013833Y012502D01*
X013833Y012867D01*
X014013Y013047D01*
X014013Y013596D01*
X014052Y013692D01*
X015493Y015132D01*
X015493Y015387D01*
X015750Y015644D01*
X016115Y015644D01*
X016373Y015387D01*
X016373Y015022D01*
X016344Y014993D02*
X016521Y014993D01*
X016674Y014835D02*
X016680Y014835D01*
X016833Y014676D02*
X017073Y014676D01*
X017073Y014518D02*
X016873Y014518D01*
X016873Y014359D02*
X017073Y014359D01*
X017073Y014201D02*
X016801Y014201D01*
X016643Y014042D02*
X017003Y014042D01*
X016844Y013884D02*
X016725Y013884D01*
X016913Y013584D02*
X016463Y013584D01*
X016433Y013554D01*
X016115Y013250D02*
X015446Y013250D01*
X015373Y013091D02*
X015597Y013091D01*
X015493Y012933D02*
X015373Y012933D01*
X015373Y012774D02*
X015493Y012774D01*
X015499Y012616D02*
X015373Y012616D01*
X014853Y012616D02*
X014713Y012616D01*
X014713Y012774D02*
X014853Y012774D01*
X014853Y012933D02*
X014646Y012933D01*
X014533Y013091D02*
X014853Y013091D01*
X014853Y013250D02*
X014533Y013250D01*
X014533Y013408D02*
X014883Y013408D01*
X015027Y013567D02*
X014663Y013567D01*
X014821Y013725D02*
X015186Y013725D01*
X015344Y013884D02*
X014980Y013884D01*
X015138Y014042D02*
X015503Y014042D01*
X015661Y014201D02*
X015297Y014201D01*
X015455Y014359D02*
X015820Y014359D01*
X015978Y014518D02*
X015614Y014518D01*
X015772Y014676D02*
X016032Y014676D01*
X016185Y014835D02*
X016191Y014835D01*
X016283Y014454D02*
X015113Y013284D01*
X015113Y011484D01*
X015713Y010884D01*
X015933Y010884D01*
X015639Y010555D02*
X014713Y010555D01*
X014713Y010714D02*
X015493Y010714D01*
X015357Y010872D02*
X014868Y010872D01*
X015027Y011031D02*
X015198Y011031D01*
X015113Y011484D02*
X014273Y010644D01*
X014037Y011031D02*
X013947Y011031D01*
X013878Y010872D02*
X013813Y010872D01*
X013813Y010714D02*
X013833Y010714D01*
X013833Y010555D02*
X013813Y010555D01*
X013813Y010397D02*
X013898Y010397D01*
X013813Y010238D02*
X014056Y010238D01*
X014489Y010238D02*
X015959Y010238D01*
X016117Y010397D02*
X014647Y010397D01*
X014450Y011189D02*
X014105Y011189D01*
X014213Y011664D02*
X013553Y011004D01*
X013687Y011506D02*
X011713Y011506D01*
X011713Y011665D02*
X013833Y011665D01*
X013833Y011823D02*
X011713Y011823D01*
X011577Y011982D02*
X013968Y011982D01*
X014036Y012299D02*
X011543Y012299D01*
X011542Y012140D02*
X014853Y012140D01*
X014853Y011982D02*
X014577Y011982D01*
X014713Y011823D02*
X014853Y011823D01*
X014853Y011665D02*
X014713Y011665D01*
X014713Y011506D02*
X014767Y011506D01*
X014608Y011348D02*
X014578Y011348D01*
X014273Y011664D02*
X014213Y011664D01*
X014509Y012299D02*
X014853Y012299D01*
X014853Y012457D02*
X014668Y012457D01*
X014273Y012684D02*
X014273Y013544D01*
X015933Y015204D01*
X016290Y015469D02*
X016575Y015469D01*
X016493Y015310D02*
X016373Y015310D01*
X016132Y015627D02*
X016733Y015627D01*
X017132Y015627D02*
X017417Y015627D01*
X017417Y015469D02*
X017290Y015469D01*
X017373Y015310D02*
X017417Y015310D01*
X017417Y015152D02*
X017393Y015152D01*
X017417Y015786D02*
X015373Y015786D01*
X015373Y015944D02*
X017417Y015944D01*
X017417Y016103D02*
X017262Y016103D01*
X017399Y016261D02*
X017417Y016261D01*
X016917Y016536D02*
X016917Y017536D01*
X016796Y017414D01*
X015343Y017414D01*
X015113Y017184D01*
X015113Y015204D01*
X012653Y012744D01*
X011333Y012744D01*
X011273Y012684D01*
X011273Y011664D01*
X011283Y012445D01*
X011273Y010644D01*
X010898Y010397D02*
X009468Y010397D01*
X009398Y010238D02*
X011056Y010238D01*
X010833Y010555D02*
X009631Y010555D01*
X009790Y010714D02*
X010833Y010714D01*
X010878Y010872D02*
X009948Y010872D01*
X010107Y011031D02*
X011015Y011031D01*
X011016Y011189D02*
X010265Y011189D01*
X010347Y011348D02*
X010967Y011348D01*
X010833Y011506D02*
X010347Y011506D01*
X010347Y011665D02*
X010833Y011665D01*
X010833Y011823D02*
X010347Y011823D01*
X010347Y011982D02*
X010968Y011982D01*
X011013Y012140D02*
X010347Y012140D01*
X010347Y012299D02*
X011013Y012299D01*
X010877Y012457D02*
X010467Y012457D01*
X010527Y012616D02*
X010833Y012616D01*
X010833Y012774D02*
X010527Y012774D01*
X010476Y012933D02*
X010899Y012933D01*
X011057Y013091D02*
X010317Y013091D01*
X010087Y012700D02*
X010087Y011378D01*
X009354Y010646D01*
X008894Y010646D01*
X005053Y010646D01*
X002340Y007933D01*
X002340Y006133D01*
X002043Y005835D01*
X002043Y004884D01*
X002043Y003709D01*
X002387Y003365D01*
X001952Y003365D01*
X001260Y002673D01*
X000912Y002947D02*
X000660Y002947D01*
X000660Y002789D02*
X000820Y002789D01*
X000820Y002630D02*
X000660Y002630D01*
X000660Y002472D02*
X000839Y002472D01*
X000997Y002313D02*
X000660Y002313D01*
X000660Y002155D02*
X004933Y002155D01*
X004933Y002114D02*
X005074Y001772D01*
X005336Y001511D01*
X005678Y001369D01*
X006048Y001369D01*
X006390Y001511D01*
X006651Y001772D01*
X006793Y002114D01*
X006793Y002484D01*
X006651Y002826D01*
X006390Y003088D01*
X006048Y003229D01*
X005678Y003229D01*
X005336Y003088D01*
X005074Y002826D01*
X004933Y002484D01*
X004933Y002114D01*
X004982Y001996D02*
X001559Y001996D01*
X001442Y002113D02*
X001700Y001855D01*
X001700Y001673D01*
X001260Y001673D01*
X001260Y002113D01*
X001260Y001673D01*
X001260Y001673D01*
X001260Y001673D01*
X000820Y001673D01*
X000820Y001855D01*
X001078Y002113D01*
X001260Y002113D01*
X001442Y002113D01*
X001523Y002313D02*
X004933Y002313D01*
X004933Y002472D02*
X001681Y002472D01*
X001700Y002630D02*
X004993Y002630D01*
X005059Y002789D02*
X004487Y002789D01*
X004575Y002947D02*
X005196Y002947D01*
X005380Y003106D02*
X004575Y003106D01*
X004575Y003264D02*
X006567Y003264D01*
X006567Y003423D02*
X004624Y003423D01*
X004782Y003581D02*
X006567Y003581D01*
X006567Y003740D02*
X004863Y003740D01*
X004863Y003898D02*
X006567Y003898D01*
X006349Y004057D02*
X004863Y004057D01*
X004863Y004215D02*
X006264Y004215D01*
X006252Y004374D02*
X004863Y004374D01*
X004863Y004532D02*
X006252Y004532D01*
X006593Y004404D02*
X006670Y004327D01*
X006713Y004370D01*
X006713Y005004D01*
X007193Y005484D01*
X008393Y005484D01*
X008285Y005224D02*
X009624Y003885D01*
X009452Y004057D02*
X008250Y004057D01*
X008248Y004055D02*
X008287Y004108D01*
X008317Y004166D01*
X008337Y004229D01*
X008347Y004294D01*
X008347Y004327D01*
X008347Y004835D01*
X008337Y004900D01*
X008317Y004963D01*
X008287Y005021D01*
X008248Y005075D01*
X008202Y005121D01*
X008149Y005160D01*
X008090Y005190D01*
X008027Y005210D01*
X007963Y005220D01*
X007930Y005220D01*
X007930Y004327D01*
X008347Y004327D01*
X007930Y004327D01*
X007930Y004327D01*
X007930Y004327D01*
X007930Y005220D01*
X007897Y005220D01*
X007832Y005210D01*
X007769Y005190D01*
X007711Y005160D01*
X007657Y005121D01*
X007615Y005078D01*
X007536Y005157D01*
X007383Y005220D01*
X007296Y005220D01*
X007300Y005224D01*
X008285Y005224D01*
X008343Y005166D02*
X008136Y005166D01*
X008294Y005008D02*
X008501Y005008D01*
X008345Y004849D02*
X008660Y004849D01*
X008818Y004691D02*
X008347Y004691D01*
X008347Y004532D02*
X008977Y004532D01*
X009135Y004374D02*
X008347Y004374D01*
X008333Y004215D02*
X009294Y004215D01*
X009979Y003264D02*
X008032Y003264D01*
X008032Y003423D02*
X015902Y003423D01*
X015744Y003581D02*
X008032Y003581D01*
X008032Y003740D02*
X012178Y003740D01*
X012662Y003740D02*
X015585Y003740D01*
X017409Y001521D02*
X017417Y001521D01*
X017417Y001045D02*
X004201Y001045D01*
X004201Y000887D02*
X017417Y000887D01*
X012913Y001362D02*
X010592Y001362D01*
X010714Y001521D02*
X012752Y001521D01*
X012643Y001679D02*
X010767Y001679D01*
X010771Y001838D02*
X012560Y001838D01*
X012518Y001996D02*
X010727Y001996D01*
X010620Y002155D02*
X012495Y002155D01*
X012495Y002313D02*
X010529Y002313D01*
X010686Y002472D02*
X012525Y002472D01*
X010244Y002947D02*
X010204Y002947D01*
X010204Y003106D02*
X010244Y003106D01*
X010244Y003264D02*
X010204Y003264D01*
X009787Y003106D02*
X009220Y003106D01*
X009404Y002947D02*
X009703Y002947D01*
X010204Y001679D02*
X010244Y001679D01*
X010244Y001521D02*
X010204Y001521D01*
X010204Y001362D02*
X010244Y001362D01*
X008200Y001521D02*
X006399Y001521D01*
X006558Y001679D02*
X008041Y001679D01*
X007921Y001838D02*
X006678Y001838D01*
X006744Y001996D02*
X007856Y001996D01*
X007807Y002155D02*
X006793Y002155D01*
X006793Y002313D02*
X007807Y002313D01*
X007807Y002472D02*
X006793Y002472D01*
X006732Y002630D02*
X007867Y002630D01*
X007933Y002789D02*
X006667Y002789D01*
X006530Y002947D02*
X006840Y002947D01*
X006629Y003106D02*
X006346Y003106D01*
X007130Y002947D02*
X007470Y002947D01*
X007760Y002947D02*
X008070Y002947D01*
X007970Y003106D02*
X008254Y003106D01*
X008032Y003898D02*
X008024Y003919D01*
X008027Y003919D01*
X008090Y003940D01*
X008149Y003969D01*
X008202Y004008D01*
X008248Y004055D01*
X007930Y004374D02*
X007930Y004374D01*
X007930Y004532D02*
X007930Y004532D01*
X007930Y004691D02*
X007930Y004691D01*
X007930Y004849D02*
X007930Y004849D01*
X007930Y005008D02*
X007930Y005008D01*
X007930Y005166D02*
X007930Y005166D01*
X007724Y005166D02*
X007513Y005166D01*
X006982Y005642D02*
X002303Y005642D01*
X002303Y005483D02*
X006824Y005483D01*
X006665Y005325D02*
X002303Y005325D01*
X002355Y005166D02*
X002431Y005166D01*
X002743Y005304D02*
X002743Y004884D01*
X003293Y004334D01*
X003293Y003365D01*
X003293Y004274D01*
X003903Y004884D01*
X003903Y004884D01*
X003903Y004464D01*
X003729Y004464D01*
X003483Y004710D01*
X003483Y004884D01*
X003903Y004884D01*
X003903Y004884D01*
X003903Y004884D01*
X003903Y005304D01*
X003729Y005304D01*
X003483Y005058D01*
X003483Y004884D01*
X003903Y004884D01*
X003903Y004849D02*
X003903Y004849D01*
X003903Y004691D02*
X003903Y004691D01*
X003903Y004532D02*
X003903Y004532D01*
X004145Y004532D02*
X004343Y004532D01*
X004343Y004374D02*
X002303Y004374D01*
X002303Y004532D02*
X002501Y004532D01*
X002303Y004215D02*
X004343Y004215D01*
X004343Y004057D02*
X002303Y004057D01*
X002718Y003898D02*
X002961Y003898D01*
X002952Y003889D02*
X002928Y003848D01*
X002916Y003802D01*
X002916Y003383D01*
X003274Y003383D01*
X003274Y003346D01*
X003311Y003346D01*
X003311Y002771D01*
X003513Y002771D01*
X003559Y002784D01*
X003600Y002807D01*
X003633Y002841D01*
X003657Y002882D01*
X003669Y002928D01*
X003669Y003346D01*
X003311Y003346D01*
X003311Y003383D01*
X003669Y003383D01*
X003669Y003802D01*
X003657Y003848D01*
X003633Y003889D01*
X003600Y003922D01*
X003559Y003946D01*
X003513Y003958D01*
X003311Y003958D01*
X003311Y003383D01*
X003274Y003383D01*
X003274Y003958D01*
X003072Y003958D01*
X003026Y003946D01*
X002985Y003922D01*
X002952Y003889D01*
X002916Y003740D02*
X002764Y003740D01*
X002764Y003581D02*
X002916Y003581D01*
X002916Y003423D02*
X002764Y003423D01*
X002764Y003264D02*
X002916Y003264D01*
X002916Y003346D02*
X002916Y002928D01*
X002928Y002882D01*
X002952Y002841D01*
X002985Y002807D01*
X003026Y002784D01*
X003072Y002771D01*
X003274Y002771D01*
X003274Y003346D01*
X002916Y003346D01*
X002916Y003106D02*
X002764Y003106D01*
X002764Y002947D02*
X002916Y002947D01*
X003017Y002789D02*
X002676Y002789D01*
X002098Y002789D02*
X001744Y002789D01*
X001902Y002947D02*
X002010Y002947D01*
X001642Y003423D02*
X000660Y003423D01*
X000660Y003581D02*
X001801Y003581D01*
X001783Y003740D02*
X000660Y003740D01*
X000660Y003898D02*
X001783Y003898D01*
X001783Y004057D02*
X000660Y004057D01*
X000660Y004215D02*
X001783Y004215D01*
X001783Y004374D02*
X000660Y004374D01*
X000660Y004532D02*
X001783Y004532D01*
X001668Y004691D02*
X000660Y004691D01*
X000660Y004849D02*
X001623Y004849D01*
X001639Y005008D02*
X000660Y005008D01*
X000660Y005166D02*
X001731Y005166D01*
X001783Y005325D02*
X000660Y005325D01*
X000660Y005483D02*
X001783Y005483D01*
X001783Y005642D02*
X000660Y005642D01*
X000660Y003264D02*
X001484Y003264D01*
X001071Y003106D02*
X000660Y003106D01*
X000660Y001996D02*
X000961Y001996D01*
X000820Y001838D02*
X000660Y001838D01*
X000660Y001679D02*
X000820Y001679D01*
X000820Y001673D02*
X000820Y001491D01*
X001078Y001233D01*
X001260Y001233D01*
X001442Y001233D01*
X001700Y001491D01*
X001700Y001673D01*
X001260Y001673D01*
X001260Y001673D01*
X000820Y001673D01*
X000820Y001521D02*
X000660Y001521D01*
X000660Y001362D02*
X000948Y001362D01*
X001260Y001362D02*
X001260Y001362D01*
X001260Y001233D02*
X001260Y001673D01*
X001260Y001673D01*
X001260Y001233D01*
X001260Y001521D02*
X001260Y001521D01*
X001260Y001679D02*
X001260Y001679D01*
X001260Y001838D02*
X001260Y001838D01*
X001260Y001996D02*
X001260Y001996D01*
X001700Y001838D02*
X005047Y001838D01*
X005167Y001679D02*
X001700Y001679D01*
X001700Y001521D02*
X005326Y001521D01*
X003909Y002789D02*
X003568Y002789D01*
X003669Y002947D02*
X003821Y002947D01*
X003821Y003106D02*
X003669Y003106D01*
X003669Y003264D02*
X003821Y003264D01*
X003821Y003423D02*
X003669Y003423D01*
X003669Y003581D02*
X003821Y003581D01*
X003821Y003740D02*
X003669Y003740D01*
X003624Y003898D02*
X003867Y003898D01*
X004198Y003365D02*
X004603Y003769D01*
X004603Y004884D01*
X006473Y004884D01*
X006593Y004764D01*
X006593Y004404D01*
X006457Y005166D02*
X004915Y005166D01*
X004291Y005166D02*
X004215Y005166D01*
X003903Y005166D02*
X003903Y005166D01*
X003903Y005008D02*
X003903Y005008D01*
X003591Y005166D02*
X003055Y005166D01*
X003163Y005008D02*
X003483Y005008D01*
X003483Y004849D02*
X003163Y004849D01*
X003143Y004691D02*
X003502Y004691D01*
X003661Y004532D02*
X002985Y004532D01*
X002743Y004532D02*
X002743Y004532D01*
X002743Y004691D02*
X002743Y004691D01*
X002743Y004849D02*
X002743Y004849D01*
X002743Y004884D02*
X002743Y004884D01*
X002743Y005008D02*
X002743Y005008D01*
X003274Y003898D02*
X003311Y003898D01*
X003311Y003740D02*
X003274Y003740D01*
X003274Y003581D02*
X003311Y003581D01*
X003311Y003423D02*
X003274Y003423D01*
X003274Y003264D02*
X003311Y003264D01*
X003311Y003106D02*
X003274Y003106D01*
X003274Y002947D02*
X003311Y002947D01*
X003311Y002789D02*
X003274Y002789D01*
X002384Y001362D02*
X001572Y001362D01*
X002384Y001204D02*
X000660Y001204D01*
X000660Y001045D02*
X002384Y001045D01*
X002384Y000887D02*
X000660Y000887D01*
X000660Y008520D02*
X000660Y016031D01*
X000728Y015963D01*
X000963Y015827D01*
X001225Y015757D01*
X001497Y015757D01*
X001759Y015827D01*
X001994Y015963D01*
X002186Y016155D01*
X002322Y016390D01*
X002392Y016652D01*
X002392Y016924D01*
X002322Y017186D01*
X002186Y017421D01*
X001994Y017613D01*
X001759Y017749D01*
X001497Y017819D01*
X001225Y017819D01*
X000963Y017749D01*
X000728Y017613D01*
X000660Y017545D01*
X000660Y021033D01*
X006693Y021033D01*
X006625Y021005D01*
X006552Y020932D01*
X006192Y020572D01*
X006174Y020527D01*
X006032Y020670D01*
X005811Y020761D01*
X005572Y020761D01*
X005352Y020670D01*
X005183Y020501D01*
X005092Y020280D01*
X005092Y019202D01*
X005183Y018981D01*
X005352Y018812D01*
X005572Y018721D01*
X005811Y018721D01*
X006032Y018812D01*
X006153Y018933D01*
X006153Y018732D01*
X005945Y018524D01*
X005401Y018524D01*
X005305Y018485D01*
X004310Y017489D01*
X004270Y017393D01*
X004270Y017290D01*
X004290Y017242D01*
X004290Y017109D01*
X004135Y017173D01*
X003945Y017173D01*
X003768Y017100D01*
X003633Y016965D01*
X003560Y016788D01*
X003560Y015997D01*
X003633Y015821D01*
X003768Y015686D01*
X003945Y015613D01*
X004135Y015613D01*
X004290Y015677D01*
X004290Y014450D01*
X003107Y013268D01*
X003090Y013268D01*
X003090Y013318D01*
X003003Y013405D01*
X003020Y013415D01*
X003054Y013448D01*
X003078Y013489D01*
X003090Y013535D01*
X003090Y013757D01*
X002554Y013757D01*
X002554Y013833D01*
X002478Y013833D01*
X002478Y013757D01*
X001943Y013757D01*
X001943Y013535D01*
X001955Y013489D01*
X001978Y013448D01*
X002012Y013415D01*
X002029Y013405D01*
X001943Y013318D01*
X001943Y012898D01*
X001673Y013168D01*
X001726Y013221D01*
X001810Y013423D01*
X001810Y013642D01*
X001726Y013844D01*
X001572Y013999D01*
X001490Y014033D01*
X001548Y014062D01*
X001618Y014113D01*
X001680Y014174D01*
X001730Y014244D01*
X001770Y014322D01*
X001796Y014404D01*
X001810Y014489D01*
X001810Y014513D01*
X001280Y014513D01*
X001280Y014553D01*
X001240Y014553D01*
X001240Y015083D01*
X001217Y015083D01*
X001131Y015069D01*
X001049Y015042D01*
X000972Y015003D01*
X000902Y014952D01*
X000840Y014891D01*
X000790Y014821D01*
X000750Y014744D01*
X000724Y014662D01*
X000710Y014576D01*
X000710Y014553D01*
X001240Y014553D01*
X001240Y014513D01*
X000710Y014513D01*
X000710Y014489D01*
X000724Y014404D01*
X000750Y014322D01*
X000790Y014244D01*
X000840Y014174D01*
X000902Y014113D01*
X000972Y014062D01*
X001030Y014033D01*
X000948Y013999D01*
X000794Y013844D01*
X000710Y013642D01*
X000710Y013423D01*
X000794Y013221D01*
X000948Y013066D01*
X001102Y013003D01*
X001302Y012803D01*
X001151Y012803D01*
X000948Y012719D01*
X000794Y012564D01*
X000710Y012362D01*
X000710Y012143D01*
X000794Y011941D01*
X000948Y011786D01*
X001030Y011753D01*
X000948Y011719D01*
X000794Y011564D01*
X000710Y011362D01*
X000710Y011143D01*
X000794Y010941D01*
X000948Y010786D01*
X001151Y010703D01*
X001369Y010703D01*
X001572Y010786D01*
X001726Y010941D01*
X001810Y011143D01*
X001810Y011173D01*
X001943Y011173D01*
X001943Y011122D01*
X002025Y011039D01*
X001943Y010956D01*
X001943Y010906D01*
X001841Y010906D01*
X001745Y010866D01*
X001672Y010793D01*
X001421Y010541D01*
X001369Y010563D01*
X001151Y010563D01*
X000948Y010479D01*
X000794Y010324D01*
X000710Y010122D01*
X000710Y009903D01*
X000794Y009701D01*
X000948Y009546D01*
X001030Y009513D01*
X000948Y009479D01*
X000794Y009324D01*
X000710Y009122D01*
X000710Y008903D01*
X000794Y008701D01*
X000948Y008546D01*
X001011Y008520D01*
X000660Y008520D01*
X000660Y008653D02*
X000842Y008653D01*
X000748Y008812D02*
X000660Y008812D01*
X000660Y008970D02*
X000710Y008970D01*
X000713Y009129D02*
X000660Y009129D01*
X000660Y009287D02*
X000778Y009287D01*
X000660Y009446D02*
X000915Y009446D01*
X000891Y009604D02*
X000660Y009604D01*
X000660Y009763D02*
X000768Y009763D01*
X000710Y009921D02*
X000660Y009921D01*
X000660Y010080D02*
X000710Y010080D01*
X000660Y010238D02*
X000758Y010238D01*
X000660Y010397D02*
X000866Y010397D01*
X000660Y010555D02*
X001133Y010555D01*
X001124Y010714D02*
X000660Y010714D01*
X000660Y010872D02*
X000863Y010872D01*
X000757Y011031D02*
X000660Y011031D01*
X000660Y011189D02*
X000710Y011189D01*
X000710Y011348D02*
X000660Y011348D01*
X000660Y011506D02*
X000770Y011506D01*
X000660Y011665D02*
X000894Y011665D01*
X000912Y011823D02*
X000660Y011823D01*
X000660Y011982D02*
X000777Y011982D01*
X000711Y012140D02*
X000660Y012140D01*
X000660Y012299D02*
X000710Y012299D01*
X000749Y012457D02*
X000660Y012457D01*
X000660Y012616D02*
X000845Y012616D01*
X000660Y012774D02*
X001082Y012774D01*
X001172Y012933D02*
X000660Y012933D01*
X000660Y013091D02*
X000924Y013091D01*
X000782Y013250D02*
X000660Y013250D01*
X000660Y013408D02*
X000716Y013408D01*
X000710Y013567D02*
X000660Y013567D01*
X000660Y013725D02*
X000744Y013725D01*
X000660Y013884D02*
X000833Y013884D01*
X000660Y014042D02*
X001011Y014042D01*
X000821Y014201D02*
X000660Y014201D01*
X000660Y014359D02*
X000738Y014359D01*
X000660Y014518D02*
X001240Y014518D01*
X001280Y014518D02*
X001943Y014518D01*
X001943Y014544D02*
X001943Y014323D01*
X001955Y014277D01*
X001978Y014236D01*
X002012Y014202D01*
X002035Y014189D01*
X002012Y014175D01*
X001978Y014142D01*
X001955Y014101D01*
X001943Y014055D01*
X001943Y013833D01*
X002478Y013833D01*
X002478Y014211D01*
X002478Y014544D01*
X002554Y014544D01*
X002554Y013833D01*
X003090Y013833D01*
X003090Y014055D01*
X003078Y014101D01*
X003054Y014142D01*
X003020Y014175D01*
X002997Y014189D01*
X003020Y014202D01*
X003054Y014236D01*
X003078Y014277D01*
X003090Y014323D01*
X003090Y014544D01*
X002554Y014544D01*
X002554Y014621D01*
X002478Y014621D01*
X002478Y014999D01*
X002099Y014999D01*
X002053Y014986D01*
X002012Y014963D01*
X001978Y014929D01*
X001955Y014888D01*
X001943Y014842D01*
X001943Y014621D01*
X002478Y014621D01*
X002478Y014544D01*
X001943Y014544D01*
X001943Y014676D02*
X001792Y014676D01*
X001796Y014662D02*
X001770Y014744D01*
X001730Y014821D01*
X001680Y014891D01*
X001618Y014952D01*
X001548Y015003D01*
X001471Y015042D01*
X001389Y015069D01*
X001303Y015083D01*
X001280Y015083D01*
X001280Y014553D01*
X001810Y014553D01*
X001810Y014576D01*
X001796Y014662D01*
X001720Y014835D02*
X001943Y014835D01*
X002078Y014993D02*
X001562Y014993D01*
X001280Y014993D02*
X001240Y014993D01*
X001240Y014835D02*
X001280Y014835D01*
X001280Y014676D02*
X001240Y014676D01*
X000958Y014993D02*
X000660Y014993D01*
X000660Y014835D02*
X000800Y014835D01*
X000728Y014676D02*
X000660Y014676D01*
X000660Y015152D02*
X004290Y015152D01*
X004290Y015310D02*
X000660Y015310D01*
X000660Y015469D02*
X004290Y015469D01*
X004290Y015627D02*
X004171Y015627D01*
X003909Y015627D02*
X003161Y015627D01*
X003152Y015625D02*
X003224Y015648D01*
X003292Y015682D01*
X003353Y015727D01*
X003406Y015780D01*
X003451Y015841D01*
X003485Y015908D01*
X003508Y015980D01*
X003520Y016055D01*
X003520Y016373D01*
X003060Y016373D01*
X003060Y016413D01*
X003020Y016413D01*
X003020Y017173D01*
X003002Y017173D01*
X002928Y017161D01*
X002856Y017138D01*
X002788Y017103D01*
X002727Y017059D01*
X002674Y017005D01*
X002629Y016944D01*
X002595Y016877D01*
X002572Y016805D01*
X002560Y016731D01*
X002560Y016413D01*
X003020Y016413D01*
X003020Y016373D01*
X002560Y016373D01*
X002560Y016055D01*
X002572Y015980D01*
X002595Y015908D01*
X002629Y015841D01*
X002674Y015780D01*
X002727Y015727D01*
X002788Y015682D01*
X002856Y015648D01*
X002928Y015625D01*
X003002Y015613D01*
X003020Y015613D01*
X003020Y016373D01*
X003060Y016373D01*
X003060Y015613D01*
X003078Y015613D01*
X003152Y015625D01*
X003060Y015627D02*
X003020Y015627D01*
X002919Y015627D02*
X000660Y015627D01*
X000660Y015786D02*
X001118Y015786D01*
X000760Y015944D02*
X000660Y015944D01*
X001604Y015786D02*
X002670Y015786D01*
X002584Y015944D02*
X001962Y015944D01*
X002134Y016103D02*
X002560Y016103D01*
X002560Y016261D02*
X002248Y016261D01*
X002330Y016420D02*
X002560Y016420D01*
X002560Y016578D02*
X002372Y016578D01*
X002392Y016737D02*
X002561Y016737D01*
X002604Y016895D02*
X002392Y016895D01*
X002357Y017054D02*
X002722Y017054D01*
X003020Y017054D02*
X003060Y017054D01*
X003060Y017173D02*
X003060Y016413D01*
X003520Y016413D01*
X003520Y016731D01*
X003508Y016805D01*
X003485Y016877D01*
X003451Y016944D01*
X003406Y017005D01*
X003353Y017059D01*
X003292Y017103D01*
X003224Y017138D01*
X003152Y017161D01*
X003078Y017173D01*
X003060Y017173D01*
X003060Y016895D02*
X003020Y016895D01*
X003020Y016737D02*
X003060Y016737D01*
X003060Y016578D02*
X003020Y016578D01*
X003020Y016420D02*
X003060Y016420D01*
X003060Y016261D02*
X003020Y016261D01*
X003020Y016103D02*
X003060Y016103D01*
X003060Y015944D02*
X003020Y015944D01*
X003020Y015786D02*
X003060Y015786D01*
X003410Y015786D02*
X003668Y015786D01*
X003582Y015944D02*
X003496Y015944D01*
X003520Y016103D02*
X003560Y016103D01*
X003560Y016261D02*
X003520Y016261D01*
X003520Y016420D02*
X003560Y016420D01*
X003560Y016578D02*
X003520Y016578D01*
X003519Y016737D02*
X003560Y016737D01*
X003604Y016895D02*
X003476Y016895D01*
X003358Y017054D02*
X003722Y017054D01*
X004290Y017212D02*
X002307Y017212D01*
X002215Y017371D02*
X004270Y017371D01*
X004350Y017529D02*
X002078Y017529D01*
X001865Y017688D02*
X004508Y017688D01*
X004667Y017846D02*
X000660Y017846D01*
X000660Y017688D02*
X000857Y017688D01*
X000660Y018005D02*
X004825Y018005D01*
X004984Y018163D02*
X000660Y018163D01*
X000660Y018322D02*
X005142Y018322D01*
X005301Y018480D02*
X000660Y018480D01*
X000660Y018639D02*
X006059Y018639D01*
X005995Y018797D02*
X006153Y018797D01*
X006413Y018624D02*
X006053Y018264D01*
X005453Y018264D01*
X004530Y017342D01*
X004374Y018723D02*
X004454Y018736D01*
X004544Y018765D01*
X004628Y018808D01*
X004705Y018863D01*
X004772Y018930D01*
X004827Y019006D01*
X004870Y019091D01*
X004899Y019180D01*
X004914Y019274D01*
X004914Y019681D01*
X004374Y019681D01*
X004374Y019801D01*
X004914Y019801D01*
X004914Y020208D01*
X004899Y020301D01*
X004870Y020391D01*
X004827Y020475D01*
X004772Y020552D01*
X004705Y020619D01*
X004628Y020674D01*
X004544Y020717D01*
X004454Y020746D01*
X004374Y020759D01*
X004374Y019801D01*
X004254Y019801D01*
X004254Y020759D01*
X004173Y020746D01*
X004084Y020717D01*
X003999Y020674D01*
X003923Y020619D01*
X003856Y020552D01*
X003801Y020475D01*
X003758Y020391D01*
X003729Y020301D01*
X003714Y020208D01*
X003714Y019801D01*
X004254Y019801D01*
X004254Y019681D01*
X004374Y019681D01*
X004374Y018723D01*
X004374Y018797D02*
X004254Y018797D01*
X004254Y018723D02*
X004254Y019681D01*
X003714Y019681D01*
X003714Y019274D01*
X003729Y019180D01*
X003758Y019091D01*
X003801Y019006D01*
X003856Y018930D01*
X003923Y018863D01*
X003999Y018808D01*
X004084Y018765D01*
X004173Y018736D01*
X004254Y018723D01*
X004254Y018956D02*
X004374Y018956D01*
X004374Y019114D02*
X004254Y019114D01*
X004311Y019222D02*
X004314Y019741D01*
X004374Y019748D02*
X005092Y019748D01*
X005092Y019590D02*
X004914Y019590D01*
X004914Y019431D02*
X005092Y019431D01*
X005092Y019273D02*
X004914Y019273D01*
X004878Y019114D02*
X005128Y019114D01*
X005208Y018956D02*
X004790Y018956D01*
X004608Y018797D02*
X005388Y018797D01*
X004374Y019273D02*
X004254Y019273D01*
X004254Y019431D02*
X004374Y019431D01*
X004374Y019590D02*
X004254Y019590D01*
X004254Y019748D02*
X003536Y019748D01*
X003536Y019590D02*
X003714Y019590D01*
X003714Y019431D02*
X003536Y019431D01*
X003536Y019273D02*
X003714Y019273D01*
X003750Y019114D02*
X003500Y019114D01*
X003536Y019202D02*
X003445Y018981D01*
X003276Y018812D01*
X003055Y018721D01*
X002817Y018721D01*
X002596Y018812D01*
X002427Y018981D01*
X002336Y019202D01*
X002336Y020280D01*
X002427Y020501D01*
X002596Y020670D01*
X002817Y020761D01*
X003055Y020761D01*
X003276Y020670D01*
X003445Y020501D01*
X003536Y020280D01*
X003536Y019202D01*
X003419Y018956D02*
X003838Y018956D01*
X004020Y018797D02*
X003240Y018797D01*
X002632Y018797D02*
X001862Y018797D01*
X001898Y018812D02*
X002067Y018981D01*
X002158Y019202D01*
X002158Y020280D01*
X002067Y020501D01*
X001898Y020670D01*
X001677Y020761D01*
X001439Y020761D01*
X001218Y020670D01*
X001049Y020501D01*
X000958Y020280D01*
X000958Y019202D01*
X001049Y018981D01*
X001218Y018812D01*
X001439Y018721D01*
X001677Y018721D01*
X001898Y018812D01*
X002041Y018956D02*
X002453Y018956D01*
X002372Y019114D02*
X002122Y019114D01*
X002158Y019273D02*
X002336Y019273D01*
X002336Y019431D02*
X002158Y019431D01*
X002158Y019590D02*
X002336Y019590D01*
X002336Y019748D02*
X002158Y019748D01*
X002158Y019907D02*
X002336Y019907D01*
X002336Y020065D02*
X002158Y020065D01*
X002158Y020224D02*
X002336Y020224D01*
X002378Y020382D02*
X002116Y020382D01*
X002027Y020541D02*
X002467Y020541D01*
X002668Y020699D02*
X001826Y020699D01*
X001290Y020699D02*
X000660Y020699D01*
X000660Y020541D02*
X001089Y020541D01*
X001000Y020382D02*
X000660Y020382D01*
X000660Y020224D02*
X000958Y020224D01*
X000958Y020065D02*
X000660Y020065D01*
X000660Y019907D02*
X000958Y019907D01*
X000958Y019748D02*
X000660Y019748D01*
X000660Y019590D02*
X000958Y019590D01*
X000958Y019431D02*
X000660Y019431D01*
X000660Y019273D02*
X000958Y019273D01*
X000994Y019114D02*
X000660Y019114D01*
X000660Y018956D02*
X001075Y018956D01*
X001254Y018797D02*
X000660Y018797D01*
X000660Y020858D02*
X006478Y020858D01*
X006320Y020699D02*
X005960Y020699D01*
X006160Y020541D02*
X006179Y020541D01*
X006413Y020424D02*
X006773Y020784D01*
X012233Y020784D01*
X012591Y020426D01*
X012582Y019741D01*
X013182Y019748D02*
X013900Y019748D01*
X013900Y019801D02*
X013900Y019681D01*
X014020Y019681D01*
X014020Y019801D01*
X014560Y019801D01*
X014560Y020208D01*
X014545Y020301D01*
X014516Y020391D01*
X014473Y020475D01*
X014417Y020552D01*
X014350Y020619D01*
X014274Y020674D01*
X014190Y020717D01*
X014100Y020746D01*
X014020Y020759D01*
X014020Y019801D01*
X013900Y019801D01*
X013900Y020759D01*
X013819Y020746D01*
X013729Y020717D01*
X013645Y020674D01*
X013569Y020619D01*
X013502Y020552D01*
X013446Y020475D01*
X013403Y020391D01*
X013374Y020301D01*
X013360Y020208D01*
X013360Y019801D01*
X013900Y019801D01*
X013900Y019907D02*
X014020Y019907D01*
X014020Y020065D02*
X013900Y020065D01*
X013900Y020224D02*
X014020Y020224D01*
X014020Y020382D02*
X013900Y020382D01*
X013900Y020541D02*
X014020Y020541D01*
X014020Y020699D02*
X013900Y020699D01*
X013694Y020699D02*
X012850Y020699D01*
X013050Y020541D02*
X013494Y020541D01*
X013401Y020382D02*
X013139Y020382D01*
X013182Y020224D02*
X013362Y020224D01*
X013360Y020065D02*
X013182Y020065D01*
X013182Y019907D02*
X013360Y019907D01*
X013360Y019681D02*
X013360Y019274D01*
X013374Y019180D01*
X013403Y019091D01*
X013446Y019006D01*
X013502Y018930D01*
X013569Y018863D01*
X013645Y018808D01*
X013729Y018765D01*
X013819Y018736D01*
X013900Y018723D01*
X013900Y019681D01*
X013360Y019681D01*
X013360Y019590D02*
X013182Y019590D01*
X013182Y019431D02*
X013360Y019431D01*
X013360Y019273D02*
X013182Y019273D01*
X013145Y019114D02*
X013396Y019114D01*
X013483Y018956D02*
X013065Y018956D01*
X012885Y018797D02*
X013666Y018797D01*
X013900Y018797D02*
X014020Y018797D01*
X014020Y018723D02*
X014100Y018736D01*
X014190Y018765D01*
X014274Y018808D01*
X014350Y018863D01*
X014417Y018930D01*
X014473Y019006D01*
X014516Y019091D01*
X014545Y019180D01*
X014560Y019274D01*
X014560Y019681D01*
X014020Y019681D01*
X014020Y018723D01*
X014020Y018956D02*
X013900Y018956D01*
X013900Y019114D02*
X014020Y019114D01*
X014020Y019273D02*
X013900Y019273D01*
X013900Y019431D02*
X014020Y019431D01*
X014020Y019590D02*
X013900Y019590D01*
X014020Y019748D02*
X014737Y019748D01*
X014737Y019590D02*
X014560Y019590D01*
X014560Y019431D02*
X014737Y019431D01*
X014737Y019273D02*
X014559Y019273D01*
X014523Y019114D02*
X014774Y019114D01*
X014854Y018956D02*
X014436Y018956D01*
X014253Y018797D02*
X015034Y018797D01*
X015080Y018639D02*
X011466Y018639D01*
X011466Y018480D02*
X015080Y018480D01*
X015081Y018322D02*
X011467Y018322D01*
X011467Y018163D02*
X015081Y018163D01*
X015081Y018005D02*
X011467Y018005D01*
X011468Y017846D02*
X015082Y017846D01*
X015082Y017688D02*
X014070Y017688D01*
X013964Y017749D02*
X013702Y017819D01*
X013430Y017819D01*
X013168Y017749D01*
X012933Y017613D01*
X012741Y017421D01*
X012605Y017186D01*
X012535Y016924D01*
X012535Y016652D01*
X012605Y016390D01*
X012741Y016155D01*
X012933Y015963D01*
X013168Y015827D01*
X013430Y015757D01*
X013702Y015757D01*
X013964Y015827D01*
X014199Y015963D01*
X014391Y016155D01*
X014527Y016390D01*
X014597Y016652D01*
X014597Y016924D01*
X014527Y017186D01*
X014391Y017421D01*
X014199Y017613D01*
X013964Y017749D01*
X014283Y017529D02*
X015082Y017529D01*
X014931Y017371D02*
X014420Y017371D01*
X014512Y017212D02*
X014853Y017212D01*
X014853Y017054D02*
X014562Y017054D01*
X014597Y016895D02*
X014853Y016895D01*
X014853Y016737D02*
X014597Y016737D01*
X014577Y016578D02*
X014853Y016578D01*
X014853Y016420D02*
X014535Y016420D01*
X014452Y016261D02*
X014853Y016261D01*
X014853Y016103D02*
X014339Y016103D01*
X014166Y015944D02*
X014853Y015944D01*
X014853Y015786D02*
X013809Y015786D01*
X013323Y015786D02*
X011472Y015786D01*
X011472Y015944D02*
X012965Y015944D01*
X012793Y016103D02*
X011471Y016103D01*
X011471Y016261D02*
X012679Y016261D01*
X012597Y016420D02*
X011471Y016420D01*
X011470Y016578D02*
X012555Y016578D01*
X012535Y016737D02*
X011470Y016737D01*
X011470Y016895D02*
X012535Y016895D01*
X012569Y017054D02*
X011469Y017054D01*
X011469Y017212D02*
X012620Y017212D01*
X012711Y017371D02*
X011469Y017371D01*
X011468Y017529D02*
X012849Y017529D01*
X013062Y017688D02*
X011468Y017688D01*
X010948Y017688D02*
X010753Y017688D01*
X010761Y017665D02*
X010734Y017747D01*
X010695Y017824D01*
X010644Y017894D01*
X010583Y017955D01*
X010513Y018006D01*
X010436Y018046D01*
X010353Y018072D01*
X010268Y018086D01*
X010244Y018086D01*
X010244Y017556D01*
X010204Y017556D01*
X010204Y017516D01*
X009674Y017516D01*
X009674Y017493D01*
X009688Y017407D01*
X009715Y017325D01*
X009754Y017248D01*
X009805Y017178D01*
X009866Y017116D01*
X009936Y017066D01*
X009994Y017036D01*
X009936Y017006D01*
X009866Y016955D01*
X009805Y016894D01*
X009754Y016824D01*
X009715Y016747D01*
X009688Y016665D01*
X009674Y016579D01*
X009674Y016556D01*
X010204Y016556D01*
X010204Y016516D01*
X009674Y016516D01*
X009674Y016493D01*
X009688Y016407D01*
X009715Y016325D01*
X009754Y016248D01*
X009805Y016178D01*
X009866Y016116D01*
X009936Y016066D01*
X010013Y016026D01*
X010096Y015999D01*
X010181Y015986D01*
X010204Y015986D01*
X010204Y016516D01*
X010244Y016516D01*
X010244Y015986D01*
X010268Y015986D01*
X010353Y015999D01*
X010436Y016026D01*
X010513Y016066D01*
X010583Y016116D01*
X010644Y016178D01*
X010695Y016248D01*
X010734Y016325D01*
X010761Y016407D01*
X010774Y016493D01*
X010774Y016516D01*
X010244Y016516D01*
X010244Y016556D01*
X010204Y016556D01*
X010204Y017516D01*
X010244Y017516D01*
X010244Y016986D01*
X010244Y016556D01*
X010774Y016556D01*
X010774Y016579D01*
X010761Y016665D01*
X010734Y016747D01*
X010695Y016824D01*
X010644Y016894D01*
X010583Y016955D01*
X010513Y017006D01*
X010455Y017036D01*
X010513Y017066D01*
X010583Y017116D01*
X010644Y017178D01*
X010695Y017248D01*
X010734Y017325D01*
X010761Y017407D01*
X010774Y017493D01*
X010774Y017516D01*
X010244Y017516D01*
X010244Y017556D01*
X010774Y017556D01*
X010774Y017579D01*
X010761Y017665D01*
X010679Y017846D02*
X010948Y017846D01*
X010947Y018005D02*
X010515Y018005D01*
X010244Y018005D02*
X010204Y018005D01*
X010204Y018086D02*
X010181Y018086D01*
X010096Y018072D01*
X010013Y018046D01*
X009936Y018006D01*
X009866Y017955D01*
X009805Y017894D01*
X009754Y017824D01*
X009715Y017747D01*
X009688Y017665D01*
X009674Y017579D01*
X009674Y017556D01*
X010204Y017556D01*
X010204Y018086D01*
X010204Y017846D02*
X010244Y017846D01*
X010244Y017688D02*
X010204Y017688D01*
X010224Y017536D02*
X010224Y016536D01*
X010113Y016424D01*
X010113Y015324D01*
X010113Y015324D01*
X010553Y015324D01*
X010553Y015142D01*
X010295Y014884D01*
X010113Y014884D01*
X010113Y015324D01*
X010113Y015324D01*
X010553Y015324D01*
X010553Y015507D01*
X010295Y015764D01*
X010113Y015764D01*
X010113Y015324D01*
X010113Y014884D01*
X009930Y014884D01*
X009673Y015142D01*
X009673Y015324D01*
X010113Y015324D01*
X010113Y014244D01*
X010113Y014244D01*
X010553Y014244D01*
X010553Y014062D01*
X010295Y013804D01*
X010113Y013804D01*
X010113Y014244D01*
X010113Y014244D01*
X010553Y014244D01*
X010553Y014427D01*
X010295Y014684D01*
X010113Y014684D01*
X010113Y014244D01*
X010113Y013804D01*
X009930Y013804D01*
X009673Y014062D01*
X009673Y014244D01*
X010113Y014244D01*
X010113Y014244D01*
X010113Y014244D01*
X010113Y014684D01*
X009930Y014684D01*
X009673Y014427D01*
X009673Y014244D01*
X010113Y014244D01*
X010113Y014201D02*
X010113Y014201D01*
X010113Y014359D02*
X010113Y014359D01*
X010113Y014518D02*
X010113Y014518D01*
X010113Y014676D02*
X010113Y014676D01*
X010303Y014676D02*
X010853Y014676D01*
X010853Y014607D02*
X010673Y014427D01*
X010673Y014062D01*
X010818Y013917D01*
X010613Y013713D01*
X009848Y013713D01*
X009753Y013673D01*
X009433Y013353D01*
X009385Y013401D01*
X009468Y013484D01*
X009468Y014106D01*
X009385Y014189D01*
X009468Y014272D01*
X009468Y014893D01*
X009362Y014999D01*
X009273Y014999D01*
X009273Y015130D01*
X009273Y015131D01*
X009273Y015182D01*
X009273Y015233D01*
X009272Y015234D01*
X009255Y017305D01*
X009433Y017482D01*
X009433Y017730D01*
X009981Y018266D01*
X009983Y018267D01*
X010018Y018302D01*
X010053Y018336D01*
X010054Y018339D01*
X010056Y018341D01*
X010075Y018386D01*
X010094Y018431D01*
X010094Y018434D01*
X010095Y018436D01*
X010095Y018486D01*
X010095Y018535D01*
X010094Y018537D01*
X010093Y018782D01*
X010166Y018812D01*
X010334Y018981D01*
X010426Y019202D01*
X010426Y020280D01*
X010334Y020501D01*
X010311Y020524D01*
X010718Y020524D01*
X010695Y020501D01*
X010604Y020280D01*
X010604Y019202D01*
X010695Y018981D01*
X010864Y018812D01*
X010946Y018778D01*
X010952Y015764D01*
X010930Y015764D01*
X010673Y015507D01*
X010673Y015142D01*
X010853Y014962D01*
X010853Y014607D01*
X010764Y014518D02*
X010461Y014518D01*
X010553Y014359D02*
X010673Y014359D01*
X010673Y014201D02*
X010553Y014201D01*
X010533Y014042D02*
X010692Y014042D01*
X010784Y013884D02*
X010374Y013884D01*
X010626Y013725D02*
X009468Y013725D01*
X009468Y013567D02*
X009646Y013567D01*
X009488Y013408D02*
X009392Y013408D01*
X009455Y013008D02*
X008894Y013008D01*
X009455Y013008D02*
X009900Y013453D01*
X010721Y013453D01*
X011093Y013824D01*
X011093Y014224D01*
X011113Y014244D01*
X011113Y015324D01*
X011213Y015424D01*
X011204Y019741D01*
X010604Y019748D02*
X010426Y019748D01*
X010426Y019590D02*
X010604Y019590D01*
X010604Y019431D02*
X010426Y019431D01*
X010426Y019273D02*
X010604Y019273D01*
X010640Y019114D02*
X010390Y019114D01*
X010309Y018956D02*
X010720Y018956D01*
X010900Y018797D02*
X010129Y018797D01*
X010094Y018639D02*
X010946Y018639D01*
X010946Y018480D02*
X010095Y018480D01*
X010038Y018322D02*
X010947Y018322D01*
X010947Y018163D02*
X009876Y018163D01*
X009934Y018005D02*
X009714Y018005D01*
X009770Y017846D02*
X009551Y017846D01*
X009433Y017688D02*
X009695Y017688D01*
X009433Y017529D02*
X010204Y017529D01*
X010244Y017529D02*
X010948Y017529D01*
X010949Y017371D02*
X010749Y017371D01*
X010669Y017212D02*
X010949Y017212D01*
X010949Y017054D02*
X010490Y017054D01*
X010643Y016895D02*
X010950Y016895D01*
X010950Y016737D02*
X010737Y016737D01*
X010774Y016578D02*
X010950Y016578D01*
X010951Y016420D02*
X010763Y016420D01*
X010702Y016261D02*
X010951Y016261D01*
X010951Y016103D02*
X010564Y016103D01*
X010244Y016103D02*
X010204Y016103D01*
X010204Y016261D02*
X010244Y016261D01*
X010244Y016420D02*
X010204Y016420D01*
X010213Y016524D02*
X010224Y016536D01*
X010204Y016578D02*
X010244Y016578D01*
X010244Y016737D02*
X010204Y016737D01*
X010204Y016895D02*
X010244Y016895D01*
X010244Y017054D02*
X010204Y017054D01*
X010204Y017212D02*
X010244Y017212D01*
X010244Y017371D02*
X010204Y017371D01*
X009959Y017054D02*
X009258Y017054D01*
X009256Y017212D02*
X009780Y017212D01*
X009700Y017371D02*
X009321Y017371D01*
X008993Y017664D02*
X008873Y017524D01*
X008993Y017664D02*
X009013Y015181D01*
X009013Y014701D01*
X009012Y014701D02*
X009010Y014681D01*
X009005Y014661D01*
X008996Y014642D01*
X008984Y014625D01*
X008970Y014611D01*
X008953Y014599D01*
X008934Y014590D01*
X008914Y014585D01*
X008894Y014583D01*
X008753Y014999D02*
X008426Y014999D01*
X008320Y014893D01*
X008320Y014272D01*
X008403Y014189D01*
X008320Y014106D01*
X008320Y013484D01*
X008403Y013401D01*
X008320Y013318D01*
X008320Y012697D01*
X008403Y012614D01*
X008320Y012531D01*
X008320Y012480D01*
X007884Y012480D01*
X007770Y012595D01*
X007770Y015685D01*
X007945Y015613D01*
X008135Y015613D01*
X008312Y015686D01*
X008447Y015821D01*
X008520Y015997D01*
X008520Y016788D01*
X008447Y016965D01*
X008312Y017100D01*
X008135Y017173D01*
X007945Y017173D01*
X007790Y017109D01*
X007790Y017164D01*
X007750Y017260D01*
X007333Y017678D01*
X007333Y018553D01*
X007333Y018604D01*
X007333Y018656D01*
X007332Y018656D01*
X007332Y018780D01*
X007410Y018812D01*
X007578Y018981D01*
X007670Y019202D01*
X007670Y020280D01*
X007578Y020501D01*
X007555Y020524D01*
X007970Y020524D01*
X007935Y020475D01*
X007892Y020391D01*
X007862Y020301D01*
X007848Y020208D01*
X007848Y019801D01*
X008388Y019801D01*
X008388Y019681D01*
X008508Y019681D01*
X008508Y019801D01*
X009048Y019801D01*
X009048Y020208D01*
X009033Y020301D01*
X009004Y020391D01*
X008961Y020475D01*
X008925Y020524D01*
X009340Y020524D01*
X009317Y020501D01*
X009226Y020280D01*
X009226Y019202D01*
X009317Y018981D01*
X009486Y018812D01*
X009573Y018776D01*
X009574Y018595D01*
X009071Y018104D01*
X008810Y018104D01*
X008553Y017847D01*
X008553Y017482D01*
X008654Y017381D01*
X008664Y017361D01*
X008734Y017301D01*
X008736Y017299D01*
X008753Y015180D01*
X008753Y014999D01*
X008753Y015152D02*
X007770Y015152D01*
X007770Y015310D02*
X008752Y015310D01*
X008750Y015469D02*
X007770Y015469D01*
X007770Y015627D02*
X007909Y015627D01*
X008171Y015627D02*
X008749Y015627D01*
X008748Y015786D02*
X008412Y015786D01*
X008498Y015944D02*
X008746Y015944D01*
X008745Y016103D02*
X008520Y016103D01*
X008520Y016261D02*
X008744Y016261D01*
X008743Y016420D02*
X008520Y016420D01*
X008520Y016578D02*
X008741Y016578D01*
X008740Y016737D02*
X008520Y016737D01*
X008476Y016895D02*
X008739Y016895D01*
X008738Y017054D02*
X008358Y017054D01*
X008736Y017212D02*
X007770Y017212D01*
X007640Y017371D02*
X008659Y017371D01*
X008553Y017529D02*
X007481Y017529D01*
X007333Y017688D02*
X008553Y017688D01*
X008553Y017846D02*
X007333Y017846D01*
X007333Y018005D02*
X008711Y018005D01*
X008993Y017664D02*
X009835Y018486D01*
X009826Y019741D01*
X009226Y019748D02*
X008508Y019748D01*
X008508Y019681D02*
X009048Y019681D01*
X009048Y019274D01*
X009033Y019180D01*
X009004Y019091D01*
X008961Y019006D01*
X008905Y018930D01*
X008839Y018863D01*
X008762Y018808D01*
X008678Y018765D01*
X008588Y018736D01*
X008508Y018723D01*
X008508Y019681D01*
X008508Y019590D02*
X008388Y019590D01*
X008388Y019681D02*
X008388Y018723D01*
X008307Y018736D01*
X008217Y018765D01*
X008133Y018808D01*
X008057Y018863D01*
X007990Y018930D01*
X007935Y019006D01*
X007892Y019091D01*
X007862Y019180D01*
X007848Y019274D01*
X007848Y019681D01*
X008388Y019681D01*
X008388Y019748D02*
X007670Y019748D01*
X007670Y019590D02*
X007848Y019590D01*
X007848Y019431D02*
X007670Y019431D01*
X007670Y019273D02*
X007848Y019273D01*
X007884Y019114D02*
X007634Y019114D01*
X007553Y018956D02*
X007971Y018956D01*
X008154Y018797D02*
X007373Y018797D01*
X007333Y018639D02*
X009574Y018639D01*
X009522Y018797D02*
X008742Y018797D01*
X008508Y018797D02*
X008388Y018797D01*
X008388Y018956D02*
X008508Y018956D01*
X008508Y019114D02*
X008388Y019114D01*
X008388Y019273D02*
X008508Y019273D01*
X008508Y019431D02*
X008388Y019431D01*
X009011Y019114D02*
X009262Y019114D01*
X009226Y019273D02*
X009048Y019273D01*
X009048Y019431D02*
X009226Y019431D01*
X009226Y019590D02*
X009048Y019590D01*
X009048Y019907D02*
X009226Y019907D01*
X009226Y020065D02*
X009048Y020065D01*
X009045Y020224D02*
X009226Y020224D01*
X009268Y020382D02*
X009007Y020382D01*
X007889Y020382D02*
X007628Y020382D01*
X007670Y020224D02*
X007850Y020224D01*
X007848Y020065D02*
X007670Y020065D01*
X007670Y019907D02*
X007848Y019907D01*
X007070Y019741D02*
X007073Y018604D01*
X007073Y017570D01*
X007530Y017113D01*
X007040Y016393D02*
X007040Y015633D01*
X003900Y012493D01*
X003900Y012253D01*
X003900Y010093D01*
X002878Y009071D01*
X002516Y009071D01*
X002516Y009858D02*
X002225Y009858D01*
X001380Y009013D01*
X001260Y009013D01*
X001260Y010013D02*
X001893Y010646D01*
X002516Y010646D01*
X002017Y011031D02*
X001763Y011031D01*
X001761Y010872D02*
X001657Y010872D01*
X001593Y010714D02*
X001396Y010714D01*
X001387Y010555D02*
X001435Y010555D01*
X001260Y011253D02*
X001440Y011433D01*
X002516Y011433D01*
X002516Y012220D02*
X002252Y012220D01*
X001260Y013213D01*
X001260Y013533D01*
X001509Y014042D02*
X001943Y014042D01*
X001943Y013884D02*
X001687Y013884D01*
X001776Y013725D02*
X001943Y013725D01*
X001943Y013567D02*
X001810Y013567D01*
X001804Y013408D02*
X002023Y013408D01*
X001943Y013250D02*
X001738Y013250D01*
X001749Y013091D02*
X001943Y013091D01*
X001943Y012933D02*
X001908Y012933D01*
X002516Y013008D02*
X003215Y013008D01*
X004530Y014323D01*
X004290Y014518D02*
X003090Y014518D01*
X003090Y014621D02*
X003090Y014842D01*
X003078Y014888D01*
X003054Y014929D01*
X003020Y014963D01*
X002979Y014986D01*
X002934Y014999D01*
X002554Y014999D01*
X002554Y014621D01*
X003090Y014621D01*
X003090Y014676D02*
X004290Y014676D01*
X004290Y014835D02*
X003090Y014835D01*
X002954Y014993D02*
X004290Y014993D01*
X004199Y014359D02*
X003090Y014359D01*
X003018Y014201D02*
X004040Y014201D01*
X003882Y014042D02*
X003090Y014042D01*
X003090Y013884D02*
X003723Y013884D01*
X003565Y013725D02*
X003090Y013725D01*
X003090Y013567D02*
X003406Y013567D01*
X003248Y013408D02*
X003009Y013408D01*
X002554Y013884D02*
X002478Y013884D01*
X002478Y014042D02*
X002554Y014042D01*
X002554Y014201D02*
X002478Y014201D01*
X002478Y014359D02*
X002554Y014359D01*
X002554Y014518D02*
X002478Y014518D01*
X002478Y014676D02*
X002554Y014676D01*
X002554Y014835D02*
X002478Y014835D01*
X002478Y014993D02*
X002554Y014993D01*
X001943Y014359D02*
X001782Y014359D01*
X001699Y014201D02*
X002015Y014201D01*
X003413Y012605D02*
X003413Y010205D01*
X003065Y009858D01*
X002516Y009858D01*
X003587Y008812D02*
X008320Y008812D01*
X008320Y008970D02*
X003745Y008970D01*
X003904Y009129D02*
X008320Y009129D01*
X008320Y009287D02*
X004062Y009287D01*
X004221Y009446D02*
X008385Y009446D01*
X008320Y009604D02*
X004379Y009604D01*
X004538Y009763D02*
X008320Y009763D01*
X008320Y009921D02*
X004696Y009921D01*
X004855Y010080D02*
X008320Y010080D01*
X008390Y010238D02*
X005013Y010238D01*
X004595Y010555D02*
X004160Y010555D01*
X004160Y010397D02*
X004436Y010397D01*
X004278Y010238D02*
X004160Y010238D01*
X004160Y010120D02*
X004160Y011978D01*
X004221Y012039D01*
X004278Y012178D01*
X004278Y012328D01*
X004227Y012452D01*
X007187Y015412D01*
X007260Y015485D01*
X007290Y015557D01*
X007290Y012567D01*
X007270Y012519D01*
X007270Y012415D01*
X007310Y012320D01*
X007629Y012000D01*
X007725Y011960D01*
X008320Y011960D01*
X008320Y011910D01*
X008403Y011827D01*
X008320Y011744D01*
X008320Y011122D01*
X008403Y011039D01*
X008320Y010956D01*
X008320Y010906D01*
X005001Y010906D01*
X004905Y010866D01*
X004832Y010793D01*
X004832Y010793D01*
X004160Y010120D01*
X004160Y010714D02*
X004753Y010714D01*
X004921Y010872D02*
X004160Y010872D01*
X004160Y011031D02*
X008395Y011031D01*
X008320Y011189D02*
X004160Y011189D01*
X004160Y011348D02*
X008320Y011348D01*
X008320Y011506D02*
X004160Y011506D01*
X004160Y011665D02*
X008320Y011665D01*
X008400Y011823D02*
X004160Y011823D01*
X004164Y011982D02*
X007673Y011982D01*
X007489Y012140D02*
X004263Y012140D01*
X004278Y012299D02*
X007330Y012299D01*
X007270Y012457D02*
X004232Y012457D01*
X004391Y012616D02*
X007290Y012616D01*
X007290Y012774D02*
X004549Y012774D01*
X004708Y012933D02*
X007290Y012933D01*
X007290Y013091D02*
X004866Y013091D01*
X005025Y013250D02*
X007290Y013250D01*
X007290Y013408D02*
X005183Y013408D01*
X005342Y013567D02*
X007290Y013567D01*
X007290Y013725D02*
X005500Y013725D01*
X005659Y013884D02*
X007290Y013884D01*
X007290Y014042D02*
X005817Y014042D01*
X005976Y014201D02*
X007290Y014201D01*
X007290Y014359D02*
X006134Y014359D01*
X006293Y014518D02*
X007290Y014518D01*
X007290Y014676D02*
X006451Y014676D01*
X006610Y014835D02*
X007290Y014835D01*
X007290Y014993D02*
X006768Y014993D01*
X006927Y015152D02*
X007290Y015152D01*
X007290Y015310D02*
X007085Y015310D01*
X007244Y015469D02*
X007290Y015469D01*
X007770Y014993D02*
X008420Y014993D01*
X008320Y014835D02*
X007770Y014835D01*
X007770Y014676D02*
X008320Y014676D01*
X008320Y014518D02*
X007770Y014518D01*
X007770Y014359D02*
X008320Y014359D01*
X008391Y014201D02*
X007770Y014201D01*
X007770Y014042D02*
X008320Y014042D01*
X008320Y013884D02*
X007770Y013884D01*
X007770Y013725D02*
X008320Y013725D01*
X008320Y013567D02*
X007770Y013567D01*
X007770Y013408D02*
X008397Y013408D01*
X008320Y013250D02*
X007770Y013250D01*
X007770Y013091D02*
X008320Y013091D01*
X008320Y012933D02*
X007770Y012933D01*
X007770Y012774D02*
X008320Y012774D01*
X008402Y012616D02*
X007770Y012616D01*
X007530Y012467D02*
X007777Y012220D01*
X008894Y012220D01*
X009468Y013884D02*
X009851Y013884D01*
X009692Y014042D02*
X009468Y014042D01*
X009397Y014201D02*
X009673Y014201D01*
X009673Y014359D02*
X009468Y014359D01*
X009468Y014518D02*
X009764Y014518D01*
X009922Y014676D02*
X009468Y014676D01*
X009468Y014835D02*
X010853Y014835D01*
X010821Y014993D02*
X010404Y014993D01*
X010553Y015152D02*
X010673Y015152D01*
X010673Y015310D02*
X010553Y015310D01*
X010553Y015469D02*
X010673Y015469D01*
X010793Y015627D02*
X010432Y015627D01*
X010113Y015627D02*
X010113Y015627D01*
X010113Y015764D02*
X009930Y015764D01*
X009673Y015507D01*
X009673Y015324D01*
X010113Y015324D01*
X010113Y015324D01*
X010113Y015324D01*
X010113Y015764D01*
X010113Y015469D02*
X010113Y015469D01*
X010113Y015310D02*
X010113Y015310D01*
X010113Y015152D02*
X010113Y015152D01*
X010113Y014993D02*
X010113Y014993D01*
X009821Y014993D02*
X009368Y014993D01*
X009273Y015152D02*
X009673Y015152D01*
X009673Y015310D02*
X009272Y015310D01*
X009270Y015469D02*
X009673Y015469D01*
X009793Y015627D02*
X009269Y015627D01*
X009268Y015786D02*
X010952Y015786D01*
X010952Y015944D02*
X009266Y015944D01*
X009265Y016103D02*
X009885Y016103D01*
X009747Y016261D02*
X009264Y016261D01*
X009263Y016420D02*
X009686Y016420D01*
X009674Y016578D02*
X009261Y016578D01*
X009260Y016737D02*
X009711Y016737D01*
X009806Y016895D02*
X009259Y016895D01*
X009132Y018163D02*
X007333Y018163D01*
X007333Y018322D02*
X009294Y018322D01*
X009456Y018480D02*
X007333Y018480D01*
X007333Y018553D02*
X007333Y018553D01*
X007073Y018604D02*
X006133Y017664D01*
X005993Y017664D01*
X006413Y018624D02*
X006413Y020424D01*
X006653Y021016D02*
X000660Y021016D01*
X003204Y020699D02*
X004049Y020699D01*
X004254Y020699D02*
X004374Y020699D01*
X004374Y020541D02*
X004254Y020541D01*
X004254Y020382D02*
X004374Y020382D01*
X004374Y020224D02*
X004254Y020224D01*
X004254Y020065D02*
X004374Y020065D01*
X004374Y019907D02*
X004254Y019907D01*
X003714Y019907D02*
X003536Y019907D01*
X003536Y020065D02*
X003714Y020065D01*
X003716Y020224D02*
X003536Y020224D01*
X003494Y020382D02*
X003755Y020382D01*
X003848Y020541D02*
X003405Y020541D01*
X004579Y020699D02*
X005424Y020699D01*
X005223Y020541D02*
X004780Y020541D01*
X004873Y020382D02*
X005134Y020382D01*
X005092Y020224D02*
X004911Y020224D01*
X004914Y020065D02*
X005092Y020065D01*
X005092Y019907D02*
X004914Y019907D01*
X006040Y016393D02*
X006040Y015233D01*
X003413Y012605D01*
X002516Y012220D02*
X002372Y012220D01*
X003428Y008653D02*
X010840Y008653D01*
X010877Y008812D02*
X009468Y008812D01*
X009468Y008970D02*
X011035Y008970D01*
X010983Y009287D02*
X010297Y009287D01*
X009877Y009287D02*
X009562Y009287D01*
X009468Y009129D02*
X013293Y009129D01*
X014280Y008593D02*
X014681Y008593D01*
X016433Y010344D01*
X014013Y013091D02*
X013367Y013091D01*
X013209Y012933D02*
X013899Y012933D01*
X013833Y012774D02*
X013050Y012774D01*
X012892Y012616D02*
X013833Y012616D01*
X013877Y012457D02*
X011668Y012457D01*
X011488Y013091D02*
X012632Y013091D01*
X012790Y013250D02*
X010886Y013250D01*
X011044Y013408D02*
X012949Y013408D01*
X013107Y013567D02*
X011203Y013567D01*
X011333Y013725D02*
X013266Y013725D01*
X013424Y013884D02*
X011374Y013884D01*
X011533Y014042D02*
X013583Y014042D01*
X013741Y014201D02*
X011553Y014201D01*
X011553Y014359D02*
X013900Y014359D01*
X014058Y014518D02*
X011461Y014518D01*
X011373Y014676D02*
X014217Y014676D01*
X014375Y014835D02*
X011373Y014835D01*
X011404Y014993D02*
X014534Y014993D01*
X014692Y015152D02*
X011553Y015152D01*
X011553Y015310D02*
X014851Y015310D01*
X014853Y015469D02*
X011553Y015469D01*
X011472Y015627D02*
X014853Y015627D01*
X015373Y015627D02*
X015733Y015627D01*
X015575Y015469D02*
X015373Y015469D01*
X015373Y015310D02*
X015493Y015310D01*
X015493Y015152D02*
X015372Y015152D01*
X015354Y014993D02*
X015269Y014993D01*
X015195Y014835D02*
X015111Y014835D01*
X015037Y014676D02*
X014952Y014676D01*
X014878Y014518D02*
X014794Y014518D01*
X014720Y014359D02*
X014635Y014359D01*
X014561Y014201D02*
X014477Y014201D01*
X014403Y014042D02*
X014318Y014042D01*
X014244Y013884D02*
X014160Y013884D01*
X014086Y013725D02*
X014001Y013725D01*
X014013Y013567D02*
X013843Y013567D01*
X013684Y013408D02*
X014013Y013408D01*
X014013Y013250D02*
X013526Y013250D01*
X015604Y013408D02*
X015993Y013408D01*
X015993Y013567D02*
X015763Y013567D01*
X015921Y013725D02*
X015993Y013725D01*
X016080Y013884D02*
X016140Y013884D01*
X016283Y014454D02*
X016433Y014454D01*
X016573Y016103D02*
X015373Y016103D01*
X015373Y016261D02*
X016436Y016261D01*
X016370Y016420D02*
X015373Y016420D01*
X015373Y016578D02*
X016367Y016578D01*
X016405Y016737D02*
X015373Y016737D01*
X015373Y016895D02*
X016499Y016895D01*
X016644Y017054D02*
X015373Y017054D01*
X015343Y017414D02*
X015337Y019741D01*
X014737Y019907D02*
X014560Y019907D01*
X014560Y020065D02*
X014737Y020065D01*
X014737Y020224D02*
X014557Y020224D01*
X014518Y020382D02*
X014780Y020382D01*
X014869Y020541D02*
X014425Y020541D01*
X014225Y020699D02*
X015069Y020699D01*
X015606Y020699D02*
X016447Y020699D01*
X016376Y020670D02*
X016207Y020501D01*
X016115Y020280D01*
X016115Y019202D01*
X016207Y018981D01*
X016376Y018812D01*
X016596Y018721D01*
X016835Y018721D01*
X017055Y018812D01*
X017224Y018981D01*
X017315Y019202D01*
X017315Y020280D01*
X017224Y020501D01*
X017055Y020670D01*
X016835Y020761D01*
X016596Y020761D01*
X016376Y020670D01*
X016247Y020541D02*
X015806Y020541D01*
X015895Y020382D02*
X016158Y020382D01*
X016115Y020224D02*
X015937Y020224D01*
X015937Y020065D02*
X016115Y020065D01*
X016115Y019907D02*
X015937Y019907D01*
X015937Y019748D02*
X016115Y019748D01*
X016115Y019590D02*
X015937Y019590D01*
X015937Y019431D02*
X016115Y019431D01*
X016115Y019273D02*
X015937Y019273D01*
X015901Y019114D02*
X016152Y019114D01*
X016232Y018956D02*
X015821Y018956D01*
X015641Y018797D02*
X016412Y018797D01*
X017019Y018797D02*
X017417Y018797D01*
X017417Y018639D02*
X015600Y018639D01*
X015600Y018480D02*
X017417Y018480D01*
X017417Y018322D02*
X015601Y018322D01*
X015601Y018163D02*
X017417Y018163D01*
X017417Y018005D02*
X017223Y018005D01*
X017384Y017846D02*
X017417Y017846D01*
X016612Y018005D02*
X015601Y018005D01*
X015602Y017846D02*
X016451Y017846D01*
X016385Y017688D02*
X015602Y017688D01*
X017199Y018956D02*
X017417Y018956D01*
X017417Y019114D02*
X017279Y019114D01*
X017315Y019273D02*
X017417Y019273D01*
X017417Y019431D02*
X017315Y019431D01*
X017315Y019590D02*
X017417Y019590D01*
X017417Y019748D02*
X017315Y019748D01*
X017315Y019907D02*
X017417Y019907D01*
X017417Y020065D02*
X017315Y020065D01*
X017315Y020224D02*
X017417Y020224D01*
X017417Y020382D02*
X017273Y020382D01*
X017184Y020541D02*
X017417Y020541D01*
X017417Y020699D02*
X016984Y020699D01*
X017417Y020858D02*
X012527Y020858D01*
X012352Y021016D02*
X017417Y021016D01*
X012278Y018797D02*
X011507Y018797D01*
X011687Y018956D02*
X012098Y018956D01*
X012018Y019114D02*
X011767Y019114D01*
X011804Y019273D02*
X011982Y019273D01*
X011982Y019431D02*
X011804Y019431D01*
X011804Y019590D02*
X011982Y019590D01*
X011982Y019748D02*
X011804Y019748D01*
X011804Y019907D02*
X011982Y019907D01*
X011982Y020065D02*
X011804Y020065D01*
X011804Y020224D02*
X011982Y020224D01*
X012024Y020382D02*
X011761Y020382D01*
X010646Y020382D02*
X010383Y020382D01*
X010426Y020224D02*
X010604Y020224D01*
X010604Y020065D02*
X010426Y020065D01*
X010426Y019907D02*
X010604Y019907D01*
X009342Y018956D02*
X008924Y018956D01*
X010113Y014042D02*
X010113Y014042D01*
X010113Y013884D02*
X010113Y013884D01*
X009845Y010080D02*
X009468Y010080D01*
X008841Y005800D02*
X010906Y005800D01*
X013553Y006984D02*
X013973Y006564D01*
X014273Y006564D01*
X013995Y006910D02*
X013996Y006910D01*
D24*
X016322Y006552D03*
X015141Y002221D03*
X006086Y009788D03*
X004800Y011953D03*
X006326Y013252D03*
X012212Y017542D03*
X012452Y015007D03*
D25*
X003900Y012253D03*
X012420Y004033D03*
D26*
X007530Y012467D02*
X007530Y017113D01*
X004530Y017342D02*
X004530Y014323D01*
M02*
