G75*
%MOIN*%
%OFA0B0*%
%FSLAX24Y24*%
%IPPOS*%
%LPD*%
%AMOC8*
5,1,8,0,0,1.08239X$1,22.5*
%
%ADD10R,0.0480X0.0980*%
%ADD11R,0.0767X0.0452*%
%ADD12R,0.0374X0.0807*%
%ADD13R,0.1437X0.0807*%
%ADD14R,0.0197X0.0452*%
%ADD15R,0.0374X0.0413*%
%ADD16R,0.0413X0.0374*%
%ADD17R,0.0840X0.0400*%
D10*
X023198Y014918D03*
X023985Y014918D03*
X024773Y014918D03*
X025560Y014918D03*
X026347Y014918D03*
X027135Y014918D03*
X027922Y014918D03*
X027922Y021218D03*
X027135Y021218D03*
X026347Y021218D03*
X025560Y021218D03*
X024773Y021218D03*
X023985Y021218D03*
X023198Y021218D03*
D11*
X031204Y009843D03*
X031204Y009055D03*
X031204Y008268D03*
X031204Y007480D03*
X031204Y006693D03*
X031204Y005906D03*
X031204Y005118D03*
X031204Y004331D03*
X037582Y004331D03*
X037582Y005118D03*
X037582Y005906D03*
X037582Y006693D03*
X037582Y007480D03*
X037582Y008268D03*
X037582Y009055D03*
X037582Y009843D03*
D12*
X003186Y016364D03*
X002280Y016364D03*
X001374Y016364D03*
D13*
X002280Y018805D03*
D14*
X004006Y018396D03*
X004754Y018396D03*
X004754Y017372D03*
X004380Y017372D03*
X004006Y017372D03*
D15*
X004045Y016684D03*
X004715Y016684D03*
D16*
X004715Y019084D03*
X004045Y019084D03*
D17*
X010521Y005467D03*
X010521Y007042D03*
X014380Y007042D03*
X014380Y005467D03*
M02*
