G75*
%MOIN*%
%OFA0B0*%
%FSLAX24Y24*%
%IPPOS*%
%LPD*%
%AMOC8*
5,1,8,0,0,1.08239X$1,22.5*
%
%ADD10C,0.0060*%
%ADD11C,0.0050*%
%ADD12C,0.0080*%
%ADD13C,0.0200*%
%ADD14C,0.0220*%
%ADD15C,0.0040*%
D10*
X003793Y005711D02*
X003793Y005884D01*
X003793Y005798D02*
X004053Y005798D01*
X004053Y006006D02*
X003793Y006179D01*
X003793Y006006D02*
X004053Y006179D01*
X004267Y006225D02*
X004267Y005634D01*
X004266Y005634D02*
X004270Y005615D01*
X004276Y005598D01*
X004286Y005581D01*
X004298Y005567D01*
X004313Y005555D01*
X004329Y005545D01*
X004347Y005539D01*
X004366Y005535D01*
X004385Y005535D01*
X004385Y005536D02*
X005015Y005536D01*
X005014Y005535D02*
X005033Y005535D01*
X005052Y005539D01*
X005070Y005545D01*
X005086Y005555D01*
X005101Y005567D01*
X005113Y005581D01*
X005123Y005598D01*
X005129Y005615D01*
X005133Y005634D01*
X005133Y006225D01*
X005134Y006225D02*
X005130Y006243D01*
X005124Y006261D01*
X005114Y006278D01*
X005102Y006292D01*
X005087Y006305D01*
X005071Y006314D01*
X005053Y006320D01*
X005034Y006324D01*
X005015Y006324D01*
X005015Y006323D02*
X004385Y006323D01*
X004385Y006324D02*
X004366Y006324D01*
X004347Y006320D01*
X004329Y006314D01*
X004313Y006304D01*
X004298Y006292D01*
X004286Y006278D01*
X004276Y006261D01*
X004270Y006244D01*
X004266Y006225D01*
X004227Y007033D02*
X004227Y007164D01*
X004270Y007207D01*
X004357Y007207D01*
X004401Y007164D01*
X004401Y007033D01*
X004487Y007033D02*
X004227Y007033D01*
X004401Y007120D02*
X004487Y007207D01*
X004487Y007328D02*
X004227Y007502D01*
X004227Y007328D02*
X004487Y007502D01*
X004628Y007568D02*
X004628Y006977D01*
X004627Y006977D02*
X004631Y006958D01*
X004637Y006941D01*
X004647Y006924D01*
X004659Y006910D01*
X004674Y006898D01*
X004690Y006888D01*
X004708Y006882D01*
X004727Y006878D01*
X004746Y006878D01*
X004746Y006879D02*
X005376Y006879D01*
X005376Y006878D02*
X005395Y006878D01*
X005414Y006882D01*
X005432Y006888D01*
X005448Y006898D01*
X005463Y006910D01*
X005475Y006924D01*
X005485Y006941D01*
X005491Y006958D01*
X005495Y006977D01*
X005494Y006977D02*
X005494Y007568D01*
X005495Y007568D02*
X005491Y007586D01*
X005485Y007604D01*
X005475Y007621D01*
X005463Y007635D01*
X005448Y007648D01*
X005432Y007657D01*
X005414Y007663D01*
X005395Y007667D01*
X005376Y007667D01*
X005376Y007666D02*
X004746Y007666D01*
X004746Y007667D02*
X004727Y007667D01*
X004708Y007663D01*
X004690Y007657D01*
X004674Y007647D01*
X004659Y007635D01*
X004647Y007621D01*
X004637Y007604D01*
X004631Y007587D01*
X004627Y007568D01*
X004375Y008104D02*
X004462Y008191D01*
X004462Y008364D01*
X004289Y008191D02*
X004375Y008104D01*
X004289Y008191D02*
X004289Y008364D01*
X004168Y008364D02*
X003994Y008364D01*
X003994Y008234D01*
X004081Y008278D01*
X004124Y008278D01*
X004168Y008234D01*
X004168Y008147D01*
X004124Y008104D01*
X004037Y008104D01*
X003994Y008147D01*
X005074Y008364D02*
X005248Y008364D01*
X005161Y008364D02*
X005161Y008104D01*
X005369Y008104D02*
X005542Y008364D01*
X005369Y008364D02*
X005542Y008104D01*
X006034Y008104D02*
X006034Y008364D01*
X006164Y008364D01*
X006208Y008321D01*
X006208Y008234D01*
X006164Y008191D01*
X006034Y008191D01*
X006121Y008191D02*
X006208Y008104D01*
X006329Y008104D02*
X006502Y008364D01*
X006329Y008364D02*
X006502Y008104D01*
X006994Y008147D02*
X007037Y008104D01*
X007124Y008104D01*
X007168Y008147D01*
X007168Y008234D01*
X007081Y008234D01*
X006994Y008321D02*
X006994Y008147D01*
X006994Y008321D02*
X007037Y008364D01*
X007124Y008364D01*
X007168Y008321D01*
X007289Y008364D02*
X007289Y008104D01*
X007462Y008104D02*
X007289Y008364D01*
X007462Y008364D02*
X007462Y008104D01*
X007583Y008104D02*
X007583Y008364D01*
X007714Y008364D01*
X007757Y008321D01*
X007757Y008147D01*
X007714Y008104D01*
X007583Y008104D01*
X005368Y014344D02*
X005281Y014344D01*
X005238Y014387D01*
X005281Y014474D02*
X005368Y014474D01*
X005412Y014431D01*
X005412Y014387D01*
X005368Y014344D01*
X005281Y014474D02*
X005238Y014518D01*
X005238Y014561D01*
X005281Y014604D01*
X005368Y014604D01*
X005412Y014561D01*
X005117Y014604D02*
X005117Y014387D01*
X005074Y014344D01*
X004987Y014344D01*
X004943Y014387D01*
X004943Y014604D01*
X004822Y014561D02*
X004822Y014518D01*
X004779Y014474D01*
X004649Y014474D01*
X004779Y014474D02*
X004822Y014431D01*
X004822Y014387D01*
X004779Y014344D01*
X004649Y014344D01*
X004649Y014604D01*
X004779Y014604D01*
X004822Y014561D01*
X004528Y014604D02*
X004528Y014344D01*
X004441Y014518D02*
X004528Y014604D01*
X004441Y014518D02*
X004354Y014604D01*
X004354Y014344D01*
D11*
X001764Y003991D02*
X001764Y003800D01*
X001764Y003895D02*
X001827Y003895D01*
X001764Y003991D02*
X001891Y003991D01*
X001985Y003927D02*
X002048Y003991D01*
X002048Y003800D01*
X001985Y003800D02*
X002112Y003800D01*
X002151Y004940D02*
X002182Y004940D01*
X002182Y004972D01*
X002151Y004972D01*
X002151Y004940D01*
X002056Y004972D02*
X002025Y004940D01*
X001961Y004940D01*
X001930Y004972D01*
X002056Y005099D01*
X002056Y004972D01*
X001930Y004972D02*
X001930Y005099D01*
X001961Y005131D01*
X002025Y005131D01*
X002056Y005099D01*
X001835Y005131D02*
X001709Y004940D01*
X001614Y005004D02*
X001614Y005131D01*
X001488Y005131D02*
X001488Y005004D01*
X001551Y004940D01*
X001614Y005004D01*
X001393Y005004D02*
X001362Y005035D01*
X001267Y005035D01*
X001267Y004972D01*
X001298Y004940D01*
X001362Y004940D01*
X001393Y004972D01*
X001393Y005004D01*
X001330Y005099D02*
X001393Y005131D01*
X001330Y005099D02*
X001267Y005035D01*
X000940Y005627D02*
X000940Y005754D01*
X000940Y005848D02*
X000940Y005975D01*
X000940Y005912D02*
X000750Y005912D01*
X000814Y005848D01*
X000750Y005627D02*
X000940Y005627D01*
X000940Y006507D02*
X000940Y006634D01*
X000940Y006571D02*
X000750Y006571D01*
X000814Y006507D01*
X000782Y006728D02*
X000750Y006760D01*
X000750Y006823D01*
X000782Y006855D01*
X000909Y006728D01*
X000940Y006760D01*
X000940Y006823D01*
X000909Y006855D01*
X000782Y006855D01*
X000814Y006949D02*
X000909Y006949D01*
X000940Y006981D01*
X000940Y007076D01*
X000814Y007076D01*
X000845Y007170D02*
X000845Y007297D01*
X000750Y007297D02*
X000940Y007297D01*
X000940Y007170D02*
X000750Y007170D01*
X000782Y006728D02*
X000909Y006728D01*
X001502Y008265D02*
X001502Y008391D01*
X001597Y008360D02*
X001407Y008360D01*
X001502Y008265D01*
X001565Y008486D02*
X001565Y008517D01*
X001597Y008517D01*
X001597Y008486D01*
X001565Y008486D01*
X001565Y008596D02*
X001597Y008596D01*
X001565Y008596D02*
X001439Y008723D01*
X001407Y008723D01*
X001407Y008596D01*
X001470Y008817D02*
X001565Y008817D01*
X001597Y008849D01*
X001597Y008944D01*
X001470Y008944D01*
X001502Y009038D02*
X001502Y009101D01*
X001597Y009038D02*
X001407Y009038D01*
X001407Y009165D01*
X002037Y009962D02*
X002005Y009994D01*
X002005Y010057D01*
X002037Y010089D01*
X002068Y010089D01*
X002100Y010057D01*
X002132Y010089D01*
X002163Y010089D01*
X002195Y010057D01*
X002195Y009994D01*
X002163Y009962D01*
X002100Y010025D02*
X002100Y010057D01*
X002163Y010183D02*
X002037Y010310D01*
X002005Y010310D01*
X002005Y010183D01*
X002163Y010183D02*
X002195Y010183D01*
X002195Y010404D02*
X002005Y010404D01*
X002068Y010499D02*
X002132Y010404D01*
X002195Y010499D01*
X002075Y010802D02*
X002075Y010929D01*
X002075Y010865D02*
X001885Y010865D01*
X001948Y010802D01*
X001917Y011023D02*
X001885Y011055D01*
X001885Y011118D01*
X001917Y011150D01*
X002043Y011023D01*
X002075Y011055D01*
X002075Y011118D01*
X002043Y011150D01*
X001917Y011150D01*
X001948Y011244D02*
X001948Y011339D01*
X001980Y011371D01*
X002043Y011371D01*
X002075Y011339D01*
X002075Y011244D01*
X002138Y011244D02*
X001948Y011244D01*
X001917Y011023D02*
X002043Y011023D01*
X002075Y011465D02*
X001885Y011465D01*
X001885Y011592D01*
X001980Y011528D02*
X001980Y011465D01*
X002068Y011920D02*
X002005Y011983D01*
X002195Y011983D01*
X002195Y011920D02*
X002195Y012047D01*
X002195Y012141D02*
X002005Y012141D01*
X002068Y012204D01*
X002005Y012268D01*
X002195Y012268D01*
X002060Y012452D02*
X001934Y012452D01*
X002060Y012579D01*
X002060Y012610D01*
X002029Y012642D01*
X001965Y012642D01*
X001934Y012610D01*
X001839Y012610D02*
X001808Y012642D01*
X001744Y012642D01*
X001713Y012610D01*
X001713Y012484D01*
X001744Y012452D01*
X001808Y012452D01*
X001839Y012484D01*
X001622Y011717D02*
X001022Y011717D01*
X001022Y010317D01*
X001622Y010317D01*
X001622Y011717D01*
X002514Y012452D02*
X002640Y012452D01*
X002577Y012452D02*
X002577Y012642D01*
X002514Y012579D01*
X002735Y012610D02*
X002735Y012484D01*
X002861Y012610D01*
X002861Y012484D01*
X002830Y012452D01*
X002766Y012452D01*
X002735Y012484D01*
X002735Y012610D02*
X002766Y012642D01*
X002830Y012642D01*
X002861Y012610D01*
X002955Y012579D02*
X002955Y012484D01*
X002987Y012452D01*
X003082Y012452D01*
X003082Y012579D01*
X003445Y012198D02*
X003445Y012135D01*
X003477Y012103D01*
X003477Y012009D02*
X003540Y012009D01*
X003572Y011977D01*
X003572Y011882D01*
X003635Y011882D02*
X003445Y011882D01*
X003445Y011977D01*
X003477Y012009D01*
X003572Y011945D02*
X003635Y012009D01*
X003635Y012103D02*
X003508Y012230D01*
X003477Y012230D01*
X003445Y012198D01*
X003635Y012230D02*
X003635Y012103D01*
X003540Y011270D02*
X003540Y011143D01*
X003445Y011238D01*
X003635Y011238D01*
X003603Y011049D02*
X003635Y011017D01*
X003635Y010954D01*
X003603Y010922D01*
X003477Y010922D01*
X003445Y010954D01*
X003445Y011017D01*
X003477Y011049D01*
X003635Y010310D02*
X003635Y010183D01*
X003635Y010246D02*
X003445Y010246D01*
X003508Y010183D01*
X003477Y010089D02*
X003540Y010089D01*
X003572Y010057D01*
X003572Y009962D01*
X003635Y009962D02*
X003445Y009962D01*
X003445Y010057D01*
X003477Y010089D01*
X003572Y010025D02*
X003635Y010089D01*
X003471Y009552D02*
X003344Y009552D01*
X003344Y009457D01*
X003407Y009489D01*
X003439Y009489D01*
X003471Y009457D01*
X003471Y009394D01*
X003439Y009362D01*
X003376Y009362D01*
X003344Y009394D01*
X003250Y009362D02*
X003123Y009362D01*
X003186Y009362D02*
X003186Y009552D01*
X003123Y009489D01*
X003029Y009520D02*
X002902Y009394D01*
X002934Y009362D01*
X002997Y009362D01*
X003029Y009394D01*
X003029Y009520D01*
X002997Y009552D01*
X002934Y009552D01*
X002902Y009520D01*
X002902Y009394D01*
X002808Y009394D02*
X002776Y009362D01*
X002713Y009362D01*
X002681Y009394D01*
X002744Y009457D02*
X002776Y009457D01*
X002808Y009425D01*
X002808Y009394D01*
X002776Y009457D02*
X002808Y009489D01*
X002808Y009520D01*
X002776Y009552D01*
X002713Y009552D01*
X002681Y009520D01*
X002587Y009520D02*
X002587Y009457D01*
X002555Y009425D01*
X002460Y009425D01*
X002460Y009362D02*
X002460Y009552D01*
X002555Y009552D01*
X002587Y009520D01*
X002366Y009489D02*
X002366Y009362D01*
X002366Y009457D02*
X002239Y009457D01*
X002239Y009489D02*
X002302Y009552D01*
X002366Y009489D01*
X002239Y009489D02*
X002239Y009362D01*
X000757Y008889D02*
X000757Y008762D01*
X000757Y008825D02*
X000567Y008825D01*
X000630Y008762D01*
X000599Y008668D02*
X000567Y008636D01*
X000567Y008573D01*
X000599Y008541D01*
X000725Y008541D01*
X000757Y008573D01*
X000757Y008636D01*
X000725Y008668D01*
X002261Y005131D02*
X002261Y005035D01*
X002324Y005067D01*
X002356Y005067D01*
X002388Y005035D01*
X002388Y004972D01*
X002356Y004940D01*
X002293Y004940D01*
X002261Y004972D01*
X002261Y005131D02*
X002388Y005131D01*
X002482Y005067D02*
X002545Y005131D01*
X002609Y005067D01*
X002609Y004940D01*
X002609Y005035D02*
X002482Y005035D01*
X002482Y005067D02*
X002482Y004940D01*
X003369Y004130D02*
X004078Y004130D01*
X003369Y003146D02*
X003369Y002083D01*
X003369Y000508D02*
X006440Y000508D01*
X006440Y002319D02*
X006440Y003146D01*
X006961Y003667D02*
X007152Y003667D01*
X007152Y003730D02*
X007152Y003603D01*
X007025Y003603D02*
X006961Y003667D01*
X006993Y003824D02*
X006961Y003856D01*
X006961Y003919D01*
X006993Y003951D01*
X007120Y003824D01*
X007152Y003856D01*
X007152Y003919D01*
X007120Y003951D01*
X006993Y003951D01*
X006993Y004045D02*
X006961Y004077D01*
X006961Y004140D01*
X006993Y004172D01*
X007120Y004045D01*
X007152Y004077D01*
X007152Y004140D01*
X007120Y004172D01*
X006993Y004172D01*
X007025Y004266D02*
X007025Y004361D01*
X007057Y004393D01*
X007152Y004393D01*
X007152Y004487D02*
X006961Y004487D01*
X006961Y004614D01*
X007057Y004551D02*
X007057Y004487D01*
X007025Y004266D02*
X007152Y004266D01*
X007120Y004045D02*
X006993Y004045D01*
X006993Y003824D02*
X007120Y003824D01*
X007317Y003192D02*
X007285Y003160D01*
X007285Y003034D01*
X007317Y003002D01*
X007380Y003002D01*
X007412Y003034D01*
X007506Y003034D02*
X007506Y003002D01*
X007506Y003034D02*
X007633Y003160D01*
X007633Y003192D01*
X007506Y003192D01*
X007412Y003160D02*
X007380Y003192D01*
X007317Y003192D01*
X008005Y003640D02*
X008195Y003640D01*
X008195Y003577D02*
X008195Y003704D01*
X008163Y003798D02*
X008037Y003925D01*
X008163Y003925D01*
X008195Y003893D01*
X008195Y003830D01*
X008163Y003798D01*
X008037Y003798D01*
X008005Y003830D01*
X008005Y003893D01*
X008037Y003925D01*
X008037Y004019D02*
X008005Y004051D01*
X008005Y004114D01*
X008037Y004146D01*
X008163Y004019D01*
X008195Y004051D01*
X008195Y004114D01*
X008163Y004146D01*
X008037Y004146D01*
X008068Y004240D02*
X008068Y004335D01*
X008100Y004367D01*
X008195Y004367D01*
X008195Y004461D02*
X008005Y004461D01*
X008005Y004588D01*
X008100Y004524D02*
X008100Y004461D01*
X008068Y004240D02*
X008195Y004240D01*
X008163Y004019D02*
X008037Y004019D01*
X008005Y003640D02*
X008068Y003577D01*
X008277Y003192D02*
X008245Y003160D01*
X008245Y003034D01*
X008277Y003002D01*
X008340Y003002D01*
X008372Y003034D01*
X008466Y003034D02*
X008498Y003002D01*
X008561Y003002D01*
X008593Y003034D01*
X008593Y003065D01*
X008561Y003097D01*
X008466Y003097D01*
X008466Y003034D01*
X008466Y003097D02*
X008529Y003160D01*
X008593Y003192D01*
X008372Y003160D02*
X008340Y003192D01*
X008277Y003192D01*
X006440Y004130D02*
X005731Y004130D01*
X006051Y010532D02*
X006051Y010722D01*
X006146Y010722D01*
X006178Y010690D01*
X006178Y010627D01*
X006146Y010595D01*
X006051Y010595D01*
X006115Y010595D02*
X006178Y010532D01*
X006272Y010532D02*
X006399Y010532D01*
X006336Y010532D02*
X006336Y010722D01*
X006272Y010659D01*
X006493Y010659D02*
X006525Y010627D01*
X006620Y010627D01*
X006620Y010690D02*
X006588Y010722D01*
X006525Y010722D01*
X006493Y010690D01*
X006493Y010659D01*
X006493Y010564D02*
X006525Y010532D01*
X006588Y010532D01*
X006620Y010564D01*
X006620Y010690D01*
X006593Y012188D02*
X006530Y012251D01*
X006561Y012251D02*
X006466Y012251D01*
X006466Y012188D02*
X006466Y012378D01*
X006561Y012378D01*
X006593Y012346D01*
X006593Y012283D01*
X006561Y012251D01*
X006687Y012188D02*
X006814Y012188D01*
X006751Y012188D02*
X006751Y012378D01*
X006687Y012315D01*
X006908Y012283D02*
X006972Y012315D01*
X007003Y012315D01*
X007035Y012283D01*
X007035Y012220D01*
X007003Y012188D01*
X006940Y012188D01*
X006908Y012220D01*
X006908Y012283D02*
X006908Y012378D01*
X007035Y012378D01*
X006926Y013807D02*
X006799Y013807D01*
X006863Y013807D02*
X006863Y013997D01*
X006799Y013934D01*
X006705Y013807D02*
X006578Y013807D01*
X006642Y013807D02*
X006642Y013997D01*
X006578Y013934D01*
X006484Y013965D02*
X006484Y013902D01*
X006453Y013870D01*
X006357Y013870D01*
X006357Y013807D02*
X006357Y013997D01*
X006453Y013997D01*
X006484Y013965D01*
X006421Y013870D02*
X006484Y013807D01*
X006243Y014713D02*
X003487Y014713D01*
X003487Y016917D01*
X006243Y016917D01*
X006243Y017469D01*
X003487Y017469D01*
X003487Y016917D01*
X002687Y015162D02*
X002687Y014972D01*
X002624Y014972D02*
X002751Y014972D01*
X002845Y015004D02*
X002877Y014972D01*
X002972Y014972D01*
X002972Y015099D01*
X002845Y015099D02*
X002845Y015004D01*
X002687Y015162D02*
X002624Y015099D01*
X001892Y015070D02*
X001892Y015039D01*
X001860Y015007D01*
X001892Y014975D01*
X001892Y014944D01*
X001860Y014912D01*
X001797Y014912D01*
X001765Y014944D01*
X001828Y015007D02*
X001860Y015007D01*
X001892Y015070D02*
X001860Y015102D01*
X001797Y015102D01*
X001765Y015070D01*
X001671Y015070D02*
X001639Y015102D01*
X001576Y015102D01*
X001544Y015070D01*
X001544Y014944D01*
X001576Y014912D01*
X001639Y014912D01*
X001671Y014944D01*
X003968Y013991D02*
X003968Y013800D01*
X003968Y013864D02*
X004063Y013864D01*
X004095Y013896D01*
X004095Y013959D01*
X004063Y013991D01*
X003968Y013991D01*
X004032Y013864D02*
X004095Y013800D01*
X004189Y013832D02*
X004221Y013800D01*
X004284Y013800D01*
X004316Y013832D01*
X004316Y013959D01*
X004284Y013991D01*
X004221Y013991D01*
X004189Y013959D01*
X004189Y013927D01*
X004221Y013896D01*
X004316Y013896D01*
X005037Y013870D02*
X005133Y013870D01*
X005164Y013902D01*
X005164Y013965D01*
X005133Y013997D01*
X005037Y013997D01*
X005037Y013807D01*
X005101Y013870D02*
X005164Y013807D01*
X005258Y013807D02*
X005385Y013807D01*
X005322Y013807D02*
X005322Y013997D01*
X005258Y013934D01*
X005479Y013902D02*
X005606Y013902D01*
X005574Y013807D02*
X005574Y013997D01*
X005479Y013902D01*
X006243Y014713D02*
X006243Y016917D01*
X006766Y015258D02*
X006861Y015258D01*
X006893Y015226D01*
X006893Y015163D01*
X006861Y015131D01*
X006766Y015131D01*
X006766Y015068D02*
X006766Y015258D01*
X006830Y015131D02*
X006893Y015068D01*
X006987Y015068D02*
X007114Y015068D01*
X007051Y015068D02*
X007051Y015258D01*
X006987Y015195D01*
X007208Y015258D02*
X007335Y015258D01*
X007335Y015226D01*
X007208Y015100D01*
X007208Y015068D01*
X007635Y010764D02*
X007730Y010764D01*
X007762Y010733D01*
X007762Y010669D01*
X007730Y010638D01*
X007635Y010638D01*
X007698Y010638D02*
X007762Y010574D01*
X007856Y010574D02*
X007983Y010574D01*
X007919Y010574D02*
X007919Y010764D01*
X007856Y010701D01*
X008077Y010669D02*
X008172Y010669D01*
X008204Y010638D01*
X008204Y010606D01*
X008172Y010574D01*
X008109Y010574D01*
X008077Y010606D01*
X008077Y010669D01*
X008140Y010733D01*
X008204Y010764D01*
X007635Y010764D02*
X007635Y010574D01*
X004940Y010594D02*
X004908Y010562D01*
X004845Y010562D01*
X004813Y010594D01*
X004813Y010625D01*
X004845Y010657D01*
X004908Y010657D01*
X004940Y010625D01*
X004940Y010594D01*
X004908Y010657D02*
X004940Y010689D01*
X004940Y010720D01*
X004908Y010752D01*
X004845Y010752D01*
X004813Y010720D01*
X004813Y010689D01*
X004845Y010657D01*
X004719Y010562D02*
X004592Y010562D01*
X004656Y010562D02*
X004656Y010752D01*
X004592Y010689D01*
X004498Y010720D02*
X004466Y010752D01*
X004371Y010752D01*
X004371Y010562D01*
X004371Y010625D02*
X004466Y010625D01*
X004498Y010657D01*
X004498Y010720D01*
X004435Y010625D02*
X004498Y010562D01*
D12*
X004603Y009459D02*
X004103Y009459D01*
X003853Y009209D01*
X003853Y008709D01*
X004103Y008459D01*
X004603Y008459D01*
X004853Y008709D01*
X005103Y008459D01*
X005603Y008459D01*
X005853Y008709D01*
X006103Y008459D01*
X006603Y008459D01*
X006853Y008709D01*
X007103Y008459D01*
X007603Y008459D01*
X007853Y008709D01*
X007853Y009209D01*
X007603Y009459D01*
X007103Y009459D01*
X006853Y009209D01*
X006603Y009459D01*
X006103Y009459D01*
X005853Y009209D01*
X005603Y009459D01*
X005103Y009459D01*
X004853Y009209D01*
X004603Y009459D01*
X002802Y009183D02*
X002464Y009183D01*
X002354Y008789D02*
X002354Y008577D01*
X002464Y008183D02*
X002802Y008183D01*
X006322Y007547D02*
X006322Y007350D01*
X006322Y007547D02*
X006519Y007547D01*
X008015Y007547D02*
X008211Y007547D01*
X008211Y007311D01*
X008211Y005854D02*
X008211Y005657D01*
X008015Y005657D01*
D13*
X003033Y008033D03*
D14*
X002820Y011125D02*
X002820Y011149D01*
X007495Y003923D02*
X007519Y003923D01*
X008436Y003923D02*
X008460Y003923D01*
D15*
X004496Y000939D02*
X004496Y000939D01*
M02*
