G75*
%MOIN*%
%OFA0B0*%
%FSLAX24Y24*%
%IPPOS*%
%LPD*%
%AMOC8*
5,1,8,0,0,1.08239X$1,22.5*
%
%ADD10C,0.0000*%
%ADD11R,0.0551X0.0394*%
%ADD12R,0.0433X0.0394*%
%ADD13C,0.0840*%
%ADD14R,0.0394X0.0433*%
%ADD15R,0.0472X0.0787*%
%ADD16C,0.0600*%
%ADD17C,0.0740*%
%ADD18R,0.0250X0.0500*%
%ADD19R,0.0472X0.0217*%
%ADD20R,0.0197X0.1496*%
%ADD21R,0.0787X0.0984*%
%ADD22C,0.0160*%
%ADD23C,0.0100*%
%ADD24C,0.0080*%
%ADD25C,0.0357*%
%ADD26C,0.0120*%
%ADD27C,0.0396*%
D10*
X000180Y000380D02*
X011460Y000380D01*
X011460Y021140D01*
X000180Y021140D01*
X000180Y000380D01*
X001269Y001863D02*
X001271Y001911D01*
X001277Y001959D01*
X001287Y002006D01*
X001300Y002052D01*
X001318Y002097D01*
X001338Y002141D01*
X001363Y002183D01*
X001391Y002222D01*
X001421Y002259D01*
X001455Y002293D01*
X001492Y002325D01*
X001530Y002354D01*
X001571Y002379D01*
X001614Y002401D01*
X001659Y002419D01*
X001705Y002433D01*
X001752Y002444D01*
X001800Y002451D01*
X001848Y002454D01*
X001896Y002453D01*
X001944Y002448D01*
X001992Y002439D01*
X002038Y002427D01*
X002083Y002410D01*
X002127Y002390D01*
X002169Y002367D01*
X002209Y002340D01*
X002247Y002310D01*
X002282Y002277D01*
X002314Y002241D01*
X002344Y002203D01*
X002370Y002162D01*
X002392Y002119D01*
X002412Y002075D01*
X002427Y002030D01*
X002439Y001983D01*
X002447Y001935D01*
X002451Y001887D01*
X002451Y001839D01*
X002447Y001791D01*
X002439Y001743D01*
X002427Y001696D01*
X002412Y001651D01*
X002392Y001607D01*
X002370Y001564D01*
X002344Y001523D01*
X002314Y001485D01*
X002282Y001449D01*
X002247Y001416D01*
X002209Y001386D01*
X002169Y001359D01*
X002127Y001336D01*
X002083Y001316D01*
X002038Y001299D01*
X001992Y001287D01*
X001944Y001278D01*
X001896Y001273D01*
X001848Y001272D01*
X001800Y001275D01*
X001752Y001282D01*
X001705Y001293D01*
X001659Y001307D01*
X001614Y001325D01*
X001571Y001347D01*
X001530Y001372D01*
X001492Y001401D01*
X001455Y001433D01*
X001421Y001467D01*
X001391Y001504D01*
X001363Y001543D01*
X001338Y001585D01*
X001318Y001629D01*
X001300Y001674D01*
X001287Y001720D01*
X001277Y001767D01*
X001271Y001815D01*
X001269Y001863D01*
X006277Y002547D02*
X006279Y002573D01*
X006285Y002599D01*
X006295Y002624D01*
X006308Y002647D01*
X006324Y002667D01*
X006344Y002685D01*
X006366Y002700D01*
X006389Y002712D01*
X006415Y002720D01*
X006441Y002724D01*
X006467Y002724D01*
X006493Y002720D01*
X006519Y002712D01*
X006543Y002700D01*
X006564Y002685D01*
X006584Y002667D01*
X006600Y002647D01*
X006613Y002624D01*
X006623Y002599D01*
X006629Y002573D01*
X006631Y002547D01*
X006629Y002521D01*
X006623Y002495D01*
X006613Y002470D01*
X006600Y002447D01*
X006584Y002427D01*
X006564Y002409D01*
X006542Y002394D01*
X006519Y002382D01*
X006493Y002374D01*
X006467Y002370D01*
X006441Y002370D01*
X006415Y002374D01*
X006389Y002382D01*
X006365Y002394D01*
X006344Y002409D01*
X006324Y002427D01*
X006308Y002447D01*
X006295Y002470D01*
X006285Y002495D01*
X006279Y002521D01*
X006277Y002547D01*
X008009Y002547D02*
X008011Y002573D01*
X008017Y002599D01*
X008027Y002624D01*
X008040Y002647D01*
X008056Y002667D01*
X008076Y002685D01*
X008098Y002700D01*
X008121Y002712D01*
X008147Y002720D01*
X008173Y002724D01*
X008199Y002724D01*
X008225Y002720D01*
X008251Y002712D01*
X008275Y002700D01*
X008296Y002685D01*
X008316Y002667D01*
X008332Y002647D01*
X008345Y002624D01*
X008355Y002599D01*
X008361Y002573D01*
X008363Y002547D01*
X008361Y002521D01*
X008355Y002495D01*
X008345Y002470D01*
X008332Y002447D01*
X008316Y002427D01*
X008296Y002409D01*
X008274Y002394D01*
X008251Y002382D01*
X008225Y002374D01*
X008199Y002370D01*
X008173Y002370D01*
X008147Y002374D01*
X008121Y002382D01*
X008097Y002394D01*
X008076Y002409D01*
X008056Y002427D01*
X008040Y002447D01*
X008027Y002470D01*
X008017Y002495D01*
X008011Y002521D01*
X008009Y002547D01*
X009829Y012680D02*
X009831Y012727D01*
X009837Y012773D01*
X009847Y012819D01*
X009860Y012864D01*
X009878Y012907D01*
X009899Y012949D01*
X009923Y012989D01*
X009951Y013026D01*
X009982Y013061D01*
X010016Y013094D01*
X010052Y013123D01*
X010091Y013149D01*
X010132Y013172D01*
X010175Y013191D01*
X010219Y013207D01*
X010264Y013219D01*
X010310Y013227D01*
X010357Y013231D01*
X010403Y013231D01*
X010450Y013227D01*
X010496Y013219D01*
X010541Y013207D01*
X010585Y013191D01*
X010628Y013172D01*
X010669Y013149D01*
X010708Y013123D01*
X010744Y013094D01*
X010778Y013061D01*
X010809Y013026D01*
X010837Y012989D01*
X010861Y012949D01*
X010882Y012907D01*
X010900Y012864D01*
X010913Y012819D01*
X010923Y012773D01*
X010929Y012727D01*
X010931Y012680D01*
X010929Y012633D01*
X010923Y012587D01*
X010913Y012541D01*
X010900Y012496D01*
X010882Y012453D01*
X010861Y012411D01*
X010837Y012371D01*
X010809Y012334D01*
X010778Y012299D01*
X010744Y012266D01*
X010708Y012237D01*
X010669Y012211D01*
X010628Y012188D01*
X010585Y012169D01*
X010541Y012153D01*
X010496Y012141D01*
X010450Y012133D01*
X010403Y012129D01*
X010357Y012129D01*
X010310Y012133D01*
X010264Y012141D01*
X010219Y012153D01*
X010175Y012169D01*
X010132Y012188D01*
X010091Y012211D01*
X010052Y012237D01*
X010016Y012266D01*
X009982Y012299D01*
X009951Y012334D01*
X009923Y012371D01*
X009899Y012411D01*
X009878Y012453D01*
X009860Y012496D01*
X009847Y012541D01*
X009837Y012587D01*
X009831Y012633D01*
X009829Y012680D01*
X001309Y020420D02*
X001311Y020467D01*
X001317Y020513D01*
X001327Y020559D01*
X001340Y020604D01*
X001358Y020647D01*
X001379Y020689D01*
X001403Y020729D01*
X001431Y020766D01*
X001462Y020801D01*
X001496Y020834D01*
X001532Y020863D01*
X001571Y020889D01*
X001612Y020912D01*
X001655Y020931D01*
X001699Y020947D01*
X001744Y020959D01*
X001790Y020967D01*
X001837Y020971D01*
X001883Y020971D01*
X001930Y020967D01*
X001976Y020959D01*
X002021Y020947D01*
X002065Y020931D01*
X002108Y020912D01*
X002149Y020889D01*
X002188Y020863D01*
X002224Y020834D01*
X002258Y020801D01*
X002289Y020766D01*
X002317Y020729D01*
X002341Y020689D01*
X002362Y020647D01*
X002380Y020604D01*
X002393Y020559D01*
X002403Y020513D01*
X002409Y020467D01*
X002411Y020420D01*
X002409Y020373D01*
X002403Y020327D01*
X002393Y020281D01*
X002380Y020236D01*
X002362Y020193D01*
X002341Y020151D01*
X002317Y020111D01*
X002289Y020074D01*
X002258Y020039D01*
X002224Y020006D01*
X002188Y019977D01*
X002149Y019951D01*
X002108Y019928D01*
X002065Y019909D01*
X002021Y019893D01*
X001976Y019881D01*
X001930Y019873D01*
X001883Y019869D01*
X001837Y019869D01*
X001790Y019873D01*
X001744Y019881D01*
X001699Y019893D01*
X001655Y019909D01*
X001612Y019928D01*
X001571Y019951D01*
X001532Y019977D01*
X001496Y020006D01*
X001462Y020039D01*
X001431Y020074D01*
X001403Y020111D01*
X001379Y020151D01*
X001358Y020193D01*
X001340Y020236D01*
X001327Y020281D01*
X001317Y020327D01*
X001311Y020373D01*
X001309Y020420D01*
D11*
X005027Y015740D03*
X005893Y015366D03*
X005893Y016114D03*
X007787Y016114D03*
X007787Y015366D03*
X008653Y015740D03*
X008653Y016686D03*
X008653Y017434D03*
X007787Y017060D03*
D12*
X006780Y016725D03*
X006780Y016075D03*
X006780Y015405D03*
X005940Y016725D03*
X005940Y017395D03*
X006780Y017395D03*
X005100Y017395D03*
X005100Y016725D03*
X004620Y013075D03*
X004620Y012405D03*
X003780Y012405D03*
X003780Y013075D03*
X007080Y013075D03*
X007080Y012405D03*
X008040Y012405D03*
X008040Y013075D03*
X009660Y015405D03*
X009660Y016075D03*
X009660Y016725D03*
X009660Y017395D03*
D13*
X009420Y018860D02*
X009420Y019700D01*
X008042Y019700D02*
X008042Y018860D01*
X006720Y018863D02*
X006720Y019703D01*
X005342Y019703D02*
X005342Y018863D01*
X003964Y018863D02*
X003964Y019703D01*
X002280Y019038D02*
X001440Y019038D01*
X001440Y017660D02*
X002280Y017660D01*
X002280Y016282D02*
X001440Y016282D01*
X001440Y014958D02*
X002280Y014958D01*
X002280Y013580D02*
X001440Y013580D01*
X001440Y012202D02*
X002280Y012202D01*
X010798Y018860D02*
X010798Y019700D01*
D14*
X008880Y013075D03*
X008880Y012405D03*
X004440Y004075D03*
X004440Y003405D03*
X003139Y004714D03*
X002470Y004714D03*
X001800Y004075D03*
X001800Y003405D03*
X010153Y003344D03*
X010153Y004013D03*
D15*
X009593Y005060D03*
X008805Y005060D03*
X008018Y005060D03*
X007230Y005060D03*
X006443Y005060D03*
X005656Y005060D03*
X004868Y005060D03*
X004081Y005060D03*
X004081Y011438D03*
X004868Y011438D03*
X005656Y011438D03*
X006443Y011438D03*
X007230Y011438D03*
X008018Y011438D03*
X008805Y011438D03*
X009593Y011438D03*
D16*
X009280Y013940D02*
X009280Y014540D01*
X008280Y014540D02*
X008280Y013940D01*
X007280Y013940D02*
X007280Y014540D01*
X006280Y014540D02*
X006280Y013940D01*
X005280Y013940D02*
X005280Y014540D01*
X010280Y014540D02*
X010280Y013940D01*
D17*
X010745Y016232D03*
X010745Y017232D03*
X004140Y015020D03*
X004140Y014020D03*
X004052Y016232D03*
X004052Y017232D03*
X004052Y002468D03*
X004052Y001468D03*
X010745Y001468D03*
X010745Y002468D03*
D18*
X006417Y012740D03*
X006063Y012740D03*
X005637Y012740D03*
X005283Y012740D03*
D19*
X003632Y004114D03*
X003632Y003740D03*
X003632Y003366D03*
X002608Y003366D03*
X002608Y004114D03*
D20*
X006690Y003610D03*
X007005Y003610D03*
X007320Y003610D03*
X007635Y003610D03*
X007950Y003610D03*
D21*
X009072Y003551D03*
X009072Y001386D03*
X005568Y001386D03*
X005568Y003551D03*
D22*
X005488Y003550D02*
X004817Y003550D01*
X004817Y003646D02*
X004817Y003424D01*
X004458Y003424D01*
X004458Y003387D01*
X004458Y003009D01*
X004661Y003009D01*
X004706Y003021D01*
X004747Y003045D01*
X004781Y003078D01*
X004805Y003119D01*
X004817Y003165D01*
X004817Y003387D01*
X004458Y003387D01*
X004422Y003387D01*
X004422Y003009D01*
X004219Y003009D01*
X004174Y003021D01*
X004133Y003045D01*
X004099Y003078D01*
X004075Y003119D01*
X004063Y003165D01*
X004063Y003387D01*
X004422Y003387D01*
X004422Y003424D01*
X004063Y003424D01*
X004063Y003646D01*
X004075Y003691D01*
X004099Y003732D01*
X004107Y003740D01*
X004063Y003784D01*
X004063Y004015D01*
X004048Y004000D01*
X004048Y003931D01*
X004035Y003918D01*
X004036Y003918D01*
X004048Y003872D01*
X004048Y003740D01*
X003632Y003740D01*
X003632Y003740D01*
X004048Y003740D01*
X004048Y003608D01*
X004036Y003562D01*
X004035Y003562D01*
X004048Y003549D01*
X004048Y003183D01*
X003943Y003078D01*
X003321Y003078D01*
X003279Y003120D01*
X003248Y003120D01*
X003153Y003160D01*
X003024Y003288D01*
X003024Y003183D01*
X002919Y003078D01*
X002297Y003078D01*
X002249Y003126D01*
X002186Y003126D01*
X002177Y003130D01*
X002177Y003114D01*
X002071Y003009D01*
X001529Y003009D01*
X001423Y003114D01*
X001423Y003696D01*
X001467Y003740D01*
X001459Y003748D01*
X001435Y003789D01*
X001423Y003834D01*
X001423Y004056D01*
X001782Y004056D01*
X001782Y004093D01*
X001782Y004471D01*
X001579Y004471D01*
X001534Y004459D01*
X001493Y004435D01*
X001459Y004402D01*
X001435Y004361D01*
X001423Y004315D01*
X001423Y004093D01*
X001782Y004093D01*
X001818Y004093D01*
X001818Y004471D01*
X001980Y004471D01*
X001980Y004628D01*
X002017Y004716D01*
X002084Y004783D01*
X002093Y004793D01*
X002093Y005005D01*
X002199Y005111D01*
X002200Y005111D01*
X002200Y005300D01*
X000660Y005300D01*
X000660Y000860D01*
X001465Y000860D01*
X001447Y000865D01*
X001203Y001006D01*
X001003Y001205D01*
X000862Y001449D01*
X000789Y001722D01*
X000789Y002003D01*
X000862Y002276D01*
X001003Y002520D01*
X001203Y002719D01*
X001447Y002860D01*
X001719Y002933D01*
X002001Y002933D01*
X002273Y002860D01*
X002517Y002719D01*
X002717Y002520D01*
X002858Y002276D01*
X002931Y002003D01*
X002931Y001722D01*
X002858Y001449D01*
X002717Y001205D01*
X002517Y001006D01*
X002273Y000865D01*
X002255Y000860D01*
X004997Y000860D01*
X004994Y000870D01*
X004994Y001306D01*
X005488Y001306D01*
X005488Y001466D01*
X005488Y002058D01*
X005151Y002058D01*
X005105Y002046D01*
X005064Y002022D01*
X005030Y001988D01*
X005007Y001947D01*
X004994Y001902D01*
X004994Y001466D01*
X005488Y001466D01*
X005648Y001466D01*
X005648Y002058D01*
X005985Y002058D01*
X006024Y002048D01*
X005897Y002175D01*
X005797Y002417D01*
X005797Y002678D01*
X005880Y002879D01*
X005648Y002879D01*
X005648Y003471D01*
X005488Y003471D01*
X005488Y002879D01*
X005151Y002879D01*
X005105Y002891D01*
X005064Y002915D01*
X005030Y002949D01*
X005007Y002990D01*
X004994Y003035D01*
X004994Y003471D01*
X005488Y003471D01*
X005488Y003631D01*
X004994Y003631D01*
X004994Y004020D01*
X004817Y004020D01*
X004817Y003784D01*
X004773Y003740D01*
X004781Y003732D01*
X004805Y003691D01*
X004817Y003646D01*
X004795Y003709D02*
X004994Y003709D01*
X004994Y003867D02*
X004817Y003867D01*
X004994Y003392D02*
X004458Y003392D01*
X004422Y003392D02*
X004048Y003392D01*
X004047Y003550D02*
X004063Y003550D01*
X004048Y003709D02*
X004085Y003709D01*
X004063Y003867D02*
X004048Y003867D01*
X003794Y004114D02*
X003960Y004280D01*
X004380Y004280D01*
X006690Y004280D01*
X006690Y004370D01*
X006412Y004020D02*
X006412Y003204D01*
X006323Y003204D01*
X006142Y003129D01*
X006142Y003471D01*
X005648Y003471D01*
X005648Y003631D01*
X006142Y003631D01*
X006142Y004020D01*
X006412Y004020D01*
X006412Y003867D02*
X006142Y003867D01*
X006142Y003709D02*
X006412Y003709D01*
X006412Y003550D02*
X005648Y003550D01*
X005648Y003392D02*
X005488Y003392D01*
X005488Y003233D02*
X005648Y003233D01*
X005648Y003075D02*
X005488Y003075D01*
X005488Y002916D02*
X005648Y002916D01*
X005797Y002599D02*
X004588Y002599D01*
X004588Y002597D02*
X004562Y002679D01*
X004522Y002756D01*
X004471Y002826D01*
X004410Y002887D01*
X004340Y002938D01*
X004263Y002978D01*
X004181Y003004D01*
X004095Y003018D01*
X004072Y003018D01*
X004072Y002488D01*
X004602Y002488D01*
X004602Y002511D01*
X004588Y002597D01*
X004602Y002448D02*
X004072Y002448D01*
X004072Y002488D01*
X004032Y002488D01*
X004032Y003018D01*
X004009Y003018D01*
X003923Y003004D01*
X003841Y002978D01*
X003764Y002938D01*
X003694Y002887D01*
X003632Y002826D01*
X003581Y002756D01*
X003542Y002679D01*
X003515Y002597D01*
X003502Y002511D01*
X003502Y002488D01*
X004032Y002488D01*
X004032Y002448D01*
X004072Y002448D01*
X004072Y001918D01*
X004072Y001488D01*
X004602Y001488D01*
X004602Y001511D01*
X004588Y001597D01*
X004562Y001679D01*
X004522Y001756D01*
X004471Y001826D01*
X004410Y001887D01*
X004340Y001938D01*
X004282Y001968D01*
X004340Y001997D01*
X004410Y002048D01*
X004471Y002110D01*
X004522Y002180D01*
X004562Y002257D01*
X004588Y002339D01*
X004602Y002425D01*
X004602Y002448D01*
X004602Y002441D02*
X005797Y002441D01*
X005852Y002282D02*
X004570Y002282D01*
X004481Y002124D02*
X005948Y002124D01*
X006112Y001977D02*
X006323Y001890D01*
X006585Y001890D01*
X006826Y001990D01*
X007011Y002175D01*
X007111Y002417D01*
X007111Y002678D01*
X007109Y002682D01*
X007531Y002682D01*
X007529Y002678D01*
X007529Y002417D01*
X007629Y002175D01*
X007814Y001990D01*
X008055Y001890D01*
X008317Y001890D01*
X008528Y001977D01*
X008511Y001947D01*
X008498Y001902D01*
X008498Y001466D01*
X008992Y001466D01*
X008992Y002058D01*
X008655Y002058D01*
X008616Y002048D01*
X008743Y002175D01*
X008843Y002417D01*
X008843Y002678D01*
X008760Y002879D01*
X008992Y002879D01*
X008992Y003471D01*
X009152Y003471D01*
X009152Y002879D01*
X009489Y002879D01*
X009535Y002891D01*
X009576Y002915D01*
X009610Y002949D01*
X009633Y002990D01*
X009646Y003035D01*
X009646Y003471D01*
X009152Y003471D01*
X009152Y003631D01*
X009646Y003631D01*
X009646Y004067D01*
X009633Y004113D01*
X009610Y004154D01*
X009576Y004187D01*
X009535Y004211D01*
X009489Y004223D01*
X009152Y004223D01*
X009152Y003631D01*
X008992Y003631D01*
X008992Y003471D01*
X008498Y003471D01*
X008498Y003129D01*
X008317Y003204D01*
X008228Y003204D01*
X008228Y003610D01*
X007950Y003610D01*
X007950Y003610D01*
X008228Y003610D01*
X008228Y004382D01*
X008216Y004428D01*
X008192Y004469D01*
X008175Y004486D01*
X008329Y004486D01*
X008411Y004569D01*
X008494Y004486D01*
X009116Y004486D01*
X009199Y004569D01*
X009282Y004486D01*
X009347Y004486D01*
X009372Y004426D01*
X009776Y004022D01*
X009776Y003722D01*
X009820Y003678D01*
X009812Y003671D01*
X009788Y003630D01*
X009776Y003584D01*
X009776Y003362D01*
X010134Y003362D01*
X010134Y003325D01*
X009776Y003325D01*
X009776Y003104D01*
X009788Y003058D01*
X009812Y003017D01*
X009846Y002983D01*
X009887Y002960D01*
X009932Y002947D01*
X010134Y002947D01*
X010134Y003325D01*
X010171Y003325D01*
X010171Y002947D01*
X010373Y002947D01*
X010419Y002960D01*
X010460Y002983D01*
X010494Y003017D01*
X010517Y003058D01*
X010530Y003104D01*
X010530Y003325D01*
X010171Y003325D01*
X010171Y003362D01*
X010530Y003362D01*
X010530Y003584D01*
X010517Y003630D01*
X010494Y003671D01*
X010486Y003678D01*
X010530Y003722D01*
X010530Y004304D01*
X010424Y004410D01*
X010124Y004410D01*
X009975Y004558D01*
X010009Y004592D01*
X010009Y005528D01*
X009903Y005634D01*
X009864Y005634D01*
X009918Y005765D01*
X009918Y005915D01*
X009861Y006054D01*
X009754Y006161D01*
X009615Y006218D01*
X009465Y006218D01*
X009326Y006161D01*
X009219Y006054D01*
X009162Y005915D01*
X009162Y005765D01*
X009219Y005626D01*
X009247Y005599D01*
X009199Y005551D01*
X009116Y005634D01*
X008494Y005634D01*
X008411Y005551D01*
X008329Y005634D01*
X008200Y005634D01*
X008200Y009679D01*
X008491Y009970D01*
X008620Y010099D01*
X008620Y010864D01*
X008767Y010864D01*
X008767Y011400D01*
X008843Y011400D01*
X008843Y010864D01*
X009065Y010864D01*
X009111Y010877D01*
X009152Y010900D01*
X009185Y010934D01*
X009199Y010957D01*
X009212Y010934D01*
X009246Y010900D01*
X009287Y010877D01*
X009333Y010864D01*
X009554Y010864D01*
X009554Y011400D01*
X008843Y011400D01*
X008843Y011476D01*
X009221Y011476D01*
X009554Y011476D01*
X009554Y011400D01*
X009631Y011400D01*
X009631Y011476D01*
X010009Y011476D01*
X010009Y011712D01*
X010244Y011649D01*
X010516Y011649D01*
X010778Y011719D01*
X010980Y011836D01*
X010980Y002966D01*
X010854Y003018D01*
X010635Y003018D01*
X010433Y002934D01*
X010278Y002779D01*
X010195Y002577D01*
X010195Y002358D01*
X010278Y002156D01*
X010433Y002002D01*
X010515Y001968D01*
X010433Y001934D01*
X010278Y001779D01*
X010195Y001577D01*
X010195Y001358D01*
X010278Y001156D01*
X010433Y001002D01*
X010635Y000918D01*
X010854Y000918D01*
X010980Y000970D01*
X010980Y000860D01*
X009643Y000860D01*
X009646Y000870D01*
X009646Y001306D01*
X009152Y001306D01*
X009152Y001466D01*
X008992Y001466D01*
X008992Y001306D01*
X008498Y001306D01*
X008498Y000870D01*
X008501Y000860D01*
X006139Y000860D01*
X006142Y000870D01*
X006142Y001306D01*
X005648Y001306D01*
X005648Y001466D01*
X006142Y001466D01*
X006142Y001902D01*
X006129Y001947D01*
X006112Y001977D01*
X006119Y001965D02*
X006142Y001965D01*
X006142Y001807D02*
X008498Y001807D01*
X008498Y001965D02*
X008521Y001965D01*
X008692Y002124D02*
X010311Y002124D01*
X010226Y002282D02*
X008788Y002282D01*
X008843Y002441D02*
X010195Y002441D01*
X010204Y002599D02*
X008843Y002599D01*
X008810Y002758D02*
X010269Y002758D01*
X010415Y002916D02*
X009577Y002916D01*
X009646Y003075D02*
X009784Y003075D01*
X009776Y003233D02*
X009646Y003233D01*
X009646Y003392D02*
X009776Y003392D01*
X009776Y003550D02*
X009152Y003550D01*
X009152Y003392D02*
X008992Y003392D01*
X008992Y003550D02*
X008228Y003550D01*
X008228Y003392D02*
X008498Y003392D01*
X008498Y003233D02*
X008228Y003233D01*
X008228Y003709D02*
X008498Y003709D01*
X008498Y003631D02*
X008992Y003631D01*
X008992Y004223D01*
X008655Y004223D01*
X008609Y004211D01*
X008568Y004187D01*
X008534Y004154D01*
X008511Y004113D01*
X008498Y004067D01*
X008498Y003631D01*
X008498Y003867D02*
X008228Y003867D01*
X008228Y004026D02*
X008498Y004026D01*
X008564Y004184D02*
X008228Y004184D01*
X008228Y004343D02*
X009456Y004343D01*
X009580Y004184D02*
X009614Y004184D01*
X009646Y004026D02*
X009773Y004026D01*
X009776Y003867D02*
X009646Y003867D01*
X009646Y003709D02*
X009790Y003709D01*
X010153Y004013D02*
X009593Y004573D01*
X009593Y005060D01*
X009593Y005787D01*
X009540Y005840D01*
X009251Y006086D02*
X008200Y006086D01*
X008200Y005928D02*
X009167Y005928D01*
X009162Y005769D02*
X008200Y005769D01*
X008352Y005611D02*
X008471Y005611D01*
X008200Y006245D02*
X010980Y006245D01*
X010980Y006403D02*
X008200Y006403D01*
X008200Y006562D02*
X010980Y006562D01*
X010980Y006720D02*
X008200Y006720D01*
X008200Y006879D02*
X010980Y006879D01*
X010980Y007037D02*
X008200Y007037D01*
X008200Y007196D02*
X010980Y007196D01*
X010980Y007354D02*
X008200Y007354D01*
X008200Y007513D02*
X010980Y007513D01*
X010980Y007671D02*
X008200Y007671D01*
X008200Y007830D02*
X010980Y007830D01*
X010980Y007988D02*
X008200Y007988D01*
X008200Y008147D02*
X010980Y008147D01*
X010980Y008305D02*
X008200Y008305D01*
X008200Y008464D02*
X010980Y008464D01*
X010980Y008622D02*
X008200Y008622D01*
X008200Y008781D02*
X010980Y008781D01*
X010980Y008939D02*
X008200Y008939D01*
X008200Y009098D02*
X010980Y009098D01*
X010980Y009256D02*
X008200Y009256D01*
X008200Y009415D02*
X010980Y009415D01*
X010980Y009573D02*
X008200Y009573D01*
X008253Y009732D02*
X010980Y009732D01*
X010980Y009890D02*
X008411Y009890D01*
X008570Y010049D02*
X010980Y010049D01*
X010980Y010207D02*
X008620Y010207D01*
X008620Y010366D02*
X010980Y010366D01*
X010980Y010524D02*
X008620Y010524D01*
X008620Y010683D02*
X010980Y010683D01*
X010980Y010841D02*
X008620Y010841D01*
X008767Y011000D02*
X008843Y011000D01*
X008843Y011158D02*
X008767Y011158D01*
X008767Y011317D02*
X008843Y011317D01*
X008843Y011475D02*
X009554Y011475D01*
X009554Y011476D02*
X009554Y012012D01*
X009333Y012012D01*
X009287Y011999D01*
X009246Y011976D01*
X009212Y011942D01*
X009199Y011919D01*
X009185Y011942D01*
X009152Y011976D01*
X009111Y011999D01*
X009076Y012009D01*
X009151Y012009D01*
X009257Y012114D01*
X009257Y012696D01*
X009213Y012740D01*
X009221Y012748D01*
X009245Y012789D01*
X009257Y012834D01*
X009257Y013056D01*
X008898Y013056D01*
X008898Y013093D01*
X008862Y013093D01*
X008862Y013471D01*
X008659Y013471D01*
X008614Y013459D01*
X008573Y013435D01*
X008539Y013402D01*
X008515Y013361D01*
X008503Y013315D01*
X008503Y013093D01*
X008862Y013093D01*
X008862Y013056D01*
X008503Y013056D01*
X008503Y012834D01*
X008515Y012789D01*
X008539Y012748D01*
X008547Y012740D01*
X008503Y012696D01*
X008503Y012625D01*
X008437Y012625D01*
X008437Y012677D01*
X008373Y012740D01*
X008401Y012767D01*
X008424Y012808D01*
X008437Y012854D01*
X008437Y013056D01*
X008058Y013056D01*
X008058Y013093D01*
X008022Y013093D01*
X008022Y013451D01*
X007888Y013451D01*
X007950Y013502D01*
X007951Y013515D01*
X007960Y013524D01*
X007960Y013581D01*
X008008Y013533D01*
X008185Y013460D01*
X008375Y013460D01*
X008552Y013533D01*
X008687Y013668D01*
X008760Y013845D01*
X008760Y014635D01*
X008687Y014812D01*
X008552Y014947D01*
X008375Y015020D01*
X008185Y015020D01*
X008008Y014947D01*
X007960Y014899D01*
X007960Y014989D01*
X008086Y014989D01*
X008132Y015001D01*
X008173Y015025D01*
X008207Y015059D01*
X008230Y015100D01*
X008243Y015145D01*
X008243Y015348D01*
X007805Y015348D01*
X007805Y015384D01*
X008243Y015384D01*
X008243Y015424D01*
X008303Y015363D01*
X009003Y015363D01*
X009109Y015469D01*
X009109Y016000D01*
X009263Y016000D01*
X009263Y015803D01*
X009327Y015740D01*
X009299Y015713D01*
X009276Y015672D01*
X009263Y015626D01*
X009263Y015424D01*
X009642Y015424D01*
X009642Y015387D01*
X009678Y015387D01*
X009678Y015029D01*
X009900Y015029D01*
X009946Y015041D01*
X009987Y015064D01*
X010021Y015098D01*
X010044Y015139D01*
X010057Y015185D01*
X010057Y015387D01*
X009678Y015387D01*
X009678Y015424D01*
X010057Y015424D01*
X010057Y015626D01*
X010044Y015672D01*
X010021Y015713D01*
X009993Y015740D01*
X010057Y015803D01*
X010057Y016346D01*
X010003Y016400D01*
X010057Y016454D01*
X010057Y016997D01*
X010042Y017012D01*
X010241Y017012D01*
X010278Y016920D01*
X010433Y016765D01*
X010515Y016732D01*
X010433Y016698D01*
X010278Y016543D01*
X010195Y016341D01*
X010195Y016122D01*
X010278Y015920D01*
X010433Y015765D01*
X010635Y015682D01*
X010854Y015682D01*
X010980Y015734D01*
X010980Y013524D01*
X010778Y013641D01*
X010676Y013668D01*
X010691Y013688D01*
X010725Y013756D01*
X010748Y013828D01*
X010760Y013902D01*
X010760Y014220D01*
X010300Y014220D01*
X010300Y014260D01*
X010260Y014260D01*
X010260Y015020D01*
X010242Y015020D01*
X010168Y015008D01*
X010096Y014985D01*
X010028Y014951D01*
X009967Y014906D01*
X009914Y014853D01*
X009869Y014792D01*
X009835Y014724D01*
X009812Y014652D01*
X009800Y014578D01*
X009800Y014260D01*
X010260Y014260D01*
X010260Y014220D01*
X009800Y014220D01*
X009800Y013902D01*
X009812Y013828D01*
X009835Y013756D01*
X009869Y013688D01*
X009914Y013627D01*
X009930Y013611D01*
X009747Y013505D01*
X009555Y013313D01*
X009419Y013078D01*
X009349Y012816D01*
X009349Y012544D01*
X009419Y012282D01*
X009555Y012047D01*
X009631Y011971D01*
X009631Y011476D01*
X009554Y011476D01*
X009631Y011475D02*
X010980Y011475D01*
X010980Y011317D02*
X010009Y011317D01*
X010009Y011400D02*
X009631Y011400D01*
X009631Y010864D01*
X009853Y010864D01*
X009898Y010877D01*
X009939Y010900D01*
X009973Y010934D01*
X009997Y010975D01*
X010009Y011021D01*
X010009Y011400D01*
X010009Y011634D02*
X010980Y011634D01*
X010980Y011792D02*
X010904Y011792D01*
X010980Y011158D02*
X010009Y011158D01*
X010003Y011000D02*
X010980Y011000D01*
X009631Y011000D02*
X009554Y011000D01*
X009554Y011158D02*
X009631Y011158D01*
X009631Y011317D02*
X009554Y011317D01*
X009554Y011634D02*
X009631Y011634D01*
X009631Y011792D02*
X009554Y011792D01*
X009554Y011951D02*
X009631Y011951D01*
X009519Y012109D02*
X009252Y012109D01*
X009257Y012268D02*
X009427Y012268D01*
X009380Y012426D02*
X009257Y012426D01*
X009257Y012585D02*
X009349Y012585D01*
X009349Y012743D02*
X009216Y012743D01*
X009257Y012902D02*
X009372Y012902D01*
X009414Y013060D02*
X008898Y013060D01*
X008898Y013093D02*
X009257Y013093D01*
X009257Y013315D01*
X009245Y013361D01*
X009221Y013402D01*
X009187Y013435D01*
X009146Y013459D01*
X009101Y013471D01*
X008898Y013471D01*
X008898Y013093D01*
X008862Y013060D02*
X008058Y013060D01*
X008058Y013093D02*
X008437Y013093D01*
X008437Y013295D01*
X008424Y013341D01*
X008401Y013382D01*
X008367Y013416D01*
X008326Y013439D01*
X008280Y013451D01*
X008058Y013451D01*
X008058Y013093D01*
X008022Y013093D02*
X008022Y013056D01*
X007643Y013056D01*
X007643Y012854D01*
X007656Y012808D01*
X007679Y012767D01*
X007689Y012758D01*
X007545Y012758D01*
X007439Y012714D01*
X007413Y012740D01*
X007477Y012803D01*
X007477Y013115D01*
X007643Y013251D01*
X007643Y013093D01*
X008022Y013093D01*
X008022Y013060D02*
X007477Y013060D01*
X007477Y012902D02*
X007643Y012902D01*
X007508Y012743D02*
X007416Y012743D01*
X007603Y013219D02*
X007643Y013219D01*
X008022Y013219D02*
X008058Y013219D01*
X008058Y013377D02*
X008022Y013377D01*
X008006Y013536D02*
X007960Y013536D01*
X008403Y013377D02*
X008525Y013377D01*
X008503Y013219D02*
X008437Y013219D01*
X008554Y013536D02*
X009006Y013536D01*
X009008Y013533D02*
X009185Y013460D01*
X009375Y013460D01*
X009552Y013533D01*
X009687Y013668D01*
X009760Y013845D01*
X009760Y014635D01*
X009687Y014812D01*
X009552Y014947D01*
X009375Y015020D01*
X009185Y015020D01*
X009008Y014947D01*
X008873Y014812D01*
X008800Y014635D01*
X008800Y013845D01*
X008873Y013668D01*
X009008Y013533D01*
X008898Y013377D02*
X008862Y013377D01*
X008862Y013219D02*
X008898Y013219D01*
X008862Y013694D02*
X008698Y013694D01*
X008760Y013853D02*
X008800Y013853D01*
X008800Y014011D02*
X008760Y014011D01*
X008760Y014170D02*
X008800Y014170D01*
X008800Y014328D02*
X008760Y014328D01*
X008760Y014487D02*
X008800Y014487D01*
X008804Y014645D02*
X008756Y014645D01*
X008690Y014804D02*
X008870Y014804D01*
X009045Y014962D02*
X008515Y014962D01*
X008236Y015121D02*
X009286Y015121D01*
X009276Y015139D02*
X009299Y015098D01*
X009333Y015064D01*
X009374Y015041D01*
X009420Y015029D01*
X009642Y015029D01*
X009642Y015387D01*
X009263Y015387D01*
X009263Y015185D01*
X009276Y015139D01*
X009263Y015279D02*
X008243Y015279D01*
X008045Y014962D02*
X007960Y014962D01*
X007980Y015260D02*
X007980Y015366D01*
X007787Y015366D01*
X007893Y015260D01*
X007980Y015260D02*
X009660Y015260D01*
X009660Y015405D01*
X009642Y015279D02*
X009678Y015279D01*
X009678Y015121D02*
X009642Y015121D01*
X009515Y014962D02*
X010051Y014962D01*
X010034Y015121D02*
X010980Y015121D01*
X010980Y015279D02*
X010057Y015279D01*
X010057Y015438D02*
X010980Y015438D01*
X010980Y015596D02*
X010057Y015596D01*
X010008Y015755D02*
X010459Y015755D01*
X010286Y015913D02*
X010057Y015913D01*
X010057Y016072D02*
X010216Y016072D01*
X010195Y016230D02*
X010057Y016230D01*
X010014Y016389D02*
X010214Y016389D01*
X010282Y016547D02*
X010057Y016547D01*
X010057Y016706D02*
X010452Y016706D01*
X010335Y016864D02*
X010057Y016864D01*
X009660Y016725D02*
X009635Y016700D01*
X009540Y016700D01*
X009540Y016820D01*
X009263Y015913D02*
X009109Y015913D01*
X009109Y015755D02*
X009312Y015755D01*
X009263Y015596D02*
X009109Y015596D01*
X009078Y015438D02*
X009263Y015438D01*
X009690Y014804D02*
X009878Y014804D01*
X009811Y014645D02*
X009756Y014645D01*
X009760Y014487D02*
X009800Y014487D01*
X009800Y014328D02*
X009760Y014328D01*
X009760Y014170D02*
X009800Y014170D01*
X009800Y014011D02*
X009760Y014011D01*
X009760Y013853D02*
X009808Y013853D01*
X009867Y013694D02*
X009698Y013694D01*
X009799Y013536D02*
X009554Y013536D01*
X009619Y013377D02*
X009235Y013377D01*
X009257Y013219D02*
X009500Y013219D01*
X009221Y011951D02*
X009177Y011951D01*
X008544Y012743D02*
X008376Y012743D01*
X008437Y012902D02*
X008503Y012902D01*
X010300Y014260D02*
X010300Y015020D01*
X010318Y015020D01*
X010392Y015008D01*
X010464Y014985D01*
X010532Y014951D01*
X010593Y014906D01*
X010646Y014853D01*
X010691Y014792D01*
X010725Y014724D01*
X010748Y014652D01*
X010760Y014578D01*
X010760Y014260D01*
X010300Y014260D01*
X010300Y014328D02*
X010260Y014328D01*
X010260Y014487D02*
X010300Y014487D01*
X010300Y014645D02*
X010260Y014645D01*
X010260Y014804D02*
X010300Y014804D01*
X010300Y014962D02*
X010260Y014962D01*
X010509Y014962D02*
X010980Y014962D01*
X010980Y014804D02*
X010682Y014804D01*
X010749Y014645D02*
X010980Y014645D01*
X010980Y014487D02*
X010760Y014487D01*
X010760Y014328D02*
X010980Y014328D01*
X010980Y014170D02*
X010760Y014170D01*
X010760Y014011D02*
X010980Y014011D01*
X010980Y013853D02*
X010752Y013853D01*
X010693Y013694D02*
X010980Y013694D01*
X010980Y013536D02*
X010961Y013536D01*
X008806Y017434D02*
X008653Y017434D01*
X008667Y017420D01*
X008672Y018120D02*
X006928Y018120D01*
X006927Y018120D01*
X006832Y018160D01*
X005168Y018160D01*
X005073Y018120D01*
X004953Y018000D01*
X004880Y017927D01*
X004840Y017832D01*
X004840Y017771D01*
X004809Y017771D01*
X004703Y017666D01*
X004703Y017123D01*
X004767Y017060D01*
X004703Y016997D01*
X004703Y016454D01*
X004809Y016349D01*
X004880Y016349D01*
X004880Y016117D01*
X004677Y016117D01*
X004571Y016011D01*
X004571Y015469D01*
X004677Y015363D01*
X005377Y015363D01*
X005437Y015424D01*
X005437Y015300D01*
X005069Y015300D01*
X004940Y015171D01*
X004680Y014911D01*
X004690Y014977D01*
X004690Y015000D01*
X004160Y015000D01*
X004160Y015040D01*
X004120Y015040D01*
X004120Y015570D01*
X004097Y015570D01*
X004011Y015556D01*
X003929Y015530D01*
X003852Y015490D01*
X003782Y015440D01*
X003720Y015378D01*
X003670Y015308D01*
X003630Y015231D01*
X003604Y015149D01*
X003590Y015063D01*
X003590Y015040D01*
X004120Y015040D01*
X004120Y015000D01*
X003590Y015000D01*
X003590Y014977D01*
X003604Y014891D01*
X003630Y014809D01*
X003670Y014732D01*
X003720Y014662D01*
X003782Y014600D01*
X003852Y014550D01*
X003910Y014520D01*
X003828Y014486D01*
X003674Y014332D01*
X003590Y014129D01*
X003590Y013911D01*
X003674Y013708D01*
X003828Y013554D01*
X004031Y013470D01*
X004249Y013470D01*
X004400Y013532D01*
X004400Y013451D01*
X004329Y013451D01*
X004223Y013346D01*
X004223Y012803D01*
X004287Y012740D01*
X004223Y012677D01*
X004223Y012240D01*
X004177Y012240D01*
X004177Y012677D01*
X004113Y012740D01*
X004177Y012803D01*
X004177Y013346D01*
X004071Y013451D01*
X003489Y013451D01*
X003426Y013389D01*
X003394Y013421D01*
X003255Y013478D01*
X003105Y013478D01*
X002966Y013421D01*
X002859Y013314D01*
X002802Y013175D01*
X002802Y013069D01*
X002710Y013161D01*
X002789Y013240D01*
X002880Y013461D01*
X002880Y013699D01*
X002789Y013920D01*
X002770Y013939D01*
X003160Y014329D01*
X003160Y016791D01*
X002710Y017241D01*
X002789Y017320D01*
X002880Y017541D01*
X002880Y017779D01*
X002789Y018000D01*
X002620Y018169D01*
X002399Y018260D01*
X001321Y018260D01*
X001100Y018169D01*
X000931Y018000D01*
X000840Y017779D01*
X000840Y017541D01*
X000931Y017320D01*
X001100Y017151D01*
X001321Y017060D01*
X002269Y017060D01*
X002480Y016848D01*
X002399Y016882D01*
X001321Y016882D01*
X001100Y016791D01*
X000931Y016622D01*
X000840Y016401D01*
X000840Y016163D01*
X000931Y015942D01*
X001100Y015773D01*
X001321Y015682D01*
X002399Y015682D01*
X002620Y015773D01*
X002720Y015874D01*
X002720Y015366D01*
X002671Y015416D01*
X002594Y015471D01*
X002510Y015514D01*
X002420Y015543D01*
X002327Y015558D01*
X001920Y015558D01*
X001920Y015018D01*
X001800Y015018D01*
X001800Y015558D01*
X001393Y015558D01*
X001299Y015543D01*
X001210Y015514D01*
X001126Y015471D01*
X001049Y015416D01*
X000982Y015349D01*
X000927Y015272D01*
X000884Y015188D01*
X000855Y015098D01*
X000842Y015018D01*
X001800Y015018D01*
X001800Y014898D01*
X000842Y014898D01*
X000855Y014817D01*
X000884Y014728D01*
X000927Y014643D01*
X000982Y014567D01*
X001049Y014500D01*
X001126Y014445D01*
X001210Y014402D01*
X001299Y014373D01*
X001393Y014358D01*
X001800Y014358D01*
X001800Y014898D01*
X001920Y014898D01*
X001920Y014358D01*
X002327Y014358D01*
X002420Y014373D01*
X002510Y014402D01*
X002594Y014445D01*
X002671Y014500D01*
X002720Y014549D01*
X002720Y014511D01*
X002389Y014180D01*
X001321Y014180D01*
X001100Y014089D01*
X000931Y013920D01*
X000840Y013699D01*
X000840Y013461D01*
X000931Y013240D01*
X001100Y013071D01*
X001321Y012980D01*
X002269Y012980D01*
X002480Y012768D01*
X002399Y012802D01*
X001321Y012802D01*
X001100Y012711D01*
X000931Y012542D01*
X000840Y012321D01*
X000840Y012083D01*
X000931Y011862D01*
X001100Y011693D01*
X001321Y011602D01*
X002399Y011602D01*
X002620Y011693D01*
X002789Y011862D01*
X002880Y012083D01*
X002880Y012321D01*
X002846Y012402D01*
X002960Y012289D01*
X002960Y011240D01*
X000660Y011240D01*
X000660Y020660D01*
X000857Y020660D01*
X000829Y020556D01*
X000829Y020284D01*
X000899Y020022D01*
X001035Y019787D01*
X001223Y019598D01*
X001210Y019594D01*
X001126Y019551D01*
X001049Y019496D01*
X000982Y019429D01*
X000927Y019352D01*
X000884Y019268D01*
X000855Y019178D01*
X000842Y019098D01*
X001800Y019098D01*
X001800Y018978D01*
X000842Y018978D01*
X000855Y018897D01*
X000884Y018808D01*
X000927Y018723D01*
X000982Y018647D01*
X001049Y018580D01*
X001126Y018525D01*
X001210Y018482D01*
X001299Y018453D01*
X001393Y018438D01*
X001800Y018438D01*
X001800Y018978D01*
X001920Y018978D01*
X001920Y019098D01*
X002878Y019098D01*
X002865Y019178D01*
X002836Y019268D01*
X002793Y019352D01*
X002738Y019429D01*
X002671Y019496D01*
X002594Y019551D01*
X002510Y019594D01*
X002497Y019598D01*
X002685Y019787D01*
X002821Y020022D01*
X002891Y020284D01*
X002891Y020556D01*
X002863Y020660D01*
X010980Y020660D01*
X010980Y020274D01*
X010917Y020300D01*
X010679Y020300D01*
X010458Y020209D01*
X010289Y020040D01*
X010198Y019819D01*
X010198Y018741D01*
X010266Y018577D01*
X009869Y018180D01*
X009355Y018180D01*
X009435Y018260D01*
X009539Y018260D01*
X009760Y018351D01*
X009929Y018520D01*
X010020Y018741D01*
X010020Y019819D01*
X009929Y020040D01*
X009760Y020209D01*
X009539Y020300D01*
X009301Y020300D01*
X009080Y020209D01*
X008911Y020040D01*
X008820Y019819D01*
X008820Y018741D01*
X008911Y018520D01*
X008992Y018439D01*
X008672Y018120D01*
X008685Y018132D02*
X006899Y018132D01*
X006840Y018263D02*
X007060Y018354D01*
X007229Y018523D01*
X007320Y018743D01*
X007320Y019822D01*
X007229Y020043D01*
X007060Y020211D01*
X006840Y020303D01*
X006601Y020303D01*
X006380Y020211D01*
X006212Y020043D01*
X006120Y019822D01*
X006120Y018743D01*
X006212Y018523D01*
X006380Y018354D01*
X006601Y018263D01*
X006840Y018263D01*
X006906Y018291D02*
X007853Y018291D01*
X007812Y018304D02*
X007902Y018275D01*
X007982Y018262D01*
X007982Y019220D01*
X007442Y019220D01*
X007442Y018813D01*
X007457Y018719D01*
X007486Y018630D01*
X007529Y018546D01*
X007584Y018469D01*
X007651Y018402D01*
X007728Y018347D01*
X007812Y018304D01*
X007982Y018291D02*
X008102Y018291D01*
X008102Y018262D02*
X008183Y018275D01*
X008272Y018304D01*
X008357Y018347D01*
X008433Y018402D01*
X008500Y018469D01*
X008555Y018546D01*
X008598Y018630D01*
X008627Y018719D01*
X008642Y018813D01*
X008642Y019220D01*
X008102Y019220D01*
X008102Y018262D01*
X008231Y018291D02*
X008843Y018291D01*
X008982Y018449D02*
X008480Y018449D01*
X008587Y018608D02*
X008875Y018608D01*
X008820Y018766D02*
X008635Y018766D01*
X008642Y018925D02*
X008820Y018925D01*
X008820Y019083D02*
X008642Y019083D01*
X008820Y019242D02*
X008102Y019242D01*
X008102Y019220D02*
X008102Y019340D01*
X007982Y019340D01*
X007982Y019220D01*
X008102Y019220D01*
X008102Y019340D02*
X008642Y019340D01*
X008642Y019747D01*
X008627Y019840D01*
X008598Y019930D01*
X008555Y020014D01*
X008500Y020091D01*
X008433Y020158D01*
X008357Y020213D01*
X008272Y020256D01*
X008183Y020285D01*
X008102Y020298D01*
X008102Y019340D01*
X008102Y019400D02*
X007982Y019400D01*
X007982Y019340D02*
X007982Y020298D01*
X007902Y020285D01*
X007812Y020256D01*
X007728Y020213D01*
X007651Y020158D01*
X007584Y020091D01*
X007529Y020014D01*
X007486Y019930D01*
X007457Y019840D01*
X007442Y019747D01*
X007442Y019340D01*
X007982Y019340D01*
X007982Y019242D02*
X007320Y019242D01*
X007320Y019400D02*
X007442Y019400D01*
X007442Y019559D02*
X007320Y019559D01*
X007320Y019717D02*
X007442Y019717D01*
X007468Y019876D02*
X007298Y019876D01*
X007232Y020034D02*
X007543Y020034D01*
X007699Y020193D02*
X007079Y020193D01*
X007320Y019083D02*
X007442Y019083D01*
X007442Y018925D02*
X007320Y018925D01*
X007320Y018766D02*
X007449Y018766D01*
X007497Y018608D02*
X007264Y018608D01*
X007155Y018449D02*
X007604Y018449D01*
X007982Y018449D02*
X008102Y018449D01*
X008102Y018608D02*
X007982Y018608D01*
X007982Y018766D02*
X008102Y018766D01*
X008102Y018925D02*
X007982Y018925D01*
X007982Y019083D02*
X008102Y019083D01*
X008102Y019559D02*
X007982Y019559D01*
X007982Y019717D02*
X008102Y019717D01*
X008102Y019876D02*
X007982Y019876D01*
X007982Y020034D02*
X008102Y020034D01*
X008102Y020193D02*
X007982Y020193D01*
X008385Y020193D02*
X009064Y020193D01*
X008909Y020034D02*
X008541Y020034D01*
X008616Y019876D02*
X008843Y019876D01*
X008820Y019717D02*
X008642Y019717D01*
X008642Y019559D02*
X008820Y019559D01*
X008820Y019400D02*
X008642Y019400D01*
X009613Y018291D02*
X009979Y018291D01*
X009858Y018449D02*
X010138Y018449D01*
X010253Y018608D02*
X009965Y018608D01*
X010020Y018766D02*
X010198Y018766D01*
X010198Y018925D02*
X010020Y018925D01*
X010020Y019083D02*
X010198Y019083D01*
X010198Y019242D02*
X010020Y019242D01*
X010020Y019400D02*
X010198Y019400D01*
X010198Y019559D02*
X010020Y019559D01*
X010020Y019717D02*
X010198Y019717D01*
X010221Y019876D02*
X009997Y019876D01*
X009931Y020034D02*
X010287Y020034D01*
X010442Y020193D02*
X009776Y020193D01*
X010980Y020351D02*
X002891Y020351D01*
X002891Y020510D02*
X010980Y020510D01*
X007994Y016114D02*
X007787Y016114D01*
X007799Y017048D02*
X007810Y017060D01*
X007799Y017048D02*
X007787Y017060D01*
X006780Y017395D02*
X006780Y017900D01*
X005220Y017900D01*
X005100Y017780D01*
X005100Y017395D01*
X004840Y017815D02*
X002865Y017815D01*
X002880Y017657D02*
X003701Y017657D01*
X003694Y017651D02*
X003632Y017590D01*
X003581Y017520D01*
X003542Y017443D01*
X003515Y017360D01*
X003502Y017275D01*
X003502Y017252D01*
X004032Y017252D01*
X004032Y017782D01*
X004009Y017782D01*
X003923Y017768D01*
X003841Y017741D01*
X003764Y017702D01*
X003694Y017651D01*
X003570Y017498D02*
X002862Y017498D01*
X002797Y017340D02*
X003512Y017340D01*
X003502Y017212D02*
X003502Y017188D01*
X003515Y017103D01*
X003542Y017021D01*
X003581Y016943D01*
X003632Y016873D01*
X003694Y016812D01*
X003764Y016761D01*
X003822Y016732D01*
X003764Y016702D01*
X003694Y016651D01*
X003632Y016590D01*
X003581Y016520D01*
X003542Y016443D01*
X003515Y016360D01*
X003502Y016275D01*
X003502Y016252D01*
X004032Y016252D01*
X004032Y017212D01*
X003502Y017212D01*
X003503Y017181D02*
X002770Y017181D01*
X002929Y017023D02*
X003541Y017023D01*
X003642Y016864D02*
X003087Y016864D01*
X003160Y016706D02*
X003770Y016706D01*
X003601Y016547D02*
X003160Y016547D01*
X003160Y016389D02*
X003524Y016389D01*
X003502Y016212D02*
X003502Y016188D01*
X003515Y016103D01*
X003542Y016021D01*
X003581Y015943D01*
X003632Y015873D01*
X003694Y015812D01*
X003764Y015761D01*
X003841Y015722D01*
X003923Y015695D01*
X004009Y015682D01*
X004032Y015682D01*
X004032Y016212D01*
X003502Y016212D01*
X003526Y016072D02*
X003160Y016072D01*
X003160Y016230D02*
X004032Y016230D01*
X004032Y016212D02*
X004032Y016252D01*
X004072Y016252D01*
X004072Y016682D01*
X004072Y017212D01*
X004072Y017252D01*
X004032Y017252D01*
X004032Y017212D01*
X004072Y017212D01*
X004602Y017212D01*
X004602Y017188D01*
X004588Y017103D01*
X004562Y017021D01*
X004522Y016943D01*
X004471Y016873D01*
X004410Y016812D01*
X004340Y016761D01*
X004282Y016732D01*
X004340Y016702D01*
X004410Y016651D01*
X004471Y016590D01*
X004522Y016520D01*
X004562Y016443D01*
X004588Y016360D01*
X004602Y016275D01*
X004602Y016252D01*
X004072Y016252D01*
X004072Y016212D01*
X004602Y016212D01*
X004602Y016188D01*
X004588Y016103D01*
X004562Y016021D01*
X004522Y015943D01*
X004471Y015873D01*
X004410Y015812D01*
X004340Y015761D01*
X004263Y015722D01*
X004181Y015695D01*
X004095Y015682D01*
X004072Y015682D01*
X004072Y016212D01*
X004032Y016212D01*
X004072Y016230D02*
X004880Y016230D01*
X004769Y016389D02*
X004579Y016389D01*
X004503Y016547D02*
X004703Y016547D01*
X004703Y016706D02*
X004333Y016706D01*
X004462Y016864D02*
X004703Y016864D01*
X004729Y017023D02*
X004562Y017023D01*
X004601Y017181D02*
X004703Y017181D01*
X004602Y017252D02*
X004602Y017275D01*
X004588Y017360D01*
X004562Y017443D01*
X004522Y017520D01*
X004471Y017590D01*
X004410Y017651D01*
X004340Y017702D01*
X004263Y017741D01*
X004181Y017768D01*
X004095Y017782D01*
X004072Y017782D01*
X004072Y017252D01*
X004602Y017252D01*
X004592Y017340D02*
X004703Y017340D01*
X004703Y017498D02*
X004533Y017498D01*
X004403Y017657D02*
X004703Y017657D01*
X004926Y017974D02*
X002800Y017974D01*
X002656Y018132D02*
X005101Y018132D01*
X005156Y018291D02*
X004150Y018291D01*
X004084Y018263D02*
X004304Y018354D01*
X004473Y018523D01*
X004564Y018743D01*
X004564Y019822D01*
X004473Y020043D01*
X004304Y020211D01*
X004084Y020303D01*
X003845Y020303D01*
X003624Y020211D01*
X003456Y020043D01*
X003364Y019822D01*
X003364Y018743D01*
X003456Y018523D01*
X003624Y018354D01*
X003845Y018263D01*
X004084Y018263D01*
X004399Y018449D02*
X004907Y018449D01*
X004834Y018523D02*
X005002Y018354D01*
X005223Y018263D01*
X005462Y018263D01*
X005682Y018354D01*
X005851Y018523D01*
X005942Y018743D01*
X005942Y019822D01*
X005851Y020043D01*
X005682Y020211D01*
X005462Y020303D01*
X005223Y020303D01*
X005002Y020211D01*
X004834Y020043D01*
X004742Y019822D01*
X004742Y018743D01*
X004834Y018523D01*
X004799Y018608D02*
X004508Y018608D01*
X004564Y018766D02*
X004742Y018766D01*
X004742Y018925D02*
X004564Y018925D01*
X004564Y019083D02*
X004742Y019083D01*
X004742Y019242D02*
X004564Y019242D01*
X004564Y019400D02*
X004742Y019400D01*
X004742Y019559D02*
X004564Y019559D01*
X004564Y019717D02*
X004742Y019717D01*
X004764Y019876D02*
X004542Y019876D01*
X004477Y020034D02*
X004830Y020034D01*
X004983Y020193D02*
X004323Y020193D01*
X003605Y020193D02*
X002867Y020193D01*
X002824Y020034D02*
X003452Y020034D01*
X003386Y019876D02*
X002736Y019876D01*
X002615Y019717D02*
X003364Y019717D01*
X003364Y019559D02*
X002580Y019559D01*
X002759Y019400D02*
X003364Y019400D01*
X003364Y019242D02*
X002845Y019242D01*
X002878Y018978D02*
X001920Y018978D01*
X001920Y018438D01*
X002327Y018438D01*
X002420Y018453D01*
X002510Y018482D01*
X002594Y018525D01*
X002671Y018580D01*
X002738Y018647D01*
X002793Y018723D01*
X002836Y018808D01*
X002865Y018897D01*
X002878Y018978D01*
X002870Y018925D02*
X003364Y018925D01*
X003364Y019083D02*
X001920Y019083D01*
X001800Y019083D02*
X000660Y019083D01*
X000660Y018925D02*
X000850Y018925D01*
X000905Y018766D02*
X000660Y018766D01*
X000660Y018608D02*
X001022Y018608D01*
X001064Y018132D02*
X000660Y018132D01*
X000660Y017974D02*
X000920Y017974D01*
X000855Y017815D02*
X000660Y017815D01*
X000660Y017657D02*
X000840Y017657D01*
X000858Y017498D02*
X000660Y017498D01*
X000660Y017340D02*
X000923Y017340D01*
X001070Y017181D02*
X000660Y017181D01*
X000660Y017023D02*
X002306Y017023D01*
X002443Y016864D02*
X002465Y016864D01*
X002574Y015755D02*
X002720Y015755D01*
X002720Y015596D02*
X000660Y015596D01*
X000660Y015438D02*
X001079Y015438D01*
X000932Y015279D02*
X000660Y015279D01*
X000660Y015121D02*
X000862Y015121D01*
X000859Y014804D02*
X000660Y014804D01*
X000660Y014962D02*
X001800Y014962D01*
X001800Y014804D02*
X001920Y014804D01*
X001920Y014645D02*
X001800Y014645D01*
X001800Y014487D02*
X001920Y014487D01*
X001920Y015121D02*
X001800Y015121D01*
X001800Y015279D02*
X001920Y015279D01*
X001920Y015438D02*
X001800Y015438D01*
X001146Y015755D02*
X000660Y015755D01*
X000660Y015913D02*
X000960Y015913D01*
X000878Y016072D02*
X000660Y016072D01*
X000660Y016230D02*
X000840Y016230D01*
X000840Y016389D02*
X000660Y016389D01*
X000660Y016547D02*
X000900Y016547D01*
X001015Y016706D02*
X000660Y016706D01*
X000660Y016864D02*
X001277Y016864D01*
X000660Y018291D02*
X003778Y018291D01*
X003530Y018449D02*
X002397Y018449D01*
X002698Y018608D02*
X003421Y018608D01*
X003364Y018766D02*
X002815Y018766D01*
X001920Y018766D02*
X001800Y018766D01*
X001800Y018608D02*
X001920Y018608D01*
X001920Y018449D02*
X001800Y018449D01*
X001800Y018925D02*
X001920Y018925D01*
X001323Y018449D02*
X000660Y018449D01*
X000660Y019242D02*
X000875Y019242D01*
X000961Y019400D02*
X000660Y019400D01*
X000660Y019559D02*
X001140Y019559D01*
X001105Y019717D02*
X000660Y019717D01*
X000660Y019876D02*
X000984Y019876D01*
X000896Y020034D02*
X000660Y020034D01*
X000660Y020193D02*
X000853Y020193D01*
X000829Y020351D02*
X000660Y020351D01*
X000660Y020510D02*
X000829Y020510D01*
X003160Y015913D02*
X003603Y015913D01*
X003777Y015755D02*
X003160Y015755D01*
X003160Y015596D02*
X004571Y015596D01*
X004571Y015755D02*
X004327Y015755D01*
X004269Y015556D02*
X004183Y015570D01*
X004160Y015570D01*
X004160Y015040D01*
X004690Y015040D01*
X004690Y015063D01*
X004676Y015149D01*
X004650Y015231D01*
X004610Y015308D01*
X004560Y015378D01*
X004498Y015440D01*
X004428Y015490D01*
X004351Y015530D01*
X004269Y015556D01*
X004160Y015438D02*
X004120Y015438D01*
X004120Y015279D02*
X004160Y015279D01*
X004160Y015121D02*
X004120Y015121D01*
X003780Y015438D02*
X003160Y015438D01*
X003160Y015279D02*
X003655Y015279D01*
X003599Y015121D02*
X003160Y015121D01*
X003160Y014962D02*
X003592Y014962D01*
X003633Y014804D02*
X003160Y014804D01*
X003160Y014645D02*
X003737Y014645D01*
X003829Y014487D02*
X003160Y014487D01*
X003159Y014328D02*
X003672Y014328D01*
X003607Y014170D02*
X003001Y014170D01*
X002842Y014011D02*
X003590Y014011D01*
X003614Y013853D02*
X002817Y013853D01*
X002880Y013694D02*
X003688Y013694D01*
X003872Y013536D02*
X002880Y013536D01*
X002845Y013377D02*
X002922Y013377D01*
X002820Y013219D02*
X002767Y013219D01*
X002347Y012902D02*
X000660Y012902D01*
X000660Y013060D02*
X001127Y013060D01*
X000953Y013219D02*
X000660Y013219D01*
X000660Y013377D02*
X000875Y013377D01*
X000840Y013536D02*
X000660Y013536D01*
X000660Y013694D02*
X000840Y013694D01*
X000903Y013853D02*
X000660Y013853D01*
X000660Y014011D02*
X001022Y014011D01*
X001068Y014487D02*
X000660Y014487D01*
X000660Y014645D02*
X000926Y014645D01*
X000660Y014328D02*
X002537Y014328D01*
X002652Y014487D02*
X002695Y014487D01*
X002720Y015438D02*
X002641Y015438D01*
X001295Y014170D02*
X000660Y014170D01*
X000660Y012743D02*
X001178Y012743D01*
X000974Y012585D02*
X000660Y012585D01*
X000660Y012426D02*
X000883Y012426D01*
X000840Y012268D02*
X000660Y012268D01*
X000660Y012109D02*
X000840Y012109D01*
X000895Y011951D02*
X000660Y011951D01*
X000660Y011792D02*
X001002Y011792D01*
X001245Y011634D02*
X000660Y011634D01*
X000660Y011475D02*
X002960Y011475D01*
X002960Y011317D02*
X000660Y011317D01*
X002475Y011634D02*
X002960Y011634D01*
X002960Y011792D02*
X002718Y011792D01*
X002825Y011951D02*
X002960Y011951D01*
X002960Y012109D02*
X002880Y012109D01*
X002880Y012268D02*
X002960Y012268D01*
X004177Y012268D02*
X004223Y012268D01*
X004223Y012426D02*
X004177Y012426D01*
X004177Y012585D02*
X004223Y012585D01*
X004284Y012743D02*
X004116Y012743D01*
X004177Y012902D02*
X004223Y012902D01*
X004223Y013060D02*
X004177Y013060D01*
X004177Y013219D02*
X004223Y013219D01*
X004254Y013377D02*
X004146Y013377D01*
X004688Y014962D02*
X004731Y014962D01*
X004681Y015121D02*
X004889Y015121D01*
X005048Y015279D02*
X004625Y015279D01*
X004602Y015438D02*
X004500Y015438D01*
X004500Y015913D02*
X004571Y015913D01*
X004578Y016072D02*
X004631Y016072D01*
X005100Y016700D02*
X005100Y016725D01*
X005320Y016349D02*
X005391Y016349D01*
X005497Y016454D01*
X005497Y016811D01*
X005543Y016858D01*
X005543Y016744D01*
X005922Y016744D01*
X005922Y016707D01*
X005543Y016707D01*
X005543Y016505D01*
X005550Y016479D01*
X005548Y016479D01*
X005507Y016455D01*
X005473Y016421D01*
X005450Y016380D01*
X005437Y016335D01*
X005437Y016132D01*
X005875Y016132D01*
X005875Y016096D01*
X005437Y016096D01*
X005437Y016056D01*
X005377Y016117D01*
X005320Y016117D01*
X005320Y016349D01*
X005431Y016389D02*
X005454Y016389D01*
X005437Y016230D02*
X005320Y016230D01*
X005422Y016072D02*
X005437Y016072D01*
X005497Y016547D02*
X005543Y016547D01*
X005543Y016706D02*
X005497Y016706D01*
X005912Y016132D02*
X006349Y016132D01*
X006349Y016335D01*
X006336Y016380D01*
X006313Y016421D01*
X006306Y016428D01*
X006324Y016459D01*
X006337Y016505D01*
X006337Y016707D01*
X005958Y016707D01*
X005958Y016744D01*
X006337Y016744D01*
X006337Y016840D01*
X006383Y016840D01*
X006383Y016454D01*
X006437Y016400D01*
X006383Y016346D01*
X006383Y015803D01*
X006447Y015740D01*
X006419Y015713D01*
X006396Y015672D01*
X006383Y015626D01*
X006383Y015424D01*
X006762Y015424D01*
X006762Y015387D01*
X006383Y015387D01*
X006383Y015240D01*
X006349Y015240D01*
X006349Y015637D01*
X006243Y015743D01*
X006214Y015743D01*
X006238Y015749D01*
X006279Y015773D01*
X006313Y015807D01*
X006336Y015848D01*
X006349Y015893D01*
X006349Y016096D01*
X005912Y016096D01*
X005912Y016132D01*
X006247Y015755D02*
X006432Y015755D01*
X006383Y015913D02*
X006349Y015913D01*
X006349Y016072D02*
X006383Y016072D01*
X006383Y016230D02*
X006349Y016230D01*
X006332Y016389D02*
X006426Y016389D01*
X006383Y016547D02*
X006337Y016547D01*
X006337Y016706D02*
X006383Y016706D01*
X006085Y017395D02*
X005940Y017395D01*
X005528Y018291D02*
X006534Y018291D01*
X006285Y018449D02*
X005777Y018449D01*
X005886Y018608D02*
X006176Y018608D01*
X006120Y018766D02*
X005942Y018766D01*
X005942Y018925D02*
X006120Y018925D01*
X006120Y019083D02*
X005942Y019083D01*
X005942Y019242D02*
X006120Y019242D01*
X006120Y019400D02*
X005942Y019400D01*
X005942Y019559D02*
X006120Y019559D01*
X006120Y019717D02*
X005942Y019717D01*
X005920Y019876D02*
X006142Y019876D01*
X006208Y020034D02*
X005854Y020034D01*
X005701Y020193D02*
X006361Y020193D01*
X004072Y017657D02*
X004032Y017657D01*
X004032Y017498D02*
X004072Y017498D01*
X004072Y017340D02*
X004032Y017340D01*
X004032Y017181D02*
X004072Y017181D01*
X004072Y017023D02*
X004032Y017023D01*
X004032Y016864D02*
X004072Y016864D01*
X004072Y016706D02*
X004032Y016706D01*
X004032Y016547D02*
X004072Y016547D01*
X004072Y016389D02*
X004032Y016389D01*
X004032Y016072D02*
X004072Y016072D01*
X004072Y015913D02*
X004032Y015913D01*
X004032Y015755D02*
X004072Y015755D01*
X006349Y015596D02*
X006383Y015596D01*
X006383Y015438D02*
X006349Y015438D01*
X006349Y015279D02*
X006383Y015279D01*
X006840Y006860D02*
X006840Y005660D01*
X006412Y003392D02*
X006142Y003392D01*
X006142Y003233D02*
X006412Y003233D01*
X005830Y002758D02*
X004521Y002758D01*
X004371Y002916D02*
X005063Y002916D01*
X004994Y003075D02*
X004777Y003075D01*
X004817Y003233D02*
X004994Y003233D01*
X004458Y003233D02*
X004422Y003233D01*
X004422Y003075D02*
X004458Y003075D01*
X004103Y003075D02*
X002137Y003075D01*
X002065Y002916D02*
X003733Y002916D01*
X003582Y002758D02*
X002451Y002758D01*
X002638Y002599D02*
X003516Y002599D01*
X003502Y002448D02*
X003502Y002425D01*
X003515Y002339D01*
X003542Y002257D01*
X003581Y002180D01*
X003632Y002110D01*
X003694Y002048D01*
X003764Y001997D01*
X003822Y001968D01*
X003764Y001938D01*
X003694Y001887D01*
X003632Y001826D01*
X003581Y001756D01*
X003542Y001679D01*
X003515Y001597D01*
X003502Y001511D01*
X003502Y001488D01*
X004032Y001488D01*
X004032Y002448D01*
X003502Y002448D01*
X003502Y002441D02*
X002762Y002441D01*
X002854Y002282D02*
X003534Y002282D01*
X003622Y002124D02*
X002898Y002124D01*
X002931Y001965D02*
X003816Y001965D01*
X003618Y001807D02*
X002931Y001807D01*
X002911Y001648D02*
X003532Y001648D01*
X003502Y001490D02*
X002868Y001490D01*
X002789Y001331D02*
X003518Y001331D01*
X003515Y001339D02*
X003542Y001257D01*
X003581Y001180D01*
X003632Y001110D01*
X003694Y001048D01*
X003764Y000997D01*
X003841Y000958D01*
X003923Y000931D01*
X004009Y000918D01*
X004032Y000918D01*
X004032Y001448D01*
X004072Y001448D01*
X004072Y001488D01*
X004032Y001488D01*
X004032Y001448D01*
X003502Y001448D01*
X003502Y001425D01*
X003515Y001339D01*
X003587Y001173D02*
X002684Y001173D01*
X002525Y001014D02*
X003741Y001014D01*
X004032Y001014D02*
X004072Y001014D01*
X004072Y000918D02*
X004095Y000918D01*
X004181Y000931D01*
X004263Y000958D01*
X004340Y000997D01*
X004410Y001048D01*
X004471Y001110D01*
X004522Y001180D01*
X004562Y001257D01*
X004588Y001339D01*
X004602Y001425D01*
X004602Y001448D01*
X004072Y001448D01*
X004072Y000918D01*
X004072Y001173D02*
X004032Y001173D01*
X004032Y001331D02*
X004072Y001331D01*
X004072Y001490D02*
X004032Y001490D01*
X004032Y001648D02*
X004072Y001648D01*
X004072Y001807D02*
X004032Y001807D01*
X004032Y001965D02*
X004072Y001965D01*
X004072Y002124D02*
X004032Y002124D01*
X004032Y002282D02*
X004072Y002282D01*
X004072Y002441D02*
X004032Y002441D01*
X004032Y002599D02*
X004072Y002599D01*
X004072Y002758D02*
X004032Y002758D01*
X004032Y002916D02*
X004072Y002916D01*
X004048Y003233D02*
X004063Y003233D01*
X003618Y003380D02*
X003300Y003380D01*
X003120Y003560D01*
X003120Y003920D01*
X003314Y004114D01*
X003632Y004114D01*
X003735Y004714D02*
X004081Y005060D01*
X003735Y004714D02*
X003139Y004714D01*
X002470Y004714D02*
X002460Y004724D01*
X002460Y005300D01*
X003064Y005904D01*
X003660Y005904D01*
X003664Y005900D02*
X005220Y005900D01*
X007111Y002599D02*
X007529Y002599D01*
X007529Y002441D02*
X007111Y002441D01*
X007055Y002282D02*
X007585Y002282D01*
X007681Y002124D02*
X006959Y002124D01*
X006765Y001965D02*
X007875Y001965D01*
X008498Y001648D02*
X006142Y001648D01*
X006142Y001490D02*
X008498Y001490D01*
X008498Y001173D02*
X006142Y001173D01*
X006142Y001014D02*
X008498Y001014D01*
X008992Y001331D02*
X005648Y001331D01*
X005648Y001490D02*
X005488Y001490D01*
X005488Y001648D02*
X005648Y001648D01*
X005648Y001807D02*
X005488Y001807D01*
X005488Y001965D02*
X005648Y001965D01*
X005488Y001331D02*
X004586Y001331D01*
X004602Y001490D02*
X004994Y001490D01*
X004994Y001648D02*
X004572Y001648D01*
X004486Y001807D02*
X004994Y001807D01*
X005017Y001965D02*
X004288Y001965D01*
X004517Y001173D02*
X004994Y001173D01*
X004994Y001014D02*
X004363Y001014D01*
X003079Y003233D02*
X003024Y003233D01*
X001980Y004501D02*
X000660Y004501D01*
X000660Y004343D02*
X001431Y004343D01*
X001423Y004184D02*
X000660Y004184D01*
X000660Y004026D02*
X001423Y004026D01*
X001423Y003867D02*
X000660Y003867D01*
X000660Y003709D02*
X001435Y003709D01*
X001423Y003550D02*
X000660Y003550D01*
X000660Y003392D02*
X001423Y003392D01*
X001423Y003233D02*
X000660Y003233D01*
X000660Y003075D02*
X001463Y003075D01*
X001655Y002916D02*
X000660Y002916D01*
X000660Y002758D02*
X001269Y002758D01*
X001082Y002599D02*
X000660Y002599D01*
X000660Y002441D02*
X000958Y002441D01*
X000866Y002282D02*
X000660Y002282D01*
X000660Y002124D02*
X000822Y002124D01*
X000789Y001965D02*
X000660Y001965D01*
X000660Y001807D02*
X000789Y001807D01*
X000809Y001648D02*
X000660Y001648D01*
X000660Y001490D02*
X000852Y001490D01*
X000931Y001331D02*
X000660Y001331D01*
X000660Y001173D02*
X001036Y001173D01*
X001195Y001014D02*
X000660Y001014D01*
X001782Y004184D02*
X001818Y004184D01*
X001818Y004343D02*
X001782Y004343D01*
X001993Y004660D02*
X000660Y004660D01*
X000660Y004818D02*
X002093Y004818D01*
X002093Y004977D02*
X000660Y004977D01*
X000660Y005135D02*
X002200Y005135D01*
X002200Y005294D02*
X000660Y005294D01*
X008343Y004501D02*
X008480Y004501D01*
X008992Y004184D02*
X009152Y004184D01*
X009152Y004026D02*
X008992Y004026D01*
X008992Y003867D02*
X009152Y003867D01*
X009152Y003709D02*
X008992Y003709D01*
X008992Y003233D02*
X009152Y003233D01*
X009152Y003075D02*
X008992Y003075D01*
X008992Y002916D02*
X009152Y002916D01*
X009152Y002058D02*
X009152Y001466D01*
X009646Y001466D01*
X009646Y001902D01*
X009633Y001947D01*
X009610Y001988D01*
X009576Y002022D01*
X009535Y002046D01*
X009489Y002058D01*
X009152Y002058D01*
X009152Y001965D02*
X008992Y001965D01*
X008992Y001807D02*
X009152Y001807D01*
X009152Y001648D02*
X008992Y001648D01*
X008992Y001490D02*
X009152Y001490D01*
X009152Y001331D02*
X010206Y001331D01*
X010195Y001490D02*
X009646Y001490D01*
X009646Y001648D02*
X010224Y001648D01*
X010306Y001807D02*
X009646Y001807D01*
X009623Y001965D02*
X010508Y001965D01*
X010272Y001173D02*
X009646Y001173D01*
X009646Y001014D02*
X010421Y001014D01*
X010522Y003075D02*
X010980Y003075D01*
X010980Y003233D02*
X010530Y003233D01*
X010530Y003392D02*
X010980Y003392D01*
X010980Y003550D02*
X010530Y003550D01*
X010516Y003709D02*
X010980Y003709D01*
X010980Y003867D02*
X010530Y003867D01*
X010530Y004026D02*
X010980Y004026D01*
X010980Y004184D02*
X010530Y004184D01*
X010491Y004343D02*
X010980Y004343D01*
X010980Y004501D02*
X010033Y004501D01*
X010009Y004660D02*
X010980Y004660D01*
X010980Y004818D02*
X010009Y004818D01*
X010009Y004977D02*
X010980Y004977D01*
X010980Y005135D02*
X010009Y005135D01*
X010009Y005294D02*
X010980Y005294D01*
X010980Y005452D02*
X010009Y005452D01*
X009927Y005611D02*
X010980Y005611D01*
X010980Y005769D02*
X009918Y005769D01*
X009913Y005928D02*
X010980Y005928D01*
X010980Y006086D02*
X009829Y006086D01*
X009235Y005611D02*
X009139Y005611D01*
X009131Y004501D02*
X009267Y004501D01*
X010134Y003233D02*
X010171Y003233D01*
X010171Y003075D02*
X010134Y003075D01*
D23*
X006840Y004520D02*
X006690Y004370D01*
X006840Y004520D02*
X006840Y005660D01*
X005460Y015380D02*
X004500Y015380D01*
X005460Y015380D02*
X005460Y016160D01*
D24*
X005847Y016160D01*
X005893Y016114D01*
X005893Y015366D02*
X005607Y015080D01*
X005160Y015080D01*
X004740Y014660D01*
X004740Y013700D01*
X004620Y013580D01*
X004620Y013075D01*
X004645Y012405D02*
X004620Y012405D01*
X004620Y012380D02*
X004620Y012140D01*
X004500Y012020D01*
X003780Y012020D01*
X003660Y011900D01*
X003660Y010940D01*
X004020Y010580D01*
X005340Y010580D01*
X005656Y010896D01*
X005656Y011438D01*
X005280Y011900D02*
X005400Y012020D01*
X005940Y012020D01*
X006063Y012143D01*
X006063Y012740D01*
X006063Y013523D01*
X006280Y013740D01*
X006280Y014240D01*
X005760Y014660D02*
X006120Y015020D01*
X006600Y015020D01*
X007280Y014340D01*
X007280Y014240D01*
X007740Y013615D02*
X007080Y013075D01*
X007080Y012405D02*
X006752Y012405D01*
X006417Y012740D01*
X006417Y011464D01*
X006443Y011438D01*
X007230Y010670D02*
X007140Y010580D01*
X007230Y010670D02*
X007230Y011438D01*
X007242Y011438D01*
X007260Y011420D01*
X007620Y012380D02*
X007645Y012405D01*
X008040Y012405D01*
X008430Y012405D01*
X008400Y012375D01*
X008400Y010190D01*
X007980Y009770D01*
X007980Y005098D01*
X008018Y005060D01*
X007230Y005750D02*
X007380Y005900D01*
X007380Y006920D01*
X003180Y011120D01*
X003180Y012380D01*
X003755Y012380D01*
X003780Y012405D01*
X003875Y012405D01*
X004081Y011438D02*
X004081Y011179D01*
X004440Y010820D01*
X005220Y010820D01*
X005280Y010880D01*
X005280Y011900D01*
X005340Y012200D02*
X004920Y011780D01*
X004920Y011490D01*
X004868Y011438D01*
X004868Y011548D01*
X005340Y012200D02*
X005580Y012200D01*
X005637Y012257D01*
X005637Y012740D01*
X005637Y013517D01*
X005760Y013640D01*
X005760Y014660D01*
X005727Y015200D02*
X005893Y015366D01*
X005100Y015813D02*
X005027Y015740D01*
X005100Y015813D02*
X005100Y016700D01*
X005100Y016725D02*
X005769Y017395D01*
X005940Y017395D01*
X006085Y017395D02*
X006420Y017060D01*
X007140Y017060D01*
X007260Y016940D01*
X007260Y016820D01*
X007394Y016686D01*
X008653Y016686D01*
X009060Y017060D02*
X009180Y016940D01*
X009180Y016220D01*
X008100Y016220D01*
X007994Y016114D01*
X007810Y017060D02*
X009060Y017060D01*
X009060Y017300D02*
X008787Y017300D01*
X008653Y017434D01*
X008667Y017420D02*
X008820Y017420D01*
X008940Y017540D01*
X009000Y017540D01*
X009420Y017960D01*
X009960Y017960D01*
X010740Y018740D01*
X010740Y019222D01*
X010741Y019235D01*
X010746Y019247D01*
X010753Y019258D01*
X010762Y019267D01*
X010773Y019274D01*
X010785Y019279D01*
X010798Y019280D01*
X010745Y017232D02*
X009823Y017232D01*
X009660Y017395D01*
X009540Y016820D02*
X009060Y017300D01*
X008764Y017900D02*
X009420Y018556D01*
X009420Y019280D01*
X008764Y017900D02*
X006780Y017900D01*
X006780Y016725D02*
X006780Y016075D01*
X006925Y016075D01*
X007260Y015740D01*
X007260Y015140D01*
X007380Y015020D01*
X007620Y015020D01*
X007740Y014900D01*
X007740Y013615D01*
X008430Y012405D02*
X008880Y012405D01*
X008018Y011438D02*
X008018Y010618D01*
X007980Y010580D01*
X005283Y012740D02*
X004948Y012405D01*
X004645Y012405D01*
X004620Y012380D01*
X003180Y012380D02*
X002100Y013460D01*
X002100Y013580D01*
X002940Y014420D01*
X002940Y016700D01*
X001980Y017660D01*
X001860Y017660D01*
X002220Y017660D01*
X004500Y015380D02*
X004140Y015020D01*
X003180Y013100D02*
X003205Y013075D01*
X002100Y013580D02*
X001860Y013580D01*
X003660Y005904D02*
X003664Y005900D01*
X004380Y004280D02*
X004440Y004220D01*
X004440Y004075D01*
X003794Y004114D02*
X003632Y004114D01*
X003618Y003380D02*
X003632Y003366D01*
X006690Y003610D02*
X006690Y004280D01*
X007230Y005060D02*
X007230Y005750D01*
X010745Y002468D02*
X010745Y001468D01*
X008653Y015740D02*
X007260Y015740D01*
X009180Y016220D02*
X009515Y016220D01*
X009660Y016075D01*
D25*
X008757Y015129D03*
X010737Y011289D03*
X010737Y007989D03*
X008397Y004329D03*
X007377Y001449D03*
X004617Y018129D03*
D26*
X003780Y013075D02*
X003205Y013075D01*
X001860Y012260D02*
X001860Y012202D01*
X005216Y005904D02*
X005220Y005900D01*
X005700Y005420D01*
X005700Y005104D01*
X005656Y005060D01*
X002608Y003366D02*
X002234Y003366D01*
X002220Y003380D01*
X001825Y003380D01*
X001800Y003405D01*
X002220Y003380D02*
X002220Y004580D01*
X002340Y004700D01*
X002456Y004700D01*
X002470Y004714D01*
D27*
X005220Y005900D03*
X006840Y006860D03*
X007140Y010580D03*
X007980Y010580D03*
X007620Y012380D03*
X009540Y005840D03*
X003180Y013100D03*
M02*
