G75*
%MOIN*%
%OFA0B0*%
%FSLAX24Y24*%
%IPPOS*%
%LPD*%
%AMOC8*
5,1,8,0,0,1.08239X$1,22.5*
%
%ADD10C,0.0060*%
%ADD11C,0.0100*%
%ADD12C,0.0040*%
%ADD13R,0.0002X0.0003*%
%ADD14R,0.0005X0.0002*%
%ADD15R,0.0008X0.0003*%
%ADD16R,0.0010X0.0002*%
%ADD17R,0.0023X0.0002*%
%ADD18R,0.0010X0.0003*%
%ADD19R,0.0035X0.0003*%
%ADD20R,0.0015X0.0002*%
%ADD21R,0.0042X0.0002*%
%ADD22R,0.0018X0.0003*%
%ADD23R,0.0050X0.0003*%
%ADD24R,0.0020X0.0002*%
%ADD25R,0.0055X0.0002*%
%ADD26R,0.0002X0.0002*%
%ADD27R,0.0020X0.0003*%
%ADD28R,0.0060X0.0003*%
%ADD29R,0.0025X0.0002*%
%ADD30R,0.0068X0.0002*%
%ADD31R,0.0027X0.0003*%
%ADD32R,0.0072X0.0003*%
%ADD33R,0.0005X0.0003*%
%ADD34R,0.0032X0.0002*%
%ADD35R,0.0077X0.0002*%
%ADD36R,0.0007X0.0002*%
%ADD37R,0.0033X0.0002*%
%ADD38R,0.0083X0.0003*%
%ADD39R,0.0007X0.0003*%
%ADD40R,0.0045X0.0003*%
%ADD41R,0.0120X0.0002*%
%ADD42R,0.0027X0.0002*%
%ADD43R,0.0013X0.0002*%
%ADD44R,0.0012X0.0002*%
%ADD45R,0.0057X0.0002*%
%ADD46R,0.0060X0.0002*%
%ADD47R,0.0003X0.0002*%
%ADD48R,0.0122X0.0003*%
%ADD49R,0.0033X0.0003*%
%ADD50R,0.0015X0.0003*%
%ADD51R,0.0017X0.0003*%
%ADD52R,0.0065X0.0003*%
%ADD53R,0.0082X0.0003*%
%ADD54R,0.0123X0.0002*%
%ADD55R,0.0065X0.0002*%
%ADD56R,0.0035X0.0002*%
%ADD57R,0.0018X0.0002*%
%ADD58R,0.0097X0.0002*%
%ADD59R,0.0105X0.0002*%
%ADD60R,0.0125X0.0003*%
%ADD61R,0.0100X0.0003*%
%ADD62R,0.0040X0.0003*%
%ADD63R,0.0022X0.0003*%
%ADD64R,0.0118X0.0003*%
%ADD65R,0.0013X0.0003*%
%ADD66R,0.0133X0.0002*%
%ADD67R,0.0048X0.0002*%
%ADD68R,0.0103X0.0002*%
%ADD69R,0.0128X0.0002*%
%ADD70R,0.0037X0.0002*%
%ADD71R,0.0275X0.0003*%
%ADD72R,0.0090X0.0003*%
%ADD73R,0.0110X0.0003*%
%ADD74R,0.0140X0.0003*%
%ADD75R,0.0070X0.0003*%
%ADD76R,0.0277X0.0002*%
%ADD77R,0.0095X0.0002*%
%ADD78R,0.0118X0.0002*%
%ADD79R,0.0160X0.0002*%
%ADD80R,0.0073X0.0002*%
%ADD81R,0.0285X0.0003*%
%ADD82R,0.0282X0.0003*%
%ADD83R,0.0075X0.0003*%
%ADD84R,0.0290X0.0002*%
%ADD85R,0.0008X0.0002*%
%ADD86R,0.0285X0.0002*%
%ADD87R,0.0080X0.0002*%
%ADD88R,0.0300X0.0003*%
%ADD89R,0.0025X0.0003*%
%ADD90R,0.0085X0.0003*%
%ADD91R,0.0460X0.0002*%
%ADD92R,0.0088X0.0002*%
%ADD93R,0.0458X0.0003*%
%ADD94R,0.0087X0.0003*%
%ADD95R,0.0455X0.0002*%
%ADD96R,0.0078X0.0002*%
%ADD97R,0.0090X0.0002*%
%ADD98R,0.0447X0.0003*%
%ADD99R,0.0080X0.0003*%
%ADD100R,0.0443X0.0002*%
%ADD101R,0.0083X0.0002*%
%ADD102R,0.0017X0.0002*%
%ADD103R,0.0283X0.0002*%
%ADD104R,0.0093X0.0002*%
%ADD105R,0.0440X0.0003*%
%ADD106R,0.0280X0.0003*%
%ADD107R,0.0095X0.0003*%
%ADD108R,0.0435X0.0002*%
%ADD109R,0.0085X0.0002*%
%ADD110R,0.0075X0.0002*%
%ADD111R,0.0045X0.0002*%
%ADD112R,0.0400X0.0002*%
%ADD113R,0.0425X0.0003*%
%ADD114R,0.0102X0.0003*%
%ADD115R,0.0355X0.0003*%
%ADD116R,0.0415X0.0002*%
%ADD117R,0.0115X0.0002*%
%ADD118R,0.0108X0.0002*%
%ADD119R,0.0352X0.0002*%
%ADD120R,0.0398X0.0003*%
%ADD121R,0.0093X0.0003*%
%ADD122R,0.0128X0.0003*%
%ADD123R,0.0113X0.0003*%
%ADD124R,0.0353X0.0003*%
%ADD125R,0.0380X0.0002*%
%ADD126R,0.0242X0.0002*%
%ADD127R,0.0348X0.0002*%
%ADD128R,0.0253X0.0003*%
%ADD129R,0.0248X0.0003*%
%ADD130R,0.0133X0.0003*%
%ADD131R,0.0347X0.0003*%
%ADD132R,0.0227X0.0002*%
%ADD133R,0.0262X0.0002*%
%ADD134R,0.0157X0.0002*%
%ADD135R,0.0030X0.0002*%
%ADD136R,0.0275X0.0002*%
%ADD137R,0.0063X0.0002*%
%ADD138R,0.0195X0.0003*%
%ADD139R,0.0435X0.0003*%
%ADD140R,0.0305X0.0003*%
%ADD141R,0.0193X0.0002*%
%ADD142R,0.0432X0.0002*%
%ADD143R,0.0293X0.0002*%
%ADD144R,0.0198X0.0003*%
%ADD145R,0.0428X0.0003*%
%ADD146R,0.0293X0.0003*%
%ADD147R,0.0022X0.0002*%
%ADD148R,0.0210X0.0002*%
%ADD149R,0.0420X0.0002*%
%ADD150R,0.0325X0.0002*%
%ADD151R,0.0220X0.0003*%
%ADD152R,0.0415X0.0003*%
%ADD153R,0.0320X0.0003*%
%ADD154R,0.0245X0.0002*%
%ADD155R,0.0410X0.0002*%
%ADD156R,0.0320X0.0002*%
%ADD157R,0.0313X0.0003*%
%ADD158R,0.0317X0.0003*%
%ADD159R,0.0317X0.0002*%
%ADD160R,0.0375X0.0002*%
%ADD161R,0.0315X0.0002*%
%ADD162R,0.0323X0.0003*%
%ADD163R,0.0375X0.0003*%
%ADD164R,0.0315X0.0003*%
%ADD165R,0.0273X0.0002*%
%ADD166R,0.0328X0.0003*%
%ADD167R,0.0270X0.0003*%
%ADD168R,0.0182X0.0003*%
%ADD169R,0.0123X0.0003*%
%ADD170R,0.0330X0.0002*%
%ADD171R,0.0267X0.0002*%
%ADD172R,0.0373X0.0003*%
%ADD173R,0.0267X0.0003*%
%ADD174R,0.0108X0.0003*%
%ADD175R,0.0100X0.0002*%
%ADD176R,0.0277X0.0003*%
%ADD177R,0.0053X0.0003*%
%ADD178R,0.0378X0.0003*%
%ADD179R,0.0292X0.0003*%
%ADD180R,0.0030X0.0003*%
%ADD181R,0.0042X0.0003*%
%ADD182R,0.0377X0.0002*%
%ADD183R,0.0297X0.0002*%
%ADD184R,0.0043X0.0002*%
%ADD185R,0.0058X0.0003*%
%ADD186R,0.0310X0.0002*%
%ADD187R,0.0102X0.0002*%
%ADD188R,0.0067X0.0003*%
%ADD189R,0.0280X0.0002*%
%ADD190R,0.0322X0.0002*%
%ADD191R,0.0175X0.0003*%
%ADD192R,0.0327X0.0003*%
%ADD193R,0.0072X0.0002*%
%ADD194R,0.0158X0.0002*%
%ADD195R,0.0335X0.0002*%
%ADD196R,0.0070X0.0002*%
%ADD197R,0.0155X0.0003*%
%ADD198R,0.0157X0.0003*%
%ADD199R,0.0160X0.0003*%
%ADD200R,0.0150X0.0002*%
%ADD201R,0.0148X0.0002*%
%ADD202R,0.0155X0.0002*%
%ADD203R,0.0062X0.0003*%
%ADD204R,0.0148X0.0003*%
%ADD205R,0.0142X0.0003*%
%ADD206R,0.0145X0.0003*%
%ADD207R,0.0147X0.0002*%
%ADD208R,0.0142X0.0002*%
%ADD209R,0.0143X0.0002*%
%ADD210R,0.0067X0.0002*%
%ADD211R,0.0170X0.0003*%
%ADD212R,0.0143X0.0003*%
%ADD213R,0.0068X0.0003*%
%ADD214R,0.0145X0.0002*%
%ADD215R,0.0165X0.0002*%
%ADD216R,0.0140X0.0002*%
%ADD217R,0.0163X0.0003*%
%ADD218R,0.0150X0.0003*%
%ADD219R,0.0003X0.0003*%
%ADD220R,0.0063X0.0003*%
%ADD221R,0.0137X0.0003*%
%ADD222R,0.0082X0.0002*%
%ADD223R,0.0138X0.0003*%
%ADD224R,0.0062X0.0002*%
%ADD225R,0.0137X0.0002*%
%ADD226R,0.0077X0.0003*%
%ADD227R,0.0135X0.0002*%
%ADD228R,0.0135X0.0003*%
%ADD229R,0.0103X0.0003*%
%ADD230R,0.0058X0.0002*%
%ADD231R,0.0055X0.0003*%
%ADD232R,0.0047X0.0003*%
%ADD233R,0.0105X0.0003*%
%ADD234R,0.0053X0.0002*%
%ADD235R,0.0050X0.0002*%
%ADD236R,0.0132X0.0002*%
%ADD237R,0.0152X0.0002*%
%ADD238R,0.0130X0.0003*%
%ADD239R,0.0130X0.0002*%
%ADD240R,0.0028X0.0002*%
%ADD241R,0.0107X0.0002*%
%ADD242R,0.0028X0.0003*%
%ADD243R,0.0107X0.0003*%
%ADD244R,0.0167X0.0003*%
%ADD245R,0.0172X0.0002*%
%ADD246R,0.0023X0.0003*%
%ADD247R,0.0180X0.0002*%
%ADD248R,0.0110X0.0002*%
%ADD249R,0.0187X0.0002*%
%ADD250R,0.0132X0.0003*%
%ADD251R,0.0190X0.0003*%
%ADD252R,0.0200X0.0002*%
%ADD253R,0.0052X0.0002*%
%ADD254R,0.0112X0.0002*%
%ADD255R,0.0012X0.0003*%
%ADD256R,0.0272X0.0003*%
%ADD257R,0.0112X0.0003*%
%ADD258R,0.0272X0.0002*%
%ADD259R,0.0115X0.0003*%
%ADD260R,0.0268X0.0002*%
%ADD261R,0.0265X0.0003*%
%ADD262R,0.0265X0.0002*%
%ADD263R,0.0117X0.0003*%
%ADD264R,0.0260X0.0002*%
%ADD265R,0.0260X0.0003*%
%ADD266R,0.0120X0.0003*%
%ADD267R,0.0122X0.0002*%
%ADD268R,0.0038X0.0002*%
%ADD269R,0.0255X0.0002*%
%ADD270R,0.0127X0.0002*%
%ADD271R,0.0255X0.0003*%
%ADD272R,0.0040X0.0002*%
%ADD273R,0.0252X0.0002*%
%ADD274R,0.0043X0.0003*%
%ADD275R,0.0250X0.0003*%
%ADD276R,0.0248X0.0002*%
%ADD277R,0.0152X0.0003*%
%ADD278R,0.0245X0.0003*%
%ADD279R,0.0153X0.0002*%
%ADD280R,0.0243X0.0003*%
%ADD281R,0.0162X0.0002*%
%ADD282R,0.0243X0.0002*%
%ADD283R,0.0240X0.0003*%
%ADD284R,0.0147X0.0003*%
%ADD285R,0.0240X0.0002*%
%ADD286R,0.0158X0.0003*%
%ADD287R,0.0250X0.0002*%
%ADD288R,0.0305X0.0002*%
%ADD289R,0.0308X0.0003*%
%ADD290R,0.0228X0.0003*%
%ADD291R,0.0308X0.0002*%
%ADD292R,0.0307X0.0003*%
%ADD293R,0.0232X0.0003*%
%ADD294R,0.0253X0.0002*%
%ADD295R,0.0235X0.0002*%
%ADD296R,0.0310X0.0003*%
%ADD297R,0.0047X0.0002*%
%ADD298R,0.0313X0.0002*%
%ADD299R,0.0312X0.0003*%
%ADD300R,0.0287X0.0002*%
%ADD301R,0.0263X0.0003*%
%ADD302R,0.0288X0.0003*%
%ADD303R,0.0302X0.0002*%
%ADD304R,0.0057X0.0003*%
%ADD305R,0.0322X0.0003*%
%ADD306R,0.0307X0.0002*%
%ADD307R,0.0330X0.0003*%
%ADD308R,0.0312X0.0002*%
%ADD309R,0.0333X0.0002*%
%ADD310R,0.0337X0.0003*%
%ADD311R,0.0300X0.0002*%
%ADD312R,0.0340X0.0002*%
%ADD313R,0.0340X0.0003*%
%ADD314R,0.0342X0.0002*%
%ADD315R,0.0325X0.0003*%
%ADD316R,0.0295X0.0003*%
%ADD317R,0.0343X0.0003*%
%ADD318R,0.0328X0.0002*%
%ADD319R,0.0345X0.0002*%
%ADD320R,0.0290X0.0003*%
%ADD321R,0.0342X0.0003*%
%ADD322R,0.0333X0.0003*%
%ADD323R,0.0335X0.0003*%
%ADD324R,0.0338X0.0002*%
%ADD325R,0.0350X0.0003*%
%ADD326R,0.0332X0.0003*%
%ADD327R,0.0355X0.0002*%
%ADD328R,0.0362X0.0003*%
%ADD329R,0.0273X0.0003*%
%ADD330R,0.0365X0.0002*%
%ADD331R,0.0270X0.0002*%
%ADD332R,0.0162X0.0003*%
%ADD333R,0.0268X0.0003*%
%ADD334R,0.0168X0.0002*%
%ADD335R,0.0378X0.0002*%
%ADD336R,0.0172X0.0003*%
%ADD337R,0.0382X0.0003*%
%ADD338R,0.0178X0.0002*%
%ADD339R,0.0388X0.0002*%
%ADD340R,0.0292X0.0002*%
%ADD341R,0.0185X0.0003*%
%ADD342R,0.0392X0.0003*%
%ADD343R,0.0587X0.0002*%
%ADD344R,0.0258X0.0002*%
%ADD345R,0.0593X0.0003*%
%ADD346R,0.0257X0.0003*%
%ADD347R,0.0600X0.0002*%
%ADD348R,0.0257X0.0002*%
%ADD349R,0.0602X0.0003*%
%ADD350R,0.0608X0.0002*%
%ADD351R,0.0612X0.0003*%
%ADD352R,0.0620X0.0002*%
%ADD353R,0.0625X0.0003*%
%ADD354R,0.0630X0.0002*%
%ADD355R,0.0635X0.0003*%
%ADD356R,0.0258X0.0003*%
%ADD357R,0.0642X0.0002*%
%ADD358R,0.0645X0.0003*%
%ADD359R,0.0247X0.0003*%
%ADD360R,0.0650X0.0002*%
%ADD361R,0.0655X0.0003*%
%ADD362R,0.0663X0.0002*%
%ADD363R,0.0670X0.0003*%
%ADD364R,0.0678X0.0002*%
%ADD365R,0.0237X0.0002*%
%ADD366R,0.0685X0.0003*%
%ADD367R,0.0237X0.0003*%
%ADD368R,0.0690X0.0002*%
%ADD369R,0.0700X0.0003*%
%ADD370R,0.0235X0.0003*%
%ADD371R,0.0233X0.0003*%
%ADD372R,0.0712X0.0002*%
%ADD373R,0.0230X0.0002*%
%ADD374R,0.0952X0.0003*%
%ADD375R,0.0955X0.0002*%
%ADD376R,0.0225X0.0002*%
%ADD377R,0.0955X0.0003*%
%ADD378R,0.0222X0.0003*%
%ADD379R,0.0960X0.0002*%
%ADD380R,0.0222X0.0002*%
%ADD381R,0.0960X0.0003*%
%ADD382R,0.0963X0.0002*%
%ADD383R,0.0217X0.0002*%
%ADD384R,0.0963X0.0003*%
%ADD385R,0.0215X0.0003*%
%ADD386R,0.0967X0.0002*%
%ADD387R,0.0215X0.0002*%
%ADD388R,0.0967X0.0003*%
%ADD389R,0.0213X0.0003*%
%ADD390R,0.0970X0.0003*%
%ADD391R,0.0210X0.0003*%
%ADD392R,0.0973X0.0002*%
%ADD393R,0.0208X0.0002*%
%ADD394R,0.0975X0.0003*%
%ADD395R,0.0205X0.0003*%
%ADD396R,0.0977X0.0002*%
%ADD397R,0.0205X0.0002*%
%ADD398R,0.0977X0.0003*%
%ADD399R,0.0983X0.0002*%
%ADD400R,0.0983X0.0003*%
%ADD401R,0.0987X0.0002*%
%ADD402R,0.0990X0.0003*%
%ADD403R,0.0990X0.0002*%
%ADD404R,0.0995X0.0003*%
%ADD405R,0.0998X0.0002*%
%ADD406R,0.1003X0.0003*%
%ADD407R,0.1007X0.0002*%
%ADD408R,0.1010X0.0003*%
%ADD409R,0.0212X0.0003*%
%ADD410R,0.1012X0.0002*%
%ADD411R,0.0212X0.0002*%
%ADD412R,0.1018X0.0003*%
%ADD413R,0.1020X0.0002*%
%ADD414R,0.0218X0.0002*%
%ADD415R,0.1027X0.0003*%
%ADD416R,0.1032X0.0002*%
%ADD417R,0.1040X0.0003*%
%ADD418R,0.0230X0.0003*%
%ADD419R,0.1273X0.0002*%
%ADD420R,0.1273X0.0003*%
%ADD421R,0.0180X0.0003*%
%ADD422R,0.0203X0.0002*%
%ADD423R,0.1272X0.0002*%
%ADD424R,0.1522X0.0003*%
%ADD425R,0.1527X0.0002*%
%ADD426R,0.1532X0.0003*%
%ADD427R,0.1540X0.0002*%
%ADD428R,0.1543X0.0003*%
%ADD429R,0.1548X0.0002*%
%ADD430R,0.1550X0.0003*%
%ADD431R,0.1555X0.0002*%
%ADD432R,0.1560X0.0003*%
%ADD433R,0.1562X0.0002*%
%ADD434R,0.1565X0.0003*%
%ADD435R,0.1567X0.0002*%
%ADD436R,0.1575X0.0003*%
%ADD437R,0.1578X0.0002*%
%ADD438R,0.1580X0.0003*%
%ADD439R,0.1580X0.0002*%
%ADD440R,0.1583X0.0003*%
%ADD441R,0.1587X0.0002*%
%ADD442R,0.1590X0.0003*%
%ADD443R,0.1592X0.0002*%
%ADD444R,0.1592X0.0003*%
%ADD445R,0.0370X0.0002*%
%ADD446R,0.1225X0.0002*%
%ADD447R,0.1225X0.0003*%
%ADD448R,0.0373X0.0002*%
%ADD449R,0.1222X0.0002*%
%ADD450R,0.0377X0.0003*%
%ADD451R,0.0203X0.0003*%
%ADD452R,0.0207X0.0002*%
%ADD453R,0.0207X0.0003*%
%ADD454R,0.1223X0.0003*%
%ADD455R,0.1220X0.0002*%
%ADD456R,0.1222X0.0003*%
%ADD457R,0.1217X0.0003*%
%ADD458R,0.1218X0.0002*%
%ADD459R,0.0218X0.0003*%
%ADD460R,0.0968X0.0003*%
%ADD461R,0.0220X0.0002*%
%ADD462R,0.0032X0.0003*%
%ADD463R,0.0223X0.0003*%
%ADD464R,0.0937X0.0003*%
%ADD465R,0.0918X0.0002*%
%ADD466R,0.0052X0.0003*%
%ADD467R,0.0097X0.0003*%
%ADD468R,0.0898X0.0003*%
%ADD469R,0.0878X0.0002*%
%ADD470R,0.0823X0.0003*%
%ADD471R,0.0127X0.0003*%
%ADD472R,0.0092X0.0002*%
%ADD473R,0.0700X0.0002*%
%ADD474R,0.0670X0.0002*%
%ADD475R,0.0640X0.0002*%
%ADD476R,0.0627X0.0003*%
%ADD477R,0.0615X0.0002*%
%ADD478R,0.0605X0.0003*%
%ADD479R,0.0595X0.0002*%
%ADD480R,0.0588X0.0003*%
%ADD481R,0.0098X0.0003*%
%ADD482R,0.0362X0.0002*%
%ADD483R,0.0578X0.0002*%
%ADD484R,0.0395X0.0003*%
%ADD485R,0.0567X0.0003*%
%ADD486R,0.0422X0.0002*%
%ADD487R,0.0560X0.0002*%
%ADD488R,0.0432X0.0003*%
%ADD489R,0.0555X0.0003*%
%ADD490R,0.0442X0.0002*%
%ADD491R,0.0548X0.0002*%
%ADD492R,0.0450X0.0003*%
%ADD493R,0.0540X0.0003*%
%ADD494R,0.0092X0.0003*%
%ADD495R,0.0530X0.0002*%
%ADD496R,0.0462X0.0003*%
%ADD497R,0.0523X0.0003*%
%ADD498R,0.0467X0.0002*%
%ADD499R,0.0517X0.0002*%
%ADD500R,0.0472X0.0003*%
%ADD501R,0.0510X0.0003*%
%ADD502R,0.0475X0.0002*%
%ADD503R,0.0502X0.0002*%
%ADD504R,0.0480X0.0003*%
%ADD505R,0.0497X0.0003*%
%ADD506R,0.0482X0.0002*%
%ADD507R,0.0490X0.0002*%
%ADD508R,0.0485X0.0003*%
%ADD509R,0.0487X0.0002*%
%ADD510R,0.0488X0.0003*%
%ADD511R,0.0468X0.0003*%
%ADD512R,0.0153X0.0003*%
%ADD513R,0.0493X0.0003*%
%ADD514R,0.0453X0.0003*%
%ADD515R,0.0495X0.0002*%
%ADD516R,0.0448X0.0002*%
%ADD517R,0.0037X0.0003*%
%ADD518R,0.0495X0.0003*%
%ADD519R,0.0442X0.0003*%
%ADD520R,0.0498X0.0002*%
%ADD521R,0.0450X0.0002*%
%ADD522R,0.0038X0.0003*%
%ADD523R,0.0500X0.0003*%
%ADD524R,0.0165X0.0003*%
%ADD525R,0.0500X0.0002*%
%ADD526R,0.0512X0.0002*%
%ADD527R,0.0073X0.0003*%
%ADD528R,0.0502X0.0003*%
%ADD529R,0.0113X0.0002*%
%ADD530R,0.0505X0.0002*%
%ADD531R,0.0493X0.0002*%
%ADD532R,0.0505X0.0003*%
%ADD533R,0.0483X0.0003*%
%ADD534R,0.0358X0.0003*%
%ADD535R,0.0465X0.0003*%
%ADD536R,0.0457X0.0002*%
%ADD537R,0.0445X0.0003*%
%ADD538R,0.0438X0.0002*%
%ADD539R,0.0098X0.0002*%
%ADD540R,0.0417X0.0002*%
%ADD541R,0.0410X0.0003*%
%ADD542R,0.0402X0.0002*%
%ADD543R,0.0318X0.0002*%
%ADD544R,0.0318X0.0003*%
%ADD545R,0.0370X0.0003*%
%ADD546R,0.0363X0.0002*%
%ADD547R,0.0088X0.0003*%
%ADD548R,0.0283X0.0003*%
%ADD549R,0.0357X0.0002*%
%ADD550R,0.0087X0.0002*%
%ADD551R,0.0117X0.0002*%
%ADD552R,0.0350X0.0002*%
%ADD553R,0.0188X0.0003*%
%ADD554R,0.0195X0.0002*%
%ADD555R,0.0178X0.0003*%
%ADD556R,0.0327X0.0002*%
%ADD557R,0.0213X0.0002*%
%ADD558R,0.0233X0.0002*%
%ADD559R,0.0298X0.0002*%
%ADD560R,0.0138X0.0002*%
%ADD561R,0.0238X0.0003*%
%ADD562R,0.0202X0.0003*%
%ADD563R,0.0282X0.0002*%
%ADD564R,0.0358X0.0002*%
%ADD565R,0.0202X0.0002*%
%ADD566R,0.0420X0.0003*%
%ADD567R,0.0440X0.0002*%
%ADD568R,0.0225X0.0003*%
%ADD569R,0.0192X0.0002*%
%ADD570R,0.0217X0.0003*%
%ADD571R,0.0278X0.0003*%
%ADD572R,0.0457X0.0003*%
%ADD573R,0.0182X0.0002*%
%ADD574R,0.0452X0.0003*%
%ADD575R,0.0177X0.0003*%
%ADD576R,0.0438X0.0003*%
%ADD577R,0.0433X0.0002*%
%ADD578R,0.0405X0.0003*%
%ADD579R,0.0278X0.0002*%
%ADD580R,0.0393X0.0003*%
%ADD581R,0.0387X0.0002*%
%ADD582R,0.0380X0.0003*%
%ADD583R,0.0367X0.0002*%
%ADD584R,0.0363X0.0003*%
%ADD585R,0.0360X0.0002*%
%ADD586R,0.0288X0.0002*%
%ADD587R,0.0348X0.0003*%
%ADD588R,0.0338X0.0003*%
%ADD589R,0.0302X0.0003*%
%ADD590R,0.0295X0.0002*%
%ADD591R,0.0232X0.0002*%
%ADD592R,0.0188X0.0002*%
%ADD593R,0.0193X0.0003*%
%ADD594R,0.0125X0.0002*%
%ADD595R,0.0190X0.0002*%
%ADD596R,0.0187X0.0003*%
%ADD597R,0.0208X0.0003*%
%ADD598R,0.0170X0.0002*%
%ADD599R,0.0167X0.0002*%
%ADD600R,0.0173X0.0003*%
%ADD601R,0.0175X0.0002*%
%ADD602R,0.0393X0.0002*%
%ADD603R,0.0185X0.0002*%
%ADD604R,0.0477X0.0002*%
%ADD605R,0.0252X0.0003*%
%ADD606R,0.0197X0.0003*%
%ADD607R,0.0247X0.0002*%
%ADD608R,0.0503X0.0003*%
%ADD609R,0.0510X0.0002*%
%ADD610R,0.0518X0.0003*%
%ADD611R,0.0527X0.0002*%
%ADD612R,0.0535X0.0003*%
%ADD613R,0.0537X0.0002*%
%ADD614R,0.0508X0.0003*%
%ADD615R,0.0472X0.0002*%
%ADD616R,0.0200X0.0003*%
%ADD617R,0.0433X0.0003*%
%ADD618R,0.0197X0.0002*%
%ADD619R,0.0423X0.0002*%
%ADD620R,0.0413X0.0003*%
%ADD621R,0.0405X0.0002*%
%ADD622R,0.0397X0.0003*%
%ADD623R,0.0332X0.0002*%
%ADD624R,0.0287X0.0003*%
%ADD625R,0.0183X0.0002*%
%ADD626R,0.0183X0.0003*%
%ADD627R,0.0227X0.0003*%
%ADD628R,0.0048X0.0003*%
%ADD629R,0.0518X0.0002*%
%ADD630R,0.0533X0.0003*%
%ADD631R,0.0598X0.0002*%
%ADD632R,0.0173X0.0002*%
%ADD633R,0.0600X0.0003*%
%ADD634R,0.0412X0.0003*%
%ADD635R,0.0168X0.0003*%
%ADD636R,0.0003X0.0003*%
%ADD637R,0.0163X0.0002*%
%ADD638R,0.0177X0.0002*%
%ADD639R,0.0418X0.0003*%
D10*
X005106Y006433D02*
X005333Y006433D01*
X005333Y006377D02*
X005333Y006490D01*
X005276Y006547D01*
X005163Y006547D01*
X005106Y006490D01*
X005106Y006433D01*
X005163Y006320D02*
X005276Y006320D01*
X005333Y006377D01*
X005470Y006547D02*
X005526Y006547D01*
X005640Y006433D01*
X005640Y006320D02*
X005640Y006547D01*
X005781Y006490D02*
X005781Y006320D01*
X005952Y006320D01*
X006008Y006377D01*
X005952Y006433D01*
X005781Y006433D01*
X005781Y006490D02*
X005838Y006547D01*
X005952Y006547D01*
X006150Y006547D02*
X006150Y006377D01*
X006206Y006320D01*
X006263Y006377D01*
X006320Y006320D01*
X006377Y006377D01*
X006377Y006547D01*
X006518Y006547D02*
X006688Y006547D01*
X006745Y006490D01*
X006745Y006377D01*
X006688Y006320D01*
X006518Y006320D01*
X006518Y006660D01*
X006882Y006547D02*
X006938Y006547D01*
X007052Y006433D01*
X007052Y006320D02*
X007052Y006547D01*
X007193Y006490D02*
X007193Y006320D01*
X007363Y006320D01*
X007420Y006377D01*
X007363Y006433D01*
X007193Y006433D01*
X007193Y006490D02*
X007250Y006547D01*
X007363Y006547D01*
X007562Y006490D02*
X007788Y006490D01*
X007788Y006320D02*
X007788Y006660D01*
X007930Y006490D02*
X008157Y006490D01*
X008298Y006490D02*
X008298Y006320D01*
X008298Y006490D02*
X008355Y006547D01*
X008525Y006547D01*
X008525Y006320D01*
X008667Y006433D02*
X008893Y006433D01*
X008893Y006377D02*
X008893Y006490D01*
X008837Y006547D01*
X008723Y006547D01*
X008667Y006490D01*
X008667Y006433D01*
X008723Y006320D02*
X008837Y006320D01*
X008893Y006377D01*
X009035Y006377D02*
X009035Y006490D01*
X009092Y006547D01*
X009262Y006547D01*
X009262Y006207D01*
X009262Y006320D02*
X009092Y006320D01*
X009035Y006377D01*
X009403Y006377D02*
X009403Y006604D01*
X009460Y006660D01*
X009573Y006660D01*
X009630Y006604D01*
X009630Y006377D01*
X009573Y006320D01*
X009460Y006320D01*
X009403Y006377D01*
X009216Y007963D02*
X009396Y008153D01*
X009236Y008393D01*
X009336Y008663D02*
X009636Y008713D01*
X009636Y008973D01*
X009336Y009033D01*
X009226Y009283D02*
X009406Y009543D01*
X009216Y009723D01*
X008956Y009543D01*
X008706Y009643D02*
X008656Y009963D01*
X008386Y009963D01*
X008336Y009643D01*
X008086Y009543D02*
X007826Y009723D01*
X007636Y009543D01*
X007816Y009283D01*
X007706Y009033D02*
X007406Y008973D01*
X007406Y008713D01*
X007706Y008663D01*
X007806Y008393D02*
X007636Y008153D01*
X007826Y007963D01*
X008066Y008133D01*
X008166Y008073D01*
X008356Y008523D01*
X007805Y008393D02*
X007782Y008434D01*
X007761Y008477D01*
X007743Y008522D01*
X007728Y008567D01*
X007715Y008613D01*
X007705Y008660D01*
X007707Y009034D02*
X007722Y009086D01*
X007741Y009137D01*
X007763Y009187D01*
X007788Y009235D01*
X007817Y009282D01*
X008356Y008533D02*
X008323Y008551D01*
X008293Y008572D01*
X008264Y008596D01*
X008238Y008623D01*
X008216Y008652D01*
X008196Y008684D01*
X008179Y008717D01*
X008166Y008752D01*
X008157Y008788D01*
X008151Y008825D01*
X008149Y008862D01*
X008151Y008899D01*
X008156Y008936D01*
X008166Y008972D01*
X008178Y009007D01*
X008195Y009041D01*
X008214Y009072D01*
X008237Y009102D01*
X008263Y009129D01*
X008291Y009153D01*
X008322Y009174D01*
X008354Y009192D01*
X008388Y009207D01*
X008424Y009218D01*
X008460Y009226D01*
X008497Y009230D01*
X008535Y009230D01*
X008572Y009226D01*
X008608Y009218D01*
X008644Y009207D01*
X008678Y009192D01*
X008710Y009174D01*
X008741Y009153D01*
X008769Y009129D01*
X008795Y009102D01*
X008818Y009072D01*
X008837Y009041D01*
X008854Y009007D01*
X008866Y008972D01*
X008876Y008936D01*
X008881Y008899D01*
X008883Y008862D01*
X008881Y008825D01*
X008875Y008788D01*
X008866Y008752D01*
X008853Y008717D01*
X008836Y008684D01*
X008816Y008652D01*
X008794Y008623D01*
X008768Y008596D01*
X008739Y008572D01*
X008709Y008551D01*
X008676Y008533D01*
X008676Y008523D02*
X008876Y008073D01*
X008976Y008133D01*
X009216Y007963D01*
X009232Y008396D02*
X009260Y008446D01*
X009284Y008498D01*
X009305Y008551D01*
X009322Y008606D01*
X009335Y008662D01*
X008952Y009547D02*
X008907Y009572D01*
X008860Y009595D01*
X008812Y009614D01*
X008763Y009631D01*
X008713Y009644D01*
X009225Y009278D02*
X009252Y009231D01*
X009276Y009184D01*
X009297Y009135D01*
X009315Y009084D01*
X009329Y009033D01*
X008331Y009646D02*
X008279Y009632D01*
X008228Y009615D01*
X008178Y009595D01*
X008129Y009572D01*
X008082Y009545D01*
X007562Y006660D02*
X007562Y006320D01*
X007393Y015041D02*
X007393Y015301D01*
X007480Y015301D02*
X007306Y015301D01*
X007185Y015301D02*
X007012Y015041D01*
X007185Y015041D02*
X007012Y015301D01*
X006596Y015301D02*
X006596Y015041D01*
X006596Y015128D02*
X006466Y015128D01*
X006422Y015171D01*
X006422Y015258D01*
X006466Y015301D01*
X006596Y015301D01*
X006509Y015128D02*
X006422Y015041D01*
X006301Y015041D02*
X006128Y015301D01*
X006301Y015301D02*
X006128Y015041D01*
X007896Y015128D02*
X007896Y015301D01*
X007896Y015128D02*
X007982Y015041D01*
X008069Y015128D01*
X008069Y015301D01*
X008190Y015301D02*
X008364Y015301D01*
X008364Y015171D01*
X008277Y015214D01*
X008234Y015214D01*
X008190Y015171D01*
X008190Y015084D01*
X008234Y015041D01*
X008321Y015041D01*
X008364Y015084D01*
X009958Y015084D02*
X009958Y015258D01*
X010002Y015301D01*
X010132Y015301D01*
X010132Y015041D01*
X010002Y015041D01*
X009958Y015084D01*
X010253Y015041D02*
X010253Y015301D01*
X010426Y015301D02*
X010253Y015041D01*
X010426Y015041D02*
X010426Y015301D01*
X010548Y015258D02*
X010591Y015301D01*
X010678Y015301D01*
X010721Y015258D01*
X010721Y015084D01*
X010678Y015041D01*
X010591Y015041D01*
X010548Y015084D01*
X010548Y015171D01*
X010634Y015171D01*
X010492Y020381D02*
X010492Y020641D01*
X010405Y020554D01*
X010318Y020641D01*
X010318Y020381D01*
X010197Y020381D02*
X010197Y020641D01*
X010067Y020641D01*
X010024Y020598D01*
X010024Y020554D01*
X010067Y020511D01*
X010197Y020511D01*
X010067Y020511D02*
X010024Y020468D01*
X010024Y020424D01*
X010067Y020381D01*
X010197Y020381D01*
X009902Y020424D02*
X009859Y020381D01*
X009772Y020381D01*
X009729Y020424D01*
X009729Y020641D01*
X009608Y020598D02*
X009608Y020554D01*
X009564Y020511D01*
X009478Y020511D01*
X009434Y020468D01*
X009434Y020424D01*
X009478Y020381D01*
X009564Y020381D01*
X009608Y020424D01*
X009608Y020598D02*
X009564Y020641D01*
X009478Y020641D01*
X009434Y020598D01*
X009902Y020641D02*
X009902Y020424D01*
X008429Y020424D02*
X008386Y020381D01*
X008299Y020381D01*
X008256Y020424D01*
X008256Y020511D01*
X008342Y020511D01*
X008256Y020598D02*
X008299Y020641D01*
X008386Y020641D01*
X008429Y020598D01*
X008429Y020424D01*
X008135Y020381D02*
X008135Y020641D01*
X007961Y020381D01*
X007961Y020641D01*
X007840Y020641D02*
X007840Y020381D01*
X007710Y020381D01*
X007666Y020424D01*
X007666Y020598D01*
X007710Y020641D01*
X007840Y020641D01*
X006956Y020641D02*
X006956Y020381D01*
X006826Y020381D01*
X006782Y020424D01*
X006782Y020598D01*
X006826Y020641D01*
X006956Y020641D01*
X006661Y020598D02*
X006618Y020641D01*
X006531Y020641D01*
X006488Y020598D01*
X006488Y020554D01*
X006661Y020381D01*
X006488Y020381D01*
X005777Y020381D02*
X005777Y020641D01*
X005647Y020641D01*
X005604Y020598D01*
X005604Y020511D01*
X005647Y020468D01*
X005777Y020468D01*
X005483Y020381D02*
X005309Y020381D01*
X005188Y020424D02*
X005145Y020381D01*
X005058Y020381D01*
X005015Y020424D01*
X005015Y020468D01*
X005058Y020511D01*
X005145Y020511D01*
X005188Y020554D01*
X005188Y020598D01*
X005145Y020641D01*
X005058Y020641D01*
X005015Y020598D01*
X005483Y020641D02*
X005483Y020381D01*
X004304Y020424D02*
X004261Y020381D01*
X004174Y020381D01*
X004131Y020424D01*
X004131Y020468D01*
X004174Y020511D01*
X004217Y020511D01*
X004174Y020511D02*
X004131Y020554D01*
X004131Y020598D01*
X004174Y020641D01*
X004261Y020641D01*
X004304Y020598D01*
X004009Y020424D02*
X003966Y020424D01*
X003966Y020381D01*
X004009Y020381D01*
X004009Y020424D01*
X003862Y020424D02*
X003819Y020381D01*
X003732Y020381D01*
X003689Y020424D01*
X003689Y020468D01*
X003732Y020511D01*
X003775Y020511D01*
X003732Y020511D02*
X003689Y020554D01*
X003689Y020598D01*
X003732Y020641D01*
X003819Y020641D01*
X003862Y020598D01*
X003567Y020641D02*
X003567Y020468D01*
X003481Y020381D01*
X003394Y020468D01*
X003394Y020641D01*
X000881Y019121D02*
X000881Y018991D01*
X000621Y018991D01*
X000621Y019121D01*
X000664Y019164D01*
X000838Y019164D01*
X000881Y019121D01*
X000881Y018869D02*
X000621Y018869D01*
X000881Y018696D01*
X000621Y018696D01*
X000664Y018575D02*
X000751Y018575D01*
X000751Y018488D01*
X000838Y018575D02*
X000881Y018531D01*
X000881Y018445D01*
X000838Y018401D01*
X000664Y018401D01*
X000621Y018445D01*
X000621Y018531D01*
X000664Y018575D01*
X000621Y017985D02*
X000794Y017985D01*
X000881Y017899D01*
X000794Y017812D01*
X000621Y017812D01*
X000751Y017812D02*
X000751Y017985D01*
X000881Y017691D02*
X000881Y017517D01*
X000881Y017604D02*
X000621Y017604D01*
X000621Y017396D02*
X000794Y017396D01*
X000881Y017309D01*
X000794Y017223D01*
X000621Y017223D01*
X000664Y017101D02*
X000838Y017101D01*
X000881Y017058D01*
X000881Y016928D01*
X000621Y016928D01*
X000621Y017058D01*
X000664Y017101D01*
X000751Y017223D02*
X000751Y017396D01*
X000794Y016512D02*
X000751Y016469D01*
X000708Y016512D01*
X000664Y016512D01*
X000621Y016469D01*
X000621Y016382D01*
X000664Y016339D01*
X000664Y016235D02*
X000621Y016235D01*
X000621Y016191D01*
X000664Y016191D01*
X000664Y016235D01*
X000664Y016070D02*
X000621Y016027D01*
X000621Y015940D01*
X000664Y015897D01*
X000751Y015983D02*
X000751Y016027D01*
X000708Y016070D01*
X000664Y016070D01*
X000751Y016027D02*
X000794Y016070D01*
X000838Y016070D01*
X000881Y016027D01*
X000881Y015940D01*
X000838Y015897D01*
X000838Y016339D02*
X000881Y016382D01*
X000881Y016469D01*
X000838Y016512D01*
X000794Y016512D01*
X000751Y016469D02*
X000751Y016425D01*
X000664Y015186D02*
X000838Y015186D01*
X000881Y015143D01*
X000881Y015013D01*
X000621Y015013D01*
X000621Y015143D01*
X000664Y015186D01*
X000621Y014892D02*
X000881Y014892D01*
X000881Y014718D02*
X000621Y014892D01*
X000621Y014718D02*
X000881Y014718D01*
X000838Y014597D02*
X000881Y014554D01*
X000881Y014467D01*
X000838Y014423D01*
X000664Y014423D01*
X000621Y014467D01*
X000621Y014554D01*
X000664Y014597D01*
X000751Y014597D01*
X000751Y014510D01*
X000751Y014008D02*
X000751Y013834D01*
X000794Y013834D02*
X000881Y013921D01*
X000794Y014008D01*
X000621Y014008D01*
X000621Y013834D02*
X000794Y013834D01*
X000881Y013713D02*
X000881Y013539D01*
X000881Y013626D02*
X000621Y013626D01*
X000621Y013418D02*
X000794Y013418D01*
X000881Y013332D01*
X000794Y013245D01*
X000621Y013245D01*
X000664Y013124D02*
X000838Y013124D01*
X000881Y013080D01*
X000881Y012950D01*
X000621Y012950D01*
X000621Y013080D01*
X000664Y013124D01*
X000751Y013245D02*
X000751Y013418D01*
X000794Y012534D02*
X000751Y012491D01*
X000708Y012534D01*
X000664Y012534D01*
X000621Y012491D01*
X000621Y012404D01*
X000664Y012361D01*
X000664Y012257D02*
X000621Y012257D01*
X000621Y012214D01*
X000664Y012214D01*
X000664Y012257D01*
X000664Y012092D02*
X000621Y012049D01*
X000621Y011962D01*
X000664Y011919D01*
X000751Y012006D02*
X000751Y012049D01*
X000708Y012092D01*
X000664Y012092D01*
X000751Y012049D02*
X000794Y012092D01*
X000838Y012092D01*
X000881Y012049D01*
X000881Y011962D01*
X000838Y011919D01*
X000838Y012361D02*
X000881Y012404D01*
X000881Y012491D01*
X000838Y012534D01*
X000794Y012534D01*
X000751Y012491D02*
X000751Y012448D01*
D11*
X001567Y004021D02*
X001633Y003954D01*
X001700Y003954D01*
X001567Y004021D02*
X001567Y004354D01*
X001767Y004354D01*
X001834Y004287D01*
X001834Y004154D01*
X001767Y004087D01*
X001567Y004087D01*
X001540Y004695D02*
X001473Y004761D01*
X001473Y005028D01*
X001740Y004761D01*
X001673Y004695D01*
X001540Y004695D01*
X001740Y004761D02*
X001740Y005028D01*
X001673Y005095D01*
X001540Y005095D01*
X001473Y005028D01*
X001904Y004761D02*
X001904Y004695D01*
X001970Y004695D01*
X001970Y004761D01*
X001904Y004761D01*
X002164Y004695D02*
X002431Y004695D01*
X002297Y004695D02*
X002297Y005095D01*
X002431Y004962D01*
X002624Y004962D02*
X002758Y004695D01*
X002891Y004962D01*
X003091Y004354D02*
X003158Y004354D01*
X003291Y004221D01*
X003291Y004354D02*
X003291Y004087D01*
X003485Y004154D02*
X003485Y004287D01*
X003552Y004354D01*
X003685Y004354D01*
X003752Y004287D01*
X003752Y004154D01*
X003685Y004087D01*
X003552Y004087D01*
X003485Y004154D01*
X003735Y004695D02*
X003735Y004962D01*
X003602Y004962D02*
X003735Y004828D01*
X003929Y004828D02*
X004196Y004828D01*
X004196Y004761D02*
X004196Y004895D01*
X004129Y004962D01*
X003995Y004962D01*
X003929Y004895D01*
X003929Y004828D01*
X003995Y004695D02*
X004129Y004695D01*
X004196Y004761D01*
X004389Y004695D02*
X004389Y005095D01*
X004389Y004962D02*
X004589Y004962D01*
X004656Y004895D01*
X004656Y004761D01*
X004589Y004695D01*
X004389Y004695D01*
X004299Y004554D02*
X004299Y004488D01*
X004299Y004354D02*
X004299Y004087D01*
X004366Y004087D02*
X004232Y004087D01*
X004299Y004354D02*
X004366Y004354D01*
X004559Y004287D02*
X004559Y004087D01*
X004559Y004287D02*
X004626Y004354D01*
X004826Y004354D01*
X004826Y004087D01*
X005020Y004154D02*
X005020Y004287D01*
X005086Y004354D01*
X005220Y004354D01*
X005287Y004287D01*
X005287Y004154D01*
X005220Y004087D01*
X005086Y004087D01*
X005020Y004154D01*
X005050Y004695D02*
X004849Y004695D01*
X004849Y004895D01*
X004916Y004962D01*
X005050Y004962D01*
X005050Y004828D02*
X004849Y004828D01*
X005050Y004828D02*
X005116Y004761D01*
X005050Y004695D01*
X005310Y004828D02*
X005577Y004828D01*
X005577Y004761D02*
X005577Y004895D01*
X005510Y004962D01*
X005377Y004962D01*
X005310Y004895D01*
X005310Y004828D01*
X005377Y004695D02*
X005510Y004695D01*
X005577Y004761D01*
X005480Y004488D02*
X005480Y004087D01*
X005613Y004354D02*
X005480Y004488D01*
X005613Y004354D02*
X005747Y004488D01*
X005747Y004087D01*
X005940Y004087D02*
X006141Y004087D01*
X006207Y004154D01*
X006207Y004354D01*
X006401Y004354D02*
X006601Y004354D01*
X006668Y004287D01*
X006668Y004154D01*
X006601Y004087D01*
X006401Y004087D01*
X006401Y004021D02*
X006401Y004354D01*
X006401Y004021D02*
X006468Y003954D01*
X006534Y003954D01*
X006851Y004354D02*
X006918Y004354D01*
X007051Y004221D01*
X007051Y004354D02*
X007051Y004087D01*
X007245Y004221D02*
X007512Y004221D01*
X007512Y004287D02*
X007512Y004154D01*
X007445Y004087D01*
X007312Y004087D01*
X007245Y004221D02*
X007245Y004287D01*
X007312Y004354D01*
X007445Y004354D01*
X007512Y004287D01*
X007705Y004287D02*
X007705Y004087D01*
X007705Y004287D02*
X007772Y004354D01*
X007972Y004354D01*
X007972Y004087D01*
X008166Y004087D02*
X008433Y004087D01*
X008433Y004488D01*
X008166Y004488D01*
X008072Y004695D02*
X008072Y005095D01*
X008206Y004962D01*
X008339Y005095D01*
X008339Y004695D01*
X008299Y004287D02*
X008433Y004287D01*
X008626Y004287D02*
X008626Y004087D01*
X008626Y004287D02*
X008693Y004354D01*
X008893Y004354D01*
X008893Y004087D01*
X009086Y004221D02*
X009353Y004221D01*
X009353Y004287D02*
X009353Y004154D01*
X009287Y004087D01*
X009153Y004087D01*
X009086Y004221D02*
X009086Y004287D01*
X009153Y004354D01*
X009287Y004354D01*
X009353Y004287D01*
X009547Y004287D02*
X009547Y004154D01*
X009614Y004087D01*
X009814Y004087D01*
X009814Y003954D02*
X009814Y004354D01*
X009614Y004354D01*
X009547Y004287D01*
X009567Y004695D02*
X009567Y005095D01*
X009300Y005095D01*
X009106Y004962D02*
X009040Y004962D01*
X009040Y004695D01*
X009106Y004695D02*
X008973Y004695D01*
X009040Y005095D02*
X009040Y005162D01*
X009433Y004895D02*
X009567Y004895D01*
X009740Y004695D02*
X009874Y004695D01*
X009807Y004695D02*
X009807Y004962D01*
X009874Y004962D01*
X009807Y005095D02*
X009807Y005162D01*
X010067Y005095D02*
X010067Y004695D01*
X010201Y004828D01*
X010334Y004695D01*
X010334Y005095D01*
X010207Y004488D02*
X010074Y004488D01*
X010007Y004421D01*
X010007Y004154D01*
X010074Y004087D01*
X010207Y004087D01*
X010274Y004154D01*
X010274Y004421D01*
X010207Y004488D01*
X007879Y004695D02*
X007678Y004695D01*
X007612Y004761D01*
X007612Y004828D01*
X007678Y004895D01*
X007879Y004895D01*
X007879Y004695D02*
X007879Y005095D01*
X007678Y005095D01*
X007612Y005028D01*
X007612Y004962D01*
X007678Y004895D01*
X007418Y004761D02*
X007352Y004695D01*
X007218Y004695D01*
X007151Y004761D01*
X007151Y005095D01*
X006958Y005028D02*
X006958Y004962D01*
X006891Y004895D01*
X006758Y004895D01*
X006691Y004828D01*
X006691Y004761D01*
X006758Y004695D01*
X006891Y004695D01*
X006958Y004761D01*
X006958Y005028D02*
X006891Y005095D01*
X006758Y005095D01*
X006691Y005028D01*
X006074Y003954D02*
X006007Y003954D01*
X005940Y004021D01*
X005940Y004354D01*
X006037Y004695D02*
X006037Y005095D01*
X005837Y005095D01*
X005770Y005028D01*
X005770Y004895D01*
X005837Y004828D01*
X006037Y004828D01*
X005904Y004828D02*
X005770Y004695D01*
X007418Y004761D02*
X007418Y005095D01*
X004059Y004354D02*
X003925Y004354D01*
X003992Y004421D02*
X003992Y004154D01*
X003925Y004087D01*
X003602Y004962D02*
X003535Y004962D01*
X002908Y004154D02*
X002841Y004154D01*
X002841Y004087D01*
X002908Y004087D01*
X002908Y004154D01*
X002678Y004154D02*
X002678Y004287D01*
X002611Y004354D01*
X002477Y004354D01*
X002411Y004287D01*
X002411Y004154D01*
X002477Y004087D01*
X002611Y004087D01*
X002678Y004154D01*
X002217Y004221D02*
X002084Y004354D01*
X002017Y004354D01*
X002217Y004354D02*
X002217Y004087D01*
D12*
X004028Y007469D02*
X004148Y007589D01*
X004188Y007549D02*
X004028Y007709D01*
X004188Y007709D02*
X004188Y007469D01*
X004286Y007509D02*
X004286Y007709D01*
X004286Y007509D02*
X004326Y007469D01*
X004406Y007469D01*
X004446Y007509D01*
X004446Y007709D01*
X004437Y007918D02*
X004517Y007918D01*
X004477Y007918D02*
X004477Y008158D01*
X004517Y008158D01*
X004615Y008038D02*
X004615Y007918D01*
X004735Y007918D01*
X004775Y007958D01*
X004735Y007998D01*
X004615Y007998D01*
X004615Y008038D02*
X004655Y008078D01*
X004735Y008078D01*
X004872Y008158D02*
X004872Y007918D01*
X004952Y007998D01*
X005033Y007918D01*
X005033Y008158D01*
X005093Y007749D02*
X005093Y007709D01*
X005093Y007629D02*
X005093Y007469D01*
X005133Y007469D02*
X005053Y007469D01*
X004962Y007469D02*
X004962Y007629D01*
X004841Y007629D01*
X004801Y007589D01*
X004801Y007469D01*
X005093Y007629D02*
X005133Y007629D01*
X005388Y007918D02*
X005388Y008038D01*
X005428Y008078D01*
X005508Y008078D01*
X005548Y008038D01*
X005640Y008078D02*
X005720Y008078D01*
X005680Y008118D02*
X005680Y007958D01*
X005640Y007918D01*
X005548Y007918D02*
X005548Y008158D01*
X005815Y008078D02*
X005855Y008078D01*
X005935Y007998D01*
X005935Y007918D02*
X005935Y008078D01*
X006033Y008038D02*
X006073Y008078D01*
X006153Y008078D01*
X006193Y008038D01*
X006193Y007958D01*
X006153Y007918D01*
X006073Y007918D01*
X006033Y007958D01*
X006033Y008038D01*
X006262Y007709D02*
X006262Y007469D01*
X006165Y007509D02*
X006125Y007549D01*
X006005Y007549D01*
X006005Y007589D02*
X006005Y007469D01*
X006125Y007469D01*
X006165Y007509D01*
X006125Y007629D02*
X006045Y007629D01*
X006005Y007589D01*
X005907Y007589D02*
X005867Y007629D01*
X005747Y007629D01*
X005747Y007709D02*
X005747Y007469D01*
X005867Y007469D01*
X005907Y007509D01*
X005907Y007589D01*
X005649Y007589D02*
X005609Y007629D01*
X005529Y007629D01*
X005489Y007589D01*
X005489Y007549D01*
X005649Y007549D01*
X005649Y007509D02*
X005649Y007589D01*
X005649Y007509D02*
X005609Y007469D01*
X005529Y007469D01*
X006262Y007709D02*
X006342Y007629D01*
X006423Y007709D01*
X006423Y007469D01*
X006451Y007918D02*
X006451Y008158D01*
X006290Y007918D01*
X006290Y008158D01*
X005482Y009739D02*
X005442Y009739D01*
X005402Y009779D01*
X005402Y009979D01*
X005522Y009979D01*
X005562Y009939D01*
X005562Y009859D01*
X005522Y009819D01*
X005402Y009819D01*
X005304Y009819D02*
X005304Y009979D01*
X005184Y009979D01*
X005144Y009939D01*
X005144Y009819D01*
X005046Y009859D02*
X005046Y009939D01*
X005006Y009979D01*
X004926Y009979D01*
X004886Y009939D01*
X004886Y009899D01*
X005046Y009899D01*
X005046Y009859D02*
X005006Y009819D01*
X004926Y009819D01*
X004788Y009859D02*
X004788Y009939D01*
X004748Y009979D01*
X004628Y009979D01*
X004628Y010059D02*
X004628Y009819D01*
X004748Y009819D01*
X004788Y009859D01*
X004273Y009819D02*
X004193Y009819D01*
X004233Y009819D02*
X004233Y009979D01*
X004273Y009979D01*
X004233Y010059D02*
X004233Y010099D01*
X004101Y009979D02*
X003981Y009979D01*
X003941Y009939D01*
X003941Y009819D01*
X004101Y009819D02*
X004101Y009979D01*
X004047Y008078D02*
X003927Y008078D01*
X003967Y007998D02*
X003927Y007958D01*
X003967Y007918D01*
X004087Y007918D01*
X004047Y007998D02*
X004087Y008038D01*
X004047Y008078D01*
X004047Y007998D02*
X003967Y007998D01*
X004185Y007998D02*
X004345Y007998D01*
X004345Y008038D02*
X004305Y008078D01*
X004225Y008078D01*
X004185Y008038D01*
X004185Y007998D01*
X004225Y007918D02*
X004305Y007918D01*
X004345Y007958D01*
X004345Y008038D01*
X005654Y009819D02*
X005734Y009819D01*
X005694Y009819D02*
X005694Y009979D01*
X005734Y009979D01*
X005694Y010059D02*
X005694Y010099D01*
X005831Y009979D02*
X005951Y009979D01*
X005991Y009939D01*
X005951Y009899D01*
X005871Y009899D01*
X005831Y009859D01*
X005871Y009819D01*
X005991Y009819D01*
X006089Y009899D02*
X006249Y009899D01*
X006249Y009859D02*
X006249Y009939D01*
X006209Y009979D01*
X006129Y009979D01*
X006089Y009939D01*
X006089Y009899D01*
X006129Y009819D02*
X006209Y009819D01*
X006249Y009859D01*
X006347Y009859D02*
X006347Y010019D01*
X006387Y010059D01*
X006507Y010059D01*
X006507Y009819D01*
X006387Y009819D01*
X006347Y009859D01*
D13*
X006079Y009532D03*
X006219Y009132D03*
X005999Y008292D03*
X005444Y008502D03*
X005454Y008527D03*
X004884Y008472D03*
X004824Y008372D03*
X004779Y008312D03*
X004559Y009117D03*
D14*
X004520Y009074D03*
X004450Y008589D03*
X004780Y008314D03*
X004822Y008374D03*
X004882Y008474D03*
X005440Y008504D03*
X006017Y008489D03*
X006045Y008389D03*
X006000Y008294D03*
X006220Y009134D03*
X006222Y009139D03*
X005922Y009399D03*
X005792Y009429D03*
D15*
X005779Y009397D03*
X005924Y009402D03*
X006044Y008392D03*
X005999Y008297D03*
X005489Y008437D03*
D16*
X005487Y008439D03*
X006000Y008299D03*
X006042Y008394D03*
X006222Y009144D03*
X006075Y009529D03*
X005390Y009419D03*
X004880Y008479D03*
X004820Y008379D03*
X004352Y008334D03*
D17*
X004461Y008594D03*
X004791Y009029D03*
X005066Y008359D03*
X005921Y008299D03*
X005931Y009409D03*
D18*
X005952Y009552D03*
X005397Y009282D03*
X005430Y009192D03*
X005450Y008532D03*
X005435Y008507D03*
X005452Y008347D03*
X005015Y008352D03*
X004880Y008482D03*
X004757Y008377D03*
X004780Y008322D03*
X004520Y009072D03*
X004342Y009132D03*
X004322Y009452D03*
X004352Y008332D03*
X006000Y008302D03*
X006015Y008492D03*
D19*
X005987Y008442D03*
X005992Y008322D03*
X005922Y008302D03*
X005447Y008562D03*
X005067Y008362D03*
X005410Y009292D03*
X005940Y009422D03*
X006047Y009292D03*
X006040Y009212D03*
X004460Y009192D03*
X004460Y009187D03*
X004457Y009202D03*
X004455Y009212D03*
X004357Y009157D03*
D20*
X004345Y009134D03*
X004327Y009444D03*
X004880Y008489D03*
X005447Y008539D03*
X005482Y008444D03*
X006000Y008304D03*
X006040Y008399D03*
X006120Y008964D03*
X006220Y009149D03*
X005805Y009279D03*
X005432Y009194D03*
X005400Y009284D03*
D21*
X005414Y009294D03*
X004884Y008529D03*
X004769Y008419D03*
X004744Y009544D03*
X005924Y008304D03*
X005974Y008394D03*
D22*
X006039Y008402D03*
X006009Y008497D03*
X005999Y008307D03*
X005604Y008387D03*
X005929Y009407D03*
X004879Y008492D03*
X004754Y009047D03*
X004694Y009602D03*
X004689Y009607D03*
X004684Y009612D03*
X004679Y009617D03*
X004659Y009642D03*
X004329Y009442D03*
D23*
X004355Y009397D03*
X004847Y009622D03*
X005417Y009297D03*
X005455Y008577D03*
X005280Y008362D03*
X004685Y008417D03*
X005882Y008612D03*
X005925Y008307D03*
X006067Y008967D03*
X006042Y009232D03*
X006152Y009277D03*
X005947Y009432D03*
D24*
X005447Y008544D03*
X005477Y008449D03*
X005997Y008309D03*
X006035Y008404D03*
X004715Y009579D03*
X004710Y009584D03*
X004700Y009594D03*
X004677Y009619D03*
X004672Y009624D03*
X004667Y009629D03*
X004660Y009639D03*
X004330Y009439D03*
X004347Y009139D03*
X004517Y009064D03*
D25*
X004370Y009189D03*
X004360Y009389D03*
X004755Y009529D03*
X004755Y008484D03*
X004682Y008414D03*
X005692Y009599D03*
X005777Y009294D03*
X005950Y009434D03*
X006042Y009269D03*
X006042Y009264D03*
X006042Y009239D03*
X006067Y009004D03*
X006070Y008974D03*
X005867Y008629D03*
X005870Y008624D03*
X005935Y008489D03*
X005985Y008439D03*
X005925Y008309D03*
D26*
X006049Y008384D03*
X005609Y008319D03*
X005544Y008319D03*
X006154Y009124D03*
X004779Y008309D03*
X004339Y009124D03*
X004319Y009459D03*
D27*
X004332Y009437D03*
X004582Y009312D03*
X004712Y009582D03*
X004707Y009587D03*
X004702Y009592D03*
X004697Y009597D03*
X004675Y009622D03*
X004670Y009627D03*
X004662Y009637D03*
X004880Y008497D03*
X004810Y008387D03*
X005447Y008542D03*
X005607Y008322D03*
X005997Y008312D03*
X005697Y009607D03*
D28*
X005787Y009472D03*
X005950Y009437D03*
X006042Y009262D03*
X006042Y009257D03*
X006042Y009252D03*
X006070Y008997D03*
X006070Y008992D03*
X006072Y008987D03*
X005862Y008642D03*
X005960Y008517D03*
X005932Y008482D03*
X005930Y008477D03*
X005927Y008312D03*
X005460Y008582D03*
X005065Y008407D03*
X004755Y008482D03*
X004680Y008412D03*
X004557Y009182D03*
X004372Y009197D03*
X004860Y009607D03*
D29*
X004725Y009569D03*
X004720Y009574D03*
X004592Y009309D03*
X004517Y009059D03*
X004350Y009144D03*
X004335Y009429D03*
X005020Y008364D03*
X005437Y008469D03*
X005447Y008549D03*
X005935Y009414D03*
X006002Y008499D03*
X005997Y008314D03*
D30*
X005929Y008314D03*
X005859Y008654D03*
X006054Y009174D03*
X006059Y009189D03*
X006099Y009214D03*
X006104Y009219D03*
X006109Y009229D03*
X005759Y009314D03*
X005749Y009329D03*
X005464Y008584D03*
X005384Y008504D03*
X004714Y008434D03*
X004634Y009054D03*
X004639Y009089D03*
X004379Y009219D03*
X004369Y009374D03*
X004764Y009519D03*
D31*
X004731Y009562D03*
X004726Y009567D03*
X004601Y009307D03*
X004351Y009147D03*
X005446Y008552D03*
X005766Y009387D03*
X005761Y009452D03*
X005996Y008317D03*
D32*
X005929Y008317D03*
X005859Y008657D03*
X006054Y009167D03*
X006129Y009252D03*
X006019Y009502D03*
X005374Y008487D03*
X004754Y008477D03*
X004629Y009047D03*
X004634Y009102D03*
X004374Y009367D03*
D33*
X004320Y009457D03*
X004340Y009127D03*
X004742Y009042D03*
X004775Y009027D03*
X004742Y008367D03*
X004720Y008367D03*
X004780Y008317D03*
X005017Y008347D03*
X005455Y008342D03*
X006047Y008387D03*
X006220Y009137D03*
X006222Y009142D03*
X006197Y009252D03*
X004352Y008327D03*
D34*
X004519Y009054D03*
X004734Y009559D03*
X005449Y008559D03*
X005789Y009464D03*
X005939Y009419D03*
X006049Y009294D03*
X006029Y008409D03*
X005994Y008319D03*
D35*
X005931Y008319D03*
X005986Y008999D03*
X005371Y008479D03*
X005226Y009224D03*
X004771Y009509D03*
X004626Y009044D03*
X004376Y009364D03*
X004756Y008474D03*
D36*
X004781Y008319D03*
X005016Y008349D03*
X005286Y008359D03*
X005451Y008529D03*
X004351Y008329D03*
X004341Y009129D03*
X004321Y009454D03*
D37*
X004341Y009419D03*
X004356Y009154D03*
X004611Y009304D03*
X004736Y009554D03*
X004881Y008519D03*
X004721Y008319D03*
X005761Y009384D03*
X006041Y009209D03*
D38*
X006066Y009197D03*
X005886Y008437D03*
X005931Y008322D03*
X004816Y009077D03*
X004566Y008982D03*
D39*
X004881Y008477D03*
X004821Y008377D03*
X005546Y008322D03*
D40*
X005407Y008352D03*
X005897Y008602D03*
X006057Y009017D03*
X006185Y009192D03*
X005237Y009212D03*
X004785Y009062D03*
X004885Y008532D03*
X004720Y008322D03*
X004520Y009047D03*
X004365Y009172D03*
X004445Y009232D03*
X004352Y009402D03*
X004845Y009627D03*
D41*
X004900Y009549D03*
X005202Y009239D03*
X005222Y009119D03*
X005322Y009264D03*
X005835Y008664D03*
X005950Y008324D03*
X006010Y009079D03*
X004567Y008554D03*
X004405Y009239D03*
D42*
X005156Y008589D03*
X005551Y008334D03*
X005606Y008324D03*
X005406Y009289D03*
X005706Y009389D03*
X006056Y009519D03*
D43*
X005926Y009404D03*
X005776Y009394D03*
X006081Y008939D03*
X006011Y008494D03*
X005986Y008444D03*
X005546Y008324D03*
X005451Y008349D03*
X005016Y008354D03*
X004881Y008484D03*
X004571Y009314D03*
D44*
X004519Y009069D03*
X004749Y009044D03*
X004324Y009449D03*
X004779Y008324D03*
X005449Y008534D03*
D45*
X006041Y009244D03*
X006041Y009249D03*
X006071Y008984D03*
X006071Y008979D03*
X004721Y008324D03*
X004526Y009039D03*
X004371Y009194D03*
D46*
X004372Y009199D03*
X004362Y009384D03*
X004760Y009524D03*
X004857Y009609D03*
X004800Y009069D03*
X004575Y008324D03*
X005772Y009299D03*
X006042Y009259D03*
X006042Y009254D03*
X006152Y009274D03*
X006070Y008994D03*
X006072Y008989D03*
X006085Y008949D03*
X005862Y008639D03*
X005865Y008634D03*
X005930Y008479D03*
D47*
X005491Y008434D03*
X005456Y008339D03*
X005426Y009189D03*
X005396Y009279D03*
X005706Y009394D03*
X004351Y008324D03*
D48*
X005484Y009637D03*
X005964Y009472D03*
X005979Y009487D03*
X006169Y009167D03*
X005949Y008327D03*
D49*
X005976Y008392D03*
X005606Y008327D03*
X005796Y009282D03*
X006041Y009207D03*
X006051Y009517D03*
X005061Y008412D03*
X004881Y008522D03*
D50*
X004880Y008487D03*
X004757Y008492D03*
X004455Y008592D03*
X004517Y009067D03*
X005015Y008357D03*
X005547Y008327D03*
X005707Y009392D03*
X005772Y009392D03*
X006220Y009152D03*
D51*
X005481Y008447D03*
X005016Y008362D03*
X004776Y008327D03*
X004346Y009137D03*
D52*
X004377Y009212D03*
X004367Y009377D03*
X004637Y009092D03*
X004640Y009087D03*
X004640Y009082D03*
X004640Y009077D03*
X004637Y009062D03*
X004732Y008457D03*
X004722Y008327D03*
X005380Y008502D03*
X005605Y008382D03*
X005907Y008452D03*
X005915Y008457D03*
X005920Y008462D03*
X005925Y008467D03*
X005927Y008472D03*
X006085Y008952D03*
X006055Y009177D03*
X006055Y009182D03*
X006057Y009187D03*
X006092Y009207D03*
X006110Y009232D03*
X006112Y009237D03*
X006115Y009242D03*
X006120Y009247D03*
X005765Y009307D03*
D53*
X005984Y008982D03*
X005984Y008977D03*
X005984Y008972D03*
X004574Y008327D03*
D54*
X004571Y008994D03*
X004551Y009174D03*
X004406Y009234D03*
X004401Y009329D03*
X005501Y009614D03*
X005961Y008924D03*
X005946Y008329D03*
X005801Y008334D03*
D55*
X005795Y008329D03*
X005895Y008444D03*
X005902Y008449D03*
X005917Y008459D03*
X005922Y008464D03*
X005860Y008649D03*
X006055Y009179D03*
X006115Y009239D03*
X006117Y009244D03*
X006122Y009249D03*
X006025Y009504D03*
X005800Y009424D03*
X005762Y009309D03*
X005380Y008499D03*
X004765Y008414D03*
X004730Y008454D03*
X004735Y008459D03*
X004740Y008464D03*
X004755Y008479D03*
X004707Y008429D03*
X004637Y009059D03*
X004640Y009074D03*
X004640Y009079D03*
X004640Y009084D03*
X004377Y009214D03*
X004365Y009379D03*
X004865Y009599D03*
D56*
X004457Y009204D03*
X004457Y009199D03*
X004460Y009194D03*
X004460Y009189D03*
X004460Y009184D03*
X004345Y009414D03*
X005402Y009424D03*
X005442Y009199D03*
X005792Y009284D03*
X005605Y008329D03*
X005407Y008349D03*
D57*
X005549Y008329D03*
X005064Y008414D03*
X004879Y008494D03*
X004814Y008384D03*
X006219Y009154D03*
D58*
X005351Y009189D03*
X004736Y008329D03*
X004421Y009044D03*
X004426Y009059D03*
X004566Y009249D03*
D59*
X004437Y009079D03*
X004435Y008969D03*
X004550Y008504D03*
X004547Y008499D03*
X004547Y008494D03*
X004547Y008489D03*
X004575Y008329D03*
X005210Y009234D03*
X005340Y009224D03*
X005342Y009219D03*
X005382Y009054D03*
X005590Y008344D03*
D60*
X005945Y008332D03*
X006012Y009082D03*
X005502Y009612D03*
X005317Y009272D03*
X004570Y008562D03*
X004402Y009327D03*
D61*
X004387Y009347D03*
X004427Y009062D03*
X004425Y009057D03*
X004615Y009117D03*
X004545Y008477D03*
X004545Y008422D03*
X004545Y008417D03*
X004732Y008332D03*
X005350Y009197D03*
X005347Y009202D03*
X005347Y009207D03*
X005345Y009212D03*
X005380Y009057D03*
X005612Y008377D03*
X005587Y008342D03*
X005797Y008332D03*
X005962Y008502D03*
X005972Y008942D03*
D62*
X006055Y009022D03*
X006045Y009037D03*
X005907Y008597D03*
X005605Y008332D03*
X005450Y008567D03*
X005787Y009467D03*
X004840Y009632D03*
X004742Y009547D03*
X004350Y009407D03*
X004360Y009162D03*
X004405Y008382D03*
X004882Y008527D03*
D63*
X004879Y008502D03*
X005264Y009132D03*
X005404Y009287D03*
X005934Y009412D03*
X006154Y009282D03*
X005964Y008522D03*
X005549Y008332D03*
X005449Y008352D03*
D64*
X005324Y009262D03*
X005679Y009577D03*
X004899Y009552D03*
X004454Y009102D03*
X004404Y009247D03*
X004399Y009332D03*
X004564Y008547D03*
X004574Y008332D03*
D65*
X004396Y008332D03*
X004791Y008467D03*
X004816Y008382D03*
X004326Y009447D03*
X005486Y008442D03*
X006041Y008397D03*
X006221Y009147D03*
X006071Y009307D03*
X006071Y009527D03*
D66*
X005956Y008919D03*
X005941Y008334D03*
X005661Y008504D03*
X005651Y008519D03*
X005636Y008544D03*
X004796Y009474D03*
X004466Y009109D03*
D67*
X004354Y009399D03*
X005254Y009129D03*
X005399Y008519D03*
X005604Y008384D03*
X005604Y008334D03*
X005894Y008604D03*
D68*
X005971Y008939D03*
X006146Y009254D03*
X005346Y009209D03*
X004891Y009564D03*
X004831Y009084D03*
X004431Y008974D03*
X004546Y008484D03*
X004546Y008479D03*
X004731Y008334D03*
D69*
X004574Y008334D03*
X005504Y009609D03*
X005964Y009474D03*
D70*
X006046Y009514D03*
X006041Y009214D03*
X006046Y009034D03*
X004881Y008524D03*
X004391Y008334D03*
X004461Y009174D03*
X004461Y009179D03*
X004456Y009209D03*
X004741Y009549D03*
D71*
X004750Y008702D03*
X005572Y009472D03*
X005582Y009477D03*
X005870Y008337D03*
D72*
X005582Y008337D03*
X005367Y009077D03*
X005360Y009117D03*
X005360Y009122D03*
X005360Y009127D03*
X005360Y009132D03*
X005360Y009137D03*
X005980Y008957D03*
X006180Y009182D03*
X005955Y009452D03*
X004420Y009012D03*
X004422Y008997D03*
X004395Y008357D03*
D73*
X004552Y008517D03*
X004555Y008527D03*
X004557Y008532D03*
X004727Y008337D03*
X004440Y008962D03*
X004552Y009177D03*
X004400Y009262D03*
X004787Y009487D03*
X004895Y009557D03*
X005390Y009047D03*
X005497Y009627D03*
X005495Y009632D03*
X005937Y009447D03*
X005962Y009467D03*
X006005Y009062D03*
X006005Y009057D03*
X006005Y009052D03*
X006005Y009047D03*
X005840Y008662D03*
X005595Y008347D03*
D74*
X005695Y008467D03*
X005625Y008562D03*
X006022Y009092D03*
X006025Y009097D03*
X006042Y009127D03*
X005512Y009587D03*
X005505Y009597D03*
X005112Y008477D03*
X005130Y008467D03*
X005137Y008462D03*
X005145Y008457D03*
X004575Y008337D03*
X004410Y009317D03*
D75*
X004370Y009372D03*
X004380Y009227D03*
X004530Y009037D03*
X004632Y009052D03*
X004635Y009097D03*
X004867Y009597D03*
X005230Y009222D03*
X005245Y009127D03*
X005397Y008512D03*
X005390Y008507D03*
X005375Y008492D03*
X005747Y009332D03*
X006052Y009172D03*
X006105Y009222D03*
X006182Y009187D03*
X005982Y008437D03*
X004765Y008412D03*
X004722Y008442D03*
X004725Y008447D03*
X004717Y008437D03*
X004745Y008467D03*
X004380Y008337D03*
D76*
X004746Y008699D03*
X004866Y009259D03*
X005541Y009454D03*
X005596Y009229D03*
X005541Y008614D03*
X005866Y008339D03*
D77*
X005977Y008949D03*
X006177Y009179D03*
X006000Y009494D03*
X005355Y009174D03*
X005357Y009164D03*
X005352Y009184D03*
X004887Y009569D03*
X004570Y008984D03*
X004427Y008979D03*
X004425Y008984D03*
X004420Y009034D03*
X004420Y009039D03*
X004422Y009049D03*
X004385Y009349D03*
X005585Y008339D03*
D78*
X005064Y008374D03*
X004724Y008339D03*
X004564Y008549D03*
X004404Y009244D03*
D79*
X004577Y009024D03*
X004807Y009459D03*
X004912Y009524D03*
X004582Y008339D03*
X005770Y009519D03*
X005780Y009529D03*
X005825Y008679D03*
D80*
X005986Y009034D03*
X004676Y008409D03*
X004381Y008339D03*
X004631Y009049D03*
X004381Y009229D03*
X004371Y009369D03*
D81*
X004625Y008357D03*
X004630Y008352D03*
X004635Y008347D03*
X005115Y008662D03*
X005667Y009132D03*
X005862Y008342D03*
D82*
X005539Y008617D03*
X005664Y009137D03*
X005654Y009152D03*
X005119Y008667D03*
X004744Y008697D03*
X004639Y008342D03*
D83*
X004382Y008342D03*
X004632Y009107D03*
X004770Y009512D03*
X004875Y009587D03*
X005372Y008482D03*
X005367Y008472D03*
X005742Y009337D03*
X005830Y009582D03*
X006150Y009267D03*
X005985Y009032D03*
X005985Y009027D03*
X005985Y009022D03*
X005985Y009017D03*
X005985Y009012D03*
X005985Y009007D03*
X005985Y009002D03*
X006085Y008957D03*
X005960Y008512D03*
D84*
X005857Y008344D03*
D85*
X005454Y008344D03*
X005409Y008344D03*
X004794Y008464D03*
X005959Y009549D03*
D86*
X005662Y009139D03*
X005667Y009129D03*
X005290Y008419D03*
X004882Y009254D03*
X004840Y009404D03*
X004740Y008694D03*
X004627Y008354D03*
X004632Y008349D03*
X004637Y008344D03*
D87*
X004765Y008409D03*
X005067Y008404D03*
X005367Y008469D03*
X005607Y008379D03*
X005985Y008984D03*
X005985Y008989D03*
X005985Y008994D03*
X006085Y008959D03*
X006012Y009499D03*
X004877Y009584D03*
X004385Y008344D03*
D88*
X004727Y008687D03*
X005035Y008592D03*
X005100Y008647D03*
X005530Y008627D03*
X005852Y008347D03*
D89*
X006032Y008407D03*
X005407Y008347D03*
X005437Y009197D03*
X004880Y008507D03*
X004350Y009142D03*
X004337Y009427D03*
X004335Y009432D03*
X004722Y009572D03*
D90*
X004882Y009577D03*
X005222Y009227D03*
X005415Y008362D03*
X005982Y008967D03*
X004380Y009357D03*
X004387Y008347D03*
D91*
X005085Y009019D03*
X005770Y008349D03*
D92*
X005364Y009089D03*
X005219Y009229D03*
X004389Y008349D03*
D93*
X004904Y009317D03*
X005769Y008352D03*
D94*
X005961Y008507D03*
X005981Y008962D03*
X006006Y009497D03*
X005361Y009112D03*
X005361Y009107D03*
X005361Y009102D03*
X005361Y009097D03*
X005366Y009082D03*
X005411Y008367D03*
X004776Y009502D03*
X004391Y008352D03*
D95*
X005030Y009159D03*
X005030Y009169D03*
X005622Y008994D03*
X005767Y008354D03*
D96*
X005419Y008354D03*
X005369Y008474D03*
X005399Y008509D03*
X006054Y009164D03*
X006064Y009194D03*
D97*
X006070Y009199D03*
X005980Y008959D03*
X005732Y009344D03*
X005957Y009454D03*
X005360Y009134D03*
X005360Y009129D03*
X005360Y009124D03*
X005360Y009119D03*
X005365Y009084D03*
X005367Y009079D03*
X005407Y008369D03*
X004822Y009079D03*
X004885Y009574D03*
X004392Y008354D03*
D98*
X005766Y008357D03*
D99*
X005417Y008357D03*
X005737Y009342D03*
X005985Y008992D03*
X005985Y008987D03*
X006085Y008962D03*
X004880Y009582D03*
X004772Y009507D03*
X004627Y009112D03*
X004625Y009042D03*
X004377Y009362D03*
X004755Y008472D03*
D100*
X005021Y009179D03*
X005766Y008359D03*
D101*
X005961Y008509D03*
X006181Y009184D03*
X005416Y008359D03*
X004881Y009579D03*
X004621Y009039D03*
D102*
X004706Y009589D03*
X004696Y009599D03*
X004691Y009604D03*
X004686Y009609D03*
X004681Y009614D03*
X005016Y008359D03*
X005916Y008594D03*
X006066Y009524D03*
D103*
X005656Y009149D03*
X005666Y009134D03*
X005116Y008664D03*
X004621Y008359D03*
D104*
X004396Y008359D03*
X004586Y008819D03*
X004421Y008999D03*
X004421Y009004D03*
X004421Y009009D03*
X004551Y009179D03*
X005356Y009169D03*
X005371Y009069D03*
X005961Y008504D03*
D105*
X005765Y008362D03*
D106*
X005657Y009147D03*
X005652Y009157D03*
X005545Y009457D03*
X005560Y009467D03*
X005035Y009297D03*
X004875Y009257D03*
X004617Y008362D03*
D107*
X004400Y008362D03*
X004425Y008987D03*
X004420Y009037D03*
X004420Y009042D03*
X004422Y009047D03*
X004780Y009497D03*
X005355Y009177D03*
X005355Y009172D03*
X005357Y009167D03*
X005357Y009162D03*
X005372Y009067D03*
X005052Y008367D03*
X005977Y008952D03*
X005957Y009457D03*
D108*
X005765Y008364D03*
X004920Y009314D03*
D109*
X004775Y009504D03*
X005362Y009094D03*
X005685Y009589D03*
X005982Y008969D03*
X005982Y008964D03*
X005980Y008434D03*
X005412Y008364D03*
D110*
X005275Y008364D03*
X004810Y009074D03*
X004632Y009104D03*
X004630Y009109D03*
X005740Y009339D03*
X005985Y009029D03*
X005985Y009024D03*
X005985Y009019D03*
X005985Y009014D03*
X005985Y009009D03*
X005985Y009004D03*
D111*
X006060Y009014D03*
X006085Y008944D03*
X006042Y009224D03*
X005785Y009289D03*
X005452Y008574D03*
X005062Y008409D03*
X005067Y008364D03*
X004687Y008419D03*
X004362Y009169D03*
X004447Y009229D03*
X004747Y009539D03*
D112*
X004995Y009199D03*
X005002Y009149D03*
X004552Y008364D03*
D113*
X005082Y009057D03*
X005650Y009427D03*
X005762Y008367D03*
D114*
X005279Y008367D03*
X005344Y009217D03*
X004784Y009492D03*
X004569Y008987D03*
X004434Y008972D03*
X004429Y009067D03*
X004544Y008472D03*
X004544Y008467D03*
X004544Y008462D03*
X004544Y008457D03*
X004544Y008452D03*
X004544Y008447D03*
X004544Y008442D03*
X004544Y008437D03*
X004544Y008432D03*
X004544Y008427D03*
D115*
X004532Y008367D03*
X004957Y009222D03*
X005650Y009097D03*
D116*
X005760Y008369D03*
D117*
X005965Y008929D03*
X006007Y009074D03*
X005962Y009469D03*
X005985Y009489D03*
X005830Y009579D03*
X005490Y009634D03*
X004790Y009484D03*
X004447Y009094D03*
X004442Y008959D03*
X004402Y009249D03*
X004402Y009254D03*
X004397Y009334D03*
X004562Y008544D03*
X004560Y008539D03*
X004552Y008409D03*
X005280Y008369D03*
D118*
X005059Y008369D03*
X005389Y009049D03*
X005339Y009229D03*
X004894Y009559D03*
X004439Y009084D03*
X004439Y008964D03*
X004394Y009339D03*
X004554Y008519D03*
X006174Y009174D03*
D119*
X004534Y008369D03*
D120*
X005219Y008397D03*
X005754Y008372D03*
D121*
X005406Y008372D03*
X004886Y009572D03*
X004616Y009037D03*
X004426Y008982D03*
X004421Y009002D03*
X004421Y009007D03*
X006071Y009202D03*
D122*
X005959Y008922D03*
X005279Y008372D03*
X004794Y009477D03*
X004589Y008822D03*
D123*
X004446Y009092D03*
X004401Y009257D03*
X004396Y009337D03*
X005061Y008372D03*
X005206Y009237D03*
X005331Y009247D03*
X006006Y009072D03*
X006006Y009067D03*
X006006Y009042D03*
X005966Y008932D03*
D124*
X005651Y009102D03*
X005116Y009077D03*
X004536Y008372D03*
D125*
X005102Y009069D03*
X005640Y009489D03*
X005642Y009494D03*
X005645Y009499D03*
X005650Y009504D03*
X005750Y008374D03*
D126*
X005729Y008954D03*
X005599Y009244D03*
X005329Y008374D03*
X004539Y009129D03*
D127*
X004539Y008374D03*
X005669Y009049D03*
D128*
X005801Y008377D03*
X005136Y008707D03*
X004536Y009122D03*
D129*
X004919Y009122D03*
X005324Y008377D03*
D130*
X005071Y008377D03*
X004576Y008572D03*
X004406Y009322D03*
X005311Y009282D03*
X005641Y008537D03*
X005656Y008512D03*
X005666Y008497D03*
D131*
X005651Y009107D03*
X004541Y008377D03*
D132*
X004566Y008599D03*
X005106Y009279D03*
X005581Y009269D03*
X005736Y008944D03*
X005801Y008379D03*
X005801Y009569D03*
D133*
X005599Y009234D03*
X005639Y009184D03*
X005314Y008379D03*
D134*
X005401Y008459D03*
X005086Y008379D03*
X005071Y008509D03*
X004866Y009099D03*
X004576Y009019D03*
X005776Y009524D03*
D135*
X005695Y009604D03*
X006057Y009299D03*
X006067Y009304D03*
X005447Y008554D03*
X004880Y008514D03*
X004755Y008489D03*
X004755Y008379D03*
X004560Y009184D03*
D136*
X004605Y008624D03*
X004585Y008379D03*
X005647Y009164D03*
X005645Y009169D03*
D137*
X005766Y009304D03*
X005786Y009474D03*
X005861Y008644D03*
X005926Y008469D03*
X005231Y009219D03*
X004861Y009604D03*
X004376Y009209D03*
X004406Y008379D03*
D138*
X004440Y009282D03*
X004770Y009282D03*
X005172Y009367D03*
X005182Y009362D03*
X005587Y009537D03*
X005792Y008382D03*
D139*
X005225Y008382D03*
D140*
X005285Y008427D03*
X005095Y008642D03*
X005137Y009087D03*
X004842Y009397D03*
X004620Y008382D03*
X005527Y008632D03*
D141*
X005791Y008384D03*
X005166Y009369D03*
D142*
X005224Y008384D03*
D143*
X005106Y008654D03*
X005141Y009089D03*
X004631Y008384D03*
D144*
X004539Y009157D03*
X004819Y009442D03*
X005794Y008387D03*
D145*
X005224Y008387D03*
X005014Y009187D03*
D146*
X004946Y009132D03*
X004636Y008387D03*
X005666Y009127D03*
D147*
X005769Y009389D03*
X005979Y008389D03*
X004879Y008499D03*
X004879Y008504D03*
X004759Y009049D03*
X004334Y009434D03*
X004664Y009634D03*
D148*
X005237Y009334D03*
X005570Y009289D03*
X005740Y008924D03*
X005797Y008389D03*
X004827Y008804D03*
X004807Y008769D03*
D149*
X005010Y009189D03*
X005222Y008389D03*
D150*
X004657Y008389D03*
X004637Y008634D03*
X005677Y009064D03*
X005840Y008404D03*
D151*
X005800Y008392D03*
X005577Y009277D03*
X005547Y009342D03*
X005547Y009392D03*
X004837Y008817D03*
X004800Y008757D03*
X004540Y009142D03*
D152*
X005005Y009192D03*
X005222Y008392D03*
D153*
X005520Y008647D03*
X005657Y009117D03*
X004960Y009137D03*
X004842Y009392D03*
X004657Y008392D03*
D154*
X004777Y008724D03*
X005000Y008579D03*
X005137Y008719D03*
X005137Y008724D03*
X005072Y009289D03*
X004832Y009419D03*
X005560Y009414D03*
X005810Y008394D03*
D155*
X005222Y008394D03*
X005002Y009194D03*
D156*
X004712Y008679D03*
X004657Y008394D03*
D157*
X004916Y009242D03*
X005591Y009212D03*
X005841Y008397D03*
D158*
X005521Y008642D03*
X005281Y008432D03*
X004656Y008397D03*
D159*
X005131Y009084D03*
X004921Y009239D03*
X005521Y008644D03*
X005841Y008399D03*
X005591Y009209D03*
D160*
X005840Y008429D03*
X005850Y008419D03*
X005855Y008414D03*
X005210Y008399D03*
D161*
X005680Y009074D03*
X005660Y009119D03*
X004652Y008404D03*
X004655Y008399D03*
D162*
X005591Y009207D03*
X005841Y008402D03*
D163*
X005852Y008417D03*
X005837Y008432D03*
X005212Y008402D03*
D164*
X005680Y009077D03*
X004652Y008402D03*
D165*
X005271Y008404D03*
X005291Y008414D03*
D166*
X004999Y009302D03*
X005609Y009357D03*
X005609Y009362D03*
X005839Y008407D03*
D167*
X005715Y008967D03*
X005642Y009177D03*
X005597Y009232D03*
X005280Y008407D03*
X004997Y008542D03*
X004932Y009127D03*
X004857Y009262D03*
D168*
X005124Y009392D03*
X005134Y009387D03*
X005159Y009262D03*
X005274Y009312D03*
X005594Y009547D03*
X005049Y008527D03*
X004714Y008407D03*
D169*
X004556Y008407D03*
X004406Y009237D03*
X004901Y009547D03*
X005321Y009267D03*
D170*
X005607Y009369D03*
X005675Y009059D03*
X005837Y008409D03*
X004932Y009234D03*
X004702Y008674D03*
D171*
X005286Y008409D03*
X005641Y009179D03*
X005531Y009309D03*
D172*
X005831Y008897D03*
X005831Y008892D03*
X005856Y008412D03*
X005526Y008682D03*
X004966Y009307D03*
D173*
X004836Y009412D03*
X004756Y008707D03*
X005291Y008412D03*
X005531Y009307D03*
D174*
X005339Y009232D03*
X005994Y009492D03*
X004554Y008522D03*
X004549Y008502D03*
X004549Y008412D03*
X004439Y009082D03*
D175*
X004430Y009069D03*
X004427Y009064D03*
X004390Y009344D03*
X004782Y009494D03*
X005347Y009204D03*
X005350Y009194D03*
X005377Y009059D03*
X005682Y009584D03*
X005947Y009449D03*
X005960Y009459D03*
X005975Y008944D03*
X004545Y008424D03*
X004545Y008419D03*
X004545Y008414D03*
D176*
X005121Y008672D03*
X005291Y008417D03*
X005646Y009167D03*
X005551Y009462D03*
D177*
X005781Y009292D03*
X006041Y009272D03*
X006041Y009237D03*
X005876Y008617D03*
X005936Y008497D03*
X005936Y008492D03*
X004851Y009617D03*
X004766Y008417D03*
D178*
X005639Y009487D03*
X005659Y009517D03*
X005844Y008427D03*
X005849Y008422D03*
D179*
X005534Y008622D03*
X005289Y008422D03*
X005594Y009222D03*
D180*
X005937Y009417D03*
X006147Y009127D03*
X005447Y008557D03*
X004880Y008517D03*
X004770Y008422D03*
X004517Y009057D03*
X004355Y009152D03*
X004340Y009422D03*
X004735Y009557D03*
D181*
X004449Y009227D03*
X004689Y008422D03*
X005789Y009287D03*
X005944Y009427D03*
D182*
X005656Y009514D03*
X005636Y009484D03*
X005831Y008904D03*
X005846Y008424D03*
D183*
X005531Y008624D03*
X005286Y008424D03*
X005101Y008649D03*
X004841Y009399D03*
X005586Y009384D03*
D184*
X005901Y008599D03*
X005961Y008519D03*
X006056Y009019D03*
X006146Y009129D03*
X004841Y009629D03*
X004351Y009404D03*
X004361Y009164D03*
X004691Y008424D03*
D185*
X004704Y008427D03*
X005234Y009217D03*
X005864Y008637D03*
X005869Y008627D03*
X006069Y009002D03*
D186*
X005680Y009084D03*
X005282Y008429D03*
X005082Y008629D03*
X005077Y008624D03*
X005072Y008619D03*
X005055Y008604D03*
X004910Y009244D03*
D187*
X005344Y009214D03*
X004544Y008474D03*
X004544Y008469D03*
X004544Y008464D03*
X004544Y008459D03*
X004544Y008454D03*
X004544Y008449D03*
X004544Y008444D03*
X004544Y008439D03*
X004544Y008434D03*
X004544Y008429D03*
X004434Y009074D03*
D188*
X004636Y009057D03*
X004806Y009072D03*
X004766Y009517D03*
X004711Y008432D03*
X005756Y009317D03*
X005761Y009312D03*
X005751Y009327D03*
X005786Y009477D03*
X006096Y009212D03*
X006101Y009217D03*
X005891Y008442D03*
D189*
X005790Y008434D03*
X005710Y008969D03*
X005652Y009154D03*
X005650Y009159D03*
X005547Y009459D03*
X005565Y009469D03*
X005120Y008669D03*
X004937Y009129D03*
D190*
X005279Y008434D03*
X005519Y008649D03*
X005689Y008974D03*
D191*
X005735Y008437D03*
X005055Y008522D03*
X005070Y009422D03*
X005062Y009427D03*
X004947Y009497D03*
X004940Y009502D03*
X004932Y009507D03*
X004917Y009517D03*
X004812Y009452D03*
D192*
X005276Y008437D03*
X005676Y009062D03*
X005591Y009202D03*
X005611Y009347D03*
X005611Y009352D03*
D193*
X005744Y009334D03*
X005689Y009594D03*
X006054Y009169D03*
X006084Y008954D03*
X005859Y008659D03*
X005889Y008439D03*
X005374Y008484D03*
X004874Y009589D03*
D194*
X005204Y009114D03*
X005294Y009299D03*
X005724Y008439D03*
D195*
X005515Y008664D03*
X005275Y008439D03*
X005607Y009379D03*
D196*
X005752Y009324D03*
X006150Y009269D03*
X005375Y008489D03*
X004722Y008444D03*
X004720Y008439D03*
X004635Y009099D03*
X004380Y009224D03*
X004767Y009514D03*
X004870Y009594D03*
D197*
X004912Y009527D03*
X004805Y009462D03*
X005075Y008507D03*
X005080Y008502D03*
X005720Y008442D03*
X005825Y008677D03*
D198*
X005366Y008442D03*
X004576Y009022D03*
D199*
X004577Y009027D03*
X004475Y008937D03*
X004422Y009302D03*
X005070Y008512D03*
X005182Y008442D03*
X005607Y008582D03*
X005777Y009527D03*
D200*
X005827Y009574D03*
X005825Y008674D03*
X005717Y008444D03*
X005300Y009294D03*
X005182Y009249D03*
X004587Y008589D03*
D201*
X005089Y008494D03*
X005374Y008444D03*
X005509Y009589D03*
D202*
X005077Y008504D03*
X005175Y008444D03*
X004592Y008824D03*
X004470Y008939D03*
X004420Y009304D03*
D203*
X004364Y009382D03*
X004374Y009202D03*
X004639Y009072D03*
X004639Y009067D03*
X004864Y009602D03*
X005769Y009302D03*
X005899Y008447D03*
D204*
X005714Y008447D03*
X005709Y008452D03*
X004909Y009532D03*
D205*
X004574Y009007D03*
X004414Y009312D03*
X004584Y008582D03*
X005379Y008447D03*
X005699Y008462D03*
X005704Y008457D03*
X006039Y009122D03*
D206*
X006035Y009117D03*
X006032Y009112D03*
X006030Y009107D03*
X006027Y009102D03*
X005827Y008672D03*
X005617Y008572D03*
X005302Y009292D03*
X005187Y009247D03*
X005507Y009592D03*
X005092Y008492D03*
X005100Y008487D03*
X005167Y008447D03*
X004727Y009287D03*
D207*
X004416Y009309D03*
X005096Y008489D03*
X005616Y008574D03*
X005711Y008449D03*
D208*
X005949Y008914D03*
X006024Y009094D03*
X006029Y009104D03*
X005384Y008449D03*
X005104Y008484D03*
X004474Y009114D03*
X004909Y009534D03*
D209*
X004411Y009314D03*
X005161Y008449D03*
X005701Y008459D03*
X006026Y009099D03*
X006041Y009124D03*
X005506Y009594D03*
D210*
X005756Y009319D03*
X006056Y009184D03*
X006096Y009209D03*
X006106Y009224D03*
X006111Y009234D03*
X005961Y008514D03*
X005911Y008454D03*
X005376Y008494D03*
X004726Y008449D03*
X004566Y008979D03*
X004636Y009094D03*
D211*
X004995Y009467D03*
X005002Y009462D03*
X005020Y009452D03*
X005045Y009437D03*
X005167Y009257D03*
X005400Y008452D03*
D212*
X005156Y008452D03*
X005121Y008472D03*
X005106Y008482D03*
X005621Y008567D03*
D213*
X005859Y008652D03*
X006109Y009227D03*
X005754Y009322D03*
X005379Y008497D03*
X004729Y008452D03*
X004379Y009217D03*
X004379Y009222D03*
X004649Y009297D03*
D214*
X004575Y009009D03*
X004462Y008944D03*
X004585Y008584D03*
X005397Y008464D03*
X005620Y008569D03*
X005707Y008454D03*
X006032Y009109D03*
X006035Y009114D03*
X006037Y009119D03*
D215*
X005937Y008909D03*
X005792Y009539D03*
X005402Y008454D03*
X005065Y008514D03*
X004590Y008594D03*
D216*
X004575Y009004D03*
X004855Y009094D03*
X004800Y009469D03*
X005305Y009289D03*
X005505Y009599D03*
X005622Y008564D03*
X005692Y008469D03*
X005697Y008464D03*
X005150Y008454D03*
X005142Y008459D03*
X005132Y008464D03*
X005125Y008469D03*
X005117Y008474D03*
X005110Y008479D03*
D217*
X005401Y008457D03*
D218*
X005400Y008462D03*
X005087Y008497D03*
X004575Y009012D03*
X004467Y008942D03*
X004480Y009117D03*
X005945Y008912D03*
D219*
X006126Y008967D03*
X004796Y008462D03*
D220*
X004736Y008462D03*
X004376Y009207D03*
X004761Y009522D03*
X005691Y009597D03*
X006151Y009272D03*
X005861Y008647D03*
D221*
X006046Y009132D03*
X005396Y008467D03*
X004906Y009537D03*
D222*
X004664Y009294D03*
X004624Y009114D03*
X004379Y009359D03*
X004754Y008469D03*
X005984Y008974D03*
X005984Y008979D03*
X006149Y009264D03*
D223*
X005629Y008557D03*
X005684Y008477D03*
X005689Y008472D03*
X005214Y009117D03*
X005309Y009287D03*
X005474Y009642D03*
X004799Y009472D03*
X004574Y009002D03*
X004459Y008947D03*
X004469Y009112D03*
D224*
X004374Y009204D03*
X004639Y009069D03*
X004639Y009064D03*
X005399Y008514D03*
X005929Y008474D03*
X006149Y009134D03*
D225*
X006021Y009089D03*
X005671Y009574D03*
X005626Y008559D03*
X005686Y008474D03*
X004581Y008579D03*
D226*
X005371Y008477D03*
X005986Y008997D03*
X005686Y009592D03*
D227*
X005517Y009584D03*
X005310Y009284D03*
X005192Y009244D03*
X004905Y009539D03*
X004710Y009289D03*
X004577Y008574D03*
X005630Y008554D03*
X005632Y008549D03*
X005667Y008494D03*
X005672Y008489D03*
X005677Y008484D03*
X005682Y008479D03*
X005830Y008669D03*
X006047Y009134D03*
X005922Y009444D03*
D228*
X005967Y009482D03*
X005952Y008917D03*
X005632Y008552D03*
X005635Y008547D03*
X005670Y008492D03*
X005675Y008487D03*
X005680Y008482D03*
X005505Y009602D03*
X004580Y008577D03*
D229*
X004546Y008487D03*
X004546Y008482D03*
X004431Y009072D03*
X004556Y009252D03*
X006176Y009177D03*
D230*
X006184Y009189D03*
X006069Y008999D03*
X005934Y008484D03*
X005424Y009299D03*
D231*
X005775Y009297D03*
X006042Y009267D03*
X006042Y009242D03*
X006065Y009007D03*
X006070Y008977D03*
X005872Y008622D03*
X005935Y008487D03*
X005397Y008517D03*
X004795Y009067D03*
X004855Y009612D03*
X004370Y009187D03*
D232*
X004366Y009177D03*
X004756Y008487D03*
X005891Y008607D03*
X006061Y009012D03*
X006041Y009227D03*
X006041Y009277D03*
D233*
X005960Y009462D03*
X005682Y009582D03*
X005385Y009052D03*
X005340Y009222D03*
X005340Y009227D03*
X005230Y009122D03*
X004892Y009562D03*
X004682Y009292D03*
X004435Y009077D03*
X004392Y009342D03*
X004550Y008507D03*
X004547Y008497D03*
X004547Y008492D03*
X005970Y008937D03*
D234*
X006041Y009234D03*
X006041Y009274D03*
X006036Y009509D03*
X005936Y008494D03*
X005456Y008579D03*
X005236Y009214D03*
X004751Y009534D03*
X004356Y009394D03*
D235*
X004367Y009179D03*
X004790Y009064D03*
X004850Y009619D03*
X005787Y009469D03*
X006067Y008969D03*
X005880Y008614D03*
X005937Y008499D03*
D236*
X005664Y008499D03*
X005639Y008539D03*
X005314Y009279D03*
X005504Y009604D03*
X005479Y009639D03*
X004574Y008999D03*
D237*
X004804Y009464D03*
X005084Y008499D03*
D238*
X004572Y008567D03*
X004572Y008997D03*
X005315Y009277D03*
X005522Y009582D03*
X005502Y009607D03*
X005832Y008667D03*
X005647Y008527D03*
X005650Y008522D03*
X005652Y008517D03*
X005660Y008507D03*
X005662Y008502D03*
D239*
X005657Y008509D03*
X005655Y008514D03*
X005647Y008524D03*
X005645Y008529D03*
X005642Y008534D03*
X005972Y009484D03*
X004575Y008569D03*
X004455Y008949D03*
X004405Y009324D03*
D240*
X004339Y009424D03*
X004354Y009149D03*
X004769Y009054D03*
X004729Y009564D03*
X004879Y008509D03*
X006184Y009194D03*
D241*
X005961Y009464D03*
X005336Y009234D03*
X004786Y009489D03*
X004551Y008514D03*
X004551Y008509D03*
D242*
X004879Y008512D03*
X004764Y009052D03*
D243*
X004441Y009087D03*
X004436Y008967D03*
X004551Y008512D03*
X005336Y009237D03*
D244*
X004871Y009102D03*
X004426Y009297D03*
X005061Y008517D03*
X005796Y009542D03*
D245*
X005799Y009544D03*
X005049Y009434D03*
X004959Y009489D03*
X004749Y009284D03*
X005059Y008519D03*
D246*
X005396Y008522D03*
X005446Y008547D03*
X005241Y009207D03*
X005396Y009422D03*
X006061Y009522D03*
X004716Y009577D03*
X004666Y009632D03*
X004516Y009062D03*
D247*
X004815Y009449D03*
X005092Y009409D03*
X005102Y009404D03*
X005052Y008524D03*
D248*
X004557Y008529D03*
X004555Y008524D03*
X004570Y008989D03*
X004442Y009089D03*
X004547Y009254D03*
X005332Y009244D03*
X005335Y009239D03*
X005537Y009574D03*
X005497Y009629D03*
X005680Y009579D03*
X006005Y009064D03*
X006005Y009059D03*
X006005Y009054D03*
X006005Y009049D03*
X005967Y008934D03*
D249*
X005046Y008529D03*
X004536Y009164D03*
D250*
X004849Y009092D03*
X004904Y009542D03*
X005639Y008542D03*
X005644Y008532D03*
X006019Y009087D03*
X005964Y009477D03*
X005829Y009577D03*
D251*
X005590Y009542D03*
X005265Y009317D03*
X005162Y009372D03*
X005042Y008532D03*
X004537Y009162D03*
D252*
X004540Y009154D03*
X004442Y009279D03*
X005037Y008534D03*
X005185Y009109D03*
D253*
X004854Y009614D03*
X004634Y009299D03*
X004369Y009184D03*
X004889Y008534D03*
X005874Y008619D03*
X006069Y008964D03*
X006064Y009009D03*
D254*
X005499Y009624D03*
X005329Y009254D03*
X004559Y008534D03*
D255*
X005449Y008537D03*
D256*
X005544Y008612D03*
X005644Y009172D03*
X005574Y009422D03*
X004999Y008537D03*
D257*
X004559Y008537D03*
X004539Y009257D03*
X005329Y009252D03*
X005334Y009242D03*
X005534Y009577D03*
D258*
X005579Y009474D03*
X005644Y009174D03*
X005124Y008674D03*
X004999Y008539D03*
X004754Y008704D03*
D259*
X004560Y008542D03*
X004450Y009097D03*
X004402Y009252D03*
X004837Y009087D03*
X005327Y009257D03*
X005500Y009622D03*
X006007Y009077D03*
X006172Y009172D03*
D260*
X005049Y009294D03*
X004999Y008544D03*
D261*
X004997Y008547D03*
X004997Y008552D03*
X005640Y009182D03*
X005627Y009197D03*
D262*
X005547Y008609D03*
X005130Y008684D03*
X004997Y008549D03*
X004760Y008709D03*
X004847Y009264D03*
D263*
X004791Y009482D03*
X004571Y008992D03*
X004446Y008957D03*
X004566Y008552D03*
X005501Y009617D03*
D264*
X005567Y009419D03*
X005532Y009314D03*
X005720Y008964D03*
X005132Y008689D03*
X004997Y008559D03*
X004997Y008554D03*
X004765Y008714D03*
X004835Y009414D03*
D265*
X005157Y009097D03*
X005132Y008692D03*
X004997Y008562D03*
X004997Y008557D03*
X005552Y008607D03*
X005637Y009187D03*
D266*
X005962Y008927D03*
X004567Y008557D03*
X004405Y009242D03*
X004522Y009262D03*
D267*
X004459Y009104D03*
X004449Y008954D03*
X004569Y008559D03*
X004844Y009089D03*
X004794Y009479D03*
X005529Y009579D03*
D268*
X005239Y009209D03*
X005449Y008564D03*
X006049Y009029D03*
X004834Y009639D03*
X004454Y009214D03*
X004359Y009159D03*
D269*
X004997Y008564D03*
X005137Y008704D03*
X005557Y008589D03*
X005637Y009189D03*
X005635Y009194D03*
X005532Y009319D03*
D270*
X005401Y009044D03*
X005316Y009274D03*
X006016Y009084D03*
X006166Y009164D03*
X004571Y008564D03*
D271*
X004997Y008567D03*
X005137Y008702D03*
X005557Y008592D03*
X005557Y008587D03*
X005722Y008962D03*
X005637Y009192D03*
X005060Y009292D03*
D272*
X004780Y009059D03*
X004520Y009049D03*
X004452Y009219D03*
X004450Y009224D03*
X004347Y009409D03*
X004837Y009634D03*
X005450Y008569D03*
X006052Y009024D03*
X006042Y009219D03*
X006042Y009284D03*
X006045Y009289D03*
X006152Y009279D03*
X005942Y009424D03*
D273*
X004999Y008569D03*
X004829Y009269D03*
D274*
X004746Y009542D03*
X004451Y009222D03*
X004361Y009167D03*
X004566Y008977D03*
X005451Y008572D03*
X006041Y009222D03*
X006041Y009282D03*
X006041Y009512D03*
D275*
X005557Y008602D03*
X005557Y008597D03*
X005137Y008712D03*
X005000Y008572D03*
X004587Y008617D03*
D276*
X004584Y008614D03*
X004999Y008574D03*
X005164Y009099D03*
X005829Y009554D03*
D277*
X005614Y008577D03*
X004419Y009307D03*
D278*
X004537Y009127D03*
X004780Y008727D03*
X005000Y008577D03*
X005137Y008717D03*
X005137Y008722D03*
X005600Y009242D03*
X005825Y009557D03*
D279*
X005611Y008579D03*
X004911Y009529D03*
X004576Y009014D03*
D280*
X004581Y008612D03*
X005001Y008582D03*
X005536Y009327D03*
X005596Y009247D03*
D281*
X005604Y008584D03*
X005174Y009254D03*
X004579Y009029D03*
X004424Y009299D03*
D282*
X004781Y008729D03*
X005001Y008584D03*
X005821Y009559D03*
D283*
X005137Y008732D03*
X005137Y008727D03*
X005002Y008587D03*
X004785Y008732D03*
X004575Y008607D03*
X004817Y009272D03*
X004832Y009422D03*
D284*
X004801Y009467D03*
X004586Y008587D03*
D285*
X004577Y008609D03*
X005002Y008589D03*
X005137Y008729D03*
X005537Y009329D03*
X005595Y009249D03*
D286*
X005774Y009522D03*
X005179Y009252D03*
X004589Y008592D03*
D287*
X004537Y009124D03*
X005137Y008714D03*
X005137Y008709D03*
X005557Y008599D03*
X005557Y008594D03*
X005725Y008959D03*
X005600Y009239D03*
D288*
X005040Y008594D03*
X004722Y008684D03*
X004625Y008629D03*
D289*
X005044Y008597D03*
X005679Y009087D03*
D290*
X004829Y009427D03*
X004794Y008747D03*
X004564Y008597D03*
D291*
X004954Y009134D03*
X005094Y008639D03*
X005089Y008634D03*
X005049Y008599D03*
D292*
X005051Y008602D03*
X005091Y008637D03*
X005661Y009122D03*
X005591Y009217D03*
D293*
X005734Y008947D03*
X005169Y009102D03*
X005099Y009282D03*
X004789Y008737D03*
X004569Y008602D03*
D294*
X004591Y008619D03*
X004771Y008719D03*
X005556Y008604D03*
D295*
X005732Y008949D03*
X005587Y009259D03*
X005135Y008744D03*
X005135Y008739D03*
X004790Y008739D03*
X004572Y008604D03*
X004540Y009134D03*
X005090Y009284D03*
D296*
X005085Y008632D03*
X005080Y008627D03*
X005075Y008622D03*
X005070Y008617D03*
X005057Y008607D03*
X004717Y008682D03*
X005525Y008637D03*
X005680Y009082D03*
D297*
X005886Y008609D03*
X006041Y009229D03*
X006041Y009279D03*
X005946Y009429D03*
X004846Y009624D03*
X004521Y009044D03*
X004366Y009174D03*
D298*
X004841Y009394D03*
X005066Y008614D03*
X005061Y008609D03*
X005591Y009214D03*
D299*
X005064Y008612D03*
D300*
X005111Y008659D03*
X005536Y008619D03*
X005581Y009424D03*
D301*
X005531Y009312D03*
X005131Y008687D03*
X004761Y008712D03*
X004596Y008622D03*
D302*
X004614Y008627D03*
D303*
X005529Y008629D03*
D304*
X005866Y008632D03*
X006071Y008982D03*
X006041Y009247D03*
X006031Y009507D03*
X004756Y009527D03*
X004361Y009387D03*
X004371Y009192D03*
D305*
X004634Y008632D03*
X005679Y009067D03*
X005669Y009092D03*
D306*
X005526Y008634D03*
X005016Y009299D03*
D307*
X005125Y009082D03*
X005517Y008657D03*
X005607Y009367D03*
X004642Y008637D03*
D308*
X005524Y008639D03*
X005679Y009079D03*
D309*
X005516Y008659D03*
X004966Y009139D03*
X004646Y008639D03*
D310*
X004651Y008642D03*
D311*
X005097Y008644D03*
X005592Y009219D03*
D312*
X005652Y009109D03*
X005517Y008669D03*
X005120Y009079D03*
X004845Y009384D03*
X004687Y008664D03*
X004655Y008644D03*
D313*
X004660Y008647D03*
X004682Y008662D03*
X004690Y008667D03*
X005680Y008977D03*
D314*
X004944Y009229D03*
X004679Y008659D03*
X004664Y008649D03*
D315*
X004707Y008677D03*
X004927Y009237D03*
X005517Y008652D03*
D316*
X005702Y008972D03*
X005105Y008652D03*
D317*
X004971Y009142D03*
X004666Y008652D03*
X005671Y009052D03*
D318*
X005609Y009354D03*
X005609Y009359D03*
X005609Y009364D03*
X005519Y008654D03*
X004844Y009389D03*
D319*
X004670Y008654D03*
D320*
X004737Y008692D03*
X005110Y008657D03*
X004890Y009252D03*
X004840Y009402D03*
D321*
X004674Y008657D03*
D322*
X005516Y008662D03*
D323*
X005515Y008667D03*
X005675Y009057D03*
X005652Y009112D03*
X005607Y009377D03*
D324*
X005674Y009054D03*
X004694Y008669D03*
D325*
X004845Y009382D03*
X005520Y008672D03*
D326*
X005609Y009372D03*
X004844Y009387D03*
X004699Y008672D03*
D327*
X005522Y008674D03*
X005650Y009099D03*
D328*
X005524Y008677D03*
D329*
X005126Y008677D03*
X005531Y009302D03*
D330*
X005525Y008679D03*
D331*
X005127Y008679D03*
X005152Y009094D03*
X005530Y009304D03*
X004837Y009409D03*
D332*
X005289Y009302D03*
X005784Y009532D03*
X005824Y008682D03*
D333*
X005129Y008682D03*
D334*
X004579Y009034D03*
X005824Y008684D03*
D335*
X005529Y008684D03*
X005634Y009479D03*
X005654Y009509D03*
X004979Y009209D03*
D336*
X005054Y009432D03*
X005029Y009447D03*
X004979Y009477D03*
X004964Y009487D03*
X004954Y009492D03*
X005599Y009552D03*
X005599Y009557D03*
X005824Y008687D03*
D337*
X005529Y008687D03*
D338*
X005824Y008689D03*
X005164Y009259D03*
X005084Y009414D03*
X004879Y009104D03*
D339*
X005529Y008689D03*
D340*
X004734Y008689D03*
D341*
X004535Y009167D03*
X005592Y009567D03*
X005825Y008692D03*
D342*
X005529Y008692D03*
X005099Y009067D03*
D343*
X005626Y008694D03*
D344*
X005134Y008694D03*
D345*
X005626Y008697D03*
D346*
X005136Y008697D03*
D347*
X005627Y008699D03*
D348*
X005136Y008699D03*
X004926Y009124D03*
X004536Y009119D03*
D349*
X005629Y008702D03*
D350*
X005629Y008704D03*
D351*
X005629Y008707D03*
D352*
X005630Y008709D03*
D353*
X005630Y008712D03*
D354*
X005630Y008714D03*
D355*
X005630Y008717D03*
D356*
X005599Y009237D03*
X005534Y009317D03*
X004839Y009267D03*
X004769Y008717D03*
D357*
X005629Y008719D03*
D358*
X005627Y008722D03*
D359*
X005726Y008957D03*
X004776Y008722D03*
D360*
X005627Y008724D03*
D361*
X005627Y008727D03*
X005065Y008962D03*
D362*
X005626Y008729D03*
D363*
X005625Y008732D03*
D364*
X005624Y008734D03*
D365*
X005591Y009254D03*
X005811Y009564D03*
X005136Y008734D03*
X004786Y008734D03*
X004606Y008834D03*
D366*
X005065Y008957D03*
X005622Y008737D03*
D367*
X005731Y008952D03*
X005556Y009412D03*
X005816Y009562D03*
X005136Y008737D03*
X005081Y009287D03*
D368*
X005620Y008739D03*
D369*
X005617Y008742D03*
D370*
X005590Y009257D03*
X005135Y008742D03*
D371*
X004791Y008742D03*
X005586Y009262D03*
X005806Y009567D03*
D372*
X005614Y008744D03*
D373*
X004792Y008744D03*
X004460Y009264D03*
D374*
X005494Y008747D03*
D375*
X005495Y008749D03*
X005127Y008939D03*
D376*
X004840Y008819D03*
X004797Y008749D03*
X004540Y009139D03*
X005545Y009339D03*
X005550Y009389D03*
D377*
X005495Y008752D03*
D378*
X004799Y008752D03*
X004604Y008832D03*
D379*
X005495Y008754D03*
D380*
X005579Y009274D03*
X005549Y009404D03*
X006119Y009159D03*
X004799Y008754D03*
D381*
X005495Y008757D03*
D382*
X005496Y008759D03*
D383*
X005576Y009279D03*
X004801Y008759D03*
D384*
X005496Y008762D03*
D385*
X005740Y008932D03*
X004832Y008812D03*
X004802Y008762D03*
X004450Y009272D03*
D386*
X005496Y008769D03*
X005496Y008764D03*
D387*
X005740Y008929D03*
X005572Y009284D03*
X005545Y009399D03*
X005122Y009274D03*
X004805Y008764D03*
X004542Y009144D03*
D388*
X005496Y008767D03*
D389*
X005571Y009287D03*
X004806Y008767D03*
D390*
X005497Y008772D03*
D391*
X005740Y008927D03*
X005580Y009522D03*
X005232Y009337D03*
X005222Y009342D03*
X005130Y009272D03*
X005180Y009107D03*
X004825Y008802D03*
X004807Y008772D03*
X004542Y009147D03*
D392*
X005496Y008774D03*
D393*
X005569Y009294D03*
X005219Y009344D03*
X004824Y008799D03*
X004809Y008774D03*
D394*
X005497Y008777D03*
D395*
X005740Y008917D03*
X005567Y009297D03*
X005582Y009527D03*
X005212Y009347D03*
X005202Y009352D03*
X004895Y009112D03*
X004822Y008797D03*
X004820Y008792D03*
X004815Y008787D03*
X004812Y008782D03*
X004810Y008777D03*
X004822Y009437D03*
X006090Y009142D03*
X006095Y009147D03*
D396*
X005496Y008779D03*
D397*
X005245Y009329D03*
X005207Y009349D03*
X005582Y009529D03*
X006087Y009139D03*
X006092Y009144D03*
X004820Y008794D03*
X004817Y008789D03*
X004815Y008784D03*
X004812Y008779D03*
X004542Y009149D03*
D398*
X005496Y008782D03*
D399*
X005496Y008784D03*
D400*
X005496Y008787D03*
D401*
X005496Y008789D03*
D402*
X005495Y008792D03*
D403*
X005495Y008794D03*
D404*
X005495Y008797D03*
D405*
X005494Y008799D03*
D406*
X005491Y008802D03*
D407*
X005491Y008804D03*
D408*
X005490Y008807D03*
D409*
X004829Y008807D03*
D410*
X005489Y008809D03*
D411*
X005229Y009339D03*
X005579Y009519D03*
X004824Y009434D03*
X004449Y009274D03*
X004829Y008809D03*
D412*
X005489Y008812D03*
D413*
X005487Y008814D03*
D414*
X005739Y008934D03*
X004834Y008814D03*
X004454Y009269D03*
D415*
X005486Y008817D03*
D416*
X005484Y008819D03*
D417*
X005480Y008822D03*
D418*
X005582Y009267D03*
X005542Y009337D03*
X004842Y008822D03*
X004540Y009137D03*
D419*
X005366Y008829D03*
X005366Y008824D03*
D420*
X005366Y008827D03*
X005366Y008832D03*
D421*
X005097Y009407D03*
X004597Y008827D03*
D422*
X004601Y008829D03*
X004821Y009439D03*
X005196Y009354D03*
X005566Y009299D03*
X005741Y008914D03*
X005741Y008909D03*
D423*
X005369Y008834D03*
D424*
X005244Y008837D03*
D425*
X005241Y008839D03*
D426*
X005239Y008842D03*
D427*
X005237Y008844D03*
D428*
X005236Y008847D03*
D429*
X005234Y008849D03*
D430*
X005232Y008852D03*
D431*
X005230Y008854D03*
D432*
X005230Y008857D03*
D433*
X005229Y008859D03*
D434*
X005227Y008862D03*
D435*
X005226Y008864D03*
D436*
X005225Y008867D03*
D437*
X005224Y008869D03*
D438*
X005222Y008872D03*
D439*
X005222Y008874D03*
D440*
X005221Y008877D03*
D441*
X005221Y008879D03*
D442*
X005220Y008882D03*
D443*
X005219Y008884D03*
D444*
X005219Y008887D03*
D445*
X005660Y009044D03*
X005832Y008889D03*
D446*
X005032Y008889D03*
X005025Y008899D03*
X005022Y008904D03*
X005020Y008909D03*
X005017Y008914D03*
D447*
X005017Y008912D03*
X005015Y008917D03*
X005020Y008907D03*
X005025Y008902D03*
X005027Y008897D03*
X005030Y008892D03*
D448*
X004846Y009374D03*
X005831Y008899D03*
X005831Y008894D03*
D449*
X005029Y008894D03*
X005014Y008919D03*
D450*
X004991Y009147D03*
X004846Y009372D03*
X005636Y009482D03*
X005651Y009507D03*
X005831Y008907D03*
X005831Y008902D03*
D451*
X005741Y008912D03*
X006101Y009152D03*
X004541Y009152D03*
D452*
X005581Y009524D03*
X005741Y008919D03*
D453*
X005741Y008922D03*
X005811Y009552D03*
X005241Y009332D03*
X004446Y009277D03*
D454*
X005011Y008922D03*
D455*
X005010Y008924D03*
X005007Y008929D03*
D456*
X005009Y008927D03*
D457*
X005006Y008932D03*
D458*
X005004Y008934D03*
D459*
X005574Y009282D03*
X005544Y009397D03*
X005739Y008937D03*
D460*
X005124Y008937D03*
D461*
X005175Y009104D03*
X005552Y009344D03*
X005545Y009394D03*
X005737Y008939D03*
X004827Y009429D03*
D462*
X004619Y009302D03*
X004459Y009197D03*
X004344Y009417D03*
X004774Y009057D03*
X006054Y009297D03*
X006064Y009302D03*
X006084Y008942D03*
D463*
X005736Y008942D03*
X004906Y009117D03*
X004796Y009277D03*
X004456Y009267D03*
D464*
X005131Y008942D03*
D465*
X005134Y008944D03*
D466*
X004754Y009532D03*
X004524Y009042D03*
X004369Y009182D03*
X004359Y009392D03*
X006069Y008972D03*
X006084Y008947D03*
X006149Y009132D03*
D467*
X005976Y008947D03*
X005376Y009062D03*
X005351Y009187D03*
X005351Y009192D03*
X004826Y009082D03*
D468*
X005134Y008947D03*
D469*
X005134Y008949D03*
D470*
X005116Y008952D03*
D471*
X005196Y009242D03*
X004461Y009107D03*
X004451Y008952D03*
D472*
X004424Y008989D03*
X004424Y008994D03*
X004419Y009014D03*
X004419Y009019D03*
X004419Y009024D03*
X004419Y009029D03*
X004779Y009499D03*
X005359Y009159D03*
X005359Y009154D03*
X005359Y009149D03*
X005359Y009144D03*
X005359Y009139D03*
X005369Y009074D03*
X005979Y008954D03*
X006149Y009259D03*
D473*
X005062Y008954D03*
D474*
X005065Y008959D03*
D475*
X005062Y008964D03*
D476*
X005061Y008967D03*
D477*
X005062Y008969D03*
D478*
X005062Y008972D03*
D479*
X005062Y008974D03*
D480*
X005064Y008977D03*
D481*
X005214Y009232D03*
X005354Y009182D03*
X004889Y009567D03*
X004424Y009052D03*
X004429Y008977D03*
X006149Y009257D03*
D482*
X005669Y008979D03*
D483*
X005064Y008979D03*
D484*
X005652Y008982D03*
D485*
X005066Y008982D03*
D486*
X005639Y008984D03*
D487*
X005067Y008984D03*
D488*
X005634Y008987D03*
D489*
X005067Y008987D03*
D490*
X004844Y009354D03*
X005629Y008989D03*
D491*
X005069Y008989D03*
D492*
X005027Y009157D03*
X005625Y008992D03*
D493*
X005070Y008992D03*
D494*
X005369Y009072D03*
X005359Y009142D03*
X005359Y009147D03*
X005359Y009152D03*
X005359Y009157D03*
X005684Y009587D03*
X004574Y009247D03*
X004424Y008992D03*
X004419Y009017D03*
X004419Y009022D03*
X004419Y009027D03*
X004419Y009032D03*
X004384Y009352D03*
D495*
X005070Y008994D03*
D496*
X005619Y008997D03*
D497*
X005071Y008997D03*
X005046Y009032D03*
D498*
X005616Y008999D03*
D499*
X005071Y008999D03*
D500*
X005614Y009002D03*
D501*
X005072Y009002D03*
D502*
X005082Y009014D03*
X005065Y009044D03*
X005612Y009004D03*
D503*
X005074Y009004D03*
D504*
X005080Y009012D03*
X005610Y009007D03*
D505*
X005076Y009007D03*
D506*
X005609Y009009D03*
D507*
X005602Y009019D03*
X005077Y009009D03*
D508*
X005607Y009012D03*
D509*
X005606Y009014D03*
D510*
X005604Y009017D03*
X004879Y009322D03*
D511*
X005084Y009017D03*
D512*
X004861Y009097D03*
X004576Y009017D03*
X005296Y009297D03*
D513*
X005601Y009022D03*
D514*
X005086Y009022D03*
D515*
X004870Y009324D03*
X004835Y009344D03*
X005632Y009429D03*
X005600Y009024D03*
D516*
X005089Y009024D03*
D517*
X004836Y009637D03*
X004831Y009642D03*
X004456Y009207D03*
X004461Y009182D03*
X004461Y009177D03*
X004346Y009412D03*
X006041Y009217D03*
X006051Y009027D03*
D518*
X005600Y009027D03*
D519*
X005089Y009027D03*
D520*
X005599Y009029D03*
D521*
X005615Y009444D03*
X005027Y009174D03*
X005085Y009029D03*
D522*
X004739Y009552D03*
X004454Y009217D03*
X004519Y009052D03*
X006049Y009032D03*
X006044Y009287D03*
D523*
X005597Y009032D03*
D524*
X005790Y009537D03*
X004915Y009522D03*
X004580Y009032D03*
D525*
X005595Y009034D03*
D526*
X005049Y009034D03*
D527*
X004871Y009592D03*
X004381Y009232D03*
X005986Y009037D03*
X006061Y009192D03*
D528*
X005594Y009037D03*
X005054Y009037D03*
D529*
X005331Y009249D03*
X004896Y009554D03*
X004401Y009259D03*
X006006Y009069D03*
X006006Y009044D03*
X006006Y009039D03*
D530*
X005592Y009039D03*
D531*
X005056Y009039D03*
D532*
X005592Y009042D03*
X005637Y009432D03*
D533*
X005061Y009042D03*
X004836Y009347D03*
D534*
X005664Y009047D03*
D535*
X005067Y009047D03*
D536*
X005071Y009049D03*
X005031Y009164D03*
D537*
X005025Y009177D03*
X005075Y009052D03*
D538*
X005079Y009054D03*
D539*
X005354Y009179D03*
X005349Y009199D03*
X005374Y009064D03*
X006074Y009204D03*
X004424Y009054D03*
D540*
X005086Y009059D03*
D541*
X005090Y009062D03*
X004937Y009312D03*
D542*
X005094Y009064D03*
D543*
X005674Y009089D03*
X005679Y009069D03*
D544*
X005679Y009072D03*
D545*
X005107Y009072D03*
X004975Y009212D03*
D546*
X005111Y009074D03*
D547*
X005364Y009087D03*
X005364Y009092D03*
X006149Y009262D03*
D548*
X005661Y009142D03*
X005596Y009227D03*
X005146Y009092D03*
D549*
X004846Y009379D03*
X005651Y009094D03*
D550*
X005361Y009099D03*
X005361Y009104D03*
X005361Y009109D03*
X005361Y009114D03*
X005236Y009124D03*
X004381Y009354D03*
D551*
X004531Y009259D03*
X004451Y009099D03*
X005326Y009259D03*
X005501Y009619D03*
X006171Y009169D03*
D552*
X005650Y009104D03*
X004982Y009304D03*
X004952Y009224D03*
D553*
X004884Y009107D03*
X005144Y009382D03*
X005154Y009377D03*
D554*
X005177Y009364D03*
X005260Y009319D03*
X004890Y009109D03*
D555*
X005194Y009112D03*
X005089Y009412D03*
X005079Y009417D03*
X004924Y009512D03*
D556*
X005611Y009349D03*
X005591Y009204D03*
X005656Y009114D03*
D557*
X004901Y009114D03*
X004786Y009279D03*
D558*
X004806Y009274D03*
X004831Y009424D03*
X004911Y009119D03*
X005541Y009334D03*
D559*
X005664Y009124D03*
D560*
X006044Y009129D03*
X005964Y009479D03*
X004409Y009319D03*
D561*
X004539Y009132D03*
X005539Y009332D03*
X005594Y009252D03*
D562*
X005584Y009532D03*
X005249Y009327D03*
X006084Y009137D03*
D563*
X005659Y009144D03*
D564*
X004979Y009144D03*
D565*
X005139Y009269D03*
X005254Y009324D03*
X006099Y009149D03*
X006104Y009154D03*
D566*
X005012Y009152D03*
D567*
X005022Y009154D03*
D568*
X005115Y009277D03*
X005580Y009272D03*
X006117Y009157D03*
D569*
X005589Y009539D03*
X004539Y009159D03*
D570*
X004826Y009432D03*
X005546Y009402D03*
X006121Y009162D03*
D571*
X005649Y009162D03*
X005539Y009452D03*
X004839Y009407D03*
D572*
X004841Y009352D03*
X005031Y009167D03*
X005031Y009162D03*
D573*
X005129Y009389D03*
X005594Y009564D03*
X004534Y009169D03*
X004434Y009289D03*
D574*
X005029Y009172D03*
D575*
X004531Y009172D03*
X004431Y009292D03*
X005596Y009562D03*
X005801Y009547D03*
D576*
X005019Y009182D03*
D577*
X005016Y009184D03*
D578*
X004997Y009197D03*
D579*
X005554Y009464D03*
X005619Y009199D03*
D580*
X004991Y009202D03*
D581*
X004986Y009204D03*
X004846Y009369D03*
X005591Y009449D03*
D582*
X005640Y009492D03*
X005645Y009497D03*
X005647Y009502D03*
X005655Y009512D03*
X004982Y009207D03*
D583*
X004971Y009214D03*
D584*
X004966Y009217D03*
X004846Y009377D03*
D585*
X004962Y009219D03*
D586*
X005594Y009224D03*
D587*
X004949Y009227D03*
D588*
X004939Y009232D03*
X005609Y009382D03*
D589*
X004904Y009247D03*
D590*
X004897Y009249D03*
D591*
X005554Y009409D03*
X005584Y009264D03*
D592*
X005154Y009264D03*
X005149Y009379D03*
D593*
X005146Y009267D03*
D594*
X005320Y009269D03*
X004902Y009544D03*
D595*
X004817Y009444D03*
X005157Y009374D03*
X005590Y009569D03*
X005805Y009549D03*
X004437Y009284D03*
D596*
X004436Y009287D03*
X004816Y009447D03*
D597*
X005569Y009292D03*
D598*
X005600Y009554D03*
X005032Y009444D03*
X005025Y009449D03*
X005015Y009454D03*
X005007Y009459D03*
X004997Y009464D03*
X004982Y009474D03*
X004975Y009479D03*
X004915Y009519D03*
X004427Y009294D03*
D599*
X005286Y009304D03*
D600*
X005281Y009307D03*
X005036Y009442D03*
X005011Y009457D03*
X004986Y009472D03*
X004971Y009482D03*
D601*
X004942Y009499D03*
X004935Y009504D03*
X004927Y009509D03*
X004920Y009514D03*
X005057Y009429D03*
X005067Y009424D03*
X005075Y009419D03*
X005277Y009309D03*
X005597Y009559D03*
D602*
X004951Y009309D03*
D603*
X005137Y009384D03*
X005270Y009314D03*
X005592Y009544D03*
D604*
X004891Y009319D03*
D605*
X004834Y009417D03*
X005534Y009322D03*
X005564Y009417D03*
D606*
X005256Y009322D03*
D607*
X005536Y009324D03*
D608*
X004861Y009327D03*
D609*
X004852Y009329D03*
D610*
X004844Y009332D03*
D611*
X004836Y009334D03*
D612*
X004827Y009337D03*
D613*
X004821Y009339D03*
D614*
X004834Y009342D03*
D615*
X004839Y009349D03*
D616*
X005192Y009357D03*
D617*
X004846Y009357D03*
D618*
X005186Y009359D03*
X005586Y009534D03*
D619*
X004846Y009359D03*
D620*
X004846Y009362D03*
D621*
X004847Y009364D03*
D622*
X004846Y009367D03*
D623*
X005609Y009374D03*
D624*
X005581Y009387D03*
D625*
X005121Y009394D03*
X005111Y009399D03*
D626*
X005106Y009402D03*
X005116Y009397D03*
D627*
X005551Y009407D03*
D628*
X005409Y009427D03*
X005694Y009602D03*
X004749Y009537D03*
D629*
X005644Y009434D03*
D630*
X005651Y009437D03*
D631*
X005684Y009439D03*
D632*
X005041Y009439D03*
X004991Y009469D03*
X004966Y009484D03*
X004951Y009494D03*
X004811Y009454D03*
D633*
X005687Y009442D03*
D634*
X005599Y009447D03*
D635*
X004809Y009457D03*
D636*
G36*
X004317Y009462D02*
X004316Y009461D01*
X004315Y009462D01*
X004316Y009463D01*
X004317Y009462D01*
G37*
D637*
X005786Y009534D03*
D638*
X005596Y009549D03*
D639*
X005699Y009572D03*
M02*
